<?xml version="1.0" encoding="utf-8"?>
<!-- Generator: Adobe Illustrator 18.1.1, SVG Export Plug-In . SVG Version: 6.00 Build 0)  -->
<svg version="1.0" id="Logo" xmlns="http://www.w3.org/2000/svg" xmlns:xlink="http://www.w3.org/1999/xlink" x="0px" y="0px"
	 viewBox="0 0 777.2 271.5" enable-background="new 0 0 777.2 271.5" xml:space="preserve">
<g>
	<g>
		<path fill="#FFFFFF" d="M46.4,121.4c-5-3.4-15.5-8.8-19.6-11.2c-4.8-2.8-7.3-4-7.5-7.7c-0.1-1.8,0.1-3.3,1.4-4.7
			c1.9-2,5.2-2.3,10.6-2.2c6.6,0.2,15.2,1.2,21.4,2.5c0.1,0,0-13.1,0-16c-5.6-1.5-14.6-2.7-22-2.7C9.3,79.5,0,86.7,0,103.8
			c0,11.1,3.4,16,16.3,23.4c4.2,2.4,9.4,5.4,14.7,8.9c4.5,3,5.7,4.5,6.3,7.4c0.6,2.9-0.7,6.1-2.8,7.3c-3,1.9-6.2,2.1-14.2,1.6
			c-6.7-0.4-13.6-1.3-19.2-2.1c0,0,0,10.6,0,15.2c6.9,2.1,16,3.6,25.3,3.3c20.7-0.6,31.1-8.6,31.2-26
			C57.6,134.2,55.8,127.7,46.4,121.4"/>
		<path fill="#FFFFFF" d="M91,168.4c-13.3,0-19.2-4.5-19.3-17.9v-37.4l-9.6,0v-12.9h9.6V86.9l18.9-3.3v16.5c0,0,12.2,0,13.6,0v12.9
			c-1.4,0-13.6,0-13.6,0v34.5c0,2.4-0.1,4.3,0.5,5.2c0.6,0.9,0.8,1.3,2.6,1.4c2.2,0.2,7.7,0.1,11.2-0.2l0,12.8
			C101.2,167.9,94.9,168.4,91,168.4"/>
		<path fill="#FFFFFF" d="M142.3,99.1c-6.7-0.1-16.5,1.1-23,3l0,13.5c4.4-0.5,11.9-1.3,17.7-1.4c4.1-0.1,7.9,0.1,10.1,1.6
			c1.9,1.3,2.8,3.4,2.8,6.8v4l-5.8,0c-19.6,0-29.1,4.6-29.5,19.5c0,0.3,0,2.1,0,2.4c0,11,6.5,19.8,19.7,19.9
			c6.5,0,11.5-1.4,15.9-4.9v3.9h18.4v-44.8C168.7,105.8,157.9,99.3,142.3,99.1 M149.9,151.8c-2.3,1-4.7,2-8.6,2.1
			c-5.1,0.2-8.3-2.2-8.5-7c0-0.2,0-0.6,0-0.8c0-4.4,1.4-6.2,3.6-7.3c2.3-1.3,7.1-1.7,13.5-1.3L149.9,151.8z"/>
		<path fill="#FFFFFF" d="M349.5,99.1c-6.7-0.1-16.5,1.1-23,3l0,13.5c4.4-0.5,11.9-1.3,17.7-1.4c4.1-0.1,7.9,0.1,10.1,1.6
			c1.9,1.3,2.8,3.4,2.8,6.8v4l-5.8,0c-19.6,0-29.1,4.6-29.4,19.5c0,0.3,0,2.1,0,2.4c0,11,6.5,19.8,19.7,19.9
			c6.5,0,11.5-1.4,15.9-4.9v3.9h18.4v-44.8C375.9,105.8,365.1,99.3,349.5,99.1 M357.1,151.8c-2.3,1-4.7,2-8.6,2.1
			c-5.1,0.2-8.3-2.2-8.5-7c0-0.2,0-0.6,0-0.8c0-4.4,1.4-6.2,3.6-7.3c2.3-1.3,7.1-1.7,13.5-1.3L357.1,151.8z"/>
		<path fill="#FFFFFF" d="M221.6,167.3v-41.6c0-4.2-0.2-7.1-1.7-8.8c-2-2.2-4-2.7-7.9-2.4c-3.5,0.3-7.7,2-10.3,3.4l0,49.3h-18.9
			v-67.3l17.5,0v5.4c5.6-3.9,11.6-6.3,19.4-6.3c15.2,0,20.8,10.6,20.8,22.1v46.1H221.6z"/>
		<path fill="#FFFFFF" d="M291.8,77.5v21.4c-2.4-0.6-7.1-1-10.8-1c-8.3,0-15.1,2.2-19.6,6.4c-5.6,5.2-8.9,11.9-9,25.6
			c0,0.5,0,10.3,0,10.8c0,19.1,8.9,27.6,24.2,27.6c6.8,0,11.2-1.6,15.6-4.9c0,3.5,0,3.9,0,3.9h18.5V77.5H291.8z M291.8,151.7
			c-2.5,1.4-5.5,2.2-9,2.2c-3.6,0-6.2-0.8-8.1-2.7c-2.6-2.8-3.4-5.7-3.5-14.6c0-0.4,0-5.4,0-5.8c0-11.5,2-16.6,9.4-18.2
			c3.5-0.8,8.8-0.1,11.2,0.5L291.8,151.7z"/>
		<path fill="#FFFFFF" d="M473.2,77.5v21.4c-2.4-0.6-7.1-1-10.8-1c-8.3,0-15.1,2.2-19.6,6.4c-5.6,5.2-8.9,11.9-9,25.6
			c0,0.5,0,10.3,0,10.8c0,19.1,8.9,27.6,24.2,27.6c6.8,0,11.2-1.6,15.6-4.9c0,3.5,0,3.9,0,3.9h18.5V77.5H473.2z M473.2,151.7
			c-2.5,1.4-5.5,2.2-9,2.2c-3.6,0-6.2-0.8-8.1-2.7c-2.6-2.8-3.4-5.7-3.5-14.6c0-0.4,0-5.4,0-5.8c0-11.5,2-16.6,9.4-18.2
			c3.5-0.8,8.8-0.1,11.2,0.5L473.2,151.7z"/>
		<path fill="#FFFFFF" d="M428,99.3c-7.9-0.9-16.6,2.6-19.7,5.7v-4.9h-18.5v67.3h18.9v-48.6c4.1-2.6,11.4-4.6,19.3-4.1
			C428,114.7,428,100.9,428,99.3"/>
		<path fill="#FFFFFF" d="M669.3,113.2v-13.1c-2,0-15.1,0-15.1,0v-5c0-2.4,0-3.8,1-4.9c1.5-1.5,7.9-1.2,14.2-0.9V76.7
			c-2.9-0.6-8.9-1.4-13.6-1.4c-13,0-20.4,4.1-20.5,20.8v4H625v13.1h10.4c0,0,0,53.8,0,54.2h18.9v-54.2H669.3z"/>
		<path fill="#FFFFFF" d="M732.1,135.5c0-14.2-1-19.5-6.2-26.6c-3.9-5.2-11.5-9.8-22.2-9.8c-17,0-30.1,9.3-30.2,31.2
			c0,0.3,0,5.6,0,5.8c0,22.7,11.8,32.1,30.3,32.1c10.1,0,18.4-1.5,26.1-4.4c0-4.3,0-14,0-14c-7,1.6-17.7,3.8-25.6,2.9
			c-9.3-1-12.1-6.3-12.5-13.5l40.3,0C732.1,138.4,732.1,136.4,732.1,135.5 M691.9,127.2c0.1-9.9,5-13.9,11.4-14
			c6.6,0,11.2,4.2,11.4,14H691.9z"/>
		<path fill="#FFFFFF" d="M556.1,151.2c-0.9-0.1-1.7-0.2-2.2-0.7c-0.4-0.4-0.6-0.8-0.6-1.7V77.1h-20.1l0,73.9c0,6.9,1.4,10,4.1,12.6
			c2.7,2.6,6.9,3.7,11.5,4.2c8.9,0.9,25.5,0.8,34.7-0.7c0-4.7,0-12,0-15.9L556.1,151.2z"/>
		<g>
			<path fill="#FFFFFF" d="M614.6,79.8v15h-18.5v-15H614.6z M614.6,101.7v65.7h-18.5v-65.7H614.6z"/>
		</g>
	</g>
</g>
<linearGradient id="SVGID_1_" gradientUnits="userSpaceOnUse" x1="744.8227" y1="-4.361937e-009" x2="744.8227" y2="88.2027">
	<stop  offset="0" style="stop-color:#FFFFFF"/>
	<stop  offset="1" style="stop-color:#9C9C9C"/>
</linearGradient>
<polygon fill="url(#SVGID_1_)" points="712.4,49.6 732.1,88.2 777.2,0 "/>
<g>
	<g>
		<g>
			<linearGradient id="SVGID_2_" gradientUnits="userSpaceOnUse" x1="374.4118" y1="187.9871" x2="374.4118" y2="270.041">
				<stop  offset="0" style="stop-color:#E6E6E6"/>
				<stop  offset="1" style="stop-color:#9C9C9C"/>
			</linearGradient>
			<path fill="url(#SVGID_2_)" d="M381.6,271.5c-12.7,0-18.5-4.3-18.5-17.2v-36l-9.2,0v-12.4h9.2v-12.7l18.1-3.2v15.9
				c0,0,11.7,0,13,0v12.4c-1.3,0-13,0-13,0v33.2c0,2.3-0.1,4.1,0.5,5c0.6,0.9,0.8,1.2,2.6,1.4c2.1,0.2,7.4,0.1,10.8-0.2l0,12.4
				C391.4,271.1,385.4,271.5,381.6,271.5"/>
			<linearGradient id="SVGID_3_" gradientUnits="userSpaceOnUse" x1="653.6621" y1="187.9871" x2="653.6621" y2="270.041">
				<stop  offset="0" style="stop-color:#E6E6E6"/>
				<stop  offset="1" style="stop-color:#9C9C9C"/>
			</linearGradient>
			<path fill="url(#SVGID_3_)" d="M660.8,271.5c-12.8,0-18.5-4.3-18.5-17.2v-36l-9.2,0v-12.4h9.2v-12.7l18.1-3.2v15.9
				c0,0,11.7,0,13,0v12.4c-1.3,0-13,0-13,0v33.2c0,2.3-0.1,4.1,0.5,5c0.6,0.9,0.8,1.2,2.5,1.4c2.1,0.2,7.4,0.1,10.8-0.2l0,12.4
				C670.7,271.1,664.6,271.5,660.8,271.5"/>
			<linearGradient id="SVGID_4_" gradientUnits="userSpaceOnUse" x1="133.8098" y1="187.9872" x2="133.8098" y2="270.0403">
				<stop  offset="0" style="stop-color:#E6E6E6"/>
				<stop  offset="1" style="stop-color:#9C9C9C"/>
			</linearGradient>
			<path fill="url(#SVGID_4_)" d="M143.4,270.5v-40c0-4-0.2-6.8-1.6-8.5c-2-2.1-3.8-2.6-7.6-2.3c-3.3,0.3-7.4,1.9-9.9,3.3l0,47.4
				h-18.2v-64.7h16.8v5.2c5.4-3.8,11.1-6.1,18.6-6.1c14.6,0,20,10.2,20,21.3v44.3H143.4z"/>
			<linearGradient id="SVGID_5_" gradientUnits="userSpaceOnUse" x1="598.0444" y1="187.9872" x2="598.0444" y2="270.0403">
				<stop  offset="0" style="stop-color:#E6E6E6"/>
				<stop  offset="1" style="stop-color:#9C9C9C"/>
			</linearGradient>
			<path fill="url(#SVGID_5_)" d="M607.7,270.5v-40c0-4-0.2-6.8-1.6-8.5c-1.9-2.1-3.8-2.6-7.6-2.3c-3.3,0.3-7.4,1.9-9.9,3.3v47.4
				h-18.2v-64.7h16.9v5.2c5.4-3.8,11.1-6.1,18.6-6.1c14.6,0,20,10.2,20,21.3v44.3H607.7z"/>
			<linearGradient id="SVGID_6_" gradientUnits="userSpaceOnUse" x1="448.52" y1="187.9872" x2="448.52" y2="270.0403">
				<stop  offset="0" style="stop-color:#E6E6E6"/>
				<stop  offset="1" style="stop-color:#9C9C9C"/>
			</linearGradient>
			<path fill="url(#SVGID_6_)" d="M473.2,204.9c-7,0-12.3,2.3-17.4,6.1c0,0-1,0.7-2.1,1.8c-2.9-4.7-7.8-7.9-15.4-7.9
				c-7,0-12.3,2.3-17.4,6.1v-5.2h-15.7v64.7h17V223c2.3-1.4,6.1-3,9.3-3.3c3.6-0.3,5.3,0.2,7.1,2.3c1.3,1.6,1.5,4.4,1.5,8.5v40h17
				V223c2.4-1.4,6.1-3,9.3-3.3c3.6-0.3,5.3,0.2,7.1,2.3c1.4,1.6,1.5,4.4,1.5,8.5v40h16.9v-44.3C491.9,215.1,486.8,204.9,473.2,204.9
				z"/>
			<linearGradient id="SVGID_7_" gradientUnits="userSpaceOnUse" x1="81.3408" y1="187.988" x2="81.3408" y2="270.0401">
				<stop  offset="0" style="stop-color:#E6E6E6"/>
				<stop  offset="1" style="stop-color:#9C9C9C"/>
			</linearGradient>
			<rect x="71.7" y="186.3" fill="url(#SVGID_7_)" width="19.2" height="84.2"/>
			<linearGradient id="SVGID_8_" gradientUnits="userSpaceOnUse" x1="262.529" y1="187.9846" x2="262.529" y2="270.0417">
				<stop  offset="0" style="stop-color:#E6E6E6"/>
				<stop  offset="1" style="stop-color:#9C9C9C"/>
			</linearGradient>
			<path fill="url(#SVGID_8_)" d="M290.7,239.9c0-13.7-0.9-18.8-6-25.6c-3.7-5-11.1-9.4-21.3-9.4c-16.4,0-29,9-29.1,30
				c0,0.3,0,5.3,0,5.6c0,21.9,11.3,30.9,29.2,30.9c9.7,0,17.7-1.4,25.1-4.2c0-4.1,0-13.4,0-13.4c-6.7,1.6-17,3.6-24.6,2.8
				c-9-1-11.7-6-12-13h38.7C290.7,242.7,290.7,240.8,290.7,239.9 M252,231.9c0.1-9.6,4.8-13.4,11-13.4c6.3,0,10.8,4.1,11,13.4H252z"
				/>
			<linearGradient id="SVGID_9_" gradientUnits="userSpaceOnUse" x1="530.9004" y1="187.9846" x2="530.9004" y2="270.0417">
				<stop  offset="0" style="stop-color:#E6E6E6"/>
				<stop  offset="1" style="stop-color:#9C9C9C"/>
			</linearGradient>
			<path fill="url(#SVGID_9_)" d="M559.1,239.9c0-13.7-0.9-18.8-6-25.6c-3.7-5-11.1-9.4-21.3-9.4c-16.4,0-29,9-29.1,30
				c0,0.3,0,5.3,0,5.6c0,21.9,11.3,30.9,29.2,30.9c9.7,0,17.7-1.4,25.1-4.2c0-4.1,0-13.4,0-13.4c-6.7,1.6-17,3.6-24.6,2.8
				c-9-1-11.7-6-12-13h38.7C559.1,242.7,559.1,240.8,559.1,239.9 M520.4,231.9c0.1-9.6,4.8-13.4,11-13.4c6.3,0,10.8,4.1,11,13.4
				H520.4z"/>
		</g>
	</g>
	<linearGradient id="SVGID_10_" gradientUnits="userSpaceOnUse" x1="324.2433" y1="187.9849" x2="324.2433" y2="270.041">
		<stop  offset="0" style="stop-color:#E6E6E6"/>
		<stop  offset="1" style="stop-color:#9C9C9C"/>
	</linearGradient>
	<path fill="url(#SVGID_10_)" d="M344.5,207c-5.4-1.3-12.3-2.3-18.8-2.3c-10,0-16.7,1.9-20.7,5.8c-3.1,3-4.7,8-4.7,13
		c0,7.2,2.9,11.5,7.5,14.6c7.1,4.7,13.5,6.8,19.4,10.9c2.4,1.7,2.6,3.3,2.1,5.1c-0.7,2.5-4.7,3.1-11.7,2.8c-6-0.3-12.5-1.1-16.4-1.8
		v13.4c4.8,1.6,12.8,2.8,19.6,2.8c11,0,18.2-2.4,22.3-6.5c3.3-3.3,5.1-7,5.1-14.2c0-6.2-2.5-11.5-8.2-15.1
		c-7.9-5-15.5-7.7-19.4-10.2c-2-1.3-2.5-2.7-2-4.2c0.3-0.9,1.2-1.5,2.7-1.8c1.8-0.3,4.4-0.3,7.8,0c5.5,0.4,11.2,1.2,15.4,2
		L344.5,207z"/>
	<linearGradient id="SVGID_11_" gradientUnits="userSpaceOnUse" x1="706.9028" y1="187.9849" x2="706.9028" y2="270.041">
		<stop  offset="0" style="stop-color:#E6E6E6"/>
		<stop  offset="1" style="stop-color:#9C9C9C"/>
	</linearGradient>
	<path fill="url(#SVGID_11_)" d="M727.1,207c-5.4-1.3-12.3-2.3-18.8-2.3c-10,0-16.7,1.9-20.7,5.8c-3.1,3-4.7,8-4.7,13
		c0,7.2,2.9,11.5,7.5,14.6c7.1,4.7,13.5,6.8,19.4,10.9c2.4,1.7,2.7,3.3,2.1,5.1c-0.7,2.5-4.7,3.1-11.7,2.8c-6-0.3-12.5-1.1-16.4-1.8
		v13.4c4.8,1.6,12.8,2.8,19.6,2.8c11,0,18.3-2.4,22.3-6.5c3.3-3.3,5.1-7,5.1-14.2c0-6.2-2.5-11.5-8.2-15.1
		c-7.9-5-15.5-7.7-19.4-10.2c-2-1.3-2.5-2.7-2-4.2c0.3-0.9,1.2-1.5,2.7-1.8c1.8-0.3,4.4-0.3,7.8,0c5.5,0.4,11.2,1.2,15.4,2
		L727.1,207z"/>
	<linearGradient id="SVGID_12_" gradientUnits="userSpaceOnUse" x1="198.5605" y1="187.987" x2="198.5605" y2="270.0402">
		<stop  offset="0" style="stop-color:#E6E6E6"/>
		<stop  offset="1" style="stop-color:#9C9C9C"/>
	</linearGradient>
	<path fill="url(#SVGID_12_)" d="M210.8,205.8L198.6,255l-12.2-49.2h-19.6l17.6,58.5c1.5,5.2,5.2,6.8,11,6.8h6.4
		c5.7,0,9.4-1.7,11-6.8l17.6-58.5H210.8z"/>
</g>
</svg>
