<svg version="1.1" id="Layer_1" xmlns="http://www.w3.org/2000/svg" x="0" y="0" width="430.7" height="496" viewBox="87.5 150.5 430.7 496" enable-background="new 87.5 150.536 430.719 495.964" xml:space="preserve"><path fill="#005596" d="M202 515c0.5 0 0.7-0.5 0.7-1.7l-0.7-1.2h-1c-0.2 0.2-0.2 0.5 0 1.2C201.3 514.5 201.8 515 202 515M196.9 515l1.5-1 -0.5-1.5 -1.2-0.2 -0.5 1.2C195.9 514.5 196.1 515 196.9 515M214.6 376.9l1.5 1 1.2-0.2 -0.5-1 -1.7-1 -1-0.7 -1-0.2v1L214.6 376.9M209.9 438.9l-1 0.5 -0.2 1.2 0.5 0.7 1.2-0.5 0.2-1.2L209.9 438.9M198.3 340.8c1 0.2 1.5 0.5 2 0.5l0.7-0.2c0.2-0.2 0-0.7-1-1 -0.7-0.2-1.5-0.5-1.7-1l-1-1 -1.2-0.5 -0.2 1C196.6 339.5 197.4 340.3 198.3 340.8M199.3 347.6l-1-0.2v1.2c0.2 0.7 1 1.2 1.7 1.7 1 0.2 1.5 0.5 1.7 0.5l1-0.5c0.2-0.2 0-0.7-0.5-1 -1-0.5-1.7-1-2-1L199.3 347.6M216.1 532.5c-1.7 0-3.7 0-5.9-0.2 -2.2-0.2-4.2-0.2-6.2-0.5 -0.7 0-1 0.2-1 0.5 0 0.5 1.5 1 4.4 1.2 3 0.5 5.9 0.5 8.9 0.5 2.2 0 4.9-0.5 7.9-1.2 3-0.7 4.4-1.5 4.4-2.2 -0.7 0-1.5 0.2-2.5 0.2C222 532 218.5 532.5 216.1 532.5M201.3 356.3c-0.5 0-0.5 0.5 0 1.2 0.2 0.7 1 1.2 1.5 1.7 0.7 0.5 1.2 0.5 1.7 0.5l1-0.5 -0.2-1c-0.5-0.2-1.2-0.5-2.2-1l-0.7-0.7L201.3 356.3M209.7 368.3l1.5 0.5 1-0.5 -0.2-1.2 -1.2-1 -1.2-0.5h-1.5v1.5C208.4 367.6 208.9 368.1 209.7 368.3M207.4 515.2c0.5 0 0.7-0.5 0.7-1.7l-0.7-1.2h-1v1.2C206.7 514.7 207.2 515.2 207.4 515.2M179.4 356.5c-2.5-2.2-4.2-3.2-5.2-3.2l-0.7 0.2 -0.2 1c0 1 0.2 1.7 1 2.7 1 1.2 2.5 3 4.7 4.9 1.7 1.5 3.9 3 7.1 4.2 1.5 0.2 3 0.5 4.2 0.7 0.2-0.7-0.7-2-2.5-3.7 -1-1-2.7-2.5-4.9-4.2C181.4 358.2 180.1 357.2 179.4 356.5M176.9 335.6c-1.5-1.5-2.7-2.7-4.2-3.9 -1.7-1.5-3-2-3.7-2l-1 0.5 -0.2 1c0 1 0.5 2.5 1.5 4.2s2.2 3.2 3.7 4.4c1.2 1.2 3.2 2.2 5.4 3.2 1.2 0.2 2.5 0.2 3.7 0.5v-0.7c0-1.2-0.5-2.5-1.7-3.7C179.1 337.6 178.2 336.6 176.9 335.6M216.8 382.8v1.2c0.2 0.5 0.7 1 1.5 1.5s1.5 1 1.7 1l1-0.2 -0.2-1.5 -1.2-0.7c-0.5-0.2-1-0.7-1.7-1.2H216.8M204.7 427.9h-1.5c-1 0-1.7 0-2.7 0.5 -0.7 0.5-1.2 0.7-1.5 1.2 0 0.2 0.2 0.5 1 0.5 0.7 0.2 1.5 0.2 2.5 0.2 1.7-0.2 2.7-1 3-2L204.7 427.9M197.6 382.1c-1-0.5-2.7-1.2-4.9-2 -0.7-0.2-1.5-0.5-2-0.5h-1.7c-1 0-2.2 0-3.2 0.2 -1.2 0.2-1.7 0.5-2 0.7 0 0.2 1.2 1.2 3.7 3s4.9 2.7 6.9 3.2c1 0.2 1.7 0.2 2.5 0.2 1.5 0 2.5-0.5 3-1.2l0.5-1.2C200.3 384.1 199.3 383.1 197.6 382.1M217 450.8l-1.2 0.5 -0.2 1.2 0.7 0.5c0.5 0.2 1 0 1.5-0.7v-1L217 450.8M229.6 523.3c-0.5 0-4.2 0.5-11.1 1.2 -2.7 0.2-4.7 0.5-6.6 0.5 -2.2 0-4.7-0.2-7.6-0.7s-6.2-1-9.6-1.7c-1 0-1.5 0.2-1.5 0.7 0 2 2.2 3.4 6.9 4.4 3.4 0.7 7.6 1.2 12.8 1.2 3.4 0 7.4-0.7 12.1-2 4.4-1.2 6.9-2.5 6.9-3.2C231.6 523.6 230.8 523.3 229.6 523.3M196.1 403c-0.5-0.5-2-0.7-3.9-1.5 -1-0.2-2.2-0.5-3.7-0.5 -0.7 0-1.5 0-2.2 0.2l-1.2 0.7c0 0.5 0.5 1 1.7 1.7s3 1.5 4.9 2c1.2 0.2 2.2 0.2 3 0.2 1 0 1.7-0.2 2-0.7l0.2-0.7L196.1 403M220.2 435.7c0-0.2-0.7-1.7-1.7-4.7 -0.7-1.7-1.2-3.4-1.5-4.7s-0.5-2.7-0.5-4.2c0-0.5 0.2-1.7 0.5-3.4 0.5-1.7 0.5-2.7 0.7-3.4 0-0.5-0.2-1.2-0.5-2s-0.2-1.7-0.2-2.2c0-0.2 0.5-1 1.2-2 1.7-2.2 2.7-3.7 3-4.4l0.2-1 0.2-1.2 -0.5-1 -0.5 0.5c-0.7 1-1.5 2-2.2 2.7s-1.5 1.5-2.2 2.5c-0.7 0.7-1.2 1.7-1.7 2.5 -0.2 0.7-0.5 1.7-0.5 2.7s0 2-0.2 3.2 -0.2 2.5-0.5 3.7 -0.2 2.5-0.2 3.7c0 1.5 0 3.2 0.2 4.7s0.5 3 1 3.9c0.5 1.2 1 2.5 2.2 3.9 1 1.5 1.5 2.2 1.7 2.7s0.5 1 0.5 2c0.2 1 0.5 1.5 0.7 2s0.7 0.7 1.7 1.2c1 0.2 1.5 0.7 1.7 1.2s1.2 1.5 2.5 3.2c1 1.2 1.7 2 2.7 2.7 1.5 1.2 3.4 2.5 5.4 3.7 1.2 0.5 3 1.5 4.9 2.5 0.5 0.2 1.2 1 2 1.7 0.7 1 1.2 1.7 2 2 0.5 0.2 1.5 0.5 2.5 0.5h1.5c1 0 1.7 0.2 2.5 0.5l1 0.5c0.5 0.2 1.2 0.7 2.2 1.2 1 0.7 2.2 1 3.2 0.7l1.2-0.2 1.2-0.2c0.2 0 1.5 0.2 3.2 1 1.7 0.7 3.4 1 4.7 1 0.5 0 1.5 0 2.5 0s1.7 0 2.5 0c0.5 0 1.5 0.2 2.2 0.7 1 0.5 1.7 0.5 2.2 0.5 0.7 0 1.5 0 2.2-0.2 0.7-0.2 1.5-0.2 2-0.2l2.7 0.5c1 0.2 2 0 3.4-0.2 1.2-0.2 2.2-0.5 3-0.5 0.2 0 1 0 2.2 0.2 1 0.2 2 0.2 2.7 0.2 0.2 0 0.7-0.2 1.7-0.5 0.7-0.2 1.5-0.2 2-0.2s1.2 0.2 2.5 0.5 2 0.5 2.7 0.5c1.7 0 3.9 0.2 6.6 0.5 2.7 0.2 4.4 0.5 5.2 0.5l1.2 0.7 1.5 0.7c0.2 0 1-0.2 1.7-0.5s1.5-0.5 2-0.5c0.7-0.2 1.7 0 3 0.5 1.2 0.5 2.2 0.7 2.7 0.7 2.5 0 5.2-0.5 7.9-1.5 1.7-0.5 3.2-1 4.2-1.2s2.2-0.2 3.2-0.5c1-0.2 2-0.2 3-0.7 1-0.2 2.5-1.2 4.4-2.5 1-0.5 1.5-1 2.2-1.2l1.5-0.2c0.2 0 1 0 2 0.2h1.5 0.7c1.7-0.7 2.7-1.5 3.4-2.2 0.7-0.7 1.5-1.5 2.5-2.7 0.5-0.2 1.5-0.7 2.5-1 1-0.5 2-0.7 2.5-1.2 0.2 0 0.5-1 1.5-2.5l1.5-1.5c0.7-0.5 1.7-1 3.4-1.5 1.5-0.5 2.5-1.2 3-2 0.5-0.7 0.7-1.7 1-2.7s0.5-2 0.7-2.5l1.5-1.2c1-0.5 1.7-1.2 2-2 0.2-1 0.2-1.7 0.5-2.7s0.5-1.7 0.7-2.2 1-1.5 2.2-2.7c0.5-0.7 1-1.5 1.2-2 0-0.2 0-1-0.2-1.7 -0.2-0.7-0.5-1.5-0.5-2.2s0.2-1.7 0.5-3 0.5-2 0.5-2.7 -0.5-1.7-1-2.7 -1-2-1-2.7c0-0.2 0-0.7 0-1.7 0-0.7 0-1.5 0-1.7l-1.2-1.7 -1.2-1.2c-0.7-1-1.5-2-2-3 -0.5-0.5-1-0.7-1.7-0.7l-0.5 0.7c0 0.2 0.5 1.7 1.5 4.7 0.5 1.2 0.5 2.2 0.5 3s0.2 1.5 1 2.7 1 2.2 1 3 -0.2 1.5-0.5 3c-0.2 1.2-0.5 2.2-0.5 2.7 0 0.7 0.2 1.7 0.7 3s0.5 2.2 0.5 3c-0.2 0.5-0.5 1.2-1.2 2s-1.2 1.2-1.2 1.7c-0.2 1.7-0.7 3.4-1 4.9 -0.5 0.7-0.7 1.5-1.2 2 -0.2 0.5-0.7 1-1.5 2 -0.2 0.5-0.7 1.2-1.2 2.2s-1 1.7-1.5 2.2c-0.7 0.7-1.7 1.5-3 2.2s-1.7 1.2-2 1.2c-0.7 0.2-1.2 0.7-1.7 1.5l-1.5 1.5c-0.5 0.5-1.5 0.7-3 1.2 -1 0.2-1.5 0.5-2 0.5 -0.2 0.2-1 0.7-1.7 1.7l0 0 -0.5 0.5 0 0c-1 1.5-1.7 2.2-2.7 2.5 -0.7 0.2-1.7 0.5-3.2 0.5h-1.5l-1.7 0.2c-0.5 0.2-1.5 0.7-3.2 2 -0.7 0.5-1.5 1-2.2 1.2 -2.2 0.2-4.4 0.5-6.6 0.7 -0.5 0.2-2 0.5-3.9 1.5 -1.2 0.5-2.7 0.7-3.9 0.7 -0.5 0-1.2 0-2.5-0.2 -1-0.2-2-0.2-2.7-0.2 -0.2 0-1 0-2 0.2s-2 0.2-2.5 0.2 -1.2-0.2-2.2-0.7c-0.7-0.5-1.5-0.7-2.2-0.7h-1.7c-0.7 0.2-1.2 0.2-1.7 0.2 0 0-0.5 0-1.2-0.2 -0.7 0-1.5-0.2-2-0.2l-4.7 0.2c-1.7-0.2-3.2-0.7-4.9-1.2 -0.7-0.2-1.7-0.2-3-0.2 -1 0-2.7 0.2-5.4 0.7s-4.9 0.7-6.6 0.7c-0.5 0-1.2 0-2.2-0.2s-1.5-0.2-2-0.2 -1.2 0-2.2 0c-0.7 0-1.7 0-2.2-0.2 -0.7 0-1.5-0.2-2.5-0.7s-2-0.5-2.7-0.5c-0.2 0-1 0-1.7 0.2s-1.5 0.2-2 0.2 -1.2-0.2-2.5-0.5c-1-0.2-2-0.5-2.7-0.5 -0.7 0-2 0-3.4 0.2 -1 0.2-1.7 0.2-2.2 0.2l0 0h-1l-1-0.2h-0.2c-1.2-0.7-2.5-1.5-3.7-2.2l-1.5-1c-0.5-0.2-1.5-0.5-2.7-0.5s-2-0.2-2.7-0.7c-2.5-1.5-4.7-3-6.4-3.9 -1.7-1.2-3.2-2.2-4.2-2.7 -0.7 0-1.5 0-2.2 0 -0.7-0.2-1.5-1-1.7-2.2s-1-2.5-2-3.4c-0.7-0.7-1.5-1.5-2.2-2.2 -0.5-0.7-1.2-1.5-2-2.5C221.7 438.7 221 437.2 220.2 435.7M228.4 459.9l-1.5 0.7 -0.5 1.5 0.5 0.5 2-0.5 0.5-1.7L228.4 459.9M221.2 394.6c0.2 0.5 1 0.7 1.7 0.7l1-0.5 -0.2-1.2 -1.7-1c-0.7-0.2-1.2-0.2-1.2-0.2C220.2 392.9 220.2 393.7 221.2 394.6M239.2 466.5c-0.5 0-1 0.5-1.7 1.2s-1 1.5-1 2.2l0.7 0.7c0.5 0.2 1.2 0.2 2.2-0.5 0.7-0.7 1.2-1.5 1.2-2.2l-0.2-1L239.2 466.5M200.8 417.3c0.2-0.7 0-1.2-0.5-1.5s-1.2-0.2-2.2-0.2c-0.7 0-1.5 0-1.7 0 -1 0-1.7 0.2-2.7 0.5 -0.7 0.5-1.2 0.7-1.5 1.2 0 0.2 0.2 0.5 1 0.7s2 0.2 3.7 0.2C199.1 418.5 200.6 418 200.8 417.3M184.8 511.5c-0.2 0.2-0.2 0.7-0.2 1.7 0 0.5 0 1.2-0.2 2.2l0.7 1c0.7 0 1.2-0.7 1.2-2.2 0-1-0.2-1.7-0.7-2.5L184.8 511.5M214.3 514.5l0.7 0.2c0.2 0 0.5-0.5 0.5-1.2l-0.7-1.2h-1v1.5L214.3 514.5M190.7 511.5c-0.2 0.2-0.2 1-0.2 1.7 0 1 0.2 1.7 0.5 1.7l1.2-1c0.2-0.7 0-1.7-0.7-2.5H190.7M188 483.2c1 0 2.2-0.5 4.2-1.7 2-1.2 3.4-2.2 4.7-3.4 0.7-0.7 1.5-1.7 2-2.7s0.7-2 0.7-3l-0.5-1.2 -1-0.5c-1 0-2 0.5-3.2 1.2 -0.5 0.5-1.7 1.2-3.2 2.7 -1.5 1.2-2.7 2.5-3.4 3.7 -1 1.5-1.5 2.7-1.5 3.7l0.2 1L188 483.2M224.7 513.5l0.5-1 -0.5-1 -1-0.2 -0.5 1.2 0.5 1H224.7M219 513.8h0.7c0.2 0 0.5-0.5 0.5-1.2l-0.7-1.2h-1v1.2L219 513.8M277.6 255.9c0.7 0 1.2-0.5 1.2-1l-0.2-1 -1-0.5c-1 0-1.2 0.5-1.2 1.5S276.8 256.3 277.6 255.9M270.7 251.9c1 0 1.5-0.5 1.5-1.2s-0.5-1-1.5-1c-0.7 0-1.2 0.2-1.2 0.7l0.2 1L270.7 251.9M293.1 271.9c1 0 1.5-0.5 1.7-1.2l-0.7-1.2 -1.5-0.5 -0.7 0.5 -0.5 1.2 0.5 1L293.1 271.9M264.3 256.6c0.7 0 1.2-0.5 1.2-1.2 0-1-0.5-1.5-1.5-1.5 -0.5 0-1 0.5-1 1.5C263.1 256.1 263.6 256.6 264.3 256.6M278.3 299.7l-0.5 1.2 0.5 1 1 0.2c0.5 0 1-0.5 1-1.2l-0.2-1 -0.7-0.5L278.3 299.7M292.6 290.8h2 1.2l0.7 0.2c0.2 0 0.5 0.7 0.7 1.7 0.2 1.2 1 1.7 2.2 1.7 0.7 0 1.7-0.5 2.5-1.2 1-1 1.7-1.7 2.2-2 0.2-0.2 1.2-0.5 2.5-0.5 1.5-0.2 2-0.5 2-1.2 0-0.2-0.2-1-0.5-2.5 -0.2-1.2-0.5-2.2-0.5-3 0-0.5 0.2-1 0.5-1.7s0.5-1.2 0.5-1.5 -0.5-1.2-1.5-2.5c-1.5-2-2.2-3.2-2.7-3.9 -0.7-1-1.2-2-2-3 -1.2-1.7-2-2.5-2.5-2.5s-1.2 0.7-2 2.5c-1 2.2-1.7 3.7-2.2 4.2 -1 1.7-1.7 2.7-2 3 -0.7 1-1.5 2-2.2 2.5 0.5 1.5 1.2 2.7 1.7 3.4 -0.5 2.5-1.2 4.2-2 5.4L292.6 290.8M300 262.3l-1.2 1v1.2l1.2 0.2c1 0 1.5-0.2 1.5-1l-0.2-1L300 262.3M268.2 319.3c0 0 0.5 1 1.7 2.7 0.7 1.2 1.7 2 3 2 0.7 0 1.2-0.5 1.7-1.5s1-1.5 1.5-1.7c0.2-0.2 1.2-0.5 3-0.5 1.5 0 2.5-0.5 2.5-1.2 0-0.2-0.5-1-1.2-2.2s-1.2-2.2-1.2-3c0-0.2 0.5-0.7 1.2-1.5l0.5-1c0-0.7-0.7-2.2-2-4.2 -1.2-2-3-4.7-5.2-7.9 -1.5 1.2-3 3-4.7 4.9s-2.7 3.4-3.4 4.7c0 0 0.2 0.7 0.7 2s0.7 1.7 1 2c-0.2 1.2-0.7 2.5-1.2 3.7s-1.2 2-2 2.5c0.7 0.5 1.7 0.7 2.7 0.7L268.2 319.3M272.4 276.3c0.7-1 1.2-1.5 1.5-1.7l1-0.2c0.5 0 1 0 2 0 1 0 1.5-0.2 1.5-0.7 0-0.2-0.2-1-1-2.5s-1-2.5-1-3l1-1.2 1-1.2c-0.2-1-1.7-3.2-4.4-6.6 -1.5-1.7-2.5-3.2-3.2-4.4 -1.5 1.2-3.2 3-4.9 5.4 -1.5 1.7-2.5 3.4-3.4 5.2l1.2 1.5 1.2 1.2c-0.2 1.2-0.5 2.5-1 3.7s-1 2.2-1.5 2.7c0.5 0.5 1.5 0.7 3 0.7 0.7 0 1.2 0 1.7 0.2s0.7 0.7 1.2 1.5c0.5 1 1.2 1.2 2 1.2S271.9 277 272.4 276.3M251.2 471.4c-0.5 0-0.7 0.5-1 1.2s-0.2 1.7-0.2 2.5l0.7 0.5 1-0.5c0.2-0.7 0.5-1.5 0.5-2.2l-0.2-1.2L251.2 471.4zM322.1 513.5h-1v1l0.5 1 1 0.2 0.5-1L322.1 513.5M273.6 293.3c-0.5 0.2-1 0.7-1 1.5s0.2 1.2 1 1.2l1-0.2 0.5-1.2C275.1 293.5 274.6 293 273.6 293.3M267.2 302.4l1.2-0.5 0.5-1.2 -0.5-1 -1-0.5 -0.7 0.5 -0.5 1.2C266.8 301.9 267 302.4 267.2 302.4M336.1 254.9l0.5-1.2c0-0.7-0.5-1-1.2-1s-1 0.2-1 1C334.7 254.9 335.2 255.4 336.1 254.9M322.9 301.6c1.2 0 1.7-0.5 1.7-1.7 0-1-0.5-1.7-1.2-1.7l-1.2 0.7 -0.7 1.5C321.6 301.4 322.1 301.6 322.9 301.6M330 295.7l0.5-1.5 -0.5-1 -1-0.2c-1 0.2-1.5 0.7-1.5 1.5 0 1 0.5 1.5 1.5 1.7L330 295.7M334.7 300.6l1 0.2 0.5-1 -0.7-1.2c-1-0.2-1.5 0.2-1.5 1.2L334.7 300.6M315.2 514l-0.2 0.7 0.5 1.2h1l0.5-1 -0.7-1.2L315.2 514M306.1 268.9c-0.7 0-1.2 0.5-1.2 1.2l0.5 1h1.2l1-1C307.8 269.4 307.4 268.9 306.1 268.9M335.9 312l0.5-1.5c0-1.2-1-3.2-2.7-5.9 -2-2.7-3.4-4.2-4.4-4.7 -1.2 1-2.7 3-4.4 5.7 -1 1.7-2 3.7-3 5.4l1 1.7 0.5 1c-0.2 1-0.5 2-1.2 2.7 -0.2 0.2-0.5 0.7-1.5 1.7 0.7 0.7 1.5 1.2 2.5 1.2 0.7 0 1.5-0.2 2.2-0.7 0.2 0.2 1 1 2 2.7 0.7 1.2 1.7 1.7 2.5 1.7s1.7-0.7 2.7-2c1-1.5 1.7-2.2 2-2.5s1-0.2 2-0.5c1 0 1.5-0.5 1.5-1 0-0.2-0.5-1-1.2-1.7s-1.2-1.7-1.2-2.2L335.9 312M329.5 251.9l1-0.2 0.5-0.7 -0.5-0.7 -1-0.2 -1.2 0.5 0.2 1L329.5 251.9M268 475.4c-0.5 0-0.7 0.5-1 1.2 0 0.7 0 1.5 0 2l0.2 0.2 0.5 0.2 1-0.5c0.2-0.5 0.5-1.2 0.5-1.7l-0.2-1L268 475.4M306.4 222.4l1.2 0.2c0.7-0.2 1.2-0.7 1.2-1.2 0-0.7-0.5-1-1.5-1s-1.5 0.2-1.5 1L306.4 222.4M293.1 240.4c-0.5 1.5-1 2.5-1.5 3l1.7 0.7h2 1.2l1 0.2c0.5 0.2 0.7 0.5 1.2 1.5 0.5 0.7 1 1.2 1.5 1.2 0.7 0 1.5-0.5 2-1.5s1.2-1.5 1.5-1.7c0.5-0.2 1.2-0.2 2.7-0.2 1 0 1.5-0.2 1.5-0.7 -0.5-1.5-1.2-3-1.7-4.4 -0.5-1.5-0.7-2.5-0.7-3l0.7-1.2c1-0.7 1.5-1.2 1.5-1.7 0-1.5-1-3.7-3-6.4 -0.7-1-1.2-2-1.7-2.7 -0.7-1.5-1.2-2-1.7-2s-1.5 0.7-2.5 2c-0.5 0.7-1.5 2-2.7 3.7 0 0-0.5 1-1.5 2.7 -1.2 2.2-2.2 3.7-3 4.2 1.7 0.7 2.5 1.5 2.5 2.5l-0.2 1.2C294.1 237.9 293.6 238.9 293.1 240.4M301.2 217.5c0.7 0 1.2-0.2 1.5-1l-0.2-1 -1-0.5 -1.5 1v1.2L301.2 217.5M320.2 273.3c0.2 0.5 1 0.5 2.2 0.5h1.7 1.2l1 0.5c0.2 0.2 0.5 1 1 2 0.5 1.2 1.2 1.7 2 1.7s1.5-0.5 2-1.7c0.5-1 1-1.7 1.5-2s1.2-0.5 2.5-0.5c1.2-0.2 2-0.5 2-1.2 0-0.2-0.2-0.7-0.7-2 -0.5-1-0.7-2-0.7-2.5l0.7-1.5 0.7-1.5c0-1.2-1-3.2-3-5.7 -2-2.7-3.4-4.2-4.7-4.7 -1.5 1.2-3 3-4.9 5.2 -1.5 1.7-2.5 3.4-3.2 4.9l0.7 1.2 1 1.2c-0.2 0.7-0.5 1.7-1 2.7C321.1 271.1 320.6 272.3 320.2 273.3M322.9 255.6c0.7 0 1.2-0.5 1.2-1.2 0-1-0.5-1.2-1.5-1.2 -0.7 0-1.2 0.5-1.2 1.2S321.9 255.6 322.9 255.6M295.3 223.1l1-0.5v-0.7c0-0.7-0.5-1.2-1.2-1.2 -0.5 0-0.7 0.2-0.7 1l0.2 1L295.3 223.1M357.8 527.3c-0.7 0-2.5 0-5.2 0s-4.7 0-6.4 0c-2.7 0-5.4-0.2-8.1-0.7 -2.7-0.5-5.4-1-8.4-1.5l-1 0.7c0 0.7 2.2 1.7 6.6 3 4.4 1.2 8.4 1.7 11.6 1.7 2.7 0 5.9-0.2 9.8-1 3.9-0.5 5.7-1 5.7-1.5C362.2 527.8 360.8 527.3 357.8 527.3M303.9 478.8c-0.7 0-1 0.5-1.2 1.2 0 0.7 0 1.5 0 2l0.2 0.2 0.5 0.2 1-0.2c0.2-0.5 0.5-1 0.5-1.7l-0.2-1.2L303.9 478.8zM292.3 478.3c-0.5 0-0.7 0.5-1 1.2 0 0.7 0 1.5 0 2l0.2 0.2 0.5 0.2 1-0.5 0.5-1.7 -0.2-1L292.3 478.3zM356.8 533.9c-1 0-2.2 0-3.4 0h-4.2c-3.9 0-7.1-0.2-9.6-1l-0.7 0.2c0 0.5 1.2 1 3.9 1.5 2.5 0.5 4.9 1 7.4 1 0.7 0 2.5 0 4.9-0.2 2.5-0.2 3.7-0.5 3.7-1.2C358.5 533.9 358 533.9 356.8 533.9M343.8 473.9l-0.7 1v1.7l0.5 0.7 1-0.2 0.2-1.5 -0.2-1.2L343.8 473.9M314.2 479.1c-0.5 0-0.5 0.5-0.5 1.5v1.7l0.2 0.2 0.5 0.5 0.7-0.2 0.2-1.5c0-0.7 0-1.2-0.2-1.7L314.2 479.1zM327.3 512.8h-0.7v0.7l0.2 1.2 0.7 0.2 0.5-1.2L327.3 512.8M332.7 475.9l-0.5 1c0 0.5 0 1 0 2l0.2 0.2 0.5 0.2h0.7l0.2-1.2c0-0.5-0.2-1.2-0.5-2L332.7 475.9zM323.8 478.6c-0.5 0-0.7 0.5-0.7 1.5v1.5l0.2 0.2 0.5 0.2 0.7-0.2 0.2-1.5 -0.5-1.5L323.8 478.6zM334.7 515.5l0.2-0.7 -0.5-1 -1-0.2v1l0.5 1H334.7M348.7 515.2l1-0.2 -0.5-1 -0.7-0.2 -0.5 0.5L348.7 515.2M280.8 476.1c-0.5 0-0.7 0.5-1 1.2 0 0.7 0 1.5 0 2l0.2 0.5 0.5 0.5c0.5 0.2 1 0 1.2-1s0.2-1.7 0-2.2L280.8 476.1M343.5 515.2l0.5-0.7 -0.5-1h-0.7l-0.2 0.7C342.5 515 342.8 515.2 343.5 515.2M384.6 380.6c0.5 0 1.2-0.5 1.7-1.2l0.2-0.5v-0.7h-1.2l-1.2 0.5c-0.7 0.7-1 1.2-0.5 1.7L384.6 380.6M396.7 355.5l1.5-1.5 1.2-0.7 0.5-1.2c-0.5 0-1.2 0.2-2 0.2l-1.7 1c-0.7 0.7-1 1.2-1.2 1.7l0.2 1L396.7 355.5M480.3 513l0.7-0.5 -0.7-1.2 -1.2-1c-0.2 0.2-0.2 0.7 0 1.5C479.1 512.8 479.6 513 480.3 513M388.1 373l1.2-1.5 1.2-1 0.5-1.5h-1c-1.5 0.2-2.2 0.7-2.7 1.2 -0.5 0.7-0.7 1.5-0.7 1.7l0.2 0.7h1.2M393 365.1l1.2-1.2 1.2-1 0.2-1.2 -0.7 0.2c-1 0.2-2 0.7-2.2 1.2l-1.2 1.2v1L393 365.1M382.9 387.3l1.2-1.2 0.5-0.5v-0.7l-1.5 0.2 -1 0.5 -1 0.7v0.7L382.9 387.3M411.9 477.3c-0.7-2-2-3.7-3.2-5.2 -1.7-2-3-2.7-4.2-2 -0.2 0.2-0.5 0.7-0.5 1.5 0 1.2 0.5 3.2 1.2 6.2 0.5 1.5 0.7 2.5 1 3 1 2 2.2 3.7 3.7 5.2s2.7 2 3.7 1.7c0.5-0.2 0.7-0.7 0.7-1.5 0-1-0.2-2.7-1-4.4C413.2 480.8 412.7 479.3 411.9 477.3M398.9 347.2l1-1c0.5-0.5 1-1 2-1.5v-1c-0.7 0-1.5 0.2-2.2 0.2 -0.7 0.2-1.2 0.5-1.5 0.7l-0.7 1.5 0.2 1.2L398.9 347.2M379 395.9l1.2-0.2c0 0 0.5-0.5 1-1.2l0.7-0.5v-1h-1.5l-1.2 0.5 -0.7 0.7 -0.2 0.7L379 395.9M495.4 513.5h1l-0.5-1 -1-0.5 -0.5 0.5C494.4 513 494.6 513.3 495.4 513.5M354.6 516l0.7-0.5 -0.7-1.2 -1.5-0.5v1.2L354.6 516M474.9 512.8l1-0.2 -0.5-1.2 -1-0.2 -0.2 0.7C473.9 512.5 474.2 512.8 474.9 512.8M490.7 513l1-0.5 -0.5-0.7c-0.7-0.7-1.2-1-1.5-0.7v1C489.5 512.8 489.9 513 490.7 513M406 388.2c1.7 0 3.4-0.2 5.2-0.5s3.4-0.7 4.9-1.5c1.5-0.5 3.4-1.5 6.4-2.5 2-1 3-2.5 3-3.9 0-0.7-0.7-1-2.5-1 -1.2 0-3 0.2-4.9 0.7s-3.9 1-5.4 1.5 -3.7 1-6.6 1.7c-2.2 0.7-3.2 2.2-3.2 4.2C402.8 388 403.8 388.2 406 388.2M401.8 436.5c0.5 0 1 0.2 2 0.2l0.7-0.5 -0.5-0.5 -0.7-0.7 -1.2-0.2c-0.5 0-1 0.2-1 1L401.8 436.5M411.9 367.6c1.2 0 3.4-0.7 6.4-2.2 2.5-1.2 4.7-2.7 7.1-4.2 1.5-1 3.2-2.2 5.2-3.7 3.7-2.7 5.4-4.7 5.4-5.9l-0.5-0.7c-0.5-0.2-1-0.5-1.7-0.5 -1.5 0-3.2 0.7-5.7 2.2s-4.7 3-6.6 4.2c-5.9 3.9-9.4 6.2-9.8 6.6 -1.5 1.5-2 2.7-1.5 3.7C410.5 367.3 411 367.6 411.9 367.6M405 420.7l1.5 0.5c0.7 0 1-0.2 1-1l-1.5-1.2 -1.2-0.2 -0.7 0.5L405 420.7M405.3 405.7c0.7 0 1.7-0.2 3-0.5 1.2-0.5 2.5-1 3.4-1.7s1.7-1.5 1.7-2.2l-0.2-1 -1.5-0.5c-0.5 0-1.2 0.2-2 0.5 -0.5 0.2-1 0.5-2 1 -0.5 0.2-1.5 0.5-3 1 -1.2 0.5-2 1-1.7 2C403.3 405 404.1 405.7 405.3 405.7M436.3 512.5h1l0.2-0.2 -0.7-1.2h-1v0.7L436.3 512.5M412.2 348.4c1.2 0 2.5-0.2 3.9-1s3-1.5 4.2-2.5c2.2-1.5 3.9-3 5.7-4.7 2.2-2 3.2-3.7 3.2-4.7 0-0.7-0.5-1.2-1.7-1.2 -0.7 0-2 0.5-3.9 1.7 -1.7 1-3.4 2.2-5.4 3.7 -1.7 1.2-3.4 2.5-5.4 3.7 -2.2 1.5-3.2 2.7-3.2 3.4l0.5 1C410.7 348.1 411.4 348.4 412.2 348.4M443.7 513.3l0.5-0.5 0.2-0.5c0-0.5-0.2-1-1-1.5l-1.2-0.2v1C442.5 513 442.9 513.8 443.7 513.3M395.9 445.8l-1.2-0.2 -0.5 0.5 0.2 1.2v1.2c0.7 0 1.2 0 1.5 0 1-0.2 1.5-0.5 1.5-1l-0.5-0.7L395.9 445.8M372.6 463.6l-1 1v2l0.7-0.2 0.5-0.2 0.7-1 -0.2-1L372.6 463.6M455.2 530.7c6.9 2.2 12.1 3.2 15.7 3.2 3.4 0 7.6-0.5 12.6-1.7 4.9-1.2 7.6-2.2 7.6-3.2 0-0.5-2-0.7-6.2-0.7 -2 0-4.2 0-6.2 0h-6.2c-2.7 0-6.4-0.5-11.6-1.2 -9.6-1.5-14.8-2.2-15-2.2 -0.7 0-1.2 0.2-1.2 0.5C444.9 527 448.4 528.8 455.2 530.7M460.2 513.5h1l0.2-0.7 -0.5-0.7c-0.7-0.5-1.2-0.7-1.2-0.5v0.7L460.2 513.5M384.1 456.2c-0.5 0-0.7 1-0.7 2.7l0.5 0.2c1 0.2 1.5-0.2 1.5-1.7l-0.2-1L384.1 456.2zM358.3 470.2l-0.7 1v1.7l1-0.2c1-0.5 1.2-1.2 0.5-1.7L358.3 470.2zM455.5 513.8l0.5-1 -0.7-1h-0.7v0.7l0.5 1.2H455.5M484.3 512.5l1.2-0.2 -0.5-1 -1-0.5 -0.5 0.5L484.3 512.5M448.8 512.8l1.5 0.2v-0.5l-0.5-0.5 -0.5-1h-1l-0.5 0.7L448.8 512.8M514.1 202.2c0-6.4-0.5-11.8-1.5-16.2 -1-4.7-2.7-10.1-4.9-16.7 -3.9 9.6-10.6 22.6-19.4 38.4 -7.1 12.8-14.8 25.1-22.4 37.2 -7.1 11.1-11.1 16.7-11.8 16.7 -1 0-2-0.5-3.4-1.5 -0.7-0.5-1.7-1.2-2.5-2 -0.5-0.5-1.2-1-2-2l-2 4.9v0.2c-2 4.7-4.7 9.6-8.1 14.8 -3.9 5.9-9.1 12.1-15.3 18.7 -5.2 5.4-10.6 10.6-16.2 15.5 -7.9 7.1-14.8 12.8-20.2 17 -3.4 2.7-9.8 7.9-19.2 15.3l-2.5 0.5 -9.6-29.5 -7.1-22.4 6.2-4.7 0 0 66.9-51.4h-89.8l-27.6-84.4 -27.6 84.4h-90.1l72.8 56.1 -15.7 50 -3.7 1.5c-4.7-4.2-9.4-8.6-13.8-13.3 -2.5-2.5-5.9-6.2-10.6-10.8s-9.4-9.6-14.3-14.3c-7.4-7.1-16-16.5-25.8-27.8 -9.8-11.6-16.2-19.7-18.9-24.6 -0.7 0.2-1.5 0.5-2 0.5 -1.5 0.2-3 0.5-4.2 0.5 -0.7 0-3.9-4.4-9.8-13 -6.6-9.8-12.8-20.2-18.7-31 -7.6-14-13.3-26.3-17-37.4 -2.2 2-4.4 7.1-6.9 15.3 -2.2 8.4-3.4 15.7-3.4 22.4 0 5.4 0.7 11.3 2 17.7 1.2 5.7 2.5 11.1 4.2 16.7 0 0.7-0.2 1.2-0.5 1.2 -0.7 0-1.5 0.2-2.5 0.5l-2-0.7c-0.7 3.7-1 7.4-1 11.1 0 6.6 1 13.3 3 19.7 1.7 5.2 3.7 9.6 6.2 13.5 -1.7 1-3 1.7-3.4 2 -2 1.2-3.2 2-3.7 2.5 0 3.2 1 7.6 3.2 13.3 2.2 5.7 4.7 10.8 7.6 15.5 3.2 4.7 6.6 9.6 9.8 14.3 1.2 2 1.7 3.4 1.2 4.2 -1 1.2-2.7 2-4.9 2.7s-3.4 1.2-3.7 1.5l-0.2 1.5c0 2.7 1.7 7.4 5.4 13.3 2.2 3.9 5.4 8.9 9.8 15 3.4 4.9 5.2 7.4 4.9 7.4 -0.2 0.7-1.2 1.5-2.5 2s-2 1-2.5 1.5c-0.7 0.7 0.2 3.2 2.7 7.6 1.5 2.7 4.2 7.4 8.1 13.5 3.7 5.9 6.2 10.3 7.6 13.3l-1 1.2c-1.7 1.7-4.4 3.2-7.9 3.9 1 3.9 3.9 7.9 9.1 11.6 3 2.2 6.9 4.4 12.3 7.1l-0.2 0.2c-1 0.5-1.7 1.2-2.7 2l0 0 -1.7 1.5 -1.2 1 0 0 -0.7 0.7c-2.2 2.2-3.2 3.7-3.2 4.4s1 1.7 3.2 3.2c1 0.7 2.5 1.5 4.2 2.5 2 1.2 4.4 2.5 7.1 3.7 0.7 0.2 1.7 0.7 3 1.2 -0.5 2-1 3.9-1.5 5.9 -0.2 2-0.5 3.7-0.5 5.4 0 2.5 0.5 4.2 1.5 4.7s2.7 1 5.4 1c1 0 2.2 0 3.2 0s2-0.2 3-0.5l1 19.9 -1.2-0.2h-1.2c-1 0-1.7 0-2.5 0 -1 0-2.2 0.2-3.7 0.7s-2.7 0.7-3.7 1c-2.7-1.2-4.9-2-6.6-2.5h-0.2l0 0c-1-0.2-2.2-0.5-3.2-0.5 -0.7 0-1.7 0-2.7 0h-0.2l0 0h-0.7c-2.5 0-4.7 0.2-6.4 1 -1.7 0.5-3.9 1.7-6.6 3.2 -1.7-0.7-3.2-1.2-4.4-1.5 -1-0.2-2.5-0.5-3.7-0.5 -5.9 0-11.3 1.7-16.2 5.4 -5.2 3.9-7.6 8.4-7.6 13.8 0 8.6 3.9 15.3 11.6 20.2 6.6 4.2 15 6.4 24.6 6.4 3.4 0 6.6-0.2 9.8-0.5l0 0c2-0.2 3.7-0.5 5.9-0.7h0.2l0 0c3.7-0.5 7.4-1.2 11.6-2.5 5.2-1.2 11.3-3 18.5-5.2 6.2 3.4 11.8 5.9 17 7.4s10.8 2.2 17 2.2c8.1 0 15-0.7 20.4-2.2 3.7-1 7.6-2.5 11.8-4.4l0 0 0.2-0.2c1-0.5 2-1 3-1.5l1.7-1 1.2-0.7 0 0 1.7-1c5.9 3.2 11.1 5.7 15.5 6.9 4.4 1.2 9.8 2 16.5 2 4.7 0 10.8-1 18.7-2.7 2.5-0.5 5.9-1.5 10.1-2.7 5.7 2.7 11.3 4.9 17.2 6.4 5.9 1.5 11.6 2.2 17.2 2.2 6.2 0 12.3-0.7 18.2-2 5.9-1.2 11.3-3.2 16-5.7 6.2 2.5 11.6 4.2 16.2 5.2 4.7 1 9.4 1.5 14 1.5 4.2 0 9.1-0.7 14.8-2.2s10.3-3.2 14-5.2c5.9 2.7 11.3 4.9 16.2 6.2 4.9 1.2 10.8 1.7 17.2 1.7 8.4 0 15.5-2.2 21.4-6.6 6.2-4.9 9.4-11.1 9.4-18.9 0-6.4-2.7-12.1-8.4-17.2 -5.9-5.7-13-8.6-21.4-8.6 -5.4 0-10.1 0.2-14 1 -3.9 0.7-7.4 1.7-10.6 3.7 -3.4-1.5-6.2-2.5-8.1-3s-4.7-1-8.4-1.5c-1.2-0.2-2.2-0.2-3-0.2h-2.2c-1 0-2 0-3 0h-3.2l-1.2-12.1c1.2 0.2 3.2 0.5 5.7 1 1.7 0.2 3.4 0.2 4.9 0.2 1.7 0 3-0.2 3.7-0.7s1.2-2.5 1.2-5.7c0-2.5-0.2-4.9-0.7-7.6 -0.5-2.7-1.2-4.9-2-6.6 1.5-0.5 2.7-1 3.9-1.2l0 0c1-0.2 2-0.7 3-1l0.7-0.2h0.2l0.5-0.2c1-0.5 2-0.7 3-1.2h0.2l0.5-0.2 1-0.5 0.7-0.5 1-0.7 0.5-0.2 0.5-0.5 0.2-0.2 0.2-0.7c0-0.2-1.2-2.2-3.7-5.4 -1.5-2-2.5-3.4-3.2-4.9l1.2-1.2 0 0c3-3 5.7-5.4 7.6-7.9 3.7-4.2 6.6-8.1 9.1-12.3 -3.4-0.5-5.4-1.5-5.9-3.4v-1c5.2-6.6 10.1-14 14.8-21.4 4.9-8.1 7.1-12.3 6.2-13 -0.7-0.5-1.7-1.2-3-2 -0.5-0.2-1-0.5-1.7-1 3.7-3.9 7.6-10.8 11.8-20.7 3.9-9.4 6.2-15.7 6.2-19.2 0-1-0.2-1.5-0.5-1.5h-1.7l-1.7 0.5c0.2 0 1.7-2.2 4.2-6.4 3.4-5.9 6.4-11.8 8.6-18.2 3.4-9.1 5.4-18.5 6.4-28.1 -0.7-0.5-1.5-1.2-2.2-1.7l-1.2-0.7c0.7-4.4 1.5-8.1 1.7-10.8 1-8.1 1.7-15 1.7-20.7 0-1.5 0-2.7 0-4.2 0-1.2-0.2-2.5-0.2-3.4l-1.7 0.7 -1.5-0.2c-0.5 0-1.2 0-2.5 0 2.5-5.2 4.7-12.1 6.6-20.9C513.1 218.9 514.1 210.6 514.1 202.2M269.7 284.2l-54.6-39.4h67.2l19.9-61.3 19.4 61.3h66.7l-29.8 22.9 -1.2 1 -4.9 3.7 0 0 -18.2 14 18.7 59.1 -51.7-35.2 -47.5 35.7 -4.7 3.4L269.7 284.2zM342.5 409.7c4.9 6.6 11.6 10.6 20.2 12.1v1 1.7c0 7.1-2.7 13.5-8.4 18.9 -5.4 5.4-11.8 8.1-18.9 8.1 -3.4 0-8.1-0.2-13.8-1 -10.3-1.2-17.7-2-22.4-2 -1.7 0-7.6 0.5-17 1.2 -3.2 0.2-6.9 0.5-11.3 0.5 -5.9 0-11.3-1-16.2-3.2l-1-0.5c-1.2-0.5-2.2-1.2-3.4-1.7 -7.9-4.9-13.5-12.6-17-23.1 8.1-1.5 14.8-5.4 20.4-12.1 5.7-6.6 8.4-14 8.4-22.1 0-5.2-1-10.3-2.7-15.3 -1.7-4.9-4.4-9.4-7.9-12.8l43.1-31.7c3.2-2.2 5.7-3.4 7.1-3.4s3.9 1 7.1 3.2l39.9 28.8c-4.7 6.6-7.6 11.8-9.1 15 -2.5 5.2-3.7 10.6-3.7 16C335.9 396.1 338.1 403.5 342.5 409.7M153.6 287.4L153.6 287.4l0.5-0.7c0.5-0.2 1.2-0.2 2-0.2 1.2 0 2.5 0.5 3.4 1.2 1 1.2 2 2.5 3 3.7 0.7 0.7 1.5 1.5 2 2.2 1.2 1.2 2 2.7 2.5 4.2 0.5 2.2 0.7 4.2 1.2 5.9 0.5 2 1 3 1.2 3.2 2.2 2.2 4.2 4.4 6.6 6.6 3 3 5.2 4.9 6.2 5.4l1 1.2c0.5 1 1.5 2 3 2.7s2.7 1.2 3.9 1.7c2.7 1.2 4.2 1.5 4.9 1l-0.2-1.2c-1.2-1-2.7-2.2-3.9-3.4 -1.5-1.5-3.4-3.7-5.7-6.6 -0.7-1-3-4.2-6.4-9.4 -3.9-5.7-6.6-9.8-8.6-12.8 -5.2-8.1-7.6-13-7.6-15.3l0.5-1c0.7-0.2 3.9 2.7 9.6 8.6 1.2 1.2 6.9 7.9 17.2 19.9 7.4 8.6 13.3 15 17.5 19.2 6.2 6.4 12.6 12.6 18.7 18.9 6.6 6.9 11.3 12.1 14 15.7 3.4 4.7 6.2 9.8 8.1 15.3 1.7 4.7 2.5 8.4 2.5 11.8 0 8.4-2 14.8-5.9 19.4 -2.5 3-6.2 5.4-11.1 7.4 -3.9 1.5-6.2 2.5-6.2 3s0 1-0.2 1.7v1.7c0 7.4 3 14.3 8.6 20.7 4.4 5.2 10.1 8.9 16.2 11.6 1 0.5 2 0.7 3 1.2l0.7 0.2 0 0c1 0.2 2 0.7 3 1 3.2 0.7 5.9 1.5 8.4 1.7 2.2 0.2 4.7 0.5 7.4 0.5 2.2 0 6.9-0.5 14.5-1.2 3.2-0.2 6.2-0.5 8.9-0.5 3.7 0 11.1 0.7 21.9 2.2 4.4 0.5 8.4 1 12.1 1 4.2 0 8.4-0.5 12.6-1.5 8.1-2 14.5-7.6 18.9-17 3.4-7.1 5.2-14 5.2-20.2 -5.2-3.9-10.3-7.6-15.3-11.6 -4.7-4.7-7.1-10.3-7.1-17 0-5.2 1.2-10.6 3.4-15.7 0.7-1.7 1.5-3.2 2.5-4.9l0 0c3.4-6.4 8.6-13 15.3-19.4 4.7-4.7 10.6-9.4 17-14.3 3.4-2.5 7.1-5.2 10.8-7.6 7.1-5.9 11.8-9.8 14.3-12.1 5.2-4.7 10.1-9.1 14.8-13.5 5.4-5.2 10.1-10.1 14-14.8 -0.7 7.1-4.9 15.3-12.6 24.6 -7.6 9.4-15.3 15.7-23.4 19.4 0.2 0.2 1 0.5 1.7 0.5 1.5 0 3.4-0.7 6.2-2 0.7-0.5 2-1 3.4-2l2.2 2.7 16.5-15c-0.2-1.2-0.5-2.2-0.5-3 0-1 0.2-1.7 0.5-2.7 0.5-2.2 2.2-4.2 4.7-6.2 2.5-2 4.2-2.7 5.2-2.5l0.5 1c0 1-0.7 3.2-2.5 6.2 -0.5 1-1.7 3.4-3.9 7.4s-5.2 7.6-8.6 11.6c-2.7 2.7-5.7 5.7-8.4 8.4 2.5-1.5 4.9-3 7.4-4.7 6.6-4.2 11.6-6.2 14.5-6.2 1.2 0 2.2 0.2 3 1l0 0 0.5 0.7c0.5 0.7 0.5 1.5 0.5 2 0 1.2-0.5 2.5-1.2 3.4v0.2c-1.5 2.2-3.9 4.9-7.9 7.9 -3.7 3-9.6 6.9-18.2 12.1 -7.6 4.7-12.3 7.9-14 9.6 3.7-1 8.4-3 14.3-5.9 4.4-2.2 8.9-4.4 13.3-6.6s7.4-3.4 9.4-3.4c1.2 0 1.7 0.5 2 1.2s0.2 1.7 0.2 2.5c0 3-1 5.9-3.2 9.4 -2.2 3.2-5.2 6.2-9.1 8.6s-10.1 5.2-18.2 8.1c-8.4 3-13.3 4.9-15 6.4 0 0 4.7-1.5 13.8-4.7 10.8-3.7 18.5-5.4 22.6-5.4 1.7 0 3.4 0.2 4.4 0.7 1.2 0.5 2 1.2 2.2 2.5 0.2 1.5-1.5 4.2-5.2 8.1 -4.2 4.4-9.4 8.1-15 10.8 -3.7 2-9.6 3.4-17.7 4.2 -2.7 0.2-3.9 0.7-3.9 1.5 0 0.5 0.7 0.7 2.2 0.7 0.5 0 4.4-0.5 12.1-1.7 3.2-0.5 5.9-0.7 7.9-0.7 2 0 3.4 0.2 4.7 0.7s1.7 1.2 1.7 2.5c0 2.7-4.4 5.4-13 8.1 -8.6 2.7-13 4.4-13 4.9l1 0.5c0.5 0 2.2-0.2 4.9-0.5 2.7-0.5 4.9-0.7 6.6-0.7 2 0 3.7 0.2 4.9 1s2 1.7 2 3.4c0 3.2-3.2 5.4-9.4 6.9s-9.6 2.7-9.8 4.2c-0.2 0.7 0.2 1.7 1.7 2.5 3 1.7 4.2 3.4 4.2 5.2 0 0.5 0 1.2-0.2 2s-1.2 1.5-3.4 2c-2.2 0.5-3.7 1-4.2 1.7s-0.7 1.5-0.7 2.5c0 0.7 0.2 1.5 0.2 2.2 0 0.7 0 1.5 0 2.5 0 1.2-0.2 2.2-0.2 3.2 -0.2 1-0.7 2-1.5 3l-1 0.5c-0.5 0-1-0.2-2-0.5 -1.5-0.7-2.2-1-2.7-0.7 -1 0.2-1.5 2.2-1.7 5.4 -0.2 3.4-1 5.2-2.2 5.4h-1c-1 0-3.2-0.7-6.6-2.5 -1.5-0.5-2.5-0.7-3-0.7 -0.5 2.2-1 4.7-1.5 6.9s-1.5 3.4-2.5 3.7c-0.7 0.2-1.2 0.2-1.7 0.2 -1 0-1.7-0.2-2.5-1 -0.7-0.5-1.2-0.7-1.5-0.7 -1.5 2.2-2.7 4.2-4.2 6.4 -1 1.5-2.2 2.2-3.4 2.5 -0.7 0-1.5 0-2.2-0.2 -0.7-0.5-2-1.2-4.2-2.7l-0.2-0.2 -1.2-0.5v0.2h-0.5c-1.5 1.5-3 3-4.2 4.2 -1.2 1-2.5 1.7-3.9 1.7 -2 0-3.4-0.5-4.4-1.7s-1.7-1.7-2-1.7 -1.7 1.7-4.2 4.9c-1 1.5-2.2 2.2-3 2.2 -1.2 0-2.2-0.2-3.4-1 -1-0.7-2-1-2.5-1s-1.2 0.5-2.5 1.5 -2.5 1.5-3.2 1.5c-0.5 0-1.2-0.2-2.2-0.7s-1.5-0.7-1.7-0.7c-0.5 0-1.2 0.5-2.7 1.7 -1.2 1.2-2.5 1.7-3.4 1.7 -0.7 0-1.5-0.5-2.2-1.2 -0.7-1-1.7-1.5-2.2-1.5 -0.7 0-1.7 0.2-3 1s-2.2 1.2-3 1.2c-0.5 0-1.2-0.2-2-0.7 -1.5-1-2.7-1.5-3.2-1.5 -0.7 0-1.5 0.5-2.5 1.2 -1.7 1.5-3.2 2.2-3.9 2.2 -1.2 0-2.2-0.7-3.2-2.5s-1.5-2.5-2-2.5c-0.7 0-1.5 0.2-2.5 1 -1 0.5-2.2 1-4.2 1 -1 0-2-0.7-2.7-2.5s-1.5-2.5-2-2.5 -1.5 0.5-2.5 1.2 -2 1.2-3 1.2c-1.7 0-3-1-3.7-3.2s-1.5-3.2-1.7-3.2c-1 0.7-1.7 1.2-2.5 2v-0.2l-0.7 0.7c-1 0.7-2.2 1.2-3.2 1.2l-1.2-0.2 -0.7-0.2 0 0c-1-0.5-2-1-2.7-2 -1.5-1.7-2.7-3.4-3.9-5.4 -0.7 0-1.7 0.7-3.7 2 -1.7 1.2-3.7 2-5.7 2 -2.7 0-4.7-1.5-5.4-4.2 -0.5-1.5-0.7-3-1-4.4 -0.2-0.2-1 0.2-2.5 1s-2.7 1-3.7 1c-0.2 0-0.7 0-1.5-0.2 -1.7-0.5-2.7-2.5-3-5.7 -0.2-3.4-0.7-5.2-1.2-5.2 -0.7 0-1.7 0-3 0.2s-2.2 0.2-2.7 0.2c-1.5 0-3-0.5-3.7-1.5 -0.5-0.5-0.7-1.2-0.7-2.5 0-0.7 0.2-2 0.7-3.7s0.5-2.7 0.2-3c-0.2 0-1.2 0-3 0 -1.5 0-3-0.2-4.2-0.5 -1.2-0.5-2.2-1.2-2.7-2.2l-0.2-1.2c0-1 0.5-2 1.5-3.7 2.5-3.9 3.7-6.2 3.9-7.1l-1.5 0.5 -1.5 0.2c-1.5 0-2.5-0.2-3.4-1 -0.7-0.5-1.5-1.2-2-2s-0.7-1.5-0.7-2.5c0-1.2 0.5-2.7 1.7-4.2 1.2-1.5 3-3.4 4.9-5.7 -2.2-0.5-4.4-0.7-6.6-1.2 -6.2-1.2-9.4-3.2-9.4-5.9 0-1.5 2.5-2.7 7.4-3.2 2.7-0.2 6.6-0.7 11.6-1.2 -2.5 0-5.7-0.2-9.6-0.5s-7.1-0.7-9.8-1.2 -5.4-1.7-8.6-3.7c-3.7-2.2-5.7-4.7-5.7-7.1 0-1.7 1.7-2.7 5.2-3.2s8.1-0.7 13.8-0.7c1.7 0 5.2 0.2 10.3 1 2 0 3.9 0.2 5.9 0.2 0-1-2.5-1.7-7.4-2.5 -3.7-0.5-7.4-1-11.3-1.7 -0.2 0-1 0-1.7 0s-2 0-3.7 0 -3 0-3.9 0c-0.2 0-1 0-2.2 0s-1.7-0.2-2.2-0.5c-4.7-3.7-9.1-8.1-13-13 -2.5-3.2-3.9-5.7-4.7-7.4v-0.2c-0.2-1-0.2-1.7 0-2 0.5-1 1.5-1.5 3.4-1.5 0.7 0 2.2 0.2 4.4 0.5 2 0.2 3.9 0.5 5.2 0.5 2 0 3.4 0.2 4.9 0.5 1.2 0.2 3 0.7 5.4 1.5 1.2 0.2 4.7 2 10.3 4.9 2.2 1 4.2 1.7 5.4 2.2 1 0.2 3.7 1 8.4 2.5 2.7 1 4.2 1.2 4.4 0.7 0-0.2-2-1-5.7-2.5 -10.8-4.2-18.2-7.4-22.1-9.4 -6.6-3.4-12.5-7.9-17.2-13.5 -4.2-4.9-6.4-9.1-6.4-12.3 0-1 0.2-1.7 0.7-2.2 1-1 2.2-1.5 3.9-1.5 2.5 0 6.2 1.5 10.6 4.2 1 0.5 4.4 3 10.3 7.4 1.7 1 3.4 1.7 5.4 2.5 0-0.2-1.5-1.2-4.4-3.2 -5.2-3.4-8.4-5.7-9.8-6.6 -4.4-3-8.1-6.6-11.6-10.6 -3.2-3.9-4.9-7.4-4.9-9.8 0-1.2 0.2-2 1-2.5s1.7-0.7 3.2-0.7c2 0 4.2 0.2 6.9 1 2.7 0.5 5.2 1.2 7.4 2 1.2 0.5 3 1.2 4.9 2.5 2.7 1.5 3.9 2.2 4.2 2.2 -2.2-2.2-4.7-4.4-6.9-6.6 -6.6-6.2-10.8-10.1-12.5-11.6 -2.7-2.7-4.7-5.7-6.4-8.9s-2.5-6.2-2.5-8.1L153.6 287.4M442.9 391v1.5c0 0.5 0 1-0.2 1.7 -0.2 1.5-0.2 2.2-0.5 2.5 -0.2 1-1 1.2-1.7 1.2s-1.2-0.2-1.5-0.5c-0.2-0.5-0.2-1-0.2-1.7v-1.2c0-1.5 0.2-3 0.5-4.2s1-2 2-2C442.5 388.2 442.9 389.2 442.9 391M429.7 424.9c0.7 0 1.5 0.2 2 1s0.7 1.7 0.5 2.7c-0.2 1.2-0.5 2.2-0.5 2.7 -0.2 1-1 1.5-1.7 1.5 -1 0-1.7-0.2-2-0.7s-0.2-1.5-0.2-3.2c-0.2-1 0-2 0.2-2.7C428.4 425.2 428.9 424.9 429.7 424.9M426.5 428.4c-0.2 1.5-0.5 2.5-0.5 3 -0.2 1-1 1.7-1.7 1.7 -1 0-1.7-0.2-2.2-1s-0.7-1.7-0.7-3c0-1 0.2-2 0.7-3s1.2-1.2 2.2-1.2C426 424.7 426.7 425.9 426.5 428.4M379.7 500c-0.2 1-0.7 2-1.5 2.2 -0.7 0.5-2 0.5-3.4 0.5 -0.2 0-1.2 0-2.5-0.2s-2-0.2-2.2-0.2 -1.2 0-3.4-0.2c-2-0.2-3-0.7-3-2 0-1.5 1-3 3.2-4.2 2.2-1.5 3.9-2 5.4-2 1.2 0 3 0.7 4.9 2S379.9 498.5 379.7 500M237.7 496.5c0 1.5-1 2.5-2.7 3.2 -1.2 0.5-2.7 0.7-4.2 0.7 -1.7 0-3.4-0.2-4.7-0.5 -1.2-0.5-2-1.2-2-2.5 0-1.5 1-2.7 2.7-4.2 1.7-1.2 3.2-2 4.4-2s2.5 0.7 4.2 2C237 494.6 237.7 495.5 237.7 496.5M185.3 427.4c0 1-0.2 2-0.7 2.7s-1.2 1-2.2 1 -1.5-0.5-1.7-1.2c-0.2-1-0.5-2-0.5-3v-1c0-2 0.7-3 2.5-3 1 0 1.7 0.5 2.2 1.5S185.3 426.4 185.3 427.4M172.3 424.4c0-1.2 0.2-2 0.5-2.7 0.5-0.7 1-1 2-1 1 0 2 0.5 2.2 1.5 0.5 1 0.5 2.2 0.5 3.7 0 1-0.2 2-0.7 3 -0.5 0.7-1.2 1.2-2.2 1.2 -0.7 0-1.2-0.2-1.5-0.5s-0.5-1-0.5-2v-1.5C172.3 425.7 172.3 425.2 172.3 424.4M160 393.2c0 1-0.5 1.5-1.7 1.5 -0.7 0-1.5-0.5-2-1.2 -0.5-1-1-1.7-1-2.2l-0.2-2c0-1.5 0.7-2 2.5-2 1 0 1.5 0.5 1.7 1.2s0.5 2 0.5 3C160 391.7 160 392.4 160 393.2M99.2 195.6c0.2-1.5 1-2.2 2-2.5 0.5 0 2 1.7 4.2 5.4 0.7 1 3.2 5.7 7.6 13.5 3.4 6.4 6.9 12.1 9.8 17 3.2 5.4 6.6 10.6 9.8 15.5 2.5 3.4 5.2 7.4 8.6 11.8 2.2 3 4.2 5.2 5.4 6.6l1.2 1.5 1 1.2 0.5 0.7 0.2 0.5c0.5 1 0.7 2.5 1 4.2 0 0.5 0 1.5 0 2.7 0 1.7-0.5 2.7-1.5 2.7h-0.7l-0.7-0.7 -1.2-1c-0.2-0.2-0.5-0.7-1-1.5 -1.7-3-3.7-5.9-5.7-8.6 -2.2-2.5-4.2-5.2-6.4-7.9 -2-2.7-4.2-5.4-6.2-8.4 -1.7-2.7-3.9-5.9-6.4-9.6 -1-1.5-5.2-9.4-12.6-23.6 -2.2-4.2-3.7-6.4-4.2-6.2l-1.2 1 -1.2 1 -1.5-0.5c-0.5-0.2-1-1.2-1.2-3s-0.2-3.9-0.2-6.4S98.9 197 99.2 195.6M150.8 287.8v1.5c0 1.5-0.2 3-0.5 3.9s-1 1.7-1.7 1.7l-1-0.2c-0.7-0.2-1.2-1-1.7-2 -0.7-1.5-1.2-3.2-1.2-4.9 0-0.5 0-1.5-0.2-2.5s-0.2-2-0.2-2.5c0-1 0.2-2 0.7-2.5s1.2-1 2.5-1 2 1 2.7 2.7C150.6 283.9 150.8 285.6 150.8 287.8M142 276.8v4.4c0 1.5-0.2 3-0.5 3.9s-1 1.7-2 1.7c-1 0-1.7-0.5-2.2-1.2 -0.7-1.2-1.2-3.2-1.5-5.7 0-2.5 0.2-4.7 0.7-6.4 0.5-1.7 1.5-2.7 2.7-2.5 1 0.2 1.7 1 2 1.7C141.7 273.8 142 275.1 142 276.8M134.4 267.9c0 0.7 0 1.7 0.2 3.2s0.2 2.5 0.2 3.2c0 1.7-0.2 3-0.5 3.9s-1 1.5-1.7 1.5c-1.2 0.2-2.5-1-3.2-3 -1-2.2-1.2-4.4-1.2-7.1 0-0.7 0-1.2 0-1.5 0-2.2 0.2-4.2 1-6.4 0.7-2 1.7-3 3-2.7 1 0.2 1.5 0.7 2 1.5 0.2 0.7 0.5 1.7 0.5 3.2v2.5C134.1 266.7 134.4 267.2 134.4 267.9M127.7 262.5c-0.2 1.7-0.5 3.7-1 5.4s-1 2.7-1.7 2.7c-1 0-2-1-2.7-3.2s-1-4.2-1-6.4c0-3 0-5.7 0.2-8.4 0.2-2.5 1-3.7 2.5-3.2 1.2 0.2 2 1.7 2.7 4.4C127.5 256.6 127.7 259.5 127.7 262.5M106.8 236.2c0.5-2.5 1.2-4.4 1.7-5.7 1-2 2-2.7 3-2.5s1.5 1 2 2c0.2 1.2 0.5 2.7 0.5 4.9v1.2c0 2.7-0.5 5.4-1.2 8.1s-1.7 3.9-3 3.9c-1 0-2-0.7-2.5-2.5s-1-3.7-1-5.9C106.3 238.4 106.6 237.2 106.8 236.2M105.8 231.7c-0.7 2.2-1.5 3.4-2.5 3.4 -0.7 0-1.5-0.7-2-2.5 -0.5-1.5-0.7-3.4-0.7-5.4 0-0.7 0-1.5 0-1.7 0.2-2.5 1-4.4 1.5-5.9 0.7-1.7 1.7-2.2 3-2 1.2 0.2 1.7 1.5 1.7 3.4 0 0.5 0 1 0 2 0 0.7 0 1.5 0 2C106.8 227.3 106.6 229.5 105.8 231.7M114.9 240.6c0.7-2.5 1.5-3.7 2.7-3.4 1 0.2 2 1.7 2.5 4.4 0.5 2.7 0.7 5.7 0.7 9.1 0 3.2 0 5.4-0.2 6.6 -0.5 2.2-1.2 3.4-2.5 3.4 -1 0-2-1.5-2.7-4.2 -1-2.7-1.2-5.4-1.2-7.9C113.9 245.8 114.2 243.1 114.9 240.6M99.7 268.7c-0.5-1.7-0.5-3.9-0.5-6.4 0-0.5 0-1.5 0-2.5 0-1.2 0-2 0-2.5 0-1.5 0.2-2.5 0.5-3 0.2-0.7 1-1 1.7-1 2.2 0 5.2 1.7 8.6 5.4 2.2 2.5 5.9 6.6 10.6 12.8 5.4 6.9 9.6 12.1 12.6 15.5 3.4 3.9 6.9 7.4 9.8 10.8 3.2 3.2 5.9 5.9 8.1 7.9l1.2 1 1.5 1.2 0 0c0.7 0.7 1.2 1.5 1.2 2.2 -0.2 1-0.5 1.7-1 2l0 0 0 0 -2.2 1.2 -1 0.5 -0.7 0.2c-0.5 0-1.2-0.2-2.2-0.5 -2.2-0.7-4.2-2-5.9-3.7s-3.2-3.4-4.9-5.4c-2-2.2-3.4-3.7-4.4-4.9 -0.5-0.7-1.5-1.7-2.5-3 -3-3.9-5.9-7.9-8.9-11.6 -3.4-4.4-6.2-7.9-8.1-10.1 -2.5-2.7-3.9-4.2-4.7-3.9 -1 0.5-2 1.2-2.7 1.7 -0.7 0.5-1.5 0.5-2 0.5l-1.2-0.2C100.9 271.6 100.2 270.4 99.7 268.7M149.4 385.1c0-0.5 0.5-0.7 1.7-0.7 1 0 1.5 0.5 1.5 1.5 0 0.5 0 1-0.2 1.7l0.2 1.5c0 0.5-0.5 0.7-1.2 0.7 -1 0-1.7-0.5-1.7-1.2v-1.2C149.9 386.5 149.6 385.8 149.4 385.1M147.4 358.2l0.2 1c0 0.5-0.5 0.7-1.2 0.7 -1 0-1.7-0.2-2.2-1 -0.7-0.7-1-1.5-1-2.2 -0.2-0.7-0.2-1.5-0.2-1.7 0-1.5 0.7-2.5 2.5-2.5 0.7 0 1.2 0.2 1.5 0.7s0.2 1.2 0.2 2.2v1.2L147.4 358.2M146.7 350.1c-0.5 0-1.2-0.2-2.2-0.5 -2.2-1-4.2-2-5.7-3.7 -1-1-2.5-2.5-4.7-4.7 -2.7-2.2-3.9-3.7-4.2-3.9 -0.7-0.5-1.7-1.7-3.2-3.7 -4.2-5.2-7.1-8.9-8.9-11.6 -1.7-2.5-2.5-4.4-2.5-5.4 0-0.7 0.2-1.2 1-1.7 0.5-0.2 1 0.2 2 1.7 1.2 1.7 2.5 3 3.4 3.4 2.2 1.2 4.2 2.7 5.4 4.2 3 3.4 5.4 5.9 7.6 7.1 0.7 0.5 3.2 1.7 6.9 3.7 1.7 1 3.2 2 4.7 3.4 0.5 0.7 1 1.7 1.2 3 0.2 1 0.5 1.7 0.7 2.5l0.2 0.5c0.5 1.2 1 2.2 1 3s-0.2 1.5-1 1.7l-1 0.5 0 0L146.7 350.1M139.8 351.8c0 0.2 0 1 0 1.7s-0.2 1.2-0.5 1.2c-1 0.2-1.7-0.2-2.2-1s-1-1.5-1-2.5c-0.2-1 0-2 0.5-2.7l1.7-1c0.5 0 0.7 0.5 1 1.2C139.8 350.1 139.8 350.8 139.8 351.8M133.1 347.6c0 0.7-0.2 1.2-0.7 1.2 -1 0-2-0.5-2.5-1.2s-1-1.7-1-3c0-1 0-2 0.5-2.5l1.5-1c0.5 0 0.7 0.5 1.2 1.2 0.2 0.7 0.5 1.7 0.5 2.5C132.9 345.2 132.9 346.2 133.1 347.6M124.3 338c-0.2 0.7-0.5 1.2-1 1.2 -0.7 0-1.2-0.2-1.5-0.5 -0.5-0.2-0.5-0.7-0.5-1.5 -0.2-0.7 0-1.5 0.5-2l1.5-1c0.5 0.2 0.7 0.5 1 1.2S124.5 337.1 124.3 338M116.2 297.2c0-2 0.2-3.7 0.7-5.2 0.5-1.7 1.5-2.2 2.5-2 1 0.2 1.5 1 1.5 2s0.2 2.5 0.2 4.4c0 1 0.2 2 0.2 3s0 2 0 2.7c0 1-0.2 2-0.5 2.7l-1.5 1c-1 0-2-1-2.7-2.7C116.4 301.1 116.2 299.2 116.2 297.2M123 299.4c0-1 0.2-1.7 0.5-2 0.2-0.5 1-0.5 1.7-0.2s1.5 1 1.7 2.5c0.2 0.5 0.5 1.7 0.5 3.7v1.5c0 1.5-0.2 3-0.5 4.4s-0.7 2.2-1.2 2.2c-1.2 0-2-0.7-2.2-2s-0.5-3-0.5-5.2c0-0.5 0-1.2-0.2-2.5C123 300.9 123 299.9 123 299.4M134.9 317.9l-0.5 1.5c-0.2 0.5-1 0.5-1.7 0.5s-1.5-0.5-2-1.7 -0.7-2.5-1-3.7 -0.2-2.5-0.2-3.7c0-1 0.2-2.2 0.5-3.4 0.2-1.2 1-1.7 2-1.7 1 0.2 1.5 1 2.2 2.5 0.5 1.5 0.7 3 0.7 4.9 0 0.7 0 1.5 0 1.7v1C134.9 316.4 134.9 317.1 134.9 317.9M136.1 319.8c0-1.7 0.2-3.2 0.5-4.4s1.2-1.7 2.5-1.7c1.2 0 2 0.7 2.5 2.5 0 0.5 0 1 0 2v1.7c0 1.7 0 3-0.2 3.9 -0.2 1-0.7 1.5-1.7 1.5 -1.2 0-2-0.5-2.5-1.7C136.3 322.5 136.1 321.3 136.1 319.8M147.9 325.7v0.5 0.2c0 0.5 0.2 1 0.2 1.7v0.5c0 0.5 0 1.2 0 2 0 1.5-0.2 2.5-0.7 3l-0.5 0.5c-1.2 0.2-2.2-0.5-2.7-2 -0.7-1.5-1-3.2-1-4.9 0-2 0.2-3.7 0.5-4.7s1-1.7 2-1.7c1.2 0 2 0.5 2.2 1.7v0.2C147.6 324 147.9 325 147.9 325.7M110.5 274.8l-0.2 1.5c-0.2 0.7-0.2 1.5-0.5 2.2 -0.5 1.7-0.7 3-1 3.4 -0.5 1.2-1.2 1.7-2 1.7 -0.7 0-1.5-0.2-1.7-0.7s-0.5-1.2-0.5-2.2c0-0.7 0-1.7 0.2-3 0.2-1.5 0.5-2.7 1.5-3.7 0.7-1.2 1.7-1.7 2.5-1.5C110 272.6 110.5 273.6 110.5 274.8M104.3 306.6c-0.2-0.5-1-1.5-2-3 -0.5-1.2-1-2.5-1-3.7 0-2 0.7-3 2.2-3 0.2 0 0.7 1 1.7 3.2 0.5 1.2 1 2 1.7 2.5 1.7 1.5 2.7 2.2 3.2 2.7 1 1 1.7 2 1.7 2.5l-0.5 0.7c-1 0.2-1.7 0.2-2.5 0.2C107 309 105.6 308.3 104.3 306.6M113 324.3c-0.2 0.5-0.7 1-1.5 1 -1 0-1.7-0.2-2-0.7s-0.5-1.5-0.5-2.7 0.2-2 0.7-2.7l1.7-0.7c1 0 1.5 0.2 1.7 1 0 0.5 0 1.5 0 2.5S113.2 323.8 113 324.3M112.5 296.5c-0.7 0-1.7-0.7-2.5-2.5s-1.2-3.4-1.2-5.2c0-0.7 0.2-1.7 0.5-3s0.7-2.2 1.5-3.4c0.7-1 1.5-1.5 2.5-1.5 1 0.2 1.5 0.7 1.7 2 0.2 1 0.2 2.5 0.2 4.2v1.2c0 1.7-0.2 3.4-1 5.2C113.7 295.7 113.2 296.5 112.5 296.5M115.2 331.9c-0.2-0.7-0.5-2-0.5-3.4 0-1 0.2-2.2 0.7-3.2s1.2-1.5 1.7-1.5c1 0 1.7 0.7 2 1.7 0.5 1.2 0.7 2.5 0.7 3.9 0 0.7-0.2 1.5-0.5 2 -0.5 1-1.2 1.7-2.2 1.7S115.4 332.6 115.2 331.9M129.2 374.5l-1.2 0.7c-0.7 0-1-0.2-1.2-0.5 -0.2-0.5-0.2-1.5-0.2-3l-0.2-2c0-1 0.5-1.5 1.5-1.5l1.2 1c0.2 0.5 0.5 1.7 0.5 3C129.4 373.2 129.4 374.2 129.2 374.5M128 362.7c-1-1.2-3.2-3.2-6.4-6.4 -4.2-3.9-6.2-6.6-6.2-8.1 0-1 0.5-1.7 1.2-2.5l1.5-0.5c0.7 0 1.7 0.5 3 1.5 0.7 0.5 1.7 1.5 3.2 2.7 2.5 2.2 4.2 3.7 5.7 4.7 2.5 1.7 4.7 3.7 6.9 5.7 1.2 1.2 2.7 2.7 3.9 3.9 1.5 1.2 2.7 2.7 3.9 3.9s2 2 2.5 2.5c1 1 1.7 2 2.5 3 1.2 1.5 1.7 2.5 1.7 3.2l-1 1.5 -0.2 0.2 -1.5 0.5c-0.7 0-1.5-0.2-2.2-0.5 -1.7-0.7-3.4-1.7-4.9-2.7 -1.5-1-3.7-3-6.6-5.7 -1.2-1-2.7-2.2-4.2-3.7C129.9 364.6 128.9 363.6 128 362.7M147.6 384.1v1 0.5c0 1.2-0.7 1.7-1.7 1.7 -0.7 0-1.5-0.5-1.7-1.2l-0.2-2c0-0.7-0.2-1.5-0.2-2.7s0.7-2 2-2c1 0 1.7 0.5 2 1.5C147.6 381.9 147.9 382.8 147.6 384.1M137.8 376.9c0-0.5 0.5-0.7 1.5-0.7 0.7 0 1.2 0.5 1.5 1.5s0.5 2.5 0.5 3.9v1.5c0 1.2-0.7 1.7-2 1.7l-1.2-0.7c-0.2-0.5-0.2-1.2-0.2-2v-1.5l0.2-1.2v-1.5L137.8 376.9M131.2 374.7v-1c0-1.5 0.7-2.2 2-2.2 0.7 0 1.2 0.5 1.7 1.5 0.2 1 0.5 2.2 0.5 3.7 0 0.5 0.2 1 0.5 2 0 0.7-0.5 1-1.2 1s-1.5-0.5-2.2-1.2c-0.5-0.7-1-1.5-1-2.2C131.4 375.7 131.2 375.2 131.2 374.7M139 397.6c-4.7-3-7.1-5.2-7.1-6.6 0-0.7 0.2-1.5 0.5-2.2 0.5-0.5 1-1 1.7-1s2.2 0.5 4.2 1.5c2 1 3.2 1.7 3.7 1.7 3.4 1.2 5.7 2 6.6 2.5 1.5 0.7 3.2 1.7 4.9 2.7l0 0 0.5 0.2c0.2 0.2 1.7 1 4.7 2.2 1.7 1 3.4 2.2 5.2 3.7 0.5 0.5 1.2 1 2.5 2 1.2 0.7 2.2 1.7 2.7 2.5 1 1.5 1.7 2.7 1.7 3.2l-1 1.5c-0.5 0.2-1.2 0.7-2 1s-1.5 0.5-2 0.5l-1.2-0.2c-1.7-0.7-3.9-1.5-6.4-2.5 -1.5-0.5-2.7-1.2-3.4-1.7l-4.7-3.2 -0.7-0.5c-1.7-1.2-3-2.2-3.7-2.7C144.4 401.3 142.2 399.6 139 397.6M170.3 423.4l-0.2 1.5c-0.5 1.5-0.7 2.2-0.7 2.5 -0.5 0.5-1.2 1-2.2 1s-1.5-0.2-1.7-1 -0.5-1.5-0.5-2.5l-0.2-1.2v-1.2c0-1 0.2-2 0.5-2.7 0.5-0.7 1-1 2.2-1 1 0 1.5 0.5 2.2 1.5C170 421 170.3 422.2 170.3 423.4M162.2 421c0 1.5-0.2 2.5-1 3.2 -0.5 0.7-1.2 1-2.2 1 -0.7 0-1.2-0.5-1.7-1.7 -0.5-1.2-0.7-2.7-0.7-4.2s0.2-2.5 0.5-3.2c0.2-0.7 1-1 2-1 1.2 0 2 0.5 2.5 1.5s0.7 2.2 0.7 3.7V421M146.2 414.3c-0.2 1.5-0.7 2.2-1.5 2.2 -1.2 0-2.2-0.2-2.5-1 -0.5-0.7-0.5-1.5-0.5-2.5 0-0.5 0-1.5 0-2.2 0-1.2 0.2-2.5 1-3.4 0.5-1 1.2-1.5 2.2-1.5 0.5 0 1 0.5 1.5 1.2 0.5 1 0.5 1.7 0.5 2.5C146.7 411.4 146.4 412.9 146.2 414.3M148.4 413.8c0-1.2 0.2-2.2 0.7-3s1.2-1.2 2.2-1.2l1 0.2 0.5 0.2 0.2 0.2 0.7 1.5c0.2 0.7 0.5 1.5 0.5 2.5 0 0.7 0 1.2 0 1.7l-0.2 0.7c-0.2 1-0.5 2-1 2.5l-0.2 0.5 -0.2 0.2 -1 0.2c-1 0-1.5-0.5-2-1.7s-0.5-2.5-0.5-3.4C148.4 415.1 148.4 414.6 148.4 413.8M153.8 435L153.8 435c-1.5-0.7-2.7-1.5-3.4-2l-0.2-0.5 -0.7-1 -0.2-0.5 -0.2-1.2 0.5-1.5c0.2-0.5 1.5-1 3.4-1 2.2 0 4.2 0.5 6.2 1.2 1.7 1 3.4 2 4.7 3.4s1.7 2.7 1.2 3.9 -1.5 1.7-2.5 1.7c-0.7 0-2-0.2-3.2-0.7 -0.7-0.2-1.7-0.7-3-1.5C155 435.5 154.3 435.3 153.8 435M156.8 452c-0.5-0.5 1-2.2 4.2-4.7 3.2-2.5 5.7-3.9 7.1-4.4 1.5-0.2 2.7-0.5 3.4-0.5 2.7-0.2 4.2-0.5 4.4-0.5s1.2-0.7 3-1.7l1.5-0.2c1 0.2 2.2 0.5 3.7 0.7s2.5 0.5 3.4 0.7l0.5 1.2c0 0.7-0.5 1.2-1.2 1.7 -0.5 0.2-0.5 1 0.2 2 0.5 1 1 1.7 1 2 0 0.7-0.7 1.5-2.2 2.2s-3.7 1.5-6.4 2 -5.2 1-7.6 1.2c-2.5 0.2-4.9 0.5-6.9 0.5C160 454.2 157.5 453.5 156.8 452M173.2 472.9c-3.7-0.2-5.9-0.2-6.6-0.5s-1.2-1.2-1.2-2.7c0-1.2 0.2-2.5 0.7-3.7 0.5-1.5 1-2.5 1.5-3.4 1-1 1.5-1.7 2-2 1-0.7 2.2-1.2 3.7-1.2 1.7 0 2.7 0.5 3.2 1.5s1 1.5 1.5 1.5c3-1.2 5.7-2.2 8.4-3.4s5.4-1.7 7.9-1.7c2.7 0 4.7 1.7 5.4 5.4 1 3.7 1.7 5.7 2.5 6.2 0.5 0.2 1.5 0.2 3.4 0.5 1.7 0 3.4 0.5 4.7 1.5s2.2 3.2 2.5 6.6c0.5 3.4 1.7 5.4 3.4 5.4 1 0 2-0.5 3.2-1.2 1.2-0.7 2.5-1.2 3.2-1.2s1.2 0.5 1.2 1.7c0 2.2-1.2 5.2-3.4 8.4 -2.5 3.4-4.9 5.2-7.4 5.2 -1.7 0-3-0.7-3.7-2.2 -0.7-1.5-1-3.4-1-5.9 0-1.7 0.2-4.9 1-9.4 0.2-1.5 0.2-2.2 0.2-2.5l-0.7-0.2c-4.2 3-8.4 5.9-12.5 9.1 -4.2 2.7-8.6 4.2-13.3 4.2 -1 0-1.7-1.2-1.7-3.7 0-1.2 0.2-3.2 0.5-5.7 0.2-2.7 0.5-4.2 0.5-4.9l-0.2-1C179.9 473.1 176.9 472.9 173.2 472.9M201.3 495.5c0 0.7-0.5 1.2-1.2 1.5s-1.7 0.5-2.7 0.5c-1.2 0-2-0.2-2.2-0.5s-0.2-1-0.2-1.7c-0.2-1 0-1.7 0.7-2.5s1.5-1 2.5-1 1.7 0.5 2.5 1.2C201 493.8 201.3 494.6 201.3 495.5M125 534.9l-1.5 0.5c-1 0-2.5-0.7-3.9-2.5 -1.2-1.2-2.2-2.7-3.2-4.2s-1.7-2.7-2.5-3.9c-1.5-2.5-2.2-4.4-2.2-5.7 0-0.7 0.2-1.5 0.7-2 0.7-0.5 2.2 0 4.2 2 1.7 1.5 3.2 3.4 4.9 5.7 0.7 1 1.5 2 2.5 3 1.5 2 2.2 3.7 2.2 4.9C125.7 533.9 125.5 534.4 125 534.9M135.1 535.2l-0.7 0.2c-1 0-2.5-1-4.7-2.7 -2.2-1.7-3.9-3.7-5.4-5.4 -3.2-4.2-4.9-6.6-5.4-7.1 -1-1.5-1.5-3-1.5-3.9s0.5-1.7 1.5-2.2 2.2 0.5 3.9 2.5c1.5 1.7 3 3.7 4.2 5.4 1.7 2.2 3.7 4.2 5.7 6.4s3 3.9 3 5.2L135.1 535.2M144.9 533.9l-0.7 0.2c-0.7 0-2-0.5-3.4-1.7 -2-1.2-4.2-3.2-7.1-5.9 -2.5-2.5-3.9-3.9-4.7-4.9 -3.2-3.4-4.9-5.9-4.9-7.6 0-0.7 0.2-1 0.5-1.2l1-0.2c1.2 0 3 0.7 4.9 2.5 2 1.7 3.7 3.4 5.2 5.4 2 2.7 4.2 5.2 6.2 7.6C144.4 531.5 145.4 533.4 144.9 533.9M157.7 535.4l-1.5 0.5c-0.7 0-1.5-0.2-2.5-0.7l-1.7-1 -1.2-1 -1.5-1.2 -0.2-0.2c-0.7-0.5-2-2-4.2-3.9 -2.7-2.5-4.9-5.2-6.9-7.9 -2.2-3.2-3.4-5.4-3.4-7.1 0-0.7 0.2-1.2 1-1.5 0.7-0.5 2.5 0.7 4.9 3.2 2.5 2.5 4.9 4.9 7.1 7.4l0.2 0.2c1.5 1.5 3.2 3.4 5.4 5.9C156.8 532.7 158.2 534.9 157.7 535.4M165.4 532.9l-1.2 0.7c-1.2 0-3-1-5.4-3 -1-0.7-3-2.5-6.2-5.4l-3.7-3.9c-0.7-0.7-1.5-1.7-2.2-2.5 -2.2-2.7-3.2-4.7-3.2-6.2 0-0.7 0.2-1.2 1-1.5s2 0 3.4 1.2c1.2 1 2.5 2 3.7 3l0.5 0.5c1 1 2.2 2.2 3.2 3.4s2.7 3.2 5.4 6.2C164.4 529.5 166.1 532 165.4 532.9M171.8 530l-1 0.2c-1.5 0-3.7-1-6.6-3.2 -3-2-4.7-3.7-5.4-4.7 -1.5-2.2-3-4.4-4.4-6.6l-0.7-1.2c-0.5-0.7-1-1.5-1.5-2.5l-0.2-0.7 -0.2-0.7 -0.2-0.7c0.2-1 1-1.2 2-1.2l0 0c1.2 0 2.7 0.5 4.2 1.7 1.7 1 2.7 2.2 3.4 3.4 1.5 2.5 3.9 5.9 7.9 10.8C171.3 527.8 172.3 529.5 171.8 530M174.5 524.6c-0.5 0.2-1 0-1.7-0.5s-1.2-1-1.7-1.7c-0.5-0.5-1.2-1.2-1.7-2.2 -0.5-0.7-0.7-1.5-0.7-2l1-1 1.7 0.5c1 1 1.5 1.5 1.7 1.7s0.7 0.7 1.5 1.2c0.7 0.5 1.2 1.2 1.2 1.7C175.5 523.6 175.2 524.3 174.5 524.6M235 535.7c-5.2 2-10.8 3-17.2 3 -8.1 0-14.8-1.5-19.9-4.2 -3.9-2.2-8.6-6.2-13.5-11.8 -1.7-1.7-3.4-3.2-4.9-4.9 -3.2-3.2-4.7-5.9-4.7-8.4 0-1.2 1.5-2.5 4.4-3.2s6.4-1.2 10.1-1.2h1.7c0.7 0 1.5 0 2.2 0.2 3 0.2 5.7 1 8.4 2.2 4.9 2 7.9 3 9.1 3l0.5-0.5c0 0 0-0.5-0.2-1.5s-0.2-1.7-0.2-2.2c0-0.7 0.2-1.2 0.7-1.7s1.2-0.7 2.2-0.7c5.7 0 12.1 3 18.9 8.9 6.9 5.9 10.6 11.3 10.6 16C242.6 531.5 239.9 533.7 235 535.7M237.5 486.2c0-2 1.5-3 4.7-3 1.2 0 2.5 1 3.9 2.7s2.7 2.7 3.9 3c0.5 0 1.5 0 2.7-0.2s2.2-0.2 2.7-0.2c1.2 0.2 2.5 0.7 4.2 1.7 1.5 1 2.5 1.5 2.5 1.5 0.2 0 1-0.5 2.5-1.2 1.2-1 2.5-1.2 3.4-1.2 1.5 0 3.2 0.7 5.4 2.2 1 0.7 1.7 1 2.2 1l1.2-0.5c1-0.5 2-1 3.2-1 0.7 0 1.7 0.5 2.5 1.2 1.7 1.5 2.7 2.5 3.4 2.5 1 0 2-0.5 3.2-1.2s2.2-1.2 3-1.2c1 0 2.5 0.5 4.2 1.5s2.7 1.5 3 1.5c0.7 0 1.7-0.2 2.5-1 1-0.7 2-1 3-1 0.7 0 2.2 0.5 4.2 1.7 0.7 0.5 1.5 0.7 2.2 0.7 1 0 2-0.5 3-1.7s2-1.7 2.5-1.7c0.2 0 1 0.5 2 1.2s2.5 1.2 4.2 1.2c1 0 2-0.7 2.7-2.2 1-1.5 1.7-2.2 2.5-2.2 0.2 0 1.2 0.2 3.4 0.7 0.5 0.2 1.5 0.2 2.2 0.2s1.5-0.5 2-1.2c1.2-1.7 2.5-2.7 3.7-2.7 1 0 2 0.2 3 0.5 1.7 0.7 3 1 3.4 1s1.7-0.7 3.4-2.5c1.2-1.2 2.5-2 3.4-2.5l1-0.2c1 0 2.7 0.5 4.7 1.2 0.7 0.2 1.5 0.5 2.5 0.5 0.5 0 1.2 0 2.2 0s1.5 0 1.7 0c1.7 0 2.5 0.7 2.5 2 0 2.2-1 3.9-3 4.9 -1 0.5-2.7 1.2-4.9 2.2l-1 1 0 0 -1 1 -0.7 0.5 -0.5 0.2 -0.2 0.2c-0.5 0.2-1.2 0.5-2.2 0.5 -1 0-1.5 0.2-1.7 0.2l0 0h-0.2c-0.5 0.2-1.2 0.7-2 1.5 -1 1-1.7 1.2-2.2 1.2 -3-0.2-6.4-0.2-10.1-0.5 -3.9-0.2-8.1-0.2-12.6-0.2 -2.7 0-7.1 0.5-13.3 1.2s-12.5 1.7-19.4 2.7c-4.7-1.2-9.4-2.5-14-3.9 -4.7-1.2-8.6-2-11.8-2 -1.2 0-4.2 0.2-9.1 0.7h-1.5 -3.2l-1.2-0.2 -1.7-0.5 0 0c-1.7-0.7-3.7-2-6.4-3.7C239.4 490.9 237.5 488.2 237.5 486.2M258.1 527.3c-0.2 0.2-1 0.2-2-0.2l0 0c-1-0.5-2-1.2-3-2.2l-0.2-0.2 -1-1 -1.7-1.7 -0.2-0.2c-2.7-3-4.2-4.4-4.4-4.7 -0.7-1-1-1.7-1-2.7 0-1 0.5-1.7 1.5-2.2 0.7-0.5 2-0.2 3.7 0.7l0.5 0.2 0 0 2 1.5 0.7 0.5c0.7 0.7 1.5 1.7 2 2.7l0.7 1.2 0.5 1 1 1.7C258.1 525.1 258.6 526.8 258.1 527.3M267.5 529.3l-0.7 0.2c-0.7 0-1.7-0.5-3-1.7 -0.7-0.7-1.7-2-3.2-3.4 -2-2.5-3.4-4.2-4.2-5.2l-0.7-1.2 -0.2-0.5 -0.7-1.5 -0.2-1.7c0-1 0.5-2 1.7-2.2 0.7 0 1.7 0.7 3.2 2.2 1.7 1.7 3.2 3.7 4.4 5.4 1.5 2.2 2.5 3.7 3 4.7 1 1.7 1.5 3.2 1.5 4.2L267.5 529.3M275.6 530.5c-1.2 0.5-2.5-0.2-3.7-2.2 -1-1.7-2.2-3.7-3.2-5.4 -1.2-1.7-2.2-3.4-3.4-5.2 -1.2-2.2-2-3.7-2-4.9 0-1 0.2-1.5 1-2 1-0.5 2.7 0.5 4.9 3 2 2 3.7 4.4 5.4 7.1 0.5 0.7 1 2 1.2 3.2 0.2 1.2 0.5 2.7 0.5 3.9C276.3 529.5 276.1 530.5 275.6 530.5M285.5 532.2c-1.5 0.2-3-0.2-3.7-1.5 -1.5-2.7-2.7-5.4-3.9-8.1 -2.7-4.4-3.9-6.9-4.2-7.4 -0.7-1.5-1.2-2.7-1.2-3.7 0-0.7 0.2-1.2 0.7-1.5 1-0.2 2.5 0.7 4.4 3 2 2.2 3.4 4.4 4.9 6.9 1 2 2 3.7 3.2 5.7 1 2 1.7 3.4 1.7 4.4C287.2 531.5 286.7 532.2 285.5 532.2M296.3 533.7c-0.5 0.2-1.7-0.2-3.2-1.7 -1.5-1.5-3-2.7-3.7-4.2 -1.2-2-2.5-4.4-3.7-6.9 -1-2.5-1.7-4.4-1.7-5.9 0-1.5 0.5-2.2 1.2-2.5 0.5-0.2 1.5 0.2 2.7 1.7 1.2 1.5 3 3.9 4.9 7.6 1 2 2 3.9 2.7 5.7s1.2 3.2 1.2 4.4C297 532.7 296.8 533.4 296.3 533.7M302.4 530.7c-1 0.2-2-0.5-3.2-2.2 -1.2-1.5-2.2-3.4-3-5.4 -0.5-1.2-1-2.7-1.5-4.2s-0.7-2.7-0.7-3.7c0-1 0.2-2 0.7-2.5 1 0.7 1.7 1.5 2.7 2 1.5 1.7 2.5 3.4 3.4 5.2 0.5 1.2 1 2.2 1.2 3s0.2 1.7 0.5 3.4c0 0.2 0 1 0.2 2.2C302.9 530 302.9 530.5 302.4 530.7M367.2 537.4c-3.4 1-7.9 1.2-13.5 1.5 -2 0-3.9 0-5.9-0.2 -6.9-0.7-13-2.2-18.2-4.2s-10.6-5.2-15.7-9.1c-0.7-0.5-1.5-1.5-2.5-3.2 -1-1.5-1.5-2.7-2-3.2 -1-1.2-2-2.5-2.7-3.9 -1.7-2.2-2.5-4.2-2.5-5.4s1.2-2 3.7-2.7c2.5-0.5 5.4-1 8.9-1 2.2 0 4.7 0.2 6.9 0.5 2.5 0.2 4.4 0.7 5.9 1.7 2.7 1.5 4.7 2.2 5.9 2.2 0.5 0 1.2-0.5 2-1.7s2.5-1.7 4.7-1.7c2.2 0 4.7 0.7 7.6 2 1.2 0.5 2.7 1.2 3.9 2l0.5 0.2c1.2 0.7 2.7 1.7 3.9 2.7l0 0c3 2.2 5.9 4.7 8.9 7.6 4.7 4.9 6.9 8.4 6.9 10.8C374.3 534.4 371.8 536.1 367.2 537.4M383.9 529.5c-0.5 0.5-2 0-4.2-1.5 -2-1.2-3.4-2.7-4.9-4.2 -2.5-2.7-4.2-4.4-4.9-5.2 -2-2.5-3-4.2-3-5.7 0-0.7 0.5-1.5 1.2-2s2.7 0.5 5.4 2.7c2.5 2 3.9 3.4 4.4 4.4 1 1.5 2 3 3.2 4.4C383.6 526.5 384.6 529 383.9 529.5M395 533.4c-1 0.5-2.5 0-4.7-2 -2.2-2-3.9-3.9-5.2-5.9 -1.5-2-3.2-3.9-4.7-5.7 -2.2-2.7-3.2-4.7-3.2-5.7l0.5-1.2c0.5-0.2 2 0.7 4.4 2.7 2 1.7 3.9 3.9 6.2 6.2 2.2 2.7 3.9 4.9 5.2 7.1C395.2 531.5 395.7 532.9 395 533.4M400.9 534.4c-1.2 0.5-2.7-0.7-4.4-3.7 -1.2-2-2.2-3.2-2.7-3.9 -2.2-2.5-4.2-4.9-6.4-7.4 -2.5-3-3.7-4.9-3.7-6.2l0.7-1.2c1-0.5 3 0.5 5.9 2.7 2.7 2.2 4.7 4.4 6.4 7.1 1.2 2 2.2 4.4 3.4 7.4C401.1 532.5 401.4 534.2 400.9 534.4M408.7 535.2c-1.5 0.2-2.7-0.2-4.2-2.2 -1.2-1.7-2.5-3.4-3.4-4.9s-2.2-3.2-3.2-4.9c-2-3.4-3-5.7-3-7.1 0-0.7 0.2-1.2 0.7-1.5 1-0.5 3 1 5.2 4.2 1 1.2 2 2.7 3.2 4.7s2.5 3.7 3.7 5.7 2 3.4 2 4.4C410 534.7 409.7 535.2 408.7 535.2M419.8 537.9c-0.7 0.2-2-0.2-3.9-1.7 -1.7-1.5-3.2-3-4.2-4.2 -0.7-1.5-1.2-2.7-2-3.9 -0.5-1.2-1.2-2.2-1.7-3 -2-2.2-3.7-4.2-4.9-5.9 -1.7-2.5-2.7-4.2-2.7-5.4l0.7-1c1-0.2 3 1 6.2 4.2 3.2 3.2 5.7 6.4 7.6 9.6 1.2 1.7 2.5 3.4 3.9 5.4 1.5 2 2 3.2 2 4.2C420.6 537.1 420.3 537.6 419.8 537.9M401.4 501c0-1 0.2-1.7 1-2.5 0.7-0.5 1.5-1 2.5-1s2 0.5 3.4 1.5c1.5 1 2 2 2 2.7 -0.2 0.7-0.5 1-1.2 1.2s-1.7 0.2-3.2 0.2c-1 0-2-0.2-2.7-0.7C401.6 502.4 401.4 501.7 401.4 501M425.7 536.4c-1 0.5-2.2-0.2-3.9-2.5 -1-1.2-2.5-3.2-4.2-6.2 -1.7-2.2-3.7-4.7-5.4-7.1 -2.7-3.4-4.2-5.9-4.2-7.4l0.7-1.2c1-0.5 2.5 0.2 4.4 2.5 1.7 2 3.4 4.2 5.2 6.9s3.7 5.7 5.7 8.9C425.7 534.2 426.5 535.9 425.7 536.4M427.7 531c-0.7 0-1.5-0.5-2.5-1.7 -1-1.2-2.2-3-3.7-5.4 -1.7-2-3-3.2-3.7-4.2 -1.5-2-2.2-3.4-2.2-4.2l1-1.2c0.7-0.2 1.2-0.5 1.7-0.5 1 0 2 0.5 2.7 1.2 0.5 0.5 1.2 1.2 2.2 2.5 1 1 1.7 2 2 3.4 0.5 1.5 0.7 3 1 4.2 0.5 2.2 1 3.7 1 3.7C427.9 530.2 427.9 531 427.7 531M436.5 533.9c-0.2 0.2-0.7 0.2-1.5 0s-1.5-0.5-1.7-1l-1-1.5 -0.2-1.2 0.5-1.2c0.2-0.2 1-0.2 1.7 0.2 1 0.5 1.5 1 2 1.7l0.7 1.7L436.5 533.9M429.4 504.9c3.2-1 6.9-1.7 10.8-1.7 5.4 0 10.6 1 15.5 3.2 4.4 2 8.4 4.2 12.1 6.6 0.7 0 1.2-0.2 1.2-0.7s-0.5-1.2-1.2-2.5 -1.2-2-1.2-2.7c0-1.2 1.2-2 3.4-2.7 2.2-0.5 5.7-1 10.1-1 7.4 0 13 2 17 6.2 3.4 3.4 4.9 7.4 4.9 12.1 0 6.4-3 11.3-9.1 14.8 -4.4 2.5-9.4 3.7-14.3 3.7 -2 0-3-0.2-3-0.7s1.5-0.7 4.4-1.2 4.7-1.2 4.7-2c0-0.5-0.5-0.7-1.2-1s-2.5-0.2-4.7-0.2c-1 0-2 0-3.2 0 -1.2 0-2 0-2 0 -0.5 0-2-0.2-4.4-0.5s-3.9-0.5-4.7-0.5c-1.5 0-2 0.2-2 0.7 0 0.7 0.7 1.5 2 2.2 0.7 0.2 1.7 0.7 3 1.2 -4.4 0-9.8-1.7-15.7-5.2 -6.2-3.4-11.8-7.9-17.2-13.3 -1.5-1.2-3.2-2.7-4.7-3.9 -3.9-3.4-5.7-5.7-5.7-7.1C424.5 507.6 426.2 506.1 429.4 504.9M436.8 477.8c-1 0.7-2.2 1-3.7 1 -2.2 0-4.9-1-8.1-3 -2.7-1.7-5.7-3.4-8.9-5.2l-0.2 0.7c0 0.5 1 3.2 2.7 7.9 1.7 4.7 2.7 7.9 2.7 10.3 0 2.2-0.7 3.9-2.5 4.7 -0.7 0.2-1.5 0.5-2.5 0.5 -2 0-4.7-1-7.9-3.2 -5.9-3.9-9.1-5.9-9.6-5.7 -0.2 2.5-0.7 4.9-1 7.4 -0.2 2-0.7 3-1.5 3.2l-2 0.2c-3.2 0-6.9-1.5-10.8-4.2s-5.9-5.2-5.9-7.4c0-1 0.5-1.7 1.2-2.2l1.2-0.5c0.2 0 0.7 0.2 1.5 0.7s1.5 0.7 2.5 0.2l0.5-1c0-0.2 0-1-0.2-2.5 -0.2-1.5-0.2-2.5-0.2-3.2 0-1.5 0.2-2.7 0.7-3.9s1.2-2.2 2.2-3l1.2-0.5c0.7 0 2.7 1 5.9 2.7 1.2 0.7 2 1 2.5 0.5 0.7-0.5 1.2-2.7 1.7-7.1 0.5-4.2 2-6.9 3.9-7.4 0.2-0.2 1-0.2 2-0.2 2.2 0 4.9 1 8.6 3 3.2 1.7 6.4 3.7 9.8 5.7l0.5-1.2v-1.2c0-0.7 0.7-1.2 2-1.2 1.2 0 2.7 0.5 4.4 1.7 1.5 1 2.7 2 3.7 3 0.5 0.5 1.2 1.5 2.5 3 1.7 2.2 2.5 3.9 2.5 5.2C438 476.6 437.8 477.3 436.8 477.8M447.9 454.4c-0.5 1-1.2 1.5-1.7 2.2l-0.2 0.2c-0.7 0.5-1.5 1-2.2 1.5 -1.7 0.7-3.7 1.2-5.9 1.2 -2.5 0-5.9-0.5-10.6-1.7 -2.7-0.7-4.7-1.2-5.9-1.5s-2.2-1-3.4-1.7c-1-0.7-1.5-1.7-1.5-2.5s0.5-1.2 1.2-1.7 1.2-0.7 1.2-1.2l-0.2-1.7c-0.2-0.7-0.5-1.2-0.5-2v-0.7l0.2-1.2c0.2-0.5 0.7-0.7 2-1s2.2-0.2 3.4-0.2c0 0 0.5 0.2 1.2 0.5 0.7 0.2 1.7 0.5 2.5 0.5h1.2 1.5c0.2 0 1 0 2 0.2s1.7 0.5 2.5 1.2c0.5 0.5 1.2 1 2 1 2.5 0 5.2 1.2 8.1 3.4l0 0 0 0c1.5 1 2.5 2 3 3C448.1 453 448.1 453.7 447.9 454.4M433.8 427.1v-1c0-1.2 0.2-2.5 0.7-3.4s1.2-1.5 2-1.5 1.2 0.5 1.5 1.2 0.5 1.7 0.5 3v1.2c0 0.5-0.2 1.2-0.2 2.2 -0.2 0.7-0.7 1.2-1.7 1.2s-1.7-0.2-2-0.5l-0.5-1.5L433.8 427.1M450.6 435.7L450.6 435.7c-0.7 0.7-1.2 1.5-2 2.2l-0.5 0.5 -0.7 0.7c-1 0.7-2 1.5-2.7 2l0 0 -1.7 0.5c-1.5 0.2-2.7-0.7-3.9-2.7 -1-2-1.7-3.9-2.7-5.9 -0.5-1 0.2-1.7 2-2 3-0.5 4.7-1 5.2-1.2 1.2-0.5 2.5-1 3.7-1.5l1.2-0.2c0.7 0 1.5-0.2 2.2-0.2 1.5 0 2.2 0.2 2.5 0.7l0.2 1.2C453.3 431.6 452.3 433.3 450.6 435.7M441.2 419.5l0.7-0.5c1.7 0 2.5 1.2 2.2 3.4 -0.2 1-0.5 1.7-0.7 2.5 -0.5 0.7-1 1-1.7 1 -0.7 0-1-0.2-1-0.5l0.5-1.2 0.5-2C441.7 421.2 441.5 420.5 441.2 419.5M449.8 423.4L449.8 423.4l-0.7 0.2c-0.7-0.2-1.2-0.5-1.2-1.2 -0.2-0.7-0.2-1.5-0.5-2.7 -0.2-1-0.2-1.7-0.2-2.2 0-1.2 0.2-2.5 0.7-3.2 0.5-1 1-1.2 1.7-1.2 1 0 1.7 0.2 2 1 0.5 0.5 0.5 1.5 0.5 2.5 0 0.5 0 1.5-0.2 2.5 -0.2 1.2-0.5 2.2-0.7 3l-0.7 1.5 0 0H449.8M458.7 414.1c-0.2 1-0.5 2.5-1 3.7 -0.5 1.5-0.7 2.2-1.2 2.2 -0.7 0-1.5-0.5-1.5-1.7 -0.2-1.2-0.2-2.7-0.2-4.4 0-1 0.2-1.7 0.5-2.5 0.5-0.7 1-1.2 1.5-1.2 0.7 0 1.5 0.2 1.7 0.7 0.2 0.5 0.5 1.2 0.5 2.2L458.7 414.1M465.6 396.6c-1.2 1.5-3.7 3.9-7.4 6.9 -1.5 1.2-3 2.5-4.4 3.4 -2.5 1.7-5.7 3.2-9.4 4.9l-1.5 0.5c-2.2 1-3.9 1.2-5.7 1.2 -1.2 0-2.7-0.2-3.9-0.7 -0.2-0.2-1-0.5-2.5-1.2l-1-1.7c0-1 0.5-2 1.7-3 3.4-3 6.6-5.2 9.4-6.6 0.7-0.5 3-1.5 6.6-3.4l2.2-1c1.7-0.7 3.7-1.5 5.9-2 3.4-0.7 6.2-1.2 8.4-1.2 1.5 0 2.5 0.2 2.7 0.7C467.6 393.9 467.1 395.1 465.6 396.6M445.9 392.2c0-1.2 0.2-2.7 0.7-3.9 0.5-1.5 1.2-2 2-2l1.2 0.2 0 0 0.7 0.5 0 0 0.5 1c0.2 0.2 0.2 1 0.2 2v1.2c0 0.7-0.5 1.5-1 2.5l-0.5 0.7 -0.7 0.7 -0.2 0.2 -1 0.2c-0.7 0-1.5-0.2-1.7-0.5C445.9 394.4 445.9 393.7 445.9 392.2M452 388.2l0.5-1.7c0.2-0.5 0.5-1.2 1-2 0.2-0.7 1-1.2 2-1.2 1.5 0 2.5 1 2.5 3 0 0.7 0 1.5 0 1.7 0 0.7-0.2 1.5-1 2.2s-1.5 1-2.5 1c-0.7 0-1.2-0.2-1.7-0.7C452.3 389.7 452 389.2 452 388.2M464.8 383.3c0 1.2-0.2 2.2-0.5 2.7l-1 0.7c-1 0-1.7-0.5-2.2-1.5s-0.5-2-0.5-3c0-1.2 0.2-2.5 0.7-3.7s1.2-1.7 2-1.7c1 0 1.5 0.5 1.5 1.2 0 0.5 0 1.5 0 3C464.8 381.9 464.8 382.6 464.8 383.3M471.7 375.7c-0.2 0.7-0.2 1.5-0.2 1.7v1.2c0 1.5-0.2 2.5-0.7 3.4s-1 1.2-1.7 1.2 -1.2-0.5-1.5-1.2c-0.5-0.7-0.5-2-0.5-3.7 0-1 0.5-2.2 1.2-3.7 0.7-1.2 1.5-2 2.2-2 1 0 1.5 0.5 1.5 1.2C472 374.5 472 375 471.7 375.7M476.7 371c0 0.7-0.2 1.5-0.2 2.2 0 1-0.5 1.2-1.5 1.2 -0.7 0-1.2-0.2-1.2-1 -0.2-0.5-0.2-1.2-0.2-2.5 0-1 0-2 0.2-3.4s0.7-2.2 1.5-2.2l1.5 0.7c0.2 0.5 0.2 1.2 0.2 2.5C476.9 369.3 476.9 370 476.7 371M469.5 368.3c-1.5 1.2-3.7 2.7-6.6 4.4 -3.7 2-8.1 3.9-13 5.9 -0.7 0.2-1.2 0.5-1.7 0.7l-1 0.2 -1.5-0.5c-0.5-0.2-0.7-1-0.7-1.7l0.5-1.7 1.2-1.7c1-1.2 2.5-2.7 4.4-4.4 2.2-2 4.2-3.7 5.9-4.7 6.9-4.2 12.8-7.6 17.5-10.3 5.7-3 8.9-4.2 9.6-3.7l0.7 1.5C484.3 353.8 479.4 359.2 469.5 368.3M467.8 287.6c0 1.2-0.2 2.5-0.7 3.4s-1.5 1.7-2.7 2.2c-0.7 0.2-1.5-0.5-2.2-3 -1-3-1.2-6.4-1.2-9.8 0-1.5 0.5-3.2 1.2-4.4 0.7-1.5 1.5-2.5 2-2.7 0.5-0.2 1 1 1.5 3.4s0.7 3.9 1 4.4c0.5 1.5 0.7 2.7 1 3.7C467.8 285.6 467.8 286.6 467.8 287.6M467.8 272.1c0.2-3.4 0.5-5.4 0.7-6.2 0.5-2.2 1.2-3.2 2.2-3.2s2 0.7 2.5 2.5c0.2 0.5 0.5 2.5 1.2 5.4 0.5 2.5 0.7 4.9 0.7 7.9 0 2.2-0.2 3.9-0.5 5.4 -0.5 1.2-1 2.2-1.7 2.2 -1 0.2-2-1.5-3.2-5.2C468.3 277.5 467.8 274.6 467.8 272.1M461.2 296.5c0 1-0.2 1.7-0.5 2.5l-1.5 1.2 -1.5 0.2c-1 0-1.7-0.7-2-2s-0.5-2-0.7-2c-0.5 2-1.2 3.9-1.7 5.7 -0.5 1.5-1.5 2.2-2.5 2 -1.2-0.2-2-1-2.2-2.2s-0.5-2.7-0.5-4.7c0-1.2 0.5-2.7 1.5-3.9 1-1.5 1.7-2.2 2.5-2.5 0.2-0.2 1 0 1.5 0.5 0.7 0.5 1 0.7 1.2 0.7s0.5-0.5 0.5-1.2c0-2.2 0.2-3.9 0.5-5.4 0.5-1.5 1.2-2.2 2.5-2.2 0.5 0 1 1.2 1 3.4 0.2 2.2 0.2 3.7 0.5 4.2 0.5 1.5 0.7 2.5 1 3.2S461.2 295.5 461.2 296.5M449.6 359.2c0-1 0.2-2.2 1-3.4s1.5-1.7 2.2-1.7c1.7 0 2.5 0.7 2.5 2.5 0 0.7 0 1.2 0 1.7s-0.2 1.5-0.5 3.2c-0.2 1.5-1 2.2-1.7 2.2 -1 0-1.7-0.5-2.5-1.7l-0.5-1C449.8 360.4 449.6 359.7 449.6 359.2M462.9 354c0.2 1.5 0 2.7-0.7 3.7 -0.5 0.7-1 1.2-1.7 1.2 -1 0-1.7-0.5-2-1.2 -0.5-0.7-0.5-1.7-0.5-2.5 0-1 0.2-2.2 1-3.4 0.5-1.2 1.5-1.7 2.2-1.7 1 0 1.7 0.2 1.7 0.7v2V354M465.1 350.4v-1.2c0-1.2 0.2-2.5 0.5-3.4 0.5-1 1.2-1.5 2.5-1.5 0.7 0 1.2 0.5 1.5 1.7s0.2 2.2 0.5 3.4c0.2 1 0 2-0.5 3 -0.5 1.2-1.2 1.7-2 1.7 -1 0-1.7-0.5-2-1.2S465.1 351.3 465.1 350.4M473.2 344.4v-1c0-1.2 0.2-2.5 0.5-3.4 0.2-1 1-1.5 2.2-1.5 0.5 0 0.7 0.5 1.2 1.5 0 0.2 0.2 1.5 0.5 3.2 0.2 0.7 0 2-0.2 3.2s-0.7 2-1.2 2c-1 0-1.7-0.5-2-1.5C473.2 346.4 473.2 345.4 473.2 344.4M484.3 334.8c-0.2 0.7-0.2 1.5-0.5 2.2 -0.2 1.7-1 2.7-1.7 2.7 -1 0-1.7-0.5-2.2-1.2 -0.2-0.7-0.5-1.7-0.5-2.7 0-1.5 0.2-2.7 0.5-3.9s1-1.7 2-1.7 1.5 0.2 2 1 0.7 1.5 0.7 2.2L484.3 334.8M490.7 331.9c-0.5 1.2-1 1.7-1.7 1.7s-1.5-0.2-2-1 -0.7-1.5-0.7-2.2c0-1.7 0.2-3.2 0.5-4.7 0.5-1.5 1-2.2 2-2.2 0.5-0.2 1.2 0.2 1.7 1.2s1 2 1 3C491.2 329.2 490.9 330.7 490.7 331.9M498.3 312.7c-0.5 1.5-1.2 2.7-2.2 3.7 -0.2 0.2-0.7 0.2-1.7 0s-1.7-0.5-2-0.5c-0.7 0-1.2 0.2-1.7 0.5 -5.7 6.4-11.3 13-17 19.4 -5.4 5.7-10.3 9.4-14 10.8 -0.7 0.7-1.5 1.7-2.2 2.5 -1.2 1.2-3.2 1.7-5.7 1.7l-1.2-0.7 -0.7-1.2c-0.2-1-0.5-2-0.5-3.2 0-1 0.2-2 0.5-2.7l0.7-1.2 1-0.5c4.9-2.2 11.1-5.7 18-10.8 4.2-3.2 8.9-6.9 13.8-11.1 3.4-3.9 6.9-7.6 10.3-11.6 2.7-3 4.2-4.2 4.7-3.9 0.7 0.7 1.2 2.5 1.2 4.7C499 309.7 498.8 311.2 498.3 312.7M451.8 330.9c0-0.5 0-1.5 0.2-2.5 0.2-2.2 0.5-3.4 0.5-3.7 0.5-1.2 1.2-2 2.5-2 0.7 0 1.5 0.2 1.7 0.7 0.2 0.5 0.5 1.2 0.5 2.2v1.5 1.2c-0.2 1.7-0.5 2.7-1 3.4s-1.2 1-2.5 0.7S451.8 331.9 451.8 330.9M460.2 322.5c0-1.2 0.2-2.2 0.5-3s1-1.2 2-1.2 1.7 0.2 2 0.7 0.5 1.2 0.5 2.5v2c0 2.7-0.7 3.9-2.5 3.9 -1 0-1.7-0.2-2-1C460.2 325.5 460.2 324.3 460.2 322.5M467.6 315.4c0-1.7 0.2-3.4 0.7-4.7 0.5-1.5 1.2-2.2 2.2-2.5s1.7 0.5 2 1.7c0.2 1.5 0.5 3.4 0.7 5.9l0.2 1.2c0.2 0.7 0.2 1.5 0.2 2.2 0 1-0.2 2-1 2.7 -0.5 0.7-1.5 1.5-3 1.7 -1 0.2-1.5 0-1.7-0.5 -0.2-0.5-0.5-1.2-0.5-2.5V319.1c0-0.7 0-1.2 0-2.2C467.8 316.9 467.6 316.1 467.6 315.4M476.2 312.9v-1.5 -1.7 -3.9c0-0.7 0-1.5 0.2-2l0.7-1 1-0.2c1 0 2 0.7 2.7 2s1 3.2 1 5.7c0 1.5-0.5 3.2-1.5 4.9s-2.2 2.7-3.2 2.7c-0.5 0-0.7-0.5-0.7-1.2C476.4 315.4 476.2 314.4 476.2 312.9M483.5 303.6c0-0.7 0-1.5 0-2.2s0-1.5 0-2.2c0-1 0.2-2.2 0.2-3.9 0.2-1.5 0.7-2.5 2-2.7 1.2-0.5 2.2 0.2 3.2 2.2 0.7 1.5 1 3.2 1 4.9 0 0.5 0 1.7 0 3 0 1.7-0.2 3-1 3.9 -0.7 1-2 1.5-3.7 1.5 -1 0-1.5-0.5-1.7-1.2C483.8 306.6 483.5 305.3 483.5 303.6M492.2 290.1c0-2.2 0.2-3.7 0.5-5.2 0.2-1.2 1-2 2-2.2s1.7 0.2 2.5 1.7 1 3 1 4.2c0 3-0.2 4.9-1 6.4 -0.5 1.5-1.7 2.2-3.4 2.2 -0.7 0-1.2-0.5-1.2-1.7C492.2 294.5 492.2 292.8 492.2 290.1M503.5 265c0 2.5-0.2 4.4-0.7 6.2s-1.5 3-2.7 3.7l-1.2 0.5 -0.5-0.2 -0.7 0.2c0 0-1.5 1.7-4.2 4.9 -3 3.7-6.2 6.9-9.1 9.8l-11.1 12.1c-4.9 3.9-9.8 7.6-14.8 11.6 -0.5 0.5-1.2 1.2-2.5 1.7 -2.5 1.5-3.9 2-4.7 1.2 -0.5-0.2-0.7-0.7-0.7-1.5 0-1 0.7-2.7 2.5-4.4 1.2-1.5 3.2-3.4 6.2-5.9 2.2-1.7 5.9-5.4 11.6-11.6 5.9-6.2 10.1-10.8 12.8-14.3 2.2-2.7 6.2-7.9 11.6-15.3 3-4.2 5.2-6.2 6.2-6.2s1.7 0.7 2.2 2c0.2 0.7 0.2 2.2 0.2 4.2v1.2H503.5zM476.4 265.2c0-3 0.2-5.7 0.7-7.9 0.5-2.2 1.2-3.4 2.5-3.4 1-0.2 1.7 0.5 2 2.2 0.2 1.7 0.5 3.9 0.5 7.1v1.7c0 2.5-0.2 4.9-0.7 7.1 -0.5 2.2-1.2 3.4-2.5 3.4s-2-1.2-2.2-3.4C476.7 269.6 476.7 267.4 476.4 265.2M483.5 253.2c0-3.4 0.2-6.4 0.7-9.1s1.2-4.2 2.5-4.4 2.2 0.7 2.7 3.4c0.5 2.5 1 5.2 1 8.1 0 3.9-0.2 6.9-0.5 8.6 -0.5 3.2-1.5 4.9-3 4.9s-2.2-1.2-2.7-3.4S483.5 256.3 483.5 253.2M490.4 238.6c0-2.2 0.2-4.2 0.5-5.4s1-2.2 2-2.5c1.2-0.2 2.2 0.5 3.2 2.5 0.5 1.2 1 3 1.7 5.4 0.2 1 0.5 2.5 0.5 3.9 0 2.2-0.2 3.9-1 5.7 -0.5 1.7-1.5 2.5-2.5 2.5 -1.2 0-2.5-1.2-3.2-3.9C490.9 244.3 490.4 241.6 490.4 238.6M503 235.4c-0.5 1.5-1.2 2.5-2 2.5 -1 0-2-1-2.5-3.2s-1-4.4-1-6.6c0-0.5 0-1.2 0-2 0-1 0-1.5 0-2s0-1.2 0.2-2c0.2-0.7 0.7-1 1.5-1.2 1.2-0.2 2.2 0.5 3.2 2.5 0.7 1.5 1.2 3.4 1.5 5.4 0 0.5 0 1 0 2C503.7 232 503.5 233.7 503 235.4M506.2 198.3c0 1.5 0 2.5 0 3 0 2.5-0.2 4.9-0.5 7.6 -0.5 2.7-1 4.2-1.5 4.2 -1 0.2-1.7-0.5-2.2-1.7s-1-2-1.2-2.2c-0.5 0-1.2 1.5-2.5 4.2 -3.4 8.1-7.1 15-10.6 20.2 -2 3-4.9 6.9-8.6 12.1 -3.4 4.7-6.2 8.4-8.1 11.1 -1.7 2.2-3.4 4.2-4.9 6.2 -3.2 4.2-5.9 7.9-7.6 11.1 -0.5 1-2 3-4.7 5.9 -1.2 1.5-2.2 2.5-3 3.2l0 0 -1 0.7 -0.2 0.2 -0.7 0.2 -0.7-0.7 0.2-1 0.5-1.7c0.5-1.2 1.2-2.5 2-3.7l0 0c0.5-0.7 1-1.7 1.7-2.7 2.7-3.9 4.9-7.1 6.9-9.4 1-1 3.9-5.2 8.9-12.8 6.4-9.6 11.1-16.2 13.5-20.4 4.7-7.1 7.4-11.6 8.1-13 4.9-10.1 7.4-15.5 7.9-16.2 3.9-7.6 6.4-11.3 7.4-11.3 0.7 0 1 0.5 1.2 1.2 0 0.7 0.2 1.5 0.2 2.5C506.2 195.8 506.2 197 506.2 198.3"/><path fill="#005596" d="M129.2 602.1c4.9 1.2 8.6 3 11.1 5.4 3.9 3.4 5.7 7.6 5.7 12.8 0 4.2-1.5 8.1-4.2 11.8 -2.7 3.4-6.6 6.2-11.3 7.9 -3.4 1.2-9.1 1.7-17 1.7H93.5v-0.2c3-1.2 4.4-4.9 4.4-10.8v-45.5c0-4.2-0.7-7.1-2-8.9 -0.7-1-1.7-1.7-3-2v-0.2h23.9c6.6 0 11.8 1 15 2.7 5.2 2.7 7.9 6.9 7.9 12.1C139.8 594.7 136.3 599.1 129.2 602.1M108.8 600.9c1.5 0.2 3 0.2 4.2 0.2 4.7 0 8.4-1 10.8-2.7 2.5-1.7 3.9-4.4 3.9-7.6s-1.2-5.7-3.4-7.4c-2.2-1.7-5.4-2.7-9.6-2.7 -0.5 0-2.2 0-4.9 0.2h-0.7v19.9H108.8zM108.8 633.3c3.9 0.5 7.4 0.7 9.8 0.7 4.9 0 8.9-1.2 11.6-3.4s4.2-5.4 4.2-9.4c0-6.6-3.4-11.1-10.6-12.8 -2.5-0.7-5.4-1-8.9-1 -2.2 0-4.2 0.2-6.2 0.5V633.3z"/><path fill="#005596" d="M191.7 574l22.1 54.6c2.5 6.4 5.7 10.8 9.4 12.8v0.2h-21.7v-0.2l0.7-0.2c2-0.7 3-2 3-3.2 0-1-0.2-2-0.7-3.4l-0.7-1.7c-0.2-0.7-0.5-1.7-1-2.7l-5.4-14h-25.1l-5.9 15.5c-1 2.5-1.5 4.4-1.5 5.7 0 2 1.2 3.4 3.7 4.4v0.2H149.4v-0.2c1.2-0.5 2.7-1.5 4.2-3s3-4.4 4.4-8.1l1-2.2 15.5-39.4c2.2-5.7 3.4-9.1 3.4-10.3 0-2.2-1-3.4-3.4-3.9v-0.2h17.2V574zM184.6 583.1l-9.8 25.6h19.9L184.6 583.1z"/><path fill="#005596" d="M227.6 574h16c4.9 0 8.1 0 9.6 0 8.9 0.5 14.8 3.2 18.2 8.1 1.5 2.5 2.2 5.2 2.2 8.1 0 4.9-2 9.1-5.9 12.8 -2.7 2.5-6.2 4.2-10.3 5.4l13.8 17.5c3.7 4.7 6.9 8.1 9.6 10.3 2.5 2 5.2 3.9 7.9 5.4h-10.3c-2.7 0-4.9-0.5-6.6-1.2 -2.5-1.2-5.2-3.7-7.9-7.1l-1.7-2.2 -11.6-15.3c-2.5-3.2-4.9-5.9-7.4-7.9v22.9c0 4.2 0.5 7.1 1.7 8.9 0.7 1 1.7 1.7 3 2v0.2h-20.2v-0.2c2-0.7 3.4-2.7 3.9-5.4 0.2-1.2 0.5-3.2 0.5-5.4v-45.8C232.1 579.2 230.6 575.5 227.6 574L227.6 574 227.6 574zM242.9 606.3c3.4 0 6.9-0.7 10.1-2 6.4-2.5 9.8-6.6 9.8-12.5 0-3.2-1.2-5.9-3.4-8.1 -2.2-2.2-5.4-3.2-9.1-3.2 -2.2 0-4.7 0.2-7.1 0.7v25.1H242.9z"/><path fill="#005596" d="M313 641.7h-20.2v-0.2c2.2-0.7 3.7-2.5 4.2-5.4 0.2-1.2 0.5-3 0.5-5.4v-45.5c0-4.2-0.5-7.1-1.7-8.9 -0.7-1-1.7-1.7-2.7-2v-0.2h20.2v0.2c-2.2 0.7-3.4 2.5-4.2 5.4 -0.2 1.2-0.5 3.2-0.5 5.4v45.5c0 4.2 0.7 7.1 2 8.9 0.7 1 1.7 1.7 2.7 2v0.2H313z"/><path fill="#005596" d="M320.4 574h14.8l41.1 51.9v-40.8c0-5.2-1.7-8.9-5.4-11.1v-0.2h18.2v0.2c-2.5 1.5-4.2 3.7-4.7 6.4 -0.2 1.5-0.5 3.4-0.5 5.7v55.6h-8.6l-41.6-52.7v40.4c0 4.4 0.7 7.4 2.2 9.4 0.7 1 2 2 3 2.7v0.2h-18.2v-0.2c3.4-2 5.4-5.7 5.4-10.8v-40.6c0-5.9-0.5-9.6-1.2-11.3 -1-1.7-2.2-3.2-4.2-4.4v-0.2H320.4z"/><path fill="#005596" d="M454.3 574.3v11.8h-0.2c-3.9-4.2-9.8-6.2-18-6.2 -8.9 0-16 2.7-21.2 8.1 -4.7 4.9-6.9 11.1-6.9 18.5 0 7.9 2.5 14.5 7.4 19.9 5.7 6.2 13 9.4 22.4 9.4 3.9 0 8.4-0.5 13-1.7v-14.8c0-6.6-1.7-10.6-4.9-11.6v-0.5h15.7v33c-0.7 0.2-1.2 0.2-1.5 0.2l-6.9 1.2c-5.9 1-11.1 1.5-16.2 1.5 -12.6 0-22.6-3.2-30.3-9.6 -7.6-6.4-11.3-15-11.3-25.3 0-7.9 2.2-14.8 6.6-20.7 4.4-5.9 10.8-10.1 18.7-12.8 5.2-1.7 10.8-2.5 16.7-2.5C443.9 572.3 449.3 573.1 454.3 574.3"/><path fill="#005596" d="M510.6 575v11.6c-4.4-4.2-9.8-6.4-15.7-6.4 -3.9 0-7.1 0.7-9.6 2.5 -2.5 1.7-3.7 3.9-3.7 6.6s1.5 5.2 4.2 7.4c2 1.5 6.2 3.9 12.8 6.9 7.4 3.2 12.3 6.4 14.8 9.4 2.5 2.7 3.7 5.9 3.7 9.6 0 2.5-0.5 5.2-1.7 7.6 -2.2 4.4-5.7 7.6-10.3 10.1s-10.1 3.7-16.2 3.7c-5.7 0-11.6-1-17.7-3l-3.2-12.8c3.2 2.5 6.4 4.4 9.4 5.4 4.7 1.7 8.6 2.7 12.6 2.7 4.7 0 8.6-1.2 11.8-3.7 2.5-1.7 3.4-4.2 3.4-6.9 0-4.2-2.7-7.6-7.9-10.3 -1.5-0.7-4.4-2.2-8.6-4.2 -7.4-3.2-12.3-6.4-15-9.6 -2.5-3-3.9-6.4-3.9-10.6 0-5.7 2.5-9.8 7.1-13.3 4.7-3.2 11.1-4.9 18.9-4.9C500.8 572.8 505.7 573.5 510.6 575"/></svg>