<svg xmlns="http://www.w3.org/2000/svg" width="167.1" height="31.743" viewBox="0 0 167.1 31.743"><defs><clipPath id="a"><path data-name="Path 10216" d="M0 0h167.1v31.743H0z"/></clipPath></defs><g clip-path="url(#a)"><path d="M164.127 21.551a4.246 4.246 0 002.973-.955l-.743-2.442a1.675 1.675 0 01-1.38.531c-.849 0-1.38-.743-1.38-1.7V9.554h2.973v-2.76h-2.975V2.866h-3.185v3.928h-2.442v2.76h2.442v8.387c0 2.336 1.274 3.61 3.716 3.61m-14.757-2.76c-2.654 0-4.14-2.229-4.14-4.777s1.486-4.777 4.14-4.777 4.14 2.229 4.14 4.777-1.486 4.777-4.14 4.777m0 2.76a7.3 7.3 0 007.431-7.644c0-4.14-2.76-7.538-7.431-7.538a7.218 7.218 0 00-7.431 7.538c0 4.246 2.76 7.644 7.431 7.644m-14.438 0a6.539 6.539 0 005.52-2.548l-2.017-1.911a3.822 3.822 0 01-3.291 1.7c-2.654 0-4.353-2.017-4.353-4.777s1.8-4.777 4.353-4.777a3.687 3.687 0 013.291 1.7l2.017-1.911a6.37 6.37 0 00-5.52-2.548 7.221 7.221 0 00-7.431 7.538 7.221 7.221 0 007.431 7.538m-15.5 0c3.928 0 6.051-1.911 6.051-4.565 0-5.733-8.705-3.822-8.705-6.37 0-1.062 1.062-1.8 2.654-1.8a5.808 5.808 0 014.246 1.7l1.274-2.229a8.175 8.175 0 00-5.625-2.025c-3.61 0-5.733 2.017-5.733 4.353 0 5.52 8.705 3.5 8.705 6.37 0 1.168-.955 1.911-2.866 1.911a7.583 7.583 0 01-4.883-2.017l-1.486 2.229a8.705 8.705 0 006.37 2.442m-10.935 0a2.071 2.071 0 10-2.123-2.123 2.123 2.123 0 002.123 2.123m-7.962-.318l5.839-14.438h-3.4l-4.244 10.825-4.247-10.829h-3.189l5.839 14.438h3.4zm-17.3-2.442c-2.654 0-4.14-2.229-4.14-4.777s1.486-4.777 4.14-4.777 4.14 2.229 4.14 4.777-1.486 4.777-4.14 4.777m0 2.76a7.3 7.3 0 007.431-7.644c0-4.14-2.76-7.538-7.431-7.538s-7.441 3.394-7.441 7.535c0 4.246 2.866 7.644 7.431 7.644m-17.3-3.079c-2.548 0-4.14-1.8-4.14-4.565s1.592-4.671 4.14-4.671a4.769 4.769 0 013.716 1.911v5.414a4.941 4.941 0 01-3.716 1.911m-.637 8.6c3.5 0 7.431-1.38 7.431-6.582V6.794h-3.184v2.017a5.52 5.52 0 00-4.671-2.335c-3.716 0-6.37 2.76-6.37 7.431 0 4.777 2.76 7.431 6.37 7.431a5.885 5.885 0 004.671-2.442v1.592c0 3.079-2.229 4.034-4.246 4.034a5.777 5.777 0 01-4.565-1.8l-1.486 2.229a8.321 8.321 0 006.051 2.123" fill="#333e48"/></g><path d="M1.168 0h51.489v31.743H1.168z" fill="#fff"/><path d="M8.387 1.486l18.367 10.829L45.225 1.486zm0 28.77l18.367-10.722 18.471 10.722zM2.654 4.777v22.188l18.26-11.041zm48.516 0v22.188L32.804 15.924z" fill="#0065bd"/></svg>