<svg xmlns="http://www.w3.org/2000/svg" viewBox="0 0 43.67 59.59"><defs><style>.cls-1{fill:#fff}.cls-2{fill:#ffcd00}.cls-3{fill:#002055}.cls-4{fill:#af001e}.cls-5{fill:#007a33}.cls-6{fill:#262626}</style></defs><title>Lions_RGB</title><g id="Layer_2" data-name="Layer 2"><g id="Lockup"><g id="Artwork"><g id="Principal_Partner" data-name="Principal Partner"><path class="cls-1" d="M1.13 55.12H0v4.42h.77v-1.7h.36c.8 0 1.16-.42 1.16-1.37s-.36-1.35-1.16-1.35zm0 2H.77v-1.3h.38c.32 0 .38.25.38.66s-.07.66-.39.66zM5.23 56.44c0-.93-.34-1.32-1.15-1.32H2.94v4.42h.76v-1.79H4l.56 1.75h.8l-.65-2a1.2 1.2 0 0 0 .52-1.06zm-.77 0c0 .38-.06.62-.38.62h-.37v-1.24h.38c.31 0 .37.18.37.62zM6 55.12h.77v4.42H6zM9.19 57.51l-.94-2.37-.01-.02h-.68v4.41h.77v-2.39l.94 2.37.01.02h.67v-4.41h-.76v2.39zM12.21 58.34a.8.8 0 0 1-.1.4.36.36 0 0 1-.5.07l-.07-.07a3.42 3.42 0 0 1-.15-1.42 3.38 3.38 0 0 1 .15-1.41.31.31 0 0 1 .29-.14.29.29 0 0 1 .28.14.74.74 0 0 1 .1.4H13a1.34 1.34 0 0 0-.36-.94 1.19 1.19 0 0 0-1.65.09 2.84 2.84 0 0 0-.33 1.83v.09c0 .85 0 1.46.33 1.83a1.2 1.2 0 0 0 1.65.09 1.33 1.33 0 0 0 .37-1h-.77zM13.62 55.12h.77v4.42h-.77zM16.31 55.12h-1.13v4.42H16v-1.7h.37c.8 0 1.15-.42 1.15-1.37s-.41-1.35-1.21-1.35zm0 2h-.38v-1.3h.38c.31 0 .38.25.38.66s-.06.66-.37.66zM18.51 55.12l-1.07 4.36h.81l.17-.86h.93l.17.86h.8l-1.07-4.42zm.68 2.88h-.64l.32-1.56zM21.53 55.12h-.76v4.41h1.9v-.69h-1.14v-3.72zM25.62 55.12h-1.14v4.42h.77v-1.7h.37c.8 0 1.15-.42 1.15-1.37s-.36-1.35-1.15-1.35zm0 2h-.38v-1.3h.38c.31 0 .38.25.38.66s-.06.66-.37.66zM27.81 55.12l-1.07 4.36h.81l.17-.86h.93l.18.86h.8l-1.07-4.42zm.68 2.88h-.64l.32-1.56zM32.36 56.44c0-.93-.34-1.32-1.15-1.32h-1.14v4.42h.76v-1.79h.31l.56 1.75h.8l-.65-2a1.2 1.2 0 0 0 .51-1.06zm-.77 0c0 .38-.06.62-.38.62h-.38v-1.24h.38c.32 0 .38.18.38.62zM32.75 55.82h.72v3.71h.76v-3.71h.73v-.7h-2.21v.7zM37.15 57.51l-.94-2.37-.01-.02h-.68v4.41h.77v-2.39l.94 2.37.01.02h.67v-4.41h-.76v2.39zM38.71 59.53h1.9v-.69h-1.13v-1.18h.98v-.7h-.98v-1.14h1.13v-.7h-1.9v4.41zM43.06 57.59a1.2 1.2 0 0 0 .5-1.15c0-.93-.34-1.32-1.15-1.32h-1.14v4.42H42v-1.79h.31l.56 1.75h.8zm-.27-1.15c0 .38-.06.62-.38.62H42v-1.24h.38c.35 0 .41.18.41.62z"/></g><g id="Badge"><path class="cls-2" d="M22 45.93h-.33l-.06-.15c0-.12-.35-.75-2-1.94a39.47 39.47 0 0 0-4.8-2.52c-1.64-.79-3.35-1.6-4.8-2.42a10.87 10.87 0 0 1-2.09-1.52 9.94 9.94 0 0 1-1.67-2 10.4 10.4 0 0 1-1.51-5.56 21.54 21.54 0 0 1 1.11-6.37A21.7 21.7 0 0 0 7 17a17.46 17.46 0 0 0-1-5.49 15.94 15.94 0 0 0-1-2.34V9l.12-.12 1.4-1.51.16.12a11.06 11.06 0 0 0 2 1.08 14.14 14.14 0 0 0 5.42 1.12 17.33 17.33 0 0 0 5.19-.85 17.46 17.46 0 0 0 2.45-1l.1-.05.1.05a19.73 19.73 0 0 0 2.36.91 18.1 18.1 0 0 0 5.3.91 14.12 14.12 0 0 0 5.4-1 11.17 11.17 0 0 0 2-1.08l.16-.12.14.14L38.73 9l-.08.15a15.8 15.8 0 0 0-1 2.29 17.42 17.42 0 0 0-1 5.49 21.67 21.67 0 0 0 1.12 6.45A21.52 21.52 0 0 1 39 29.77a10.4 10.4 0 0 1-1.51 5.56 10 10 0 0 1-1.67 2 10.91 10.91 0 0 1-2.09 1.52c-1.45.82-3.15 1.63-4.8 2.42a39.48 39.48 0 0 0-4.8 2.52c-1.66 1.19-2 1.83-2 1.94zM33.36 40.15v1.1h-.2v-1.1H33V40h.63v.18zM34.42 41.25v-.8l-.17.53h-.11l-.14-.52v.79h-.2V40h.2l.25.67.25-.67h.19v1.28z"/><path class="cls-3" d="M22.36 9.26c.42.17 1 .37 1.6.58a19 19 0 0 0 5.64 1 15.14 15.14 0 0 0 5.81-1.17A13.76 13.76 0 0 0 37 8.83l.36.38a19.39 19.39 0 0 0-.71 1.79 18.44 18.44 0 0 0-1 5.86 22.53 22.53 0 0 0 1.15 6.71l.25.88H22.36z"/><path class="cls-1" d="M27.79 15.55l.55-.33q.39.14.78.3h.11q-.42.2-.82.44l-.64-.22s.01-.11.02-.19zm0 .85l.4-.26-.45-.14a2.87 2.87 0 0 0 .07.41zm.69.61q.36-.24.75-.45l-.47-.22-.35-.14-.51.33h-.08v.18zm-.66-1.69l.29-.17-.21-.15-.07.28zm2.35 1.77c-.24-.15-.49-.3-.75-.43q-.38.2-.75.43l.75.38.77-.38zm-1.32.74l.39-.25c-.24-.13-.49-.26-.75-.37l-.1.07-.18.13a1.51 1.51 0 0 0 .66.42zm-.56-.7L28 17a1.69 1.69 0 0 0 .16.28zm1.12-2.45q-.44.19-.86.41l.64.25.25.11.25-.11.64-.25q-.42-.22-.86-.41zm1.67 1.11v-.24l-.55-.33q-.39.14-.78.3h-.11c.28.14.55.28.82.44zm-2.48.3l.23.09.59.28.59-.28.23-.09q-.4-.23-.82-.43-.42.2-.8.43zm2.2-1.65l.35-1.22H31l-.31 1.24zm-.73 0l-.41.16q.45.2.89.44l.37-.12a2.12 2.12 0 0 0-.13-.27 3.66 3.66 0 0 0-.72-.21zm.58 3l-.18-.13-.1-.07a13 13 0 0 0-.75.37l.39.25a1.52 1.52 0 0 0 .64-.46zm.11-2.26l.29.17A2.3 2.3 0 0 0 31 15zm-2.67-.51a2.11 2.11 0 0 0-.13.27l.37.12q.43-.24.89-.44l-.41-.16a3.62 3.62 0 0 0-.72.18zm1.61-.25h-.51l.25.1zm-.92-.14L28.59 13h-.22l.27 1.28zm-.32.07L28.18 13l-.16.05.32 1.25zm1-.13h.11l.08-1.32h-.38l.08 1.32zm-.3 0l-.08-1.32h-.27l.19 1.3zm-1 .21l-.31-1.24h-.11l.35 1.22zm1.18 8.27a2 2 0 0 1-.62-1.23l-.32.14h-.07a1.19 1.19 0 0 1-.71 0l-.18-.08a1.37 1.37 0 0 0-.73 0 1.73 1.73 0 0 0-.5-.62 1 1 0 0 0-.72-.26v-.4a.39.39 0 0 0-.4-.09.76.76 0 0 1 .15-.21 1.16 1.16 0 0 1 .25-.15.71.71 0 0 1-.57-.16 1.11 1.11 0 0 0-.26-.18.37.37 0 0 0 .22-.12c.13-.12 0-.44-.11-.57a.89.89 0 0 0-.59-.19s.39-.2.3-.42-.33-.1-.33-.1a.57.57 0 0 1 .2-.34.64.64 0 0 1 .35-.11l-.13-.16a1.12 1.12 0 0 1-.13-.26c-.08-.24 0-.47-.11-.83a1.11 1.11 0 0 0-.22-.39.48.48 0 0 1 .41.17.61.61 0 0 0 .24.16v-.72h.12l.09.06a1.94 1.94 0 0 1-.14-.89.81.81 0 0 1 .25-.61 2.34 2.34 0 0 0 0 .4.32.32 0 0 0 .2.26 1.42 1.42 0 0 1 0-.31 2.75 2.75 0 0 1 .16-.4 1.5 1.5 0 0 0 .06-.41l.13.3a3.09 3.09 0 0 1 .24-.43l.15-.2a.9.9 0 0 0 .15.28c.08.07.2 0 .32-.16a2 2 0 0 1 .34-.24s-.08.19 0 .26.24-.06.24-.06l.35-.15-.46.41c-.29.27-.39.43-.17.41a.71.71 0 0 0 .28-.08.73.73 0 0 1-.15.35.62.62 0 0 1-.31.2.54.54 0 0 1 .18.07.81.81 0 0 1 .17.14 1.41 1.41 0 0 0-.38.28 3.82 3.82 0 0 0-.27.49 1 1 0 0 1-.34.3.64.64 0 0 0 .27 0 .27.27 0 0 1 .24 0 2 2 0 0 0-.41.7 2.3 2.3 0 0 0-.09.79.75.75 0 0 1 .2-.3.39.39 0 0 1 .28-.12 2.43 2.43 0 0 0 0 .47 3.34 3.34 0 0 0 .08.45s-.16.09-.15.41a1 1 0 0 0 .25.6 1.27 1.27 0 0 1 .14-.46.75.75 0 0 1 .24-.26 3.71 3.71 0 0 0 0 .61 2.21 2.21 0 0 0 .18.49 1.61 1.61 0 0 1 0-.49.94.94 0 0 1 .24-.47 3.69 3.69 0 0 0 .28 1.64 1.52 1.52 0 0 0 .16.26 2.14 2.14 0 0 0 .8.62 5.17 5.17 0 0 1 .07-.87 11.68 11.68 0 0 1 .25-1.16 5 5 0 0 0 .15-.86l.34-.21.34.21a5 5 0 0 0-.33.84 8.94 8.94 0 0 0-.27 1.19 5.59 5.59 0 0 0-.09.92.5.5 0 0 0 .31-.25 4.94 4.94 0 0 0 .34-.67l.06.24a.57.57 0 0 1 .08-.24 4.27 4.27 0 0 1 .18-.39 2 2 0 0 1 .31-.42 1 1 0 0 0 .16-.27v.57s.11-.14.23-.33a.84.84 0 0 0 .14-.35.6.6 0 0 1 .19.16c0 .07.15.24.15.24a1.76 1.76 0 0 1 .06-.64 3 3 0 0 0 .09-.54.79.79 0 0 1 .2.32 1.23 1.23 0 0 0 .13.33 2.52 2.52 0 0 1 0-.61 3.75 3.75 0 0 0 .08-.53.27.27 0 0 1 .23.13 1.37 1.37 0 0 1 .1.24.86.86 0 0 0 .08-.45.42.42 0 0 0 0-.15 1.06 1.06 0 0 0-.43-.44.24.24 0 0 0 .24-.19 1.68 1.68 0 0 0-.28-.87.38.38 0 0 1 .29 0 .71.71 0 0 1 .24.18 1.33 1.33 0 0 0-.28-.79 2.21 2.21 0 0 1-.58-.92h.2l.15.06a.76.76 0 0 1-.14-.41v-.48a1.78 1.78 0 0 1 .45.09 2.35 2.35 0 0 1 .42.34 1.09 1.09 0 0 1 0-.31 1.94 1.94 0 0 1 .1-.22 1.46 1.46 0 0 1 .17.28 3.79 3.79 0 0 1 .11.57l.17-.22a1.87 1.87 0 0 0 0 .39 2 2 0 0 1 .08.41V15a1.65 1.65 0 0 1 .14-.24.87.87 0 0 1 .19-.18 2 2 0 0 0 0 .47 2.66 2.66 0 0 1 .08.68 5 5 0 0 1 0 .54l.17-.15a1.91 1.91 0 0 0 .15-.27v.83a5.9 5.9 0 0 1-.09.63v.13l.2-.09h.28a4.1 4.1 0 0 1-.22.55 1 1 0 0 1-.49.49.71.71 0 0 0-.22.26.5.5 0 0 1 .23 0 .45.45 0 0 1 .2.08l-.38.4h.24a1.16 1.16 0 0 0-.36.36.75.75 0 0 1-.4.34.53.53 0 0 1 .25 0 .4.4 0 0 1 .13.22s-.52 0-.72.24a1.1 1.1 0 0 1-.6.46q-.3.07-.6.11l.07.3a4.12 4.12 0 0 0-.85 0c-.47 0-.59.26-.62.35-.07-.08-.22-.26-.36-.28a.46.46 0 0 0-.25 0 1.49 1.49 0 0 0 .55 1 .7.7 0 0 1-.15.21.6.6 0 0 1-.34.22zM28.19 21a3.43 3.43 0 0 1-1.74-1.11 4.59 4.59 0 0 1-.92-1.74 5.5 5.5 0 0 1-.16-.77 5.89 5.89 0 0 1 0-.67A5 5 0 0 1 26.2 14a4.74 4.74 0 0 0-1 3 5.07 5.07 0 0 0 0 .55 5.32 5.32 0 0 0 .09.58 4.56 4.56 0 0 0 1 2 3.66 3.66 0 0 0 .89.77 3.19 3.19 0 0 0 1.08.41zm4-6.89a4.65 4.65 0 0 1 .81 2.78v.48a4.49 4.49 0 0 1-1.17 2.51A3.6 3.6 0 0 1 29.9 21a3.39 3.39 0 0 0 1.1-.36 3.68 3.68 0 0 0 1-.75 4.2 4.2 0 0 0 .75-1.14 4.57 4.57 0 0 0 .37-1.4V17a4.47 4.47 0 0 0-1-2.91zM31 16.59v-.06l-.51-.33-.35.14-.47.22q.39.21.75.45l.61-.24a.38.38 0 0 1-.03-.18zm-.12.4l-.36.14.19.14a1.74 1.74 0 0 0 .2-.28zm.12-.59a3.52 3.52 0 0 0 0-.4l-.45.15.4.26zm-.5-3.4h-.22l-.19 1.3h.13zm-.41 0h-.27l-.08 1.32h.17zm.44 1.44l.31-1.25-.15-.19-.27 1.27z"/><path class="cls-4" d="M37.3 25.57c.08.32.15.64.22 1a15.9 15.9 0 0 1 .33 3.23 9 9 0 0 1-4.72 8.2c-1.6.9-3.55 1.82-5.32 2.67A33.88 33.88 0 0 0 23.43 43a13.24 13.24 0 0 0-1.08.85V25.57z"/><path class="cls-1" d="M34.7 29.23a.73.73 0 0 0-.32-.23h-.21a.55.55 0 0 0-.33.11s.08.12 0 .52a6.07 6.07 0 0 1-.25.67 4.24 4.24 0 0 0-.12.62 4.7 4.7 0 0 1 0-.5 8.19 8.19 0 0 1 .2-.91.7.7 0 0 0-.07-.44V29a1 1 0 0 0-.48-.39 1.18 1.18 0 0 0-.41-.07 1 1 0 0 0-.39.08.76.76 0 0 0-.26.18 2.5 2.5 0 0 0-.32.76v-.43a2.19 2.19 0 0 0-.3.4.92.92 0 0 0-.18.51v.49l-.12-.32c0 .06-.1.15-.18.3a1 1 0 0 0-.09.49v.53l-.23-.5v.08a1.25 1.25 0 0 0-.07.22l-.1 1.1v-1.05l-.28.11.32-.36a1.9 1.9 0 0 0 0-.43v-.31l-.39.29.39-.52a1 1 0 0 0 0-.18 1 1 0 0 1-.19.16l-.23.18-.31.3v1.27a2.35 2.35 0 0 0 0 .27h-.11v-1.58l-.31-.3-.23-.18a.93.93 0 0 1-.19-.16.9.9 0 0 0 0 .18l.39.52-.39-.29v.31a2.09 2.09 0 0 0 0 .43l.32.36-.26-.07v1.09l-.1-1.1a1.29 1.29 0 0 0-.07-.22v-.08l-.14.47V31a1 1 0 0 0-.09-.49 3.25 3.25 0 0 0-.18-.3l-.12.32V30a.91.91 0 0 0-.18-.51 2.2 2.2 0 0 0-.3-.4v.43a2.46 2.46 0 0 0-.32-.76.76.76 0 0 0-.26-.18.94.94 0 0 0-.39-.08 1.19 1.19 0 0 0-.41.07 1 1 0 0 0-.48.39v.06a.69.69 0 0 0-.07.44 7.41 7.41 0 0 1 .2.91 4.24 4.24 0 0 1 0 .5 4.15 4.15 0 0 0-.12-.62 6.31 6.31 0 0 1-.25-.67c-.09-.4 0-.52 0-.52a.56.56 0 0 0-.34-.11L25 29a.72.72 0 0 0-.32.23.54.54 0 0 0-.14.4.49.49 0 0 0 .11.29 1.53 1.53 0 0 1 .12-.23.69.69 0 0 1 .38-.27 1.23 1.23 0 0 0-.33.48.83.83 0 0 0 0 .62.69.69 0 0 0 .28.3.73.73 0 0 1 0-.22.89.89 0 0 1 .19-.36 1.92 1.92 0 0 0-.06.49.79.79 0 0 0 .25.6l.19.19a.75.75 0 0 1 .15.18 1 1 0 0 1 .06.15 5.19 5.19 0 0 0 .58-.49.92.92 0 0 0 .21-.37.85.85 0 0 0 0-.41 1.58 1.58 0 0 0-.21-.46.63.63 0 0 1 .26.2 1 1 0 0 1 .08.19.61.61 0 0 0 .15-.12.64.64 0 0 0 .13-.19.76.76 0 0 0 .06-.3.57.57 0 0 0-.08-.3.72.72 0 0 0-.18-.2 2 2 0 0 0-.35-.21.9.9 0 0 1 .32 0 .74.74 0 0 1 .38.33.77.77 0 0 1 .09.42 7.38 7.38 0 0 1 .68 1.18 9.39 9.39 0 0 1 .51 1.09v.17a9.31 9.31 0 0 0-.61-1.29 7.71 7.71 0 0 0-.64-.93.73.73 0 0 1-.09.21 1 1 0 0 1-.34.31.36.36 0 0 0 .09.14 1.66 1.66 0 0 0 .42.24h-.24l.2.33a1.14 1.14 0 0 0 .29.36 2.53 2.53 0 0 0 .46.21h-.39l.18.4-.34.1.43 1.29 1.07-.2h1.38l1.06.21.43-1.29-.34-.1.18-.4h-.39a2.44 2.44 0 0 0 .46-.22 1.13 1.13 0 0 0 .29-.36l.2-.33H32a1.7 1.7 0 0 0 .42-.24.39.39 0 0 0 .09-.14 1 1 0 0 1-.34-.31.68.68 0 0 1-.09-.21 7.81 7.81 0 0 0-.64.93 9.37 9.37 0 0 0-.61 1.29v-.17a9.48 9.48 0 0 1 .51-1.09 7.55 7.55 0 0 1 .72-1.12.76.76 0 0 1 .09-.42.73.73 0 0 1 .38-.33.9.9 0 0 1 .32 0 1.91 1.91 0 0 0-.35.21.75.75 0 0 0-.18.2.57.57 0 0 0-.08.3.76.76 0 0 0 .06.3.66.66 0 0 0 .13.19.61.61 0 0 0 .15.12 1 1 0 0 1 .09-.19.63.63 0 0 1 .26-.2 1.56 1.56 0 0 0-.21.46.85.85 0 0 0 0 .41.94.94 0 0 0 .21.37 5 5 0 0 0 .58.49.61.61 0 0 1 .06-.15.72.72 0 0 1 .15-.18l.19-.19a.79.79 0 0 0 .25-.6 2 2 0 0 0-.06-.49.9.9 0 0 1 .19.36.8.8 0 0 1 0 .22.69.69 0 0 0 .28-.3.83.83 0 0 0 0-.62 1.2 1.2 0 0 0-.33-.48.7.7 0 0 1 .38.27 1.38 1.38 0 0 1 .12.23.48.48 0 0 0 .11-.29.54.54 0 0 0-.15-.46z"/><path class="cls-1" d="M28.27 29.2a2.3 2.3 0 0 0 .44.35.7.7 0 0 1 0-.34 2 2 0 0 1 .28-.34 2.55 2.55 0 0 0-.16.67c0 .14.06.26.35.46a3.17 3.17 0 0 1 .43.42 3.45 3.45 0 0 1 .49-.42c.29-.21.35-.33.35-.46a2.57 2.57 0 0 0-.16-.67 2 2 0 0 1 .28.34.68.68 0 0 1 0 .34 2.28 2.28 0 0 0 .44-.35.62.62 0 0 0 .16-.23.54.54 0 0 0 0-.23.67.67 0 0 0-.28-.47 3.34 3.34 0 0 0-.64-.28 1.62 1.62 0 0 1 .42 0h.2a1.06 1.06 0 0 0-.12-.29.74.74 0 0 0-.23-.24.68.68 0 0 0-.38-.11.78.78 0 0 0-.37.09 1.47 1.47 0 0 1 0 .34 4.9 4.9 0 0 1-.07.61l-.1.93a3.41 3.41 0 0 0-.07-.64 7.25 7.25 0 0 1-.09-.72v-.49a.81.81 0 0 0-.41-.11.69.69 0 0 0-.38.11.76.76 0 0 0-.22.24 1.08 1.08 0 0 0-.12.29h.2a1.62 1.62 0 0 1 .42 0 3.28 3.28 0 0 0-.64.28.67.67 0 0 0-.28.47.51.51 0 0 0-.01.25.62.62 0 0 0 .27.2z"/><path class="cls-2" d="M31.68 32.3l.23.07-.29.93-.17.56a6.21 6.21 0 0 0-1.76-.25h-.06a6.2 6.2 0 0 0-1.76.25l-.46-1.49.23-.07v.4l.15-.1.14-.13.15.49h-.37a.51.51 0 0 0 .15.18.42.42 0 0 0 .31.06h.13a.28.28 0 0 0 .17-.16.4.4 0 0 0 0-.2s0-.08-.09-.06 0 .18 0 .18-.26-.17-.11-.35a.2.2 0 0 1 .19 0 .41.41 0 0 1 0-.2.13.13 0 1 1 .23 0 .42.42 0 0 1 0 .2.2.2 0 0 1 .2 0c.19.12 0 .37 0 .37s0-.18-.07-.16a.1.1 0 0 0-.07.09.41.41 0 0 0 .11.17h.31a.46.46 0 0 0 .28-.15.48.48 0 0 0 .09-.22h-.17l-.17.09v-.5l.17.08h.17a.31.31 0 0 0-.07-.2l-.05-.18h.5l-.09.17c0 .06-.06.15-.07.2h.17l.17-.08v.51l-.17-.09h-.17a.49.49 0 0 0 .09.22.46.46 0 0 0 .28.15h.17a.35.35 0 0 0 .23-.1.39.39 0 0 0 .1-.17.1.1 0 0 0-.07-.09c-.07 0-.06.16-.06.16s-.19-.24 0-.37a.2.2 0 0 1 .2 0 .38.38 0 0 1 0-.2.13.13 0 1 1 .23 0 .41.41 0 0 1 0 .2.2.2 0 0 1 .19 0c.14.18-.11.35-.11.35s.09-.16 0-.18-.09.06-.09.06a.41.41 0 0 0 0 .2.28.28 0 0 0 .17.16h.13a.41.41 0 0 0 .31-.06.49.49 0 0 0 .15-.18h-.36l.15-.49.14.13.15.1v-.4z"/><path class="cls-4" d="M30.41 33.28c0-.09.14-.15.27-.13s.23.12.21.21a.23.23 0 0 1-.27.13c-.13-.02-.23-.12-.21-.21zM31.24 33.42l.23-.12-.11.35-.12-.23zM28.93 33.28c0-.09-.14-.15-.27-.13s-.23.12-.21.21a.23.23 0 0 0 .27.13c.13-.02.28-.12.21-.21zM28.09 33.42l-.23-.12.11.35.12-.23zM29.66 32.98l.33.22-.33.22-.32-.22.32-.22z"/><path class="cls-1" d="M29.67 34h.53v1.37h.71V35h.36v.64l-.38.38v.65l-.13.13-.13-.13v-.64l-.38-.38-.44.44V37l-.15.15-.14-.15v-.83l-.44-.44-.38.38v.64l-.13.13-.13-.13v-.65l-.38-.38v-.64h.36v.42h.71v-1.4h.26z"/><path class="cls-2" d="M27.2 34.11l.31-.44.11.28zm-.34.33v-.08l.41-.58a5.29 5.29 0 0 0-1 .59l.34.92a5.29 5.29 0 0 1 .53-.34zm5.27-.33l-.31-.44-.1.28zm.14.84a5.18 5.18 0 0 1 .53.34l.34-.92a5.39 5.39 0 0 0-1-.59l.41.58v.08zm-2.62-1.18a5.78 5.78 0 0 0-2.64.61l.33.86a4.18 4.18 0 0 1 1-.35 6 6 0 0 1 .62-.1v-.85h1.38v.85a5.85 5.85 0 0 1 .62.1 4.17 4.17 0 0 1 1 .35l.33-.86a5.77 5.77 0 0 0-2.64-.61z"/><path class="cls-1" d="M6.68 24.54l.25-.88A22.54 22.54 0 0 0 8.08 17a18.43 18.43 0 0 0-1-5.86 18.78 18.78 0 0 0-.75-1.87l.37-.38a14 14 0 0 0 1.61.79 15.13 15.13 0 0 0 5.81 1.17 19.69 19.69 0 0 0 7.23-1.53v15.22z"/><path class="cls-5" d="M18.22 19.55a1.76 1.76 0 0 0-1.16-.55 2.94 2.94 0 0 0-1 0 1.42 1.42 0 0 1 .33-.59A1.74 1.74 0 0 1 17.5 18l-.12.27a1.75 1.75 0 0 1 .64 0 1.11 1.11 0 0 1 .56.38l-.11.07a2 2 0 0 1 .17.28 3.61 3.61 0 0 1 .18.51h-.12a1.85 1.85 0 0 0 .13.4 2 2 0 0 1 .15.54l-.21-.12a1.55 1.55 0 0 1 0 .4v.35a3.53 3.53 0 0 1-.29-.32.92.92 0 0 0-.33-.27v.19l-.15-.13-.25-.13v.16a3.15 3.15 0 0 1-.45-.22 2.34 2.34 0 0 1-.4-.31v.17a1.91 1.91 0 0 1-.56-.47 1.35 1.35 0 0 1-.18-.63 3.65 3.65 0 0 1 1.23.07 1.7 1.7 0 0 1 1.27 1.15 1.43 1.43 0 0 0-.44-.79zm-3.66-.16a6.18 6.18 0 0 0-.76.34c-.17.09.31-.24.31-.24a6.5 6.5 0 0 0 1-1.06 1.15 1.15 0 0 1-.92.34c0 .33-.52.8-.67.93a.11.11 0 0 1-.15 0l-.05-.06-.1.09a.44.44 0 0 1 .06.16.23.23 0 0 1-.09.2s-.19.14-.48.38-.67.59-1 .81a4.14 4.14 0 0 1-.94.46l.82.06s.22-.28.54-.61a1.76 1.76 0 0 1 .67-.49 1.22 1.22 0 0 1 .47 0l.16-.09a1.75 1.75 0 0 0-.43 0c-.17 0 0-.15 0-.15a3.26 3.26 0 0 1 .52-.37 5.08 5.08 0 0 1 .88-.41 1.2 1.2 0 0 1 .41 0l.13-.07h-.14c-.13 0 0-.09 0-.09a4.35 4.35 0 0 1 .53-.16 4 4 0 0 1 .67-.1V19a4.56 4.56 0 0 0-.72.14 7.26 7.26 0 0 0-.73.24m-2-.2c-.33-.22-.67-.3-1-.51a1 1 0 0 1-.37-.43 1.24 1.24 0 0 0 .43.32 12 12 0 0 1 1.14.56 1.39 1.39 0 0 1 .44.41 1 1 0 0 0 .25-.37.59.59 0 0 0-.13-.61.53.53 0 0 0-.49-.11 1.22 1.22 0 0 1-.77-.06.51.51 0 0 1-.29-.45 1.48 1.48 0 0 1-.5 0 .6.6 0 0 1-.34-.19 2.32 2.32 0 0 0 0 .44.66.66 0 0 0 .1.26l-.21-.08v.2a.58.58 0 0 0 .14.24h-.25a3.47 3.47 0 0 0 .26.35 1.14 1.14 0 0 0 .37.27h-.19a.93.93 0 0 0 .4.35.79.79 0 0 0 .52 0l-.08.19a1.12 1.12 0 0 0 .57 0 1.48 1.48 0 0 0 .48-.33 2.07 2.07 0 0 0-.43-.53zm3.58.6a1.08 1.08 0 0 0-1.06-.3l-.13.07a4.48 4.48 0 0 1 .88 1 4 4 0 0 1 .46 1L16 21a6.16 6.16 0 0 0-.42-.6 6 6 0 0 0-.72-.73c-.1 0-.18.11-.26.28a1 1 0 0 0-.07.38l.21-.2a2 2 0 0 0-.09.34.73.73 0 0 0 0 .37l.11-.13a1.19 1.19 0 0 0 .06.4 1.31 1.31 0 0 0 .19.28l.06-.15a1.34 1.34 0 0 0 .26.3 1.5 1.5 0 0 0 .33.19v-.13a1.68 1.68 0 0 1 .46.16 1.55 1.55 0 0 1 .37.38.94.94 0 0 0 .13-.4.62.62 0 0 0 0-.25 2 2 0 0 0 0-.24.78.78 0 0 0 0-.25h.14a1.53 1.53 0 0 0-.09-.29 1.13 1.13 0 0 0-.17-.25h.14a2.56 2.56 0 0 0-.21-.35 2.23 2.23 0 0 0-.43-.41zm-2.81.85a.71.71 0 0 0-.24.25.7.7 0 0 0-.13.48h.14a2 2 0 0 0 0 .35 1.34 1.34 0 0 0 .11.47l.11-.2a2.13 2.13 0 0 0 .08.38c.11.3.27.28.27.28v-.15a.87.87 0 0 1 .33.32.51.51 0 0 1 0 .33 1.08 1.08 0 0 0 .43-.6 1.23 1.23 0 0 0 .06-.52l.16.19a2.94 2.94 0 0 0 0-.45v-.41l.13.06a2.16 2.16 0 0 0-.28-.56 1.08 1.08 0 0 0-.26-.23h.12a1.68 1.68 0 0 0-.46-.07 1.48 1.48 0 0 0-.48.09A1 1 0 0 1 14 21a2.41 2.41 0 0 1 .23 1.42 4.65 4.65 0 0 0-.05-.51 2.87 2.87 0 0 0-.25-.74 1 1 0 0 0-.56-.57z"/><path class="cls-4" d="M12.94 14.61a1.92 1.92 0 0 0 0 .62c0 .26.18.28.32.38s.06.16.25.33a.81.81 0 0 0 .48.17l.1.12a1.21 1.21 0 0 1-.28.19c-.24.13-.35 0-.49-.13s-.52-.16-.74-.34-.13-.47-.13-.67a1.39 1.39 0 0 0-.06-.47c0-.09 0-.2.2-.24a.89.89 0 0 1 .36 0zm-2.18.16a.74.74 0 0 0-.65 1.05 4.31 4.31 0 0 0 .71.91c.17.24 0 .56.32.88a.81.81 0 0 0 .73.09h.11l-.19-.12a1.57 1.57 0 0 1-.19-.22 1.72 1.72 0 0 1-.19-.92.66.66 0 0 0-.23-.5.65.65 0 0 1-.17-.67 1 1 0 0 1 .21-.38h-.17zm4.35-1.86a.32.32 0 0 0-.1-.34 1.2 1.2 0 0 0-.28-.17 1 1 0 0 0-.94 0c-.05 0-.09.08 0 .19a2.45 2.45 0 0 1 .46.41 1 1 0 0 1 .21.56 1.37 1.37 0 0 1 .3-.21l.25-.08.14-.33zm1.81 1.41c.18-.07.33-.16.35-.35a.48.48 0 0 0-.32-.44 1.58 1.58 0 0 1-.66-.4c-.3-.38-.45-.41-.63-.41a.42.42 0 0 0-.32.17.83.83 0 0 0-.17.33 1.22 1.22 0 0 1 .66.14c.16.13.1.25.3.39s.48.06.53.23a.32.32 0 0 1 0 .25s-.06.1 0 .15.18 0 .29 0zm-.15.23v.18a.88.88 0 0 1 .32.22.72.72 0 0 1 .22.65 1.56 1.56 0 0 1-.4.78.32.32 0 0 0-.08.32h.45a.68.68 0 0 0 .26-.55 2.68 2.68 0 0 1 0-.67.85.85 0 0 0 0-.78c-.2-.31-.38-.29-.38-.29l-.37.15zm-4.59.25a1.22 1.22 0 0 0-.7 0 .72.72 0 0 0-.3.67c0 .27.37.34.41.75a3.14 3.14 0 0 0 .11.81.76.76 0 0 0 .46.45 1.63 1.63 0 0 0 .38.1 1.29 1.29 0 0 0 .73-.08 1 1 0 0 0 .24-.25s.15.33.39.4a1.27 1.27 0 0 0 1.1-.1.62.62 0 0 0 .25-.7 1 1 0 0 0-.18-.46 1.06 1.06 0 0 1-.39.14.72.72 0 0 1-.43-.16 1.66 1.66 0 0 1-.52.29.5.5 0 0 1-.49-.21c-.18-.18-.69-.24-.82-.4a.75.75 0 0 1-.13-.62 1.19 1.19 0 0 0-.09-.62zm3.07 2.84v-.09a1.2 1.2 0 0 1-.34.24 1.54 1.54 0 0 1-.81.09c-.5 0-.61-.31-.61-.31a.47.47 0 0 1-.21.17 1.59 1.59 0 0 1-.6.09 2.87 2.87 0 0 1-.49-.09l-.08.06-.1.07s-.09.3.3.41.57-.13 1.12.07c.92.33 1.09.25 1.37.08a1.23 1.23 0 0 0 .37-.4.74.74 0 0 0 .08-.38zm.12-.28a.86.86 0 0 1 .05.33 1.16 1.16 0 0 1-.06.33.88.88 0 0 0 .75 0c.26-.17.2-.4.54-.43s.68 0 .72-.49a.71.71 0 0 0 0-.25h-.59a.92.92 0 0 1-.18.37.75.75 0 0 1-.65.27 1.43 1.43 0 0 1-.55-.17.15.15 0 0 1 0 .05zm.63-2.53a.39.39 0 0 1 0 .17.89.89 0 0 0-.16.35 1.32 1.32 0 0 1-.17.53 2 2 0 0 1-.44.45.89.89 0 0 1 .17.34 1.31 1.31 0 0 1 .07.54 1.14 1.14 0 0 0 .71.16.66.66 0 0 0 .46-.53c0-.13-.07-.29.08-.45a1.31 1.31 0 0 0 .4-.91.83.83 0 0 0-.52-.59 3.27 3.27 0 0 0-.6-.06zM14.2 16a1.66 1.66 0 0 0 .2.2.41.41 0 0 0 .35.08 1.71 1.71 0 0 0 .75-.6c.18-.3.11-.43.18-.61s.15-.24.12-.37-.22-.09-.29-.25 0-.4-.08-.47-.55 0-.55 0a1.47 1.47 0 0 0 0 .29c.06.18.12.07.25.27a1.25 1.25 0 0 1 0 .93 1.28 1.28 0 0 1-.57.54.18.18 0 0 1-.22 0h-.14zm.81-.62a1 1 0 0 1-.48.4.32.32 0 0 1-.17-.08.73.73 0 0 1-.49.16c-.28-.06-.29-.17-.38-.33s-.18-.15-.31-.32a1 1 0 0 1 0-.72c.06-.18.15-.25.34-.42a.89.89 0 0 1 .4-.24 1.52 1.52 0 0 1 .49.08 1.89 1.89 0 0 0 .34 0 1.89 1.89 0 0 0 .07.44c.06.15.2.11.27.3a1 1 0 0 1-.09.74zm-1-.91c-.1.09-.15.18-.23.25a.54.54 0 0 0-.19.23.51.51 0 0 0 .1.27.85.85 0 0 0 .48.19.44.44 0 0 0 .4-.32c.07-.17.27-.44 0-.56s-.51-.1-.57-.02zm0 .27c-.09.13-.38.25-.16.38a.42.42 0 0 0 .44.06c.09-.05.29-.4.22-.49a.43.43 0 0 0-.28-.09.24.24 0 0 0-.23.18zm.46-1h.8a.37.37 0 0 1 .38.18.82.82 0 0 1 .05.38c0 .14.22.09.3.25v.07h.55l.06-.12a.26.26 0 0 1-.17-.14c0-.1.06-.2 0-.3s-.12-.07-.38-.2-.27-.41-.46-.46a1.06 1.06 0 0 0-.9.06.68.68 0 0 0-.3.29zm-.19 0a1.06 1.06 0 0 0-.63-1.11c-.58-.35-.94.16-1.27.32a4 4 0 0 1-1 .37c-.5.19-.73.45-.73.88 0 .18 0 .34.14.34a3.09 3.09 0 0 1 .44.06.63.63 0 0 0 .33 0 1.33 1.33 0 0 1 .41 0 1.4 1.4 0 0 1 .3.05.48.48 0 0 1 .3-.21 1.18 1.18 0 0 1 .44 0 .47.47 0 0 1 .19-.28 3.29 3.29 0 0 0 .38-.32.57.57 0 0 1 .42-.14h.25"/><path class="cls-2" d="M37 46h-2.74V44.21c0-.59-.84-.83-1.74-1l-.61-.11c-.74-.12-1.44-.25-1.44-.43 0-.06.09-.35 1.93-.53 1.3-.14 2.67-.14 2.68-.14H37l-1 2zM9.51 44.36v-.15c0-.59.84-.83 1.74-1l.61-.11c.74-.12 1.44-.25 1.44-.44 0-.06-.09-.35-1.94-.53C10.06 42 8.69 42 8.67 42H6.8l1 2-1.01 2h2.72zm2.4-1l-.6.1c-.62.11-1.45.3-1.49.66 0 .39.67 1 3.63 1.58V43a3.84 3.84 0 0 1-1.54.41zm22 .8c0-.36-.86-.55-1.49-.66l-.6-.11a3.88 3.88 0 0 1-1.54-.39v2.8c3-.64 3.67-1.21 3.67-1.6zm-19.28 6.31a43.33 43.33 0 0 0 7.18.59H22a43.34 43.34 0 0 0 7.18-.59c1.19-.22 4.81-.89 4.81-2.08v-3.58c-.63.58-2.26 1.08-5.06 1.56a44.19 44.19 0 0 1-7 .56 44.17 44.17 0 0 1-7-.56c-2.8-.48-4.43-1-5.06-1.56v3.58c-.06 1.19 3.57 1.86 4.76 2.08z"/><path class="cls-6" d="M26.06 48.55c.31-.19.44-.38.44-.63a.55.55 0 0 0-.57-.53h-.06a.76.76 0 0 0-.74.74.67.67 0 0 0 .41.57.85.85 0 0 0-.54.7.63.63 0 0 0 .67.59h.08a.83.83 0 0 0 .81-.8.78.78 0 0 0-.5-.64zm-.62-.6a.37.37 0 0 1 .35-.39.36.36 0 0 1 .35.37.62.62 0 0 1-.29.51c-.21-.12-.41-.24-.41-.44zm.34 1.87a.42.42 0 0 1-.45-.44.64.64 0 0 1 .38-.59c.26.14.52.27.52.56a.46.46 0 0 1-.45.47zm2.09-1.45a.77.77 0 0 0 .43-.65.52.52 0 0 0-.54-.5h-.09a.79.79 0 0 0-.74.76.64.64 0 0 0 .41.55.88.88 0 0 0-.54.72.54.54 0 0 0 .19.42.72.72 0 0 0 .46.15h.09a.87.87 0 0 0 .81-.83c0-.32-.23-.48-.48-.61zm-.62-.58a.39.39 0 0 1 .36-.4.32.32 0 0 1 .24.1.41.41 0 0 1 .09.28.64.64 0 0 1-.29.52c-.21-.12-.4-.25-.4-.49zm.34 1.86a.41.41 0 0 1-.28-.1.43.43 0 0 1-.12-.32.66.66 0 0 1 .38-.6c.27.13.51.25.51.54a.48.48 0 0 1-.47.49zm-12.53-.24a.65.65 0 0 1-.48.2h-.12a1.16 1.16 0 0 1-.69-.36v-.5h.07a.69.69 0 0 0 .6.7h.09a.33.33 0 0 0 .37-.35c0-.29-.25-.47-.52-.67s-.59-.43-.59-.79a.6.6 0 0 1 .18-.43.67.67 0 0 1 .63-.21 1.12 1.12 0 0 1 .49.19c.06 0 .07.32.07.43a.52.52 0 0 0-.47-.46h-.07a.31.31 0 0 0-.34.28c0 .27.24.45.5.63s.59.43.59.81a.69.69 0 0 1-.31.53zm1.4.26v.07h-.88a.11.11 0 0 1 0-.09h.05c.11 0 .16 0 .19-.06a.66.66 0 0 0 0-.31v-.84c0-.35 0-.39-.26-.44v-.07A3.2 3.2 0 0 0 16 48h.37v.13c-.19 0-.22 0-.22.37v.84c0 .24 0 .3.28.34zM19 48.24c-.23 0-.26.08-.26.38V50c0 .12 0 0-.06 0l-1.39-1.5v.83c0 .3 0 .38.26.42v.12h-.67a.11.11 0 0 1 0-.09c.22 0 .26-.06.26-.37v-1c0-.11-.23-.3-.34-.32s0-.06 0-.07a3.7 3.7 0 0 0 .48.06l1.25 1.39v-.8c0-.32 0-.38-.26-.42v-.08a2 2 0 0 0 .36 0H19v.06zM20.89 50a1 1 0 0 1-.57.14h-.07a1 1 0 0 1-1.09-1 1 1 0 0 1 .3-.68 1.11 1.11 0 0 1 .81-.29 1.37 1.37 0 0 1 .61.17 1.91 1.91 0 0 1 .08.46h-.11a.67.67 0 0 0-1.31.24.81.81 0 0 0 .7.9h.06a.54.54 0 0 0 .57-.44H21a1.85 1.85 0 0 1-.1.5zm1.76 0a.09.09 0 0 1-.1.08h-1.32v-.12c.27 0 .29 0 .29-.39v-.84c0-.34 0-.37-.29-.4v-.12h1.34a.74.74 0 0 0 0 .19.62.62 0 0 0 0 .09.13.13 0 0 1-.09 0c0-.1 0-.15-.39-.15h-.23a2.5 2.5 0 0 0 0 .32V49H22c.31 0 .32 0 .34-.11s0 0 .06 0a1.29 1.29 0 0 0 0 .21v.14h-.08s0-.13-.3-.13h-.19v.34c0 .36 0 .36.12.36h.14c.41 0 .42 0 .46-.22h.07V50zm2-.1a.11.11 0 0 1 0 .09h-.88v-.07c.22 0 .26-.06.26-.41v-.84c0-.35 0-.38-.26-.39a.12.12 0 0 1 0-.09h.85v.07c-.24 0-.26.1-.26.42v.84c0 .37 0 .42.27.43zm5-1.76a.81.81 0 0 0 .43-.66.49.49 0 0 0-.5-.48h-.13a.82.82 0 0 0-.74.78.62.62 0 0 0 .41.54.92.92 0 0 0-.54.73.57.57 0 0 0 .59.55h.15a.9.9 0 0 0 .8-.86c0-.28-.2-.43-.45-.55zm-.65-.5a.41.41 0 0 1 .36-.41h.06a.33.33 0 0 1 .32.34.68.68 0 0 1-.29.53c-.2-.16-.45-.27-.45-.51zm.34 1.84h-.06a.38.38 0 0 1-.38-.38.69.69 0 0 1 .38-.62c.26.12.51.23.51.52a.5.5 0 0 1-.4.51z"/><path class="cls-5" d="M21.33 43.77a13.49 13.49 0 0 0-1.07-.84 34 34 0 0 0-4.38-2.34c-1.76-.85-3.71-1.77-5.32-2.67a9 9 0 0 1-4.72-8.16 16 16 0 0 1 .33-3.23c.07-.33.14-.66.22-1h14.94z"/><path class="cls-1" d="M17.71 29.37a3.91 3.91 0 0 1 0-1.68 4.62 4.62 0 0 1-1.83.53 4 4 0 0 1-1.88-.53 4.09 4.09 0 0 1-1.87.52 4.62 4.62 0 0 1-1.83-.53 3.89 3.89 0 0 1 0 1.68 8.2 8.2 0 0 0-.17 3.85 4.42 4.42 0 0 0 .87 1.68 7.22 7.22 0 0 0 1.37 1.24 7.68 7.68 0 0 0 1.65 1 8.11 8.11 0 0 0 1.64-1A7.27 7.27 0 0 0 17 34.89a4.43 4.43 0 0 0 .82-1.68 8.22 8.22 0 0 0-.11-3.84zM11 32.56a.38.38 0 0 1 .21-.23.37.37 0 0 1 .15-.27c.27-.2.53 0 .65.23a3.52 3.52 0 0 1 .3.8 3.5 3.5 0 0 1-.85 0c-.29-.09-.57-.2-.46-.53zM12.31 34a.38.38 0 0 1-.48.4c-.29-.08-.19-.17-.21-.19a.33.33 0 0 1-.25-.13c-.18-.24 0-.48.21-.59a3.12 3.12 0 0 1 .72-.27 3.2 3.2 0 0 1 .01.78zm3.8-2a3.43 3.43 0 0 1-.37.74 3.29 3.29 0 0 1-.56-.61c-.15-.21-.21-.52.09-.67a.37.37 0 0 1 .3 0 .37.37 0 0 1 .29-.08.45.45 0 0 1 .25.62zm-1.05-2c.21-.18.55-.28.74 0a.41.41 0 0 1 0 .33.41.41 0 0 1 .12.31c0 .36-.38.43-.65.36a3.76 3.76 0 0 1-.85-.33 3.7 3.7 0 0 1 .64-.64zm-1.53-1a.45.45 0 0 1 .38 0 .46.46 0 0 1 .36-.13c.41 0 .48.44.4.75a4.22 4.22 0 0 1-.39 1 4.19 4.19 0 0 1-.76-.7c-.24-.25-.34-.63 0-.83zm-.9 1.64c.05-.36.4-.41.67-.33a3.73 3.73 0 0 1 .84.37 3.87 3.87 0 0 1-.64.65c-.22.17-.56.25-.74-.06a.4.4 0 0 1 0-.33.41.41 0 0 1-.13-.22zM12.45 33a3.2 3.2 0 0 1 .09-.76c.06-.23.24-.46.52-.35a.34.34 0 0 1 .19.21.33.33 0 0 1 .23.16c.15.26-.05.47-.27.56a3.11 3.11 0 0 1-.74.19zm1.62 1.77a2.12 2.12 0 0 0 0 .32 1.8 1.8 0 0 0 0 .22 2.46 2.46 0 0 0 .06.5 2 2 0 0 0-.66-.67.21.21 0 0 0 0-.12.79.79 0 0 0 0-.45 2 2 0 0 0-.4-.75 1.64 1.64 0 0 0-.51-.46v-.16a2.42 2.42 0 0 1 1 1.17c.07.16.08.4.28.11a4.82 4.82 0 0 0 .56-1.88 9.64 9.64 0 0 0 0-1.8l.13.07a8.87 8.87 0 0 1 0 1.75 5.23 5.23 0 0 1-.53 1.63c-.08.19 0 .14.09 0a2.44 2.44 0 0 1 .34-.48 3.6 3.6 0 0 1 1.15-.77l-.1.17a2.63 2.63 0 0 0-.76.48 2 2 0 0 0-.65 1.13zm2.3-.51a.37.37 0 0 1-.3 0 .37.37 0 0 1-.28.1c-.32 0-.38-.34-.32-.59a3.37 3.37 0 0 1 .3-.77 3.36 3.36 0 0 1 .61.55c.18.24.26.55 0 .72zm1-1.2c-.08.36-.44.38-.7.28a3.79 3.79 0 0 1-.82-.44 3.75 3.75 0 0 1 .7-.61c.24-.16.59-.21.74.12a.42.42 0 0 1 0 .34.41.41 0 0 1 .11.31z"/><path class="cls-2" d="M18.32 3.87a.64.64 0 0 0-.06.29.18.18 0 0 1 .17-.16s-.08.18.06.24.2 0 .23-.14.08 0 .09.17A.54.54 0 0 0 19 4a.79.79 0 0 1 .25-.35h-.13a.79.79 0 0 1-.31.22.62.62 0 0 0 .19-.29.44.44 0 0 1-.06-.13.42.42 0 0 1-.21.08.63.63 0 0 0-.08.35.8.8 0 0 1-.11-.37h-.13a1.41 1.41 0 0 1 0 .46z"/><path class="cls-2" d="M17.38 3.11A1.72 1.72 0 0 0 16.93 5a.89.89 0 0 1 .28-.42A1.74 1.74 0 0 0 17.37 6a1.55 1.55 0 0 1 .19-.32.74.74 0 0 0 0 .46.56.56 0 0 1-.09.61 1.68 1.68 0 0 0 .69-.25 1.19 1.19 0 0 0 .4-.42 1.5 1.5 0 0 1 0 .31 2 2 0 0 0 .85-1 .8.8 0 0 1 0 .46 1.77 1.77 0 0 0 .71-1.9c.24.15.51-.06.57-.08a.63.63 0 0 1-.19-.29 1.88 1.88 0 0 1 0-.5c0-.39.12-.37.12-.37a.61.61 0 0 0 .56-.44c.08-.24.09-.32.19-.4a.69.69 0 0 0-.68 0 1.11 1.11 0 0 0-.08-.49 1.26 1.26 0 0 0-.18-.3.5.5 0 0 0-.13-.18.4.4 0 0 1-.07.46.4.4 0 0 1-.14-.42.72.72 0 0 0-.15-.51.36.36 0 0 0-.27-.11.32.32 0 0 1 .1.21.54.54 0 0 1-.25.37.25.25 0 0 1-.35-.06.68.68 0 0 1 .12-.31.93.93 0 0 0-.69.45.52.52 0 0 1 .19-.37h-.13a.72.72 0 0 0-.23.15.6.6 0 0 0-.18.24.58.58 0 0 0-.49-.4.87.87 0 0 1-.1.43.72.72 0 0 0 .07.71s.12.12-.12.47a2 2 0 0 1-.33.38.65.65 0 0 1-.32.14c.04.27.04.27.42.38zm1.91-.61a.11.11 0 0 0 .09 0h.27a.3.3 0 0 1 0 .07.31.31 0 0 1 0 .11l.11-.12v-.11h.09l.12.07.17.08a.27.27 0 0 0-.14 0h-.36c-.07 0-.32 0-.41-.14a.25.25 0 0 1 0-.1.17.17 0 0 0 .06.15zm0 .36s.1 0 .11.06a.13.13 0 0 1-.06.14.1.1 0 0 0-.15 0l-.19.08a.21.21 0 0 1-.23-.1 1.11 1.11 0 0 1-.08-.17.08.08 0 0 0-.13-.06.13.13 0 0 1 0-.15.11.11 0 0 1 .13 0 1 1 0 0 0 .27.18 1 1 0 0 0 .34 0zM18.08 2h.5a.46.46 0 0 0 0 .07.78.78 0 0 0 0 .16.31.31 0 0 1 0-.1V2a.32.32 0 0 1 .07.11v.08a.2.2 0 0 0 0 .08.11.11 0 0 0 .09 0h.09l-.08.06c-.17.08-.37-.08-.42-.13l-.12-.14.1-.06a.27.27 0 0 0-.14 0h-.07zm-.08.73a.48.48 0 0 0 .28.46c.28.15.55.21.66 0-.06.25.15.38.49.42A.56.56 0 0 0 20 3.4a.39.39 0 0 1-.24.27.87.87 0 0 0-.27.13.7.7 0 0 0-.27.4 1 1 0 0 1-.45.65.4.4 0 0 0 0-.21.59.59 0 0 1-.5.37.28.28 0 0 0 0-.29.3.3 0 0 1 0-.25c-.08 0-.16.14-.14.18a1.11 1.11 0 0 1 0-.8 1.15 1.15 0 0 0 0-.45.6.6 0 0 0-.13-.27.47.47 0 0 1 0-.4z"/><path class="cls-2" d="M30.47 4c0-.33.29-.52.5-.27-.25-.6-.73-.45-1.79.08a2.38 2.38 0 0 1-1.34.19c2-.34 2.69-1.52 2-2a1.8 1.8 0 0 0-1.53.1 10.43 10.43 0 0 1-1.36.46c-.43.06-1 .17-1.24-.12 0 .27.19.3.19.3a1.09 1.09 0 0 1-.9-.52c-.16.48.18.61.18.61a1.36 1.36 0 0 1-.82-.14c-.47-.33.06-1.13.56-.63a.71.71 0 0 0-1.35.35.63.63 0 0 1-.13-.41.85.85 0 0 1 .7-.72h.24a2.61 2.61 0 0 1 .56 0c.42 0 .59.27.91.17-.2 0-.4-.33 0-.23.9.16 1.15-.42 1.15-.42a.8.8 0 0 1-.66 0c.56-.29.3-.55 0-.68A2 2 0 0 0 25.28 0a2.55 2.55 0 0 0-.76.28 2.17 2.17 0 0 1 .6-.11 2.94 2.94 0 0 1 .74.06c.29.08.33.18.09.27a2.66 2.66 0 0 1-.77.11 2.41 2.41 0 0 0-1.86.58A1 1 0 0 0 23 2a1 1 0 0 0 .13.46 1.48 1.48 0 0 0 1 .67 7.61 7.61 0 0 0 4.28-.67 2 2 0 0 1 1-.19.25.25 0 0 1 .2.24.49.49 0 0 1 0 .14l-.09.13c-.42.52-1.77 1.16-4.15.8-.51-.07-.93-.09-1.52-.12a15 15 0 0 0-3 .23.76.76 0 0 0 .3.18 1.36 1.36 0 0 0-.34.13.91.91 0 0 1-.4.14A1.93 1.93 0 0 1 19.59 6l-.35.28V6a2.41 2.41 0 0 1-.6.52l-.3.18v-.2l-.1.08a1.84 1.84 0 0 1-.78.29l-.46.07.3-.35a.35.35 0 0 0 .08-.34v.12L17.2 6a2.06 2.06 0 0 1-.2-.72.42.42 0 0 1-.29.35c-.33.12-2 .71-2-.38 0-.67-.25-.79-.43-.79v-.02a.45.45 0 0 0-.63 0 .31.31 0 0 1 .3.09v.07a.4.4 0 0 0-.11.15.51.51 0 0 0-.44.1h-.15a.45.45 0 0 0-.39.49.31.31 0 0 1 .26-.19.16.16 0 0 1 .11 0 .33.33 0 0 0 0 .18.51.51 0 0 0 .07.25.45.45 0 0 0 0 .73c0-.19 0-.26.07-.29a.42.42 0 0 0 .46.21.44.44 0 0 1 .46.23 1 1 0 0 0 .75.47.29.29 0 0 0 .1.14.72.72 0 0 1-.22.1 2.13 2.13 0 0 0 1.07 0l.34-.17c.07 0 .19-.09.26-.06s-.1.27-.16.29a1.21 1.21 0 0 0 .66 0c.12 0 .07.06 0 .14a.27.27 0 0 0 0 .25c0-.12.17-.25.18-.05a.55.55 0 0 0 .08.33.56.56 0 0 1 .52-.48 6.26 6.26 0 0 0 1.44-.4 7.89 7.89 0 0 0 2.3-1.32 5.15 5.15 0 0 1 1.83-1c-.24.56.31.86 1 .92a1.35 1.35 0 0 1 .71.22.23.23 0 0 1 .08.21A1.93 1.93 0 0 1 23.39 6c-.44-.29-.68-.2-.81 0a.44.44 0 0 0-.45.43.32.32 0 0 1 .28-.15h.09a.36.36 0 0 0 0 .26.19.19 0 0 0 0 .05.36.36 0 0 0 0 .42.38.38 0 0 0 .15.52.26.26 0 0 1 0-.27v-.08a.5.5 0 0 0 .27.07.49.49 0 0 0 .21 0 .22.22 0 0 0 0 .11.31.31 0 0 0 .23.3.39.39 0 0 0 .65.16.26.26 0 0 1-.28-.17c.13-.07.21-.09.22-.24.94-.82 1.38-.17 1.74-.22a.32.32 0 0 1-.22.4h-.11a.5.5 0 0 0 .8-.59.3.3 0 0 0 .11-.24 1.89 1.89 0 0 0 .24-.2.54.54 0 0 1 0 .48.8.8 0 0 0 .27-.72A.37.37 0 0 1 27 6c.18-.11.93-.17.76.2a.2.2 0 0 0 .13-.25c-.07-.19-.51-.31-.7-.34A2.89 2.89 0 0 1 26 4.9c-.5-.3-1.25-.33-.93-.33 1.34.11 1.65.71 2.52.73a1.58 1.58 0 0 0 1.18-.3 1.5 1.5 0 0 1 .54-.39c-.27.61.1.86.13 1.11S29.18 6 29 6c-.4 0-.48 0-.6.17h-.08a.45.45 0 0 0-.18.61.3.3 0 0 1 .17-.27h.12a.45.45 0 0 0 .25.42h.13a.32.32 0 0 0 0 .22.34.34 0 0 0 .19.12.48.48 0 0 0 .31.53.32.32 0 0 1-.07-.31.3.3 0 0 1 .09-.14.26.26 0 0 0 .22 0 .33.33 0 0 0 .12-.18.26.26 0 0 0 .15.23.3.3 0 0 0 .2 0v.1a.44.44 0 0 0 .59.19.27.27 0 0 1-.27-.37.57.57 0 0 0 .14-.73c-.23-.4-.36-.28-.27-.63l.09-.24a.5.5 0 0 0 .23-.16.27.27 0 0 1 .1.37v.05a.59.59 0 0 0 .1-.83.38.38 0 0 0-.1-.29c.1-.42.32-.28.34-.85a.23.23 0 0 1-.5-.01z"/><path class="cls-2" d="M13 1.56a.61.61 0 0 0 .5.65.48.48 0 0 1 .38.56.48.48 0 0 0 0 .3.32.32 0 0 1-.48-.24.5.5 0 0 0 .72.53.44.44 0 0 0 .22.06.35.35 0 0 0 .32-.2 1.62 1.62 0 0 1 .5.58A1.13 1.13 0 0 1 15 5.12a.54.54 0 0 0 .54-.19c.07-.09.31-.43.44-.2a1.81 1.81 0 0 0-.13.44.39.39 0 0 0 .25.3c-.13-.34.37-.41.59-.43a2 2 0 0 1 .09-1.57l-.48-.18c-1.17-.5-2-.92-1.86-1.67 0-.3.27-.53.14-.79a.41.41 0 0 0-.12-.15.3.3 0 0 0 0-.09.44.44 0 0 0-.56-.27.31.31 0 0 1 .24.2.32.32 0 0 1 0 .11.35.35 0 0 0-.14.18.29.29 0 0 0-.12-.11.32.32 0 0 0-.18 0 .43.43 0 0 0-.13-.13.44.44 0 0 0-.57.13.31.31 0 0 1 .31 0 .3.3 0 0 1 .12.14.32.32 0 0 0-.06.09.28.28 0 0 0 0 .23.47.47 0 0 0-.51.7.33.33 0 0 1 .14-.3z"/></g></g></g></g></svg>