<svg version="1" xmlns="http://www.w3.org/2000/svg" viewBox="0 0 777.2 271.5"><path fill="#FFF" d="M46.4 121.4c-5-3.4-15.5-8.8-19.6-11.2-4.8-2.8-7.3-4-7.5-7.7-.1-1.8.1-3.3 1.4-4.7 1.9-2 5.2-2.3 10.6-2.2 6.6.2 15.2 1.2 21.4 2.5.1 0 0-13.1 0-16-5.6-1.5-14.6-2.7-22-2.7C9.3 79.5 0 86.7 0 103.8c0 11.1 3.4 16 16.3 23.4 4.2 2.4 9.4 5.4 14.7 8.9 4.5 3 5.7 4.5 6.3 7.4.6 2.9-.7 6.1-2.8 7.3-3 1.9-6.2 2.1-14.2 1.6-6.7-.4-13.6-1.3-19.2-2.1v15.2c6.9 2.1 16 3.6 25.3 3.3 20.7-.6 31.1-8.6 31.2-26 0-8.6-1.8-15.1-11.2-21.4M91 168.4c-13.3 0-19.2-4.5-19.3-17.9v-37.4h-9.6v-12.9h9.6V86.9l18.9-3.3v16.5h13.6V113H90.6v34.5c0 2.4-.1 4.3.5 5.2.6.9.8 1.3 2.6 1.4 2.2.2 7.7.1 11.2-.2v12.8c-3.7 1.2-10 1.7-13.9 1.7M142.3 99.1c-6.7-.1-16.5 1.1-23 3v13.5c4.4-.5 11.9-1.3 17.7-1.4 4.1-.1 7.9.1 10.1 1.6 1.9 1.3 2.8 3.4 2.8 6.8v4h-5.8c-19.6 0-29.1 4.6-29.5 19.5v2.4c0 11 6.5 19.8 19.7 19.9 6.5 0 11.5-1.4 15.9-4.9v3.9h18.4v-44.8c.1-16.8-10.7-23.3-26.3-23.5m7.6 52.7c-2.3 1-4.7 2-8.6 2.1-5.1.2-8.3-2.2-8.5-7v-.8c0-4.4 1.4-6.2 3.6-7.3 2.3-1.3 7.1-1.7 13.5-1.3v14.3zM349.5 99.1c-6.7-.1-16.5 1.1-23 3v13.5c4.4-.5 11.9-1.3 17.7-1.4 4.1-.1 7.9.1 10.1 1.6 1.9 1.3 2.8 3.4 2.8 6.8v4h-5.8c-19.6 0-29.1 4.6-29.4 19.5v2.4c0 11 6.5 19.8 19.7 19.9 6.5 0 11.5-1.4 15.9-4.9v3.9h18.4v-44.8c0-16.8-10.8-23.3-26.4-23.5m7.6 52.7c-2.3 1-4.7 2-8.6 2.1-5.1.2-8.3-2.2-8.5-7v-.8c0-4.4 1.4-6.2 3.6-7.3 2.3-1.3 7.1-1.7 13.5-1.3v14.3zM221.6 167.3v-41.6c0-4.2-.2-7.1-1.7-8.8-2-2.2-4-2.7-7.9-2.4-3.5.3-7.7 2-10.3 3.4v49.3h-18.9V99.9h17.5v5.4c5.6-3.9 11.6-6.3 19.4-6.3 15.2 0 20.8 10.6 20.8 22.1v46.1h-18.9zM291.8 77.5v21.4c-2.4-.6-7.1-1-10.8-1-8.3 0-15.1 2.2-19.6 6.4-5.6 5.2-8.9 11.9-9 25.6v10.8c0 19.1 8.9 27.6 24.2 27.6 6.8 0 11.2-1.6 15.6-4.9v3.9h18.5V77.5h-18.9zm0 74.2c-2.5 1.4-5.5 2.2-9 2.2-3.6 0-6.2-.8-8.1-2.7-2.6-2.8-3.4-5.7-3.5-14.6v-5.8c0-11.5 2-16.6 9.4-18.2 3.5-.8 8.8-.1 11.2.5v38.6zM473.2 77.5v21.4c-2.4-.6-7.1-1-10.8-1-8.3 0-15.1 2.2-19.6 6.4-5.6 5.2-8.9 11.9-9 25.6v10.8c0 19.1 8.9 27.6 24.2 27.6 6.8 0 11.2-1.6 15.6-4.9v3.9h18.5V77.5h-18.9zm0 74.2c-2.5 1.4-5.5 2.2-9 2.2-3.6 0-6.2-.8-8.1-2.7-2.6-2.8-3.4-5.7-3.5-14.6v-5.8c0-11.5 2-16.6 9.4-18.2 3.5-.8 8.8-.1 11.2.5v38.6zM428 99.3c-7.9-.9-16.6 2.6-19.7 5.7v-4.9h-18.5v67.3h18.9v-48.6c4.1-2.6 11.4-4.6 19.3-4.1V99.3M669.3 113.2v-13.1h-15.1v-5c0-2.4 0-3.8 1-4.9 1.5-1.5 7.9-1.2 14.2-.9V76.7c-2.9-.6-8.9-1.4-13.6-1.4-13 0-20.4 4.1-20.5 20.8v4H625v13.1h10.4v54.2h18.9v-54.2h15zM732.1 135.5c0-14.2-1-19.5-6.2-26.6-3.9-5.2-11.5-9.8-22.2-9.8-17 0-30.1 9.3-30.2 31.2v5.8c0 22.7 11.8 32.1 30.3 32.1 10.1 0 18.4-1.5 26.1-4.4v-14c-7 1.6-17.7 3.8-25.6 2.9-9.3-1-12.1-6.3-12.5-13.5h40.3v-3.7m-40.2-8.3c.1-9.9 5-13.9 11.4-14 6.6 0 11.2 4.2 11.4 14h-22.8zM556.1 151.2c-.9-.1-1.7-.2-2.2-.7-.4-.4-.6-.8-.6-1.7V77.1h-20.1V151c0 6.9 1.4 10 4.1 12.6 2.7 2.6 6.9 3.7 11.5 4.2 8.9.9 25.5.8 34.7-.7v-15.9h-27.4zM614.6 79.8v15h-18.5v-15h18.5zm0 21.9v65.7h-18.5v-65.7h18.5z"/><linearGradient id="a" gradientUnits="userSpaceOnUse" x1="744.823" x2="744.823" y2="88.203"><stop offset="0" stop-color="#fff"/><stop offset="1" stop-color="#fff"/></linearGradient><path fill="url(#a)" d="M712.4 49.6l19.7 38.6L777.2 0z"/><g><linearGradient id="b" gradientUnits="userSpaceOnUse" x1="374.412" y1="187.987" x2="374.412" y2="270.041"><stop offset="0" stop-color="#fff"/><stop offset="1" stop-color="#fff"/></linearGradient><path fill="url(#b)" d="M381.6 271.5c-12.7 0-18.5-4.3-18.5-17.2v-36h-9.2v-12.4h9.2v-12.7l18.1-3.2v15.9h13v12.4h-13v33.2c0 2.3-.1 4.1.5 5 .6.9.8 1.2 2.6 1.4 2.1.2 7.4.1 10.8-.2v12.4c-3.7 1-9.7 1.4-13.5 1.4"/><linearGradient id="c" gradientUnits="userSpaceOnUse" x1="653.662" y1="187.987" x2="653.662" y2="270.041"><stop offset="0" stop-color="#fff"/><stop offset="1" stop-color="#fff"/></linearGradient><path fill="url(#c)" d="M660.8 271.5c-12.8 0-18.5-4.3-18.5-17.2v-36h-9.2v-12.4h9.2v-12.7l18.1-3.2v15.9h13v12.4h-13v33.2c0 2.3-.1 4.1.5 5 .6.9.8 1.2 2.5 1.4 2.1.2 7.4.1 10.8-.2v12.4c-3.5 1-9.6 1.4-13.4 1.4"/><linearGradient id="d" gradientUnits="userSpaceOnUse" x1="133.81" y1="187.987" x2="133.81" y2="270.04"><stop offset="0" stop-color="#fff"/><stop offset="1" stop-color="#fff"/></linearGradient><path fill="url(#d)" d="M143.4 270.5v-40c0-4-.2-6.8-1.6-8.5-2-2.1-3.8-2.6-7.6-2.3-3.3.3-7.4 1.9-9.9 3.3v47.4h-18.2v-64.7h16.8v5.2c5.4-3.8 11.1-6.1 18.6-6.1 14.6 0 20 10.2 20 21.3v44.3h-18.1z"/><linearGradient id="e" gradientUnits="userSpaceOnUse" x1="598.044" y1="187.987" x2="598.044" y2="270.04"><stop offset="0" stop-color="#fff"/><stop offset="1" stop-color="#fff"/></linearGradient><path fill="url(#e)" d="M607.7 270.5v-40c0-4-.2-6.8-1.6-8.5-1.9-2.1-3.8-2.6-7.6-2.3-3.3.3-7.4 1.9-9.9 3.3v47.4h-18.2v-64.7h16.9v5.2c5.4-3.8 11.1-6.1 18.6-6.1 14.6 0 20 10.2 20 21.3v44.3h-18.2z"/><linearGradient id="f" gradientUnits="userSpaceOnUse" x1="448.52" y1="187.987" x2="448.52" y2="270.04"><stop offset="0" stop-color="#fff"/><stop offset="1" stop-color="#fff"/></linearGradient><path fill="url(#f)" d="M473.2 204.9c-7 0-12.3 2.3-17.4 6.1 0 0-1 .7-2.1 1.8-2.9-4.7-7.8-7.9-15.4-7.9-7 0-12.3 2.3-17.4 6.1v-5.2h-15.7v64.7h17V223c2.3-1.4 6.1-3 9.3-3.3 3.6-.3 5.3.2 7.1 2.3 1.3 1.6 1.5 4.4 1.5 8.5v40h17V223c2.4-1.4 6.1-3 9.3-3.3 3.6-.3 5.3.2 7.1 2.3 1.4 1.6 1.5 4.4 1.5 8.5v40h16.9v-44.3c0-11.1-5.1-21.3-18.7-21.3z"/><linearGradient id="g" gradientUnits="userSpaceOnUse" x1="81.341" y1="187.988" x2="81.341" y2="270.04"><stop offset="0" stop-color="#fff"/><stop offset="1" stop-color="#fff"/></linearGradient><path fill="url(#g)" d="M71.7 186.3h19.2v84.2H71.7z"/><linearGradient id="h" gradientUnits="userSpaceOnUse" x1="262.529" y1="187.985" x2="262.529" y2="270.042"><stop offset="0" stop-color="#fff"/><stop offset="1" stop-color="#fff"/></linearGradient><path fill="url(#h)" d="M290.7 239.9c0-13.7-.9-18.8-6-25.6-3.7-5-11.1-9.4-21.3-9.4-16.4 0-29 9-29.1 30v5.6c0 21.9 11.3 30.9 29.2 30.9 9.7 0 17.7-1.4 25.1-4.2v-13.4c-6.7 1.6-17 3.6-24.6 2.8-9-1-11.7-6-12-13h38.7v-3.7m-38.7-8c.1-9.6 4.8-13.4 11-13.4 6.3 0 10.8 4.1 11 13.4h-22z"/><linearGradient id="i" gradientUnits="userSpaceOnUse" x1="530.9" y1="187.985" x2="530.9" y2="270.042"><stop offset="0" stop-color="#fff"/><stop offset="1" stop-color="#fff"/></linearGradient><path fill="url(#i)" d="M559.1 239.9c0-13.7-.9-18.8-6-25.6-3.7-5-11.1-9.4-21.3-9.4-16.4 0-29 9-29.1 30v5.6c0 21.9 11.3 30.9 29.2 30.9 9.7 0 17.7-1.4 25.1-4.2v-13.4c-6.7 1.6-17 3.6-24.6 2.8-9-1-11.7-6-12-13h38.7v-3.7m-38.7-8c.1-9.6 4.8-13.4 11-13.4 6.3 0 10.8 4.1 11 13.4h-22z"/><linearGradient id="j" gradientUnits="userSpaceOnUse" x1="324.243" y1="187.985" x2="324.243" y2="270.041"><stop offset="0" stop-color="#fff"/><stop offset="1" stop-color="#fff"/></linearGradient><path fill="url(#j)" d="M344.5 207c-5.4-1.3-12.3-2.3-18.8-2.3-10 0-16.7 1.9-20.7 5.8-3.1 3-4.7 8-4.7 13 0 7.2 2.9 11.5 7.5 14.6 7.1 4.7 13.5 6.8 19.4 10.9 2.4 1.7 2.6 3.3 2.1 5.1-.7 2.5-4.7 3.1-11.7 2.8-6-.3-12.5-1.1-16.4-1.8v13.4c4.8 1.6 12.8 2.8 19.6 2.8 11 0 18.2-2.4 22.3-6.5 3.3-3.3 5.1-7 5.1-14.2 0-6.2-2.5-11.5-8.2-15.1-7.9-5-15.5-7.7-19.4-10.2-2-1.3-2.5-2.7-2-4.2.3-.9 1.2-1.5 2.7-1.8 1.8-.3 4.4-.3 7.8 0 5.5.4 11.2 1.2 15.4 2V207z"/><linearGradient id="k" gradientUnits="userSpaceOnUse" x1="706.903" y1="187.985" x2="706.903" y2="270.041"><stop offset="0" stop-color="#fff"/><stop offset="1" stop-color="#fff"/></linearGradient><path fill="url(#k)" d="M727.1 207c-5.4-1.3-12.3-2.3-18.8-2.3-10 0-16.7 1.9-20.7 5.8-3.1 3-4.7 8-4.7 13 0 7.2 2.9 11.5 7.5 14.6 7.1 4.7 13.5 6.8 19.4 10.9 2.4 1.7 2.7 3.3 2.1 5.1-.7 2.5-4.7 3.1-11.7 2.8-6-.3-12.5-1.1-16.4-1.8v13.4c4.8 1.6 12.8 2.8 19.6 2.8 11 0 18.3-2.4 22.3-6.5 3.3-3.3 5.1-7 5.1-14.2 0-6.2-2.5-11.5-8.2-15.1-7.9-5-15.5-7.7-19.4-10.2-2-1.3-2.5-2.7-2-4.2.3-.9 1.2-1.5 2.7-1.8 1.8-.3 4.4-.3 7.8 0 5.5.4 11.2 1.2 15.4 2V207z"/><linearGradient id="l" gradientUnits="userSpaceOnUse" x1="198.56" y1="187.987" x2="198.56" y2="270.04"><stop offset="0" stop-color="#fff"/><stop offset="1" stop-color="#fff"/></linearGradient><path fill="url(#l)" d="M210.8 205.8L198.6 255l-12.2-49.2h-19.6l17.6 58.5c1.5 5.2 5.2 6.8 11 6.8h6.4c5.7 0 9.4-1.7 11-6.8l17.6-58.5h-19.6z"/></g></svg>