<svg xmlns="http://www.w3.org/2000/svg" viewBox="0 0 668.5 420.5"><defs><style>.cls-1{opacity:.75}.cls-2,.cls-4{fill:#fff}.cls-3,.cls-4{opacity:.9}</style></defs><title>Phone Landscape</title><g id="Layer_2" data-name="Layer 2"><g id="Layer_1-2" data-name="Layer 1"><path class="cls-1 cls-2" d="M190.84 406H26.16A26.23 26.23 0 0 1 0 379.84V26.16A26.23 26.23 0 0 1 26.16 0h164.68A26.23 26.23 0 0 1 217 26.16v353.68A26.23 26.23 0 0 1 190.84 406zM204.5 45h-192v303h192zm-61-22.5A6.52 6.52 0 0 0 137 16H80a6.52 6.52 0 0 0-6.5 6.5A6.52 6.52 0 0 0 80 29h57a6.52 6.52 0 0 0 6.5-6.5zM59.8 16a6.5 6.5 0 1 0 6.5 6.5 6.5 6.5 0 0 0-6.5-6.5zm48.7 340a20 20 0 1 0 20 20 20 20 0 0 0-20-20z"/><path class="cls-3 cls-2" d="M262.5 394.34V229.66a26.23 26.23 0 0 1 26.16-26.16h353.68a26.23 26.23 0 0 1 26.16 26.16v164.68a26.23 26.23 0 0 1-26.16 26.16H288.66a26.23 26.23 0 0 1-26.16-26.16zm361 13.66V216h-303v192zm22.5-61a6.52 6.52 0 0 0 6.5-6.5v-57a6.52 6.52 0 0 0-6.5-6.5 6.52 6.52 0 0 0-6.5 6.5v57a6.52 6.52 0 0 0 6.5 6.5zm6.5-83.7a6.5 6.5 0 1 0-6.5 6.5 6.5 6.5 0 0 0 6.5-6.5zm-340 48.7a20 20 0 1 0-20 20 20 20 0 0 0 20-20z"/><path class="cls-4" d="M252.3 26.28C321.21 26.28 376 67.07 376 136v-.39l29.59-.17-42.15 51.71-46.61-51.71 31.26.1v-.1c0-53.49-42.25-81.23-95.74-81.23l.28-.28V26"/></g></g></svg>