<svg id="Capa_1" data-name="Capa 1" xmlns="http://www.w3.org/2000/svg" viewBox="0 0 512 436.18"><defs><style>.cls-1{fill:#fff}</style></defs><title>Sound_Off</title><path class="cls-1" d="M440.07 246.52l69.15-69.15a9.48 9.48 0 0 0-13.4-13.37l-69.15 69.15L357.52 164a9.48 9.48 0 0 0-13.41 13.41l69.15 69.15-69.15 69.15a9.48 9.48 0 1 0 13.41 13.41l69.15-69.15 69.15 69.15a9.48 9.48 0 0 0 13.41-13.41zM269.31 41.72a28.72 28.72 0 0 0-29.3.42 8.81 8.81 0 0 0-1.23.88L110.31 151.7H9.48A9.47 9.47 0 0 0 0 161.19v180.14a9.48 9.48 0 0 0 9.48 9.48h100.6l128.41 117.91a9.25 9.25 0 0 0 1.53 1.14 28.72 28.72 0 0 0 29.3.42 29.6 29.6 0 0 0 15.13-26.12V67.85a29.63 29.63 0 0 0-15.14-26.13z" transform="translate(0 -37.91)"/></svg>