<svg id="Capa_1" data-name="Capa 1" xmlns="http://www.w3.org/2000/svg" viewBox="0 0 512 404.56"><defs><style>.cls-1{fill:#fff}</style></defs><title>Sound_On</title><path class="cls-1" d="M242.38 66.2a25.85 25.85 0 0 0-26.37.38 7.93 7.93 0 0 0-1.11.79L99.28 165.19H8.53A8.53 8.53 0 0 0 0 173.72v162.13a8.54 8.54 0 0 0 8.53 8.53h90.54L214.64 450.5a8.33 8.33 0 0 0 1.37 1 25.85 25.85 0 0 0 26.37.38 26.64 26.64 0 0 0 13.62-23.5V89.72a26.66 26.66 0 0 0-13.62-23.52zM444 254.79A166.22 166.22 0 0 0 331.07 97.37a8.54 8.54 0 0 0-5.49 16.17 149.18 149.18 0 0 1 .2 282.51 8.54 8.54 0 0 0 2.76 16.61 8.42 8.42 0 0 0 2.76-.46A166.33 166.33 0 0 0 444 254.79z" transform="translate(0 -53.72)"/><path class="cls-1" d="M379.33 54.39a8.54 8.54 0 1 0-6.66 15.72 200.29 200.29 0 0 1 122.26 184.68c0 83.43-50.3 156.84-128.13 187a8.54 8.54 0 0 0 6.2 15.92C457.43 425 512 345.32 512 254.79a217.35 217.35 0 0 0-132.67-200.4z" transform="translate(0 -53.72)"/><path class="cls-1" d="M367.16 254.79A115.71 115.71 0 0 0 284 144.18a8.53 8.53 0 0 0-4.73 16.4 98.05 98.05 0 0 1 0 188.42 8.53 8.53 0 0 0 2.36 16.73 8.69 8.69 0 0 0 2.36-.33 115.72 115.72 0 0 0 83.17-110.61z" transform="translate(0 -53.72)"/></svg>