<svg xmlns="http://www.w3.org/2000/svg" viewBox="0 0 48 53"><style>.st0{fill:#fff}</style><g id="Layer_1"><title>twitter</title><path class="st0" d="M24 2c12.2 0 22 9.8 22 22s-9.8 22-22 22S2 36.2 2 24 11.8 2 24 2m0-2C10.7 0 0 10.7 0 24s10.7 24 24 24 24-10.7 24-24S37.3 0 24 0z"/><path class="st0" d="M36.8 15.4c-.9.5-2 .8-3 .9 1.1-.7 1.9-1.8 2.3-3.1-1.1.6-2.2 1.1-3.4 1.4-.9-1.1-2.3-1.8-3.8-1.8-3 .1-5.4 2.7-5.3 5.7 0 .4 0 .9.1 1.3-4.3-.3-8.3-2.4-10.9-5.9-.5.9-.7 1.9-.7 2.9 0 1.8.8 3.6 2.3 4.7-.8 0-1.7-.3-2.4-.7v.1c0 2.6 1.7 4.9 4.2 5.6-.5.1-.9.2-1.4.2-.3 0-.7 0-1-.1.6 2.2 2.6 3.8 4.9 3.9-1.8 1.5-4.1 2.4-6.5 2.4-.4 0-.9 0-1.3-.1 2.4 1.7 5.2 2.6 8.1 2.6 9.7 0 15-8.6 15-16.1v-.7c1.1-.9 2.1-2 2.8-3.2z"/></g></svg>