{
    "asset" : {
        "generator" : "Khronos glTF Blender I/O v1.0.5",
        "version" : "2.0"
    },
    "scene" : 0,
    "scenes" : [
        {
            "name" : "Scene",
            "nodes" : [
                0
            ]
        }
    ],
    "nodes" : [
        {
            "mesh" : 0,
            "name" : "Egg"
        }
    ],
    "materials" : [
        {
            "doubleSided" : true,
            "name" : "egg",
            "pbrMetallicRoughness" : {
                "baseColorTexture" : {
                    "index" : 0,
                    "texCoord" : 0
                },
                "metallicFactor" : 0,
                "roughnessFactor" : 0.5
            }
        }
    ],
    "meshes" : [
        {
            "name" : "BezierCircle",
            "primitives" : [
                {
                    "attributes" : {
                        "POSITION" : 0,
                        "NORMAL" : 1,
                        "TANGENT" : 2,
                        "TEXCOORD_0" : 3
                    },
                    "indices" : 4,
                    "material" : 0
                }
            ]
        }
    ],
    "textures" : [
        {
            "source" : 0
        }
    ],
    "images" : [
        {
            "bufferView" : 5,
            "mimeType" : "image/png",
            "name" : "default"
        }
    ],
    "accessors" : [
        {
            "bufferView" : 0,
            "componentType" : 5126,
            "count" : 925,
            "max" : [
                0.2287752628326416,
                0.6077914834022522,
                0.2287752479314804
            ],
            "min" : [
                -0.22877530753612518,
                0.00010878680041059852,
                -0.22877508401870728
            ],
            "type" : "VEC3"
        },
        {
            "bufferView" : 1,
            "componentType" : 5126,
            "count" : 925,
            "type" : "VEC3"
        },
        {
            "bufferView" : 2,
            "componentType" : 5126,
            "count" : 925,
            "type" : "VEC4"
        },
        {
            "bufferView" : 3,
            "componentType" : 5126,
            "count" : 925,
            "type" : "VEC2"
        },
        {
            "bufferView" : 4,
            "componentType" : 5123,
            "count" : 5184,
            "type" : "SCALAR"
        }
    ],
    "bufferViews" : [
        {
            "buffer" : 0,
            "byteLength" : 11100,
            "byteOffset" : 0
        },
        {
            "buffer" : 0,
            "byteLength" : 11100,
            "byteOffset" : 11100
        },
        {
            "buffer" : 0,
            "byteLength" : 14800,
            "byteOffset" : 22200
        },
        {
            "buffer" : 0,
            "byteLength" : 7400,
            "byteOffset" : 37000
        },
        {
            "buffer" : 0,
            "byteLength" : 10368,
            "byteOffset" : 44400
        },
        {
            "buffer" : 0,
            "byteLength" : 3166,
            "byteOffset" : 54768
        }
    ],
    "buffers" : [
        {
            "byteLength" : 57936,
            "uri" : "data:application/octet-stream;base64,"
        }
    ]
}
