<svg xmlns="http://www.w3.org/2000/svg" viewBox="0 0 141.73 33.31"><defs><style>.cls-1{fill:#141e50;}.cls-2{fill:#1a9ce3;}.cls-3{fill:#8a8c8e;}</style></defs><title>ASI_Logo-Positive</title><g id="Layer_2" data-name="Layer 2"><g id="ASI_Logo_Positive_RGB" data-name="ASI Logo Positive RGB"><g id="Standard"><path class="cls-1" d="M76.7,14.81a2.88,2.88,0,0,1,1.43,2.76c0,2.22-1.34,3.25-4,3.32a10.36,10.36,0,0,1-3.23-.42c0-.59,0-1.95,0-1.95.72.11,1.6.23,2.46.27a3,3,0,0,0,1.82-.21.93.93,0,0,0,.36-.94c-.07-.38-.23-.57-.81-.95s-1.35-.83-1.88-1.14c-1.65-.95-2.09-1.57-2.09-3,0-2.18,1.19-3.11,3.93-3.11a12.21,12.21,0,0,1,2.82.35c0,.37,0,2,0,2a16.87,16.87,0,0,0-2.73-.32c-.69,0-1.12,0-1.36.28a.75.75,0,0,0-.18.59c0,.46.34.62,1,1s1.86,1,2.5,1.43m5.69,6.08a7.8,7.8,0,0,0,1.78-.19V19.06a11.05,11.05,0,0,1-1.43,0c-.23,0-.26-.07-.34-.18a1.56,1.56,0,0,1-.06-.66V13.83h1.73V12.18H82.35V10.07l-2.41.42v1.69H78.71v1.65h1.22v4.78c0,1.71.77,2.28,2.46,2.28m7.52-2.12V16.94a3.7,3.7,0,0,0-1.72.17c-.29.15-.46.37-.46.94,0,0,0,.08,0,.1,0,.61.43.92,1.08.9a2.7,2.7,0,0,0,1.1-.27Zm-1-6.72c2,0,3.37.85,3.38,3v5.73H90v-.5a3.06,3.06,0,0,1-2,.62,2.36,2.36,0,0,1-2.52-2.54s0-.27,0-.31c0-1.9,1.26-2.48,3.76-2.49h.74V15a.94.94,0,0,0-.36-.87,2.38,2.38,0,0,0-1.29-.2c-.74,0-1.7.12-2.26.18V12.43A11.72,11.72,0,0,1,89,12.05m27.44,6.72V16.94a3.69,3.69,0,0,0-1.72.17c-.29.15-.46.37-.46.94,0,0,0,.08,0,.1,0,.61.43.92,1.08.9a2.7,2.7,0,0,0,1.1-.27Zm-1-6.72c2,0,3.37.85,3.38,3v5.73h-2.36v-.5a3.06,3.06,0,0,1-2,.62,2.36,2.36,0,0,1-2.52-2.54s0-.27,0-.31c0-1.9,1.26-2.48,3.76-2.49h.74V15a.94.94,0,0,0-.36-.87,2.39,2.39,0,0,0-1.29-.2c-.75,0-1.7.12-2.26.18V12.43a11.73,11.73,0,0,1,2.94-.38M99.09,20.77h2.41V14.89a2.53,2.53,0,0,0-2.66-2.83,4.15,4.15,0,0,0-2.48.81v-.69H94.13v8.59h2.42v-6.3A3.72,3.72,0,0,1,97.86,14a1,1,0,0,1,1,.31,1.74,1.74,0,0,1,.21,1.12v5.31Zm9-2V13.83a4,4,0,0,0-1.44-.06c-.95.21-1.2.86-1.2,2.33,0,0,0,.7,0,.74,0,1.14.11,1.51.45,1.87a1.32,1.32,0,0,0,1,.35,2.27,2.27,0,0,0,1.15-.28Zm0-9.47h2.41V20.77h-2.36s0,0,0-.49a3,3,0,0,1-2,.62c-2,0-3.1-1.09-3.1-3.53,0-.07,0-1.32,0-1.38a4,4,0,0,1,1.15-3.27,3.6,3.6,0,0,1,2.5-.82,7.37,7.37,0,0,1,1.38.12V9.3Zm23.19,9.47V13.83a4,4,0,0,0-1.44-.06c-.95.21-1.2.86-1.2,2.33,0,0,0,.7,0,.74,0,1.14.11,1.51.45,1.87a1.32,1.32,0,0,0,1,.35,2.27,2.27,0,0,0,1.15-.28Zm0-9.47h2.41V20.77h-2.36s0,0,0-.49a3,3,0,0,1-2,.62c-2,0-3.1-1.09-3.1-3.53,0-.07,0-1.32,0-1.38a4,4,0,0,1,1.15-3.27,3.6,3.6,0,0,1,2.5-.82,7.36,7.36,0,0,1,1.38.12V9.3Zm-5.77,2.78a3.49,3.49,0,0,0-2.51.73v-.63h-2.37v8.59H123V14.57a4.43,4.43,0,0,1,2.46-.52s0-1.76,0-2"/><path class="cls-2" d="M141.73,0l-5.34,10.43-2.32-4.56Z"/></g><g id="Aberdeen"><path class="cls-2" d="M3.26,17.29a5.12,5.12,0,0,0-3.26,1,4.84,4.84,0,0,1,4-2.6c1.43,0,2.46.81,4.43.81a8.18,8.18,0,0,0,4.31-1.26,6.16,6.16,0,0,1-4.84,2.84C6.08,18.11,5.27,17.29,3.26,17.29Z"/><path class="cls-1" d="M17.14,12.05a5.31,5.31,0,0,0-1.91.33v-4H13.68v12a5.56,5.56,0,0,0,2.58.55c2.79,0,4.88-1.32,4.88-4.71C21.14,13.71,19.64,12.05,17.14,12.05Zm-.85,7.54a3,3,0,0,1-1.07-.16V13.82A4.45,4.45,0,0,1,17,13.47c1.69,0,2.57.93,2.57,2.78A3,3,0,0,1,16.29,19.59Zm40.38-7.54c-2.57,0-4,1.9-4,4.43A4.31,4.31,0,0,0,57.26,21a5.08,5.08,0,0,0,2.81-.79l-.6-1.28a4.3,4.3,0,0,1-2.08.59,2.82,2.82,0,0,1-3.12-2.55h6.18v-.48C60.44,14.31,59.39,12.07,56.67,12.05Zm-2.38,3.46a2.28,2.28,0,0,1,2.26-2.07,2.21,2.21,0,0,1,2.26,2.07ZM25.89,12.05c-2.57,0-4,1.9-4,4.43A4.31,4.31,0,0,0,26.47,21a5.08,5.08,0,0,0,2.81-.79l-.6-1.28a4.31,4.31,0,0,1-2.09.59,2.82,2.82,0,0,1-3.12-2.55h6.19v-.48C29.66,14.31,28.61,12.07,25.89,12.05Zm-2.38,3.46a2.28,2.28,0,0,1,2.26-2.07A2.22,2.22,0,0,1,28,15.52Zm45.05.79v4.46H67V16.45c0-1.91-.77-3-2.7-3a5.38,5.38,0,0,0-1.41.17v7.2H61.34v-8.1a7.24,7.24,0,0,1,3-.62C67.13,12.05,68.56,13.69,68.56,16.31Zm-20.4-4.26c-2.57,0-4,1.9-4,4.43A4.31,4.31,0,0,0,48.75,21a5.08,5.08,0,0,0,2.81-.79L51,18.89a4.3,4.3,0,0,1-2.09.59,2.82,2.82,0,0,1-3.12-2.55h6.19v-.48C51.93,14.31,50.88,12.07,48.16,12.05Zm-2.38,3.46A2.28,2.28,0,0,1,48,13.45a2.22,2.22,0,0,1,2.26,2.07Zm-9.6-2.64L35.38,14a3.71,3.71,0,0,0-2.1-.6,3.4,3.4,0,0,0-1.17.21v7.15H30.55V12.66a5.81,5.81,0,0,1,2.6-.6A5,5,0,0,1,36.19,12.88Zm5.53-.71a7.13,7.13,0,0,0-1.31-.12,4.36,4.36,0,0,0-4.67,4.49c0,2.71,2.1,4.42,4.84,4.42a6.56,6.56,0,0,0,2.69-.57v-12H41.72Zm0,7.3a3.66,3.66,0,0,1-1.06.12c-1.9,0-3.36-1.07-3.36-3.08s1.1-3,3.22-3a4.38,4.38,0,0,1,1.2.15ZM3.79,17.88,2.38,20.77h-2L1.81,18a5.9,5.9,0,0,1,1.45-.18Zm7.57-.37L13,20.77h-2l-1.2-2.45A6.53,6.53,0,0,0,11.36,17.51ZM5.07,15.27A4.89,4.89,0,0,0,4,15.15a4.3,4.3,0,0,0-.76.08L6.72,8.45l3.69,7.2a7.51,7.51,0,0,1-1.72.27l-2-4Z"/></g><path id="Investments" class="cls-3" d="M94.6,27.46a2.78,2.78,0,0,1,2-.56,8.17,8.17,0,0,1,1.81.22v1.37a13.8,13.8,0,0,0-1.48-.2,3.08,3.08,0,0,0-.75,0,.3.3,0,0,0-.26.18c0,.15,0,.28.19.41.37.24,1.11.5,1.87,1a1.64,1.64,0,0,1,.79,1.46,1.72,1.72,0,0,1-.49,1.37,3,3,0,0,1-2.15.62A6.64,6.64,0,0,1,94.23,33V31.76a13.56,13.56,0,0,0,1.58.17c.68,0,1.06,0,1.13-.27a.4.4,0,0,0-.2-.49c-.57-.39-1.19-.6-1.87-1.05a1.54,1.54,0,0,1-.72-1.4,1.77,1.77,0,0,1,.45-1.25m-4.36-1.68V27h-.89v1.2h.89v3.46c0,1.24.55,1.65,1.78,1.65a5.69,5.69,0,0,0,1.29-.14V32a8.29,8.29,0,0,1-1,0c-.17,0-.19-.05-.25-.13a1.12,1.12,0,0,1,0-.48V28.2h1.26V27H92V25.47ZM84.93,27.5V27H83.3v6.23h1.75V28.66a2.7,2.7,0,0,1,1-.32.75.75,0,0,1,.73.22,1.26,1.26,0,0,1,.16.81v3.85h1.75V29a1.83,1.83,0,0,0-1.93-2,3,3,0,0,0-1.79.59m-8.13,2.3a2.6,2.6,0,0,1,2.8-2.89,2.51,2.51,0,0,1,2.06.91,3.43,3.43,0,0,1,.58,2.46c0,.09,0,.27,0,.36H78.49a1.14,1.14,0,0,0,1.15,1.25A8,8,0,0,0,82,31.62s0,.9,0,1.29a6.72,6.72,0,0,1-2.41.4c-1.72,0-2.81-.87-2.81-3V29.8m2.76-1.58c-.59,0-1,.37-1.06,1.29h2.11c0-.9-.45-1.29-1.06-1.29m-7.28-.72-.2.17a1.62,1.62,0,0,0-1.48-.76,2.68,2.68,0,0,0-1.68.59V27H67.4v6.23H69V28.66a2.41,2.41,0,0,1,.89-.32.68.68,0,0,1,.69.22,1.35,1.35,0,0,1,.14.81v3.85H72.4V28.66a2.42,2.42,0,0,1,.89-.32.68.68,0,0,1,.69.22,1.34,1.34,0,0,1,.14.81v3.85h1.63V29c0-1.06-.49-2-1.8-2a2.69,2.69,0,0,0-1.68.59m-8.93-1.72V27h-.89v1.2h.89v3.46c0,1.24.56,1.65,1.78,1.65a5.68,5.68,0,0,0,1.29-.14V32a8.28,8.28,0,0,1-1,0c-.17,0-.19-.05-.25-.13a1.12,1.12,0,0,1,0-.48V28.2h1.25V27H65.1V25.47Zm-5.59,1.68a1.77,1.77,0,0,0-.45,1.25,1.54,1.54,0,0,0,.72,1.4c.68.45,1.3.66,1.87,1.05a.4.4,0,0,1,.2.49c-.07.24-.45.3-1.13.27a13.52,13.52,0,0,1-1.58-.17V33a6.64,6.64,0,0,0,1.89.27,3,3,0,0,0,2.15-.62,1.72,1.72,0,0,0,.49-1.37,1.64,1.64,0,0,0-.79-1.46c-.76-.48-1.49-.74-1.87-1-.19-.13-.24-.26-.19-.41s.11-.15.26-.18a3.08,3.08,0,0,1,.75,0,13.83,13.83,0,0,1,1.48.2V27.12a8.16,8.16,0,0,0-1.81-.22,2.78,2.78,0,0,0-2,.56M51,29.8a2.6,2.6,0,0,1,2.8-2.89,2.52,2.52,0,0,1,2.06.91,3.43,3.43,0,0,1,.58,2.46c0,.09,0,.27,0,.36H52.66a1.14,1.14,0,0,0,1.15,1.25,8,8,0,0,0,2.37-.27s0,.9,0,1.29a6.72,6.72,0,0,1-2.41.4c-1.72,0-2.81-.87-2.81-3V29.8m2.76-1.58c-.59,0-1,.37-1.05,1.29h2.11c0-.9-.45-1.29-1.06-1.29m-5-1.22-1.18,4.74L46.34,27H44.45l1.7,5.63c.15.5.5.66,1.06.66h.61c.55,0,.91-.16,1.06-.66L50.58,27Zm-8.46.5V27H38.61v6.23h1.75V28.66a2.7,2.7,0,0,1,1-.32.75.75,0,0,1,.73.22,1.27,1.27,0,0,1,.16.81v3.85H44V29a1.83,1.83,0,0,0-1.93-2,3,3,0,0,0-1.79.59M35.3,33.22h1.85V25.12H35.3Z"/></g></g></svg>