<?xml version="1.0" encoding="utf-8"?>
<!-- Generator: Adobe Illustrator 19.1.0, SVG Export Plug-In . SVG Version: 6.00 Build 0)  -->
<svg version="1.1" id="Layer_1" xmlns="http://www.w3.org/2000/svg" xmlns:xlink="http://www.w3.org/1999/xlink" x="0px" y="0px"
	 viewBox="0 0 685.5 201" style="enable-background:new 0 0 685.5 201;" xml:space="preserve">
<style type="text/css">
	.st0{clip-path:url(#SVGID_2_);fill:#FFFFFF;}
	.st1{clip-path:url(#SVGID_4_);fill:#FFFFFF;}
	.st2{clip-path:url(#SVGID_6_);fill:#FFFFFF;}
	.st3{clip-path:url(#SVGID_8_);fill:#FFFFFF;}
	.st4{clip-path:url(#SVGID_10_);fill:#FFFFFF;}
	.st5{clip-path:url(#SVGID_12_);fill:#FFFFFF;}
	.st6{clip-path:url(#SVGID_14_);fill:#FFFFFF;}
	.st7{clip-path:url(#SVGID_16_);fill:#FFFFFF;}
	.st8{clip-path:url(#SVGID_18_);fill:#FFFFFF;}
	.st9{clip-path:url(#SVGID_20_);fill:#FFFFFF;}
	.st10{clip-path:url(#SVGID_22_);fill:#FFFFFF;}
	.st11{clip-path:url(#SVGID_24_);fill:#FFFFFF;}
	.st12{clip-path:url(#SVGID_26_);fill:#FFFFFF;}
	.st13{clip-path:url(#SVGID_28_);fill:#FFFFFF;}
	.st14{clip-path:url(#SVGID_30_);fill:#FFFFFF;}
	.st15{clip-path:url(#SVGID_32_);fill:#FFFFFF;}
	.st16{fill:#FFFFFF;}
</style>
<g>
	<g>
		<defs>
			<path id="SVGID_1_" d="M577.7,100.1L577.7,100.1C577.7,100.1,577.7,100.1,577.7,100.1 M577.7,100.1
				C577.7,100.1,577.7,100.1,577.7,100.1l2.9,9.5h19.4l0.1-0.3l1.4-4c-8.1-3.4-16.5-6.5-25-9.3L577.7,100.1z"/>
		</defs>
		<use xlink:href="#SVGID_1_"  style="overflow:visible;fill:#FFFFFF;"/>
		<clipPath id="SVGID_2_">
			<use xlink:href="#SVGID_1_"  style="overflow:visible;"/>
		</clipPath>
		<rect x="576.4" y="95.9" class="st0" width="25" height="13.7"/>
	</g>
	<g>
		<defs>
			<path id="SVGID_3_" d="M525,86.1C525,86.1,525,86.1,525,86.1l8.4,23.5h19.2l4.4-15l1.3-4.2c-11.2-3.1-22.8-5.8-34.6-7.9L525,86.1
				z"/>
		</defs>
		<use xlink:href="#SVGID_3_"  style="overflow:visible;fill:#FFFFFF;"/>
		<clipPath id="SVGID_4_">
			<use xlink:href="#SVGID_3_"  style="overflow:visible;"/>
		</clipPath>
		<rect x="523.6" y="82.4" class="st1" width="34.6" height="27.2"/>
	</g>
	<g>
		<g>
			<g>
				<defs>
					<path id="SVGID_5_" d="M495.5,78.2c0,0,0,0.1,0,0.1c-1.3,9.3-9.1,16.5-18.6,16.5c-10.5,0-19-8.6-19.2-19.4
						c-5-0.2-10-0.3-15-0.3c-0.3,0-0.5,0-0.8,0c0,0,0,0,0,0.1c0,19.6,15.7,35.4,35.1,35.4c16.8,0,30.9-12.4,33.8-28.7
						c0.1-0.5,0.1-1.1,0.2-1.6C505.9,79.5,500.7,78.8,495.5,78.2"/>
				</defs>
				<use xlink:href="#SVGID_5_"  style="overflow:visible;fill:#FFFFFF;"/>
				<clipPath id="SVGID_6_">
					<use xlink:href="#SVGID_5_"  style="overflow:visible;"/>
				</clipPath>
				<rect x="441.9" y="75.1" class="st2" width="69.1" height="35.5"/>
			</g>
		</g>
	</g>
	<g>
		<defs>
			<path id="SVGID_7_" d="M403.7,76.9v31.9H420v-33C414.5,76,409.1,76.4,403.7,76.9"/>
		</defs>
		<use xlink:href="#SVGID_7_"  style="overflow:visible;fill:#FFFFFF;"/>
		<clipPath id="SVGID_8_">
			<use xlink:href="#SVGID_7_"  style="overflow:visible;"/>
		</clipPath>
		<rect x="403.7" y="75.8" class="st3" width="16.2" height="33"/>
	</g>
	<g>
		<defs>
			<path id="SVGID_9_" d="M334.6,88.1v20.7h16.2V84.5C345.4,85.6,340,86.8,334.6,88.1"/>
		</defs>
		<use xlink:href="#SVGID_9_"  style="overflow:visible;fill:#FFFFFF;"/>
		<clipPath id="SVGID_10_">
			<use xlink:href="#SVGID_9_"  style="overflow:visible;"/>
		</clipPath>
		<rect x="334.6" y="84.5" class="st4" width="16.2" height="24.3"/>
	</g>
	<g>
		<defs>
			<path id="SVGID_11_" d="M377.7,79.9v28.9H394v-31C388.5,78.4,383.1,79.1,377.7,79.9"/>
		</defs>
		<use xlink:href="#SVGID_11_"  style="overflow:visible;fill:#FFFFFF;"/>
		<clipPath id="SVGID_12_">
			<use xlink:href="#SVGID_11_"  style="overflow:visible;"/>
		</clipPath>
		<rect x="377.7" y="77.8" class="st5" width="16.2" height="31"/>
	</g>
	<g>
		<defs>
			<path id="SVGID_13_" d="M312.7,97c-2.2,0-3.8-0.5-4.9-1.6c-5.4,1.7-10.7,3.8-16,5.6c2.9,7.2,9.9,10.2,19.2,10.2
				c6.4,0,12.2-1.8,18.1-3.8l-4.5-13.1C320.8,95.7,316.9,97,312.7,97"/>
		</defs>
		<use xlink:href="#SVGID_13_"  style="overflow:visible;fill:#FFFFFF;"/>
		<clipPath id="SVGID_14_">
			<use xlink:href="#SVGID_13_"  style="overflow:visible;"/>
		</clipPath>
		<rect x="291.8" y="94.3" class="st6" width="37.4" height="16.9"/>
	</g>
	<g>
		<defs>
			<path id="SVGID_15_" d="M186.3,53.1c9.1,0,13.7,6.6,13.8,15.1h-27.9C172.6,60.1,177.6,53.1,186.3,53.1 M154.8,75.1
				c0,21,13.8,35.2,34.6,35.2c8,0,16-1.9,23.3-5l-5.1-12.6c-4.9,2.2-11.6,3.5-17.2,3.5c-10,0-17-4.9-18.1-15.3h43.7
				c0.4-3,0.9-6,0.9-8.9c0-18.8-11.2-32.3-30.7-32.3C165.5,39.7,154.8,55.5,154.8,75.1"/>
		</defs>
		<use xlink:href="#SVGID_15_"  style="overflow:visible;fill:#FFFFFF;"/>
		<clipPath id="SVGID_16_">
			<use xlink:href="#SVGID_15_"  style="overflow:visible;"/>
		</clipPath>
		<rect x="154.8" y="39.7" class="st7" width="62.1" height="70.6"/>
	</g>
	<g>
		<defs>
			<path id="SVGID_17_" d="M509.1,41.4l11.2,31.7c6.5,0.9,13,2,19.4,3.2L528,41.4H509.1z"/>
		</defs>
		<use xlink:href="#SVGID_17_"  style="overflow:visible;fill:#FFFFFF;"/>
		<clipPath id="SVGID_18_">
			<use xlink:href="#SVGID_17_"  style="overflow:visible;"/>
		</clipPath>
		<rect x="509.1" y="41.4" class="st8" width="30.6" height="34.9"/>
	</g>
	<g>
		<defs>
			<path id="SVGID_19_" d="M606.3,41.4l-15.1,46.9l-17-46.9h-15.4l-13.1,36.2c5.1,1.1,10.2,2.2,15.2,3.5l5.4-18.2l6.4,21.3
				c11,3.1,21.8,6.7,32.3,10.7L624,41.4H606.3z"/>
		</defs>
		<use xlink:href="#SVGID_19_"  style="overflow:visible;fill:#FFFFFF;"/>
		<clipPath id="SVGID_20_">
			<use xlink:href="#SVGID_19_"  style="overflow:visible;"/>
		</clipPath>
		<rect x="545.8" y="41.4" class="st9" width="78.2" height="53.4"/>
	</g>
	<g>
		<g>
			<g>
				<defs>
					<path id="SVGID_21_" d="M453.5,68.3c1.8,0,3.6,0,5.4,0.1c2.8-7.2,9.9-12.5,17.8-12.5c8.4,0,15.8,6.1,18.1,14.2
						c5.5,0.5,10.9,1,16.3,1.7c-1.8-18-16.5-31.9-34.6-31.9c-16.9,0-30.9,12.2-34,28.5C446.2,68.4,449.9,68.3,453.5,68.3"/>
				</defs>
				<use xlink:href="#SVGID_21_"  style="overflow:visible;fill:#FFFFFF;"/>
				<clipPath id="SVGID_22_">
					<use xlink:href="#SVGID_21_"  style="overflow:visible;"/>
				</clipPath>
				<rect x="442.6" y="40" class="st10" width="68.6" height="31.9"/>
			</g>
		</g>
	</g>
	<g>
		<defs>
			<path id="SVGID_23_" d="M402.5,47.1c0,0,1.2,6.8,1.2,10.1v13.5c5.4-0.5,10.8-1,16.2-1.3V56.9c0-0.4-0.1-1.4-0.1-1.4
				c3.9-1.2,8.1-1.8,12.2-1.8c3,0,6.8,0.7,8.9,1.4l4.9-13.9c-3.7-0.9-8.3-1.5-12.4-1.5C422.7,39.7,412.2,43.1,402.5,47.1"/>
		</defs>
		<use xlink:href="#SVGID_23_"  style="overflow:visible;fill:#FFFFFF;"/>
		<clipPath id="SVGID_24_">
			<use xlink:href="#SVGID_23_"  style="overflow:visible;"/>
		</clipPath>
		<rect x="402.5" y="39.7" class="st11" width="43.3" height="31.1"/>
	</g>
	<g>
		<defs>
			<path id="SVGID_25_" d="M334.6,13.4v69.4c5.4-1.4,10.8-2.7,16.2-3.8V58.8c4.5-2.7,10.3-5,15.6-5c6.8,0,11.4,4.9,11.4,12.3v8
				c5.4-0.8,10.8-1.6,16.2-2.2v-8.2c0-15-8-23.9-23.1-23.9c-6.9,0-13.8,1.8-20,4.5V7L334.6,13.4z"/>
		</defs>
		<use xlink:href="#SVGID_25_"  style="overflow:visible;fill:#FFFFFF;"/>
		<clipPath id="SVGID_26_">
			<use xlink:href="#SVGID_25_"  style="overflow:visible;"/>
		</clipPath>
		<rect x="334.6" y="7" class="st12" width="59.4" height="75.8"/>
	</g>
	<g>
		<defs>
			<path id="SVGID_27_" d="M306.5,19.5l-16.2,6.3v15.6l-7.7,0.4v12.8l7.7,0.4v37.3c0,1.5,0.1,2.8,0.3,4.1c5.2-1.9,10.5-3.8,15.9-5.6
				V55.2h18.9V41.2h-18.9L306.5,19.5L306.5,19.5z"/>
		</defs>
		<use xlink:href="#SVGID_27_"  style="overflow:visible;fill:#FFFFFF;"/>
		<clipPath id="SVGID_28_">
			<use xlink:href="#SVGID_27_"  style="overflow:visible;"/>
		</clipPath>
		<rect x="282.5" y="19.5" class="st13" width="42.9" height="77"/>
	</g>
	<g>
		<defs>
			<path id="SVGID_29_" d="M237,88.5c0-7.6,18.5-5,24.1-10.2v14c0,0.9,0.1,2.8,0.1,2.8c-3.8,1.2-7.6,1.7-11.5,1.7
				C243.8,96.8,237,95.5,237,88.5 M225.4,45.5l5.5,12.3c5.7-2.4,12.7-4.1,18.8-4.1c4.1,0,11.4,0.5,11.4,6.2
				c0,11.8-41.9,2.4-41.9,29.7c0,15.8,17.3,20.6,30.3,20.6c4.1,0,7.3-0.2,10-0.7c5.9-2.8,11.8-5.4,17.8-7.9c0-0.3,0-2.5,0-5.2V61.7
				c0-15.7-10.8-22-25.3-22C243.2,39.7,233.4,41.9,225.4,45.5"/>
		</defs>
		<use xlink:href="#SVGID_29_"  style="overflow:visible;fill:#FFFFFF;"/>
		<clipPath id="SVGID_30_">
			<use xlink:href="#SVGID_29_"  style="overflow:visible;"/>
		</clipPath>
		<rect x="219.2" y="39.7" class="st14" width="58.1" height="70.6"/>
	</g>
	<g>
		<defs>
			<polygon id="SVGID_31_" points="73,20 73,108.8 89.9,108.8 89.9,67.7 130.6,67.7 130.6,108.8 147.6,108.8 147.6,13.4 130.6,20 
				130.6,53.6 89.9,53.6 89.9,13.4 			"/>
		</defs>
		<use xlink:href="#SVGID_31_"  style="overflow:visible;fill:#FFFFFF;"/>
		<clipPath id="SVGID_32_">
			<use xlink:href="#SVGID_31_"  style="overflow:visible;"/>
		</clipPath>
		<rect x="73" y="13.4" class="st15" width="74.5" height="95.4"/>
	</g>
</g>
<g>
	<path class="st16" d="M44.8,176.2l4.3-35.3h-0.1c0,0-0.7,1.4-1.1,2L31,167.1c-2,0.1-3-1.9-3.6-3.3l-9.3-20.9c-0.3-0.7-0.6-2-0.6-2
		h-0.1l-4.3,35.3H8.9l4.7-38.9h6.5l9.9,22.4c0.3,0.6,0.6,2,0.6,2h0.2c0,0,0.6-1.4,1.1-2c0,0,10.3-15.1,15.4-22.4h6.5L49,176.2H44.8z
		"/>
	<path class="st16" d="M65.5,176.8c-5.9,0-12-2-11.3-8c0.7-5.6,5.8-7.5,10.9-8.5c5-1,9.9-1.5,10.4-5.3c0.5-3.9-2.9-4.9-6.5-4.9
		c-2.5,0-5.8,0.9-8,1.8l-0.9-2.8c2.9-1.1,6.6-2,9.6-2c6.6,0,10.3,2.6,9.5,8.8L77.3,171c-0.1,1.1,0,3.7,0,3.7
		C73.5,176,69.4,176.8,65.5,176.8 M73.5,170.8l1.3-10.4c-1.3,0.9-2.5,1.3-4.2,1.7c-4.2,1.1-11.5,1.4-12.1,6.6
		c-0.5,4.1,3.5,5.2,7.7,5.2c2.6,0,5.5-0.5,7.3-1.1C73.5,172.7,73.4,171.7,73.5,170.8"/>
	<path class="st16" d="M102.7,176.2l-11.9-12.7c-0.7-0.8-1.5-1.6-2.4-2.2l-1.8,14.9h-3.8l5-41.8h3.9l-3,24.5l15.5-11.2h5.4
		l-17.8,12.5c1,0.3,1.8,0.9,2.5,1.5l13.7,14.4H102.7z"/>
	<path class="st16" d="M111.4,176.2l3.4-28.5h3.8l-3.4,28.5H111.4z M117.5,140.3c-1.5,0-2.6-0.9-2.4-2.3c0.2-1.4,1.5-2.3,3-2.3
		c1.5,0,2.7,0.9,2.5,2.3C120.4,139.4,119,140.3,117.5,140.3"/>
	<path class="st16" d="M142.4,176.2l2.3-18.8c0.6-4.6-1.6-7.3-6.8-7.3c-3.1,0-6.5,0.8-9.2,1.8c0,0,0,1.1-0.1,1.7l-2.7,22.5H122
		l2.7-22.4c0.1-1.2,0.1-3.6,0.1-3.6c4.2-1.6,9.3-3,13.9-3c6.8,0,10.7,3.2,10,9.5l-2.4,19.6H142.4z"/>
	<path class="st16" d="M161.8,189.7c-5.4,0-14.1-1.5-13.3-7.9c0.5-4.2,4.6-6.6,8.8-7.7c-1-0.9-1.5-2-1.4-3.4c0.2-1.7,1.9-3.3,3.5-4
		c-4.2-1.6-6.4-5.2-5.9-9.4c0.8-6.4,6.6-10.2,13.3-10.2c0.9,0,1.8,0.1,2.7,0.3c0.7,0.1,1.5,0.3,2.3,0.3h9.3l-0.4,2.9
		c-1.6,0-3.9,0.1-5.4-0.4c0,0.1-0.1,0.1-0.1,0.1c1.8,1.9,2.8,4.4,2.4,7c-0.8,6.3-6.5,10.3-13.3,10.3c-0.8,0-1.7-0.1-2.5-0.2
		c-1,0.7-2,1.4-2.1,2.6c-0.6,5.3,19,0.6,17.7,11.1C176.7,187.9,167.8,189.7,161.8,189.7 M159.9,175.6c-3.2,0.9-7,2.6-7.4,5.9
		c-0.5,4.3,6.1,5.2,9.7,5.2c3.7,0,10.5-1,11.1-5.3C173.8,176.1,163.6,176.6,159.9,175.6 M166.5,150.1c-4.9,0-8.6,2.7-9.1,7.2
		c-0.5,4.5,2.5,7.3,7.4,7.3c4.9,0,8.5-2.8,9-7.3C174.3,152.8,171.4,150.1,166.5,150.1"/>
	<path class="st16" d="M220.4,163h-21.7c-0.7,7.3,4.1,10.8,10.3,10.8c2.1,0,4.5-0.4,6.8-1.2l0.8,2.6c-2.8,1.1-5.9,1.7-8.8,1.7
		c-9.6,0-14.1-6.8-13.1-15c0.9-7.3,5.8-14.7,14.9-14.7c8.6,0,12.2,6.2,11.4,13.4C220.8,161.2,220.7,162.1,220.4,163 M209.3,150.1
		c-5.8,0-9.4,4.5-10.1,9.9h17.6C217.3,155.2,215.4,150.1,209.3,150.1"/>
	<path class="st16" d="M235.7,176.8c-2.8,0-3.9-2-4.3-3.5l-8-25.6h4.4c2.3,8.1,6.9,24.3,6.9,24.3h0.2c0-0.4,0.5-1.1,0.7-1.5
		l12.2-22.8h4.2L235.7,176.8z"/>
	<path class="st16" d="M277.2,163h-21.7c-0.7,7.3,4.1,10.8,10.3,10.8c2.1,0,4.5-0.4,6.8-1.2l0.8,2.6c-2.8,1.1-5.9,1.7-8.8,1.7
		c-9.6,0-14.1-6.8-13.1-15c0.9-7.3,5.8-14.7,14.9-14.7c8.6,0,12.2,6.2,11.4,13.4C277.6,161.2,277.4,162.1,277.2,163 M266,150.1
		c-5.8,0-9.4,4.5-10.1,9.9h17.6C274.1,155.2,272.2,150.1,266,150.1"/>
	<path class="st16" d="M296.4,150.5c-1.1-0.2-2.1-0.3-3.2-0.3c-2.3,0-4.8,0.5-7,1.3c0,0,0,1.3-0.1,1.9l-2.7,22.7h-3.8l2.7-22.6
		c0.2-1.2,0.1-3.7,0.1-3.7c3.9-1.5,8-2.8,12.1-2.8c1.2,0,2.4,0.1,3.5,0.3L296.4,150.5z"/>
	<path class="st16" d="M314,176.9c-2.7,5.6-7.6,11.1-13.3,12.6l-1.2-2.7c5.4-1.7,8.8-6.1,10.7-10.1c0,0-1.6,0.1-2.3-2.3l-8.5-26.7
		h4.4l7.7,25.7h0.1l12.4-25.7h4.1L314,176.9z"/>
	<path class="st16" d="M341.1,186.8c-1.1,1.1-2.3,2.2-3.6,3l-1.9-2.2c4.3-3.2,5.2-5.7,5.7-9.9l3.6-29.9h3.9l-3.5,28.6
		C344.8,180.2,344.2,183.6,341.1,186.8 M347.6,140.3c-1.5,0-2.6-0.9-2.4-2.3c0.2-1.4,1.5-2.3,3-2.3c1.5,0,2.6,0.9,2.4,2.3
		C350.4,139.4,349,140.3,347.6,140.3"/>
	<path class="st16" d="M365.4,176.8c-8.7,0-14-6.1-13-14.9c1.1-8.8,7.9-14.9,16.6-14.9c8.7,0,14,6.1,13,14.9
		C380.9,170.7,374.1,176.8,365.4,176.8 M368.6,150.1c-6.5,0-11,4.7-11.9,11.8c-0.9,7.1,2.5,11.8,9,11.8c6.5,0,11-4.7,11.9-11.8
		C378.5,154.8,375.1,150.1,368.6,150.1"/>
	<path class="st16" d="M396,176.8c-6.8,0-10.7-3.2-10-9.5l2.4-19.6h3.8l-2.3,18.8c-0.6,4.6,1.6,7.3,6.8,7.3c3.1,0,6.5-0.7,9.2-1.8
		c0,0,0-1.1,0.1-1.7l2.7-22.6h3.9l-2.7,22.5c-0.1,1.2-0.1,3.6-0.1,3.6C405.6,175.4,400.5,176.8,396,176.8"/>
	<path class="st16" d="M433,150.5c-1-0.2-2.1-0.3-3.2-0.3c-2.3,0-4.8,0.5-7,1.3c0,0,0,1.3-0.1,1.9l-2.7,22.7h-3.9l2.7-22.6
		c0.2-1.2,0.1-3.7,0.1-3.7c3.9-1.5,8-2.8,12.1-2.8c1.2,0,2.4,0.1,3.5,0.3L433,150.5z"/>
	<path class="st16" d="M455.8,176.2l2.3-18.8c0.6-4.6-1.6-7.3-6.8-7.3c-3.1,0-6.5,0.8-9.2,1.8c0,0,0,1.1-0.1,1.7l-2.7,22.5h-3.8
		l2.7-22.4c0.1-1.2,0.1-3.6,0.1-3.6c4.2-1.6,9.3-3,13.9-3c6.8,0,10.7,3.2,10,9.5l-2.4,19.6H455.8z"/>
	<path class="st16" d="M491.6,163h-21.7c-0.7,7.3,4.1,10.8,10.3,10.8c2.1,0,4.5-0.4,6.8-1.2l0.8,2.6c-2.8,1.1-5.9,1.7-8.8,1.7
		c-9.6,0-14.1-6.8-13.1-15c0.9-7.3,5.8-14.7,14.9-14.7c8.6,0,12.2,6.2,11.4,13.4C492,161.2,491.8,162.1,491.6,163 M480.4,150.1
		c-5.8,0-9.4,4.5-10.1,9.9h17.6C488.5,155.2,486.6,150.1,480.4,150.1"/>
	<path class="st16" d="M508.8,176.9c-2.7,5.6-7.6,11.1-13.3,12.6l-1.2-2.7c5.4-1.7,8.8-6.1,10.7-10.1c0,0-1.6,0.1-2.3-2.3l-8.4-26.7
		h4.4l7.7,25.7h0.1l12.4-25.7h4.1L508.8,176.9z"/>
	<path class="st16" d="M546.2,176.8c-3.5,0-6.9-0.7-10-1.9c0,0,0.6-2.3,0.7-3.4l4.5-37.1h3.9l-1.7,14.2c2.3-1,4.9-1.5,7.3-1.5
		c9.7,0,13.7,6.5,12.7,14.6C562.5,170.2,556.1,176.8,546.2,176.8 M550.2,150.1c-2.2,0-5,0.6-7,1.9l-2.4,19.6
		c-0.1,0.6-0.2,1.1-0.2,1.1c1.6,0.6,4,1,5.8,1c7.8,0,12-5.7,12.8-12.1C559.9,155.7,557.6,150.1,550.2,150.1"/>
	<path class="st16" d="M592.7,163H571c-0.7,7.3,4.1,10.8,10.3,10.8c2.1,0,4.5-0.4,6.8-1.2l0.8,2.6c-2.8,1.1-5.9,1.7-8.8,1.7
		c-9.6,0-14.1-6.8-13.1-15c0.9-7.3,5.7-14.7,14.9-14.7c8.6,0,12.2,6.2,11.4,13.4C593.1,161.2,593,162.1,592.7,163 M581.5,150.1
		c-5.8,0-9.4,4.5-10.1,9.9H589C589.6,155.2,587.7,150.1,581.5,150.1"/>
	<path class="st16" d="M604.6,176.8c-5,0-7.6-2.2-7.1-6.8l2.3-19.3l-3.6-0.2l0.3-2.7l3.6-0.2l0.9-7.8h3.8l-0.9,7.8h15l-0.4,3h-15
		l-2.3,19.3c-0.3,2.3,0.9,3.8,3.6,3.8c2,0,4.2-0.6,6.1-1.1l0.6,2.8C609.5,176.2,606.8,176.8,604.6,176.8"/>
	<path class="st16" d="M623.3,176.8c-5,0-7.6-2.2-7.1-6.8l2.3-19.3l-3.6-0.2l0.3-2.7l3.6-0.2l0.9-7.8h3.9l-0.9,7.8h9.5l-0.4,3h-9.5
		L620,170c-0.3,2.3,0.9,3.8,3.6,3.8c2,0,4.2-0.6,6.1-1.1l0.6,2.8C628.2,176.2,625.5,176.8,623.3,176.8"/>
	<path class="st16" d="M658,163h-21.7c-0.7,7.3,4.1,10.8,10.3,10.8c2.1,0,4.5-0.4,6.8-1.2l0.8,2.6c-2.8,1.1-5.9,1.7-8.8,1.7
		c-9.6,0-14.1-6.8-13.1-15c0.9-7.3,5.8-14.7,14.9-14.7c8.6,0,12.2,6.2,11.4,13.4C658.5,161.2,658.3,162.1,658,163 M646.9,150.1
		c-5.8,0-9.4,4.5-10.1,9.9h17.6C655,155.2,653,150.1,646.9,150.1"/>
	<path class="st16" d="M678.3,150.5c-1.1-0.2-2.1-0.3-3.2-0.3c-2.3,0-4.8,0.5-7,1.3c0,0,0,1.3-0.1,1.9l-2.7,22.7h-3.9l2.7-22.6
		c0.2-1.2,0.1-3.7,0.1-3.7c3.9-1.5,8-2.8,12.1-2.8c1.2,0,2.4,0.1,3.5,0.3L678.3,150.5z"/>
</g>
</svg>
