<svg xmlns="http://www.w3.org/2000/svg" xmlns:xlink="http://www.w3.org/1999/xlink" version="1.1" preserveAspectRatio="none" x="0" y="0" width="80" height="33" viewBox="0 0 80 33"><defs><g id="income_activists_txt_0_Layer0_0_MEMBER_0_MEMBER_0_MEMBER_0_MEMBER_0_FILL"><path fill="#F26E57" stroke="none" d="M144.4 170.25L147.2 170.25 147.2 159.4 144.4 159.4 144.4 170.25Z"/></g><g id="income_activists_txt_0_Layer0_0_MEMBER_0_MEMBER_0_MEMBER_1_MEMBER_0_FILL"><path fill="#F26E57" stroke="none" d="M159.65 159.4L157 159.4 157 166.6 152.6 159.4 149.1 159.4 149.1 170.25 151.75 170.25 151.75 163 156.3 170.25 159.65 170.25 159.65 159.4Z"/></g><g id="income_activists_txt_0_Layer0_0_MEMBER_0_MEMBER_0_MEMBER_2_MEMBER_0_FILL"><path fill="#F26E57" stroke="none" d="M170.2 160.15Q168.8 159.25 166.7 159.25 164.3 159.25 162.75 160.65 161 162.2 161 164.85 161 167.5 162.7 169 164.25 170.45 166.65 170.45 168.85 170.45 170.3 169.4 171.95 168.2 172.25 165.95L169.25 165.7Q169 168 166.7 168 165.5 168 164.75 167.15 164 166.3 164 164.85 164 163.4 164.7 162.55 165.45 161.65 166.65 161.65 168.85 161.65 169.1 163.7L172.15 163.25Q171.85 161.2 170.2 160.15Z"/></g><g id="income_activists_txt_0_Layer0_0_MEMBER_0_MEMBER_0_MEMBER_3_MEMBER_0_FILL"><path fill="#F26E57" stroke="none" d="M184.5 164.85Q184.5 162.25 182.7 160.7 181.05 159.25 178.7 159.25 176.3 159.25 174.7 160.65 172.9 162.2 172.9 164.85 172.9 167.45 174.7 169 176.3 170.45 178.7 170.45 181.1 170.45 182.7 169.05 184.5 167.5 184.5 164.85M178.7 161.7Q180 161.7 180.75 162.55 181.5 163.4 181.5 164.85 181.5 166.25 180.75 167.1 180 167.95 178.7 167.95 177.4 167.95 176.65 167.15 175.9 166.3 175.9 164.85 175.9 163.4 176.65 162.55 177.4 161.7 178.7 161.7Z"/></g><g id="income_activists_txt_0_Layer0_0_MEMBER_0_MEMBER_0_MEMBER_4_MEMBER_0_FILL"><path fill="#F26E57" stroke="none" d="M198.7 159.4L194.6 159.4 192.4 166.6 190.3 159.4 185.8 159.4 185.8 170.25 188.6 170.25 188.6 162.55 190.9 170.25 193.65 170.25 195.9 163 195.9 170.25 198.7 170.25 198.7 159.4Z"/></g><g id="income_activists_txt_0_Layer0_0_MEMBER_0_MEMBER_0_MEMBER_5_MEMBER_0_FILL"><path fill="#F26E57" stroke="none" d="M200.6 159.4L200.6 170.25 210.05 170.25 210.05 167.85 203.4 167.85 203.4 166.05 208.8 166.05 208.8 163.65 203.4 163.65 203.4 161.85 210 161.85 210 159.4 200.6 159.4Z"/></g><g id="income_activists_txt_0_Layer0_0_MEMBER_0_MEMBER_0_MEMBER_6_MEMBER_0_FILL"><path fill="#F26E57" stroke="none" d="M137.15 182.4L141.35 182.4 142.1 184.4 145.35 184.4 141.3 173.6 137.45 173.6 133.45 184.4 136.5 184.4 137.15 182.4M140.65 180.15L137.9 180.15 139.25 176 140.65 180.15Z"/></g><g id="income_activists_txt_0_Layer0_0_MEMBER_0_MEMBER_0_MEMBER_7_MEMBER_0_FILL"><path fill="#F26E57" stroke="none" d="M156.5 180.1L153.5 179.85Q153.3 182.2 150.95 182.2 149.75 182.2 149 181.35 148.25 180.45 148.25 179 148.25 177.6 149 176.7 149.7 175.85 150.9 175.85 153.05 175.85 153.4 177.9L156.45 177.45Q156.15 175.4 154.5 174.35 153.05 173.4 150.95 173.4 148.6 173.4 147 174.85 145.25 176.4 145.25 179 145.25 181.65 146.95 183.15 148.55 184.6 150.95 184.6 153.15 184.6 154.6 183.55 156.25 182.4 156.5 180.1Z"/></g><g id="income_activists_txt_0_Layer0_0_MEMBER_0_MEMBER_0_MEMBER_8_MEMBER_0_FILL"><path fill="#F26E57" stroke="none" d="M163.45 184.4L163.45 176.1 167.25 176.1 167.25 173.6 156.8 173.6 156.8 176.1 160.55 176.1 160.55 184.4 163.45 184.4Z"/></g><g id="income_activists_txt_0_Layer0_0_MEMBER_0_MEMBER_0_MEMBER_9_MEMBER_0_FILL"><path fill="#F26E57" stroke="none" d="M168.4 184.4L171.2 184.4 171.2 173.6 168.4 173.6 168.4 184.4Z"/></g><g id="income_activists_txt_0_Layer0_0_MEMBER_0_MEMBER_0_MEMBER_10_MEMBER_0_FILL"><path fill="#F26E57" stroke="none" d="M175 173.6L171.8 173.6 175.8 184.4 179.5 184.4 183.55 173.6 180.55 173.6 177.75 182 175 173.6Z"/></g><g id="income_activists_txt_0_Layer0_0_MEMBER_0_MEMBER_0_MEMBER_11_MEMBER_0_FILL"><path fill="#F26E57" stroke="none" d="M184.15 184.4L187 184.4 187 173.6 184.15 173.6 184.15 184.4Z"/></g><g id="income_activists_txt_0_Layer0_0_MEMBER_0_MEMBER_0_MEMBER_12_MEMBER_0_FILL"><path fill="#F26E57" stroke="none" d="M195.5 176.1Q196.65 176.45 197.1 176.95L198.65 174.85Q198.15 174.3 196.85 173.9 195.35 173.4 193.6 173.4 191.4 173.4 190 174.4 188.6 175.35 188.6 176.85 188.6 179 190.7 179.75 191.5 180 194.15 180.25 195.9 180.4 195.9 181.1 195.9 182.2 193.8 182.2 191.25 182.2 189.85 180.5L188.2 182.7Q189 183.65 190.55 184.15 191.95 184.6 193.6 184.6 196.2 184.6 197.6 183.5 198.9 182.5 198.9 181 198.9 178.8 196.75 178.1 196.3 177.95 192.35 177.5 191.5 177.4 191.5 176.7 191.5 175.75 193.75 175.75 194.5 175.75 195.5 176.1Z"/></g><g id="income_activists_txt_0_Layer0_0_MEMBER_0_MEMBER_0_MEMBER_13_MEMBER_0_FILL"><path fill="#F26E57" stroke="none" d="M199.1 173.6L199.1 176.1 202.9 176.1 202.9 184.4 205.8 184.4 205.8 176.1 209.55 176.1 209.55 173.6 199.1 173.6Z"/></g><g id="income_activists_txt_0_Layer0_0_MEMBER_0_MEMBER_0_MEMBER_14_MEMBER_0_FILL"><path fill="#F26E57" stroke="none" d="M218.8 176.95L220.3 174.85Q219.8 174.3 218.5 173.9 217.05 173.4 215.3 173.4 213.05 173.4 211.65 174.4 210.3 175.35 210.3 176.85 210.3 179.05 212.4 179.75 213.2 180 215.85 180.25 217.6 180.4 217.6 181.1 217.6 182.2 215.5 182.2 212.95 182.2 211.55 180.5L209.9 182.7Q210.65 183.65 212.25 184.15 213.65 184.6 215.3 184.6 217.9 184.6 219.3 183.5 220.6 182.5 220.6 181 220.6 178.8 218.4 178.1 218 178 214.05 177.5 213.2 177.4 213.2 176.7 213.2 175.75 215.45 175.75 216.15 175.75 217.2 176.1 218.35 176.45 218.8 176.95Z"/></g><g id="income_activists_txt_0_Layer0_0_MEMBER_0_MEMBER_0_MEMBER_15_MEMBER_0_FILL"><path fill="#764887" stroke="none" d="M140.05 191.4L140.7 191Q140.2 190.1 138.8 190.1 137.9 190.1 137.4 190.5 136.95 190.85 136.95 191.4 136.95 192.2 137.75 192.45 137.8 192.45 139.15 192.7 139.9 192.85 139.9 193.25 139.9 193.55 139.7 193.7 139.45 193.9 138.9 193.9 137.75 193.9 137.45 193L136.75 193.5Q137.2 194.55 138.85 194.55 140.75 194.55 140.75 193.25 140.75 192.35 139.9 192.1 138.7 191.9 138.25 191.8 137.85 191.65 137.85 191.35 137.85 190.8 138.8 190.8 139.65 190.8 140.05 191.4Z"/></g><g id="income_activists_txt_0_Layer0_0_MEMBER_0_MEMBER_0_MEMBER_16_MEMBER_0_FILL"><path fill="#764887" stroke="none" d="M141.5 190.2L141.5 194.5 145.05 194.5 145.05 193.85 142.4 193.85 142.4 192.6 144.55 192.6 144.55 191.95 142.4 191.95 142.4 190.85 145 190.85 145 190.2 141.5 190.2Z"/></g><g id="income_activists_txt_0_Layer0_0_MEMBER_0_MEMBER_0_MEMBER_17_MEMBER_0_FILL"><path fill="#764887" stroke="none" d="M148.1 190.2L146.95 190.2 145.3 194.5 146.2 194.5 146.55 193.45 148.45 193.45 148.8 194.5 149.75 194.5 148.1 190.2M148.2 192.8L146.8 192.8 147.5 190.8 148.2 192.8Z"/></g><g id="income_activists_txt_0_Layer0_0_MEMBER_0_MEMBER_0_MEMBER_18_MEMBER_0_FILL"><path fill="#764887" stroke="none" d="M151.1 192.7L151.8 192.7Q152.55 192.7 152.7 192.95 152.9 193.05 152.95 193.65L153.1 194.5 154.15 194.5Q153.9 194.25 153.8 193.7L153.65 192.95Q153.4 192.4 152.85 192.4 153.95 192.25 153.95 191.3 153.95 190.75 153.4 190.4 153.05 190.2 152.4 190.2L150.25 190.2 150.25 194.5 151.1 194.5 151.1 192.7M151.1 192L151.1 190.85 152.4 190.85Q153.05 190.85 153.05 191.35 153.05 192 152.3 192L151.1 192Z"/></g><g id="income_activists_txt_0_Layer0_0_MEMBER_0_MEMBER_0_MEMBER_19_MEMBER_0_FILL"><path fill="#764887" stroke="none" d="M156.7 190.1Q155.75 190.1 155.2 190.7 154.55 191.3 154.55 192.35 154.55 193.4 155.15 194 155.75 194.55 156.7 194.55 158.6 194.55 158.8 192.8L157.95 192.7Q157.9 193.9 156.7 193.9 155.4 193.9 155.4 192.35 155.4 190.8 156.7 190.8 157.75 190.8 157.9 191.9L158.75 191.7Q158.4 190.1 156.7 190.1Z"/></g><g id="income_activists_txt_0_Layer0_0_MEMBER_0_MEMBER_0_MEMBER_20_MEMBER_0_FILL"><path fill="#764887" stroke="none" d="M162.6 192.6L162.6 194.5 163.45 194.5 163.45 190.2 162.6 190.2 162.6 191.95 160.4 191.95 160.4 190.2 159.5 190.2 159.5 194.5 160.4 194.5 160.4 192.6 162.6 192.6Z"/></g><g id="income_activists_txt_0_Layer0_0_MEMBER_0_MEMBER_0_MEMBER_21_MEMBER_0_FILL"><path fill="#764887" stroke="none" d="M164.45 194.5L165.35 194.5 165.35 190.2 164.45 190.2 164.45 194.5Z"/></g><g id="income_activists_txt_0_Layer0_0_MEMBER_0_MEMBER_0_MEMBER_22_MEMBER_0_FILL"><path fill="#764887" stroke="none" d="M170.05 190.2L169.25 190.2 169.25 193.45 167.35 190.2 166.35 190.2 166.35 194.5 167.15 194.5 167.15 191.3 169 194.5 170.05 194.5 170.05 190.2Z"/></g><g id="income_activists_txt_0_Layer0_0_MEMBER_0_MEMBER_0_MEMBER_23_MEMBER_0_FILL"><path fill="#764887" stroke="none" d="M171.55 190.65Q170.85 191.3 170.85 192.35 170.85 193.4 171.45 194 172 194.55 172.95 194.55 174.1 194.55 174.45 193.75L174.5 194.5 175.2 194.5 175.2 192.3 172.85 192.3 172.85 192.9 174.3 192.9Q174.3 193.3 174 193.55 173.65 193.9 173.05 193.9 171.7 193.9 171.7 192.35 171.7 190.8 173.1 190.8 174.3 190.8 174.35 191.85L175.2 191.65Q174.85 190.1 173.1 190.1 172.15 190.1 171.55 190.65Z"/></g><g id="income_activists_txt_0_Layer0_0_MEMBER_0_MEMBER_0_MEMBER_24_MEMBER_0_FILL"><path fill="#764887" stroke="none" d="M180.65 190.2L177.25 190.2 177.25 194.5 178.15 194.5 178.15 192.7 180.3 192.7 180.3 192.05 178.15 192.05 178.15 190.85 180.65 190.85 180.65 190.2Z"/></g><g id="income_activists_txt_0_Layer0_0_MEMBER_0_MEMBER_0_MEMBER_25_MEMBER_0_FILL"><path fill="#764887" stroke="none" d="M181.05 192.35Q181.05 193.4 181.7 194 182.3 194.55 183.25 194.55 184.15 194.55 184.8 194 185.45 193.4 185.45 192.35 185.45 191.3 184.8 190.7 184.15 190.1 183.25 190.1 182.3 190.1 181.7 190.7 181.05 191.3 181.05 192.35M183.25 190.8Q184.55 190.8 184.55 192.35 184.55 193.9 183.25 193.9 181.95 193.9 181.95 192.35 181.95 190.8 183.25 190.8Z"/></g><g id="income_activists_txt_0_Layer0_0_MEMBER_0_MEMBER_0_MEMBER_26_MEMBER_0_FILL"><path fill="#764887" stroke="none" d="M189.35 190.4Q189 190.2 188.4 190.2L186.2 190.2 186.2 194.5 187.05 194.5 187.05 192.7 187.75 192.7Q188.5 192.7 188.7 192.95 188.85 193.1 188.9 193.65L189.05 194.5 190.1 194.5Q189.8 194.2 189.8 193.7L189.6 192.95Q189.35 192.4 188.85 192.4 189.9 192.25 189.9 191.3 189.9 190.7 189.35 190.4M188.35 190.85Q189 190.85 189 191.35 189 192 188.3 192L187.05 192 187.05 190.85 188.35 190.85Z"/></g><g id="income_activists_txt_0_Layer0_0_MEMBER_0_MEMBER_0_MEMBER_27_MEMBER_0_FILL"><path fill="#764887" stroke="none" d="M192 194.5L192.9 194.5 192.9 190.2 192 190.2 192 194.5Z"/></g><g id="income_activists_txt_0_Layer0_0_MEMBER_0_MEMBER_0_MEMBER_28_MEMBER_0_FILL"><path fill="#764887" stroke="none" d="M194.85 190.2L193.9 190.2 193.9 194.5 194.7 194.5 194.7 191.3 196.55 194.5 197.6 194.5 197.6 190.2 196.8 190.2 196.8 193.45 194.85 190.2Z"/></g><g id="income_activists_txt_0_Layer0_0_MEMBER_0_MEMBER_0_MEMBER_29_MEMBER_0_FILL"><path fill="#764887" stroke="none" d="M201.8 192.7Q201.75 193.9 200.55 193.9 199.25 193.9 199.25 192.35 199.25 190.8 200.55 190.8 201.6 190.8 201.75 191.9L202.55 191.7Q202.25 190.1 200.5 190.1 199.6 190.1 199 190.7 198.4 191.3 198.4 192.35 198.4 193.4 199 194 199.6 194.55 200.55 194.55 202.45 194.55 202.65 192.8L201.8 192.7Z"/></g><g id="income_activists_txt_0_Layer0_0_MEMBER_0_MEMBER_0_MEMBER_30_MEMBER_0_FILL"><path fill="#764887" stroke="none" d="M206.85 190.7Q206.25 190.1 205.3 190.1 204.4 190.1 203.75 190.7 203.1 191.3 203.1 192.35 203.1 193.4 203.75 194 204.4 194.55 205.3 194.55 206.25 194.55 206.85 194 207.5 193.4 207.5 192.35 207.5 191.3 206.85 190.7M206.6 192.35Q206.6 193.9 205.3 193.9 204 193.9 204 192.35 204 190.8 205.3 190.8 206.6 190.8 206.6 192.35Z"/></g><g id="income_activists_txt_0_Layer0_0_MEMBER_0_MEMBER_0_MEMBER_31_MEMBER_0_FILL"><path fill="#764887" stroke="none" d="M209.5 190.2L208.25 190.2 208.25 194.5 209.05 194.5 209.05 191.15 210.1 194.5 211.1 194.5 212.15 191.15 212.15 194.5 213 194.5 213 190.2 211.75 190.2 210.65 193.7 209.5 190.2Z"/></g><g id="income_activists_txt_0_Layer0_0_MEMBER_0_MEMBER_0_MEMBER_32_MEMBER_0_FILL"><path fill="#764887" stroke="none" d="M217.5 190.2L214 190.2 214 194.5 217.5 194.5 217.5 193.85 214.85 193.85 214.85 192.6 217 192.6 217 191.95 214.85 191.95 214.85 190.85 217.5 190.85 217.5 190.2Z"/></g></defs><g id="income_activists_txt" transform="matrix( 0.9175567626953125, 0, 0, 0.9122161865234375, 39.95,16.4) "><g transform="matrix( 1, 0, 0, 1, -177,-176.9) "><use xlink:href="#income_activists_txt_0_Layer0_0_MEMBER_0_MEMBER_0_MEMBER_0_MEMBER_0_FILL"/></g><g transform="matrix( 1, 0, 0, 1, -177,-176.9) "><use xlink:href="#income_activists_txt_0_Layer0_0_MEMBER_0_MEMBER_0_MEMBER_1_MEMBER_0_FILL"/></g><g transform="matrix( 1, 0, 0, 1, -177,-176.9) "><use xlink:href="#income_activists_txt_0_Layer0_0_MEMBER_0_MEMBER_0_MEMBER_2_MEMBER_0_FILL"/></g><g transform="matrix( 1, 0, 0, 1, -177,-176.9) "><use xlink:href="#income_activists_txt_0_Layer0_0_MEMBER_0_MEMBER_0_MEMBER_3_MEMBER_0_FILL"/></g><g transform="matrix( 1, 0, 0, 1, -177,-176.9) "><use xlink:href="#income_activists_txt_0_Layer0_0_MEMBER_0_MEMBER_0_MEMBER_4_MEMBER_0_FILL"/></g><g transform="matrix( 1, 0, 0, 1, -177,-176.9) "><use xlink:href="#income_activists_txt_0_Layer0_0_MEMBER_0_MEMBER_0_MEMBER_5_MEMBER_0_FILL"/></g><g transform="matrix( 1, 0, 0, 1, -177,-176.9) "><use xlink:href="#income_activists_txt_0_Layer0_0_MEMBER_0_MEMBER_0_MEMBER_6_MEMBER_0_FILL"/></g><g transform="matrix( 1, 0, 0, 1, -177,-176.9) "><use xlink:href="#income_activists_txt_0_Layer0_0_MEMBER_0_MEMBER_0_MEMBER_7_MEMBER_0_FILL"/></g><g transform="matrix( 1, 0, 0, 1, -177,-176.9) "><use xlink:href="#income_activists_txt_0_Layer0_0_MEMBER_0_MEMBER_0_MEMBER_8_MEMBER_0_FILL"/></g><g transform="matrix( 1, 0, 0, 1, -177,-176.9) "><use xlink:href="#income_activists_txt_0_Layer0_0_MEMBER_0_MEMBER_0_MEMBER_9_MEMBER_0_FILL"/></g><g transform="matrix( 1, 0, 0, 1, -177,-176.9) "><use xlink:href="#income_activists_txt_0_Layer0_0_MEMBER_0_MEMBER_0_MEMBER_10_MEMBER_0_FILL"/></g><g transform="matrix( 1, 0, 0, 1, -177,-176.9) "><use xlink:href="#income_activists_txt_0_Layer0_0_MEMBER_0_MEMBER_0_MEMBER_11_MEMBER_0_FILL"/></g><g transform="matrix( 1, 0, 0, 1, -177,-176.9) "><use xlink:href="#income_activists_txt_0_Layer0_0_MEMBER_0_MEMBER_0_MEMBER_12_MEMBER_0_FILL"/></g><g transform="matrix( 1, 0, 0, 1, -177,-176.9) "><use xlink:href="#income_activists_txt_0_Layer0_0_MEMBER_0_MEMBER_0_MEMBER_13_MEMBER_0_FILL"/></g><g transform="matrix( 1, 0, 0, 1, -177,-176.9) "><use xlink:href="#income_activists_txt_0_Layer0_0_MEMBER_0_MEMBER_0_MEMBER_14_MEMBER_0_FILL"/></g><g transform="matrix( 1, 0, 0, 1, -177,-176.9) "><use xlink:href="#income_activists_txt_0_Layer0_0_MEMBER_0_MEMBER_0_MEMBER_15_MEMBER_0_FILL"/></g><g transform="matrix( 1, 0, 0, 1, -177,-176.9) "><use xlink:href="#income_activists_txt_0_Layer0_0_MEMBER_0_MEMBER_0_MEMBER_16_MEMBER_0_FILL"/></g><g transform="matrix( 1, 0, 0, 1, -177,-176.9) "><use xlink:href="#income_activists_txt_0_Layer0_0_MEMBER_0_MEMBER_0_MEMBER_17_MEMBER_0_FILL"/></g><g transform="matrix( 1, 0, 0, 1, -177,-176.9) "><use xlink:href="#income_activists_txt_0_Layer0_0_MEMBER_0_MEMBER_0_MEMBER_18_MEMBER_0_FILL"/></g><g transform="matrix( 1, 0, 0, 1, -177,-176.9) "><use xlink:href="#income_activists_txt_0_Layer0_0_MEMBER_0_MEMBER_0_MEMBER_19_MEMBER_0_FILL"/></g><g transform="matrix( 1, 0, 0, 1, -177,-176.9) "><use xlink:href="#income_activists_txt_0_Layer0_0_MEMBER_0_MEMBER_0_MEMBER_20_MEMBER_0_FILL"/></g><g transform="matrix( 1, 0, 0, 1, -177,-176.9) "><use xlink:href="#income_activists_txt_0_Layer0_0_MEMBER_0_MEMBER_0_MEMBER_21_MEMBER_0_FILL"/></g><g transform="matrix( 1, 0, 0, 1, -177,-176.9) "><use xlink:href="#income_activists_txt_0_Layer0_0_MEMBER_0_MEMBER_0_MEMBER_22_MEMBER_0_FILL"/></g><g transform="matrix( 1, 0, 0, 1, -177,-176.9) "><use xlink:href="#income_activists_txt_0_Layer0_0_MEMBER_0_MEMBER_0_MEMBER_23_MEMBER_0_FILL"/></g><g transform="matrix( 1, 0, 0, 1, -177,-176.9) "><use xlink:href="#income_activists_txt_0_Layer0_0_MEMBER_0_MEMBER_0_MEMBER_24_MEMBER_0_FILL"/></g><g transform="matrix( 1, 0, 0, 1, -177,-176.9) "><use xlink:href="#income_activists_txt_0_Layer0_0_MEMBER_0_MEMBER_0_MEMBER_25_MEMBER_0_FILL"/></g><g transform="matrix( 1, 0, 0, 1, -177,-176.9) "><use xlink:href="#income_activists_txt_0_Layer0_0_MEMBER_0_MEMBER_0_MEMBER_26_MEMBER_0_FILL"/></g><g transform="matrix( 1, 0, 0, 1, -177,-176.9) "><use xlink:href="#income_activists_txt_0_Layer0_0_MEMBER_0_MEMBER_0_MEMBER_27_MEMBER_0_FILL"/></g><g transform="matrix( 1, 0, 0, 1, -177,-176.9) "><use xlink:href="#income_activists_txt_0_Layer0_0_MEMBER_0_MEMBER_0_MEMBER_28_MEMBER_0_FILL"/></g><g transform="matrix( 1, 0, 0, 1, -177,-176.9) "><use xlink:href="#income_activists_txt_0_Layer0_0_MEMBER_0_MEMBER_0_MEMBER_29_MEMBER_0_FILL"/></g><g transform="matrix( 1, 0, 0, 1, -177,-176.9) "><use xlink:href="#income_activists_txt_0_Layer0_0_MEMBER_0_MEMBER_0_MEMBER_30_MEMBER_0_FILL"/></g><g transform="matrix( 1, 0, 0, 1, -177,-176.9) "><use xlink:href="#income_activists_txt_0_Layer0_0_MEMBER_0_MEMBER_0_MEMBER_31_MEMBER_0_FILL"/></g><g transform="matrix( 1, 0, 0, 1, -177,-176.9) "><use xlink:href="#income_activists_txt_0_Layer0_0_MEMBER_0_MEMBER_0_MEMBER_32_MEMBER_0_FILL"/></g></g></svg>