<svg xmlns="http://www.w3.org/2000/svg" xmlns:xlink="http://www.w3.org/1999/xlink" version="1.1" preserveAspectRatio="none" x="0" y="0" width="405" height="215" viewBox="0 0 405 215"><defs><g id="Layer1_0_FILL"><path fill="#FFFFFF" stroke="none" d="M405 215L405 0 0 0 0 215 405 215M134.75 50.95Q148.6 64.8 148.6 84.4 148.6 104 134.75 117.85 120.9 131.7 101.3 131.7 81.7 131.7 67.85 117.85 54 104 54 84.4 54 64.8 67.85 50.95 81.7 37.1 101.3 37.1 120.9 37.1 134.75 50.95Z"/></g><g id="Tween_5_0_Layer0_0_FILL"><path fill="#764887" stroke="none" d="M75.5-11.55Q75.5-32.15 60.9-46.7 46.35-61.25 25.75-61.25 5.2-61.25-9.35-46.7-23.95-32.15-23.95-11.55-23.95-1.15-20.2 7.7L-75.5 45.2-64.45 61.25-9.1 23.8Q5.38 38.1 25.75 38.1 46.35 38.1 60.9 23.55 75.5 9 75.5-11.55M57.6-43.4Q70.8-30.2 70.8-11.55 70.8 7.05 57.6 20.25 44.4 33.45 25.75 33.45 7.15 33.45-6.05 20.25-19.3 7.05-19.3-11.55-19.3-30.2-6.05-43.4 7.15-56.6 25.75-56.6 44.4-56.6 57.6-43.4M-19.7 13L-13.95 21.4-63.25 54.85-69 46.45-19.7 13M68.2-11.35Q68.2-29 55.65-41.5 43.1-54.05 25.45-54.05 7.8-54.05-4.75-41.5-17.3-29-17.3-11.35-17.3 6.35-4.75 18.85 7.8 31.4 25.45 31.4 43.1 31.4 55.65 18.85 68.2 6.35 68.2-11.35M54.85-40.7Q67-28.5 67-11.35 67 5.85 54.85 18.05 42.6 30.2 25.45 30.2 8.3 30.2-3.95 18.05-16.1 5.85-16.1-11.35-16.1-28.5-3.95-40.7 8.3-52.85 25.45-52.85 42.6-52.85 54.85-40.7M8.35 22L3.45 19.95 7.9 22.6Q13.25 25.4 17.6 26.4 22.85 27.6 28.5 27 31.4 26.7 33.15 26.15 31.1 26.3 28.15 26.15 22.25 25.95 17.8 24.95 14 24.1 8.35 22M38.05-47.15Q32.6-49 26-49.25L20.45-49.1 26.6-48.35Q33.7-47.2 38.5-45.3 42.65-43.7 48.15-40.25 50.9-38.55 52.8-37.15 51.5-38.8 49.15-40.85 44.35-44.95 38.95-46.8L38.05-47.15Z"/></g></defs><g transform="matrix( 1, 0, 0, 1, 0,0) "><use xlink:href="#Layer1_0_FILL"/></g><g transform="matrix( 1.0020599365234375, 0, 0, 1, 76.05,96) "><g transform="matrix( 1, 0, 0, 1, 0,0) "><use xlink:href="#Tween_5_0_Layer0_0_FILL"/></g></g></svg>