<?xml version="1.0" standalone="no"?>
<!DOCTYPE svg PUBLIC "-//W3C//DTD SVG 1.1//EN" "http://www.w3.org/Graphics/SVG/1.1/DTD/svg11.dtd" >
<svg xmlns="http://www.w3.org/2000/svg" xmlns:xlink="http://www.w3.org/1999/xlink" version="1.1">
<metadata></metadata>
<defs>
<font id="standardliferegularregular" horiz-adv-x="1116" >
<font-face units-per-em="2048" ascent="1638" descent="-410" />
<missing-glyph horiz-adv-x="579" />
<glyph unicode="&#xfb01;" horiz-adv-x="1263" d="M0 905v170h178v107q0 189 82 262q69 63 242 63q103 0 205 -18v-166q-200 9 -234 -25q-27 -24 -27 -100v-123h717v-1075h-268v905h-449v-905h-268v905h-178zM895 1260v206h268v-206h-268z" />
<glyph unicode="&#xfb02;" horiz-adv-x="1261" d="M2 905v170h178v107q0 185 78 248q103 77 479 77q225 0 428 -37v-190q-182 33 -432 33q-114 0 -186 -10q-53 -8 -75.5 -33.5t-22.5 -89.5v-105h262v-170h-262v-903h-271v903h-176zM895 0v1075h270v-1075h-270z" />
<glyph horiz-adv-x="0" />
<glyph horiz-adv-x="682" />
<glyph unicode=" "  horiz-adv-x="579" />
<glyph unicode="&#x09;" horiz-adv-x="579" />
<glyph unicode="&#xa0;" horiz-adv-x="579" />
<glyph unicode="!" horiz-adv-x="675" d="M207 1479h287l-74 -1117h-150zM211 0v246h266v-246h-266z" />
<glyph unicode="&#x22;" horiz-adv-x="598" d="M80 913v566h170v-566h-170zM369 913v566h172v-566h-172z" />
<glyph unicode="#" horiz-adv-x="1196" d="M0 440v131h256l115 355h-207v131h250l137 422h154l-136 -422h305l138 422h153l-135 -422h211v-131h-254l-115 -355h205v-131h-248l-141 -440h-156l142 440h-305l-142 -440h-155l141 440h-213zM412 571h305l117 355h-308z" />
<glyph unicode="$" horiz-adv-x="1095" d="M88 1100q0 184 93 273t313 114v180h149v-176q173 -8 324 -39v-131v-78q-173 34 -349 37q-170 3 -221 -51q-38 -38 -35 -109q3 -74 97 -131q5 -5 57 -35q119 -61 352 -194q109 -71 150 -158q35 -72 35 -192q0 -180 -97.5 -278.5t-312.5 -133.5v-186h-149v178 q-227 6 -388 49v197q186 -23 308 -31q208 -9 276 33q74 47 74 137q0 100 -133 186q-113 71 -269 160q-166 94 -221 170q-53 77 -53 209z" />
<glyph unicode="%" horiz-adv-x="1554" d="M68 1014v143q0 165 78 249.5t210 84.5q130 0 208.5 -85t78.5 -249v-143q0 -171 -75.5 -253.5t-211.5 -82.5t-212 82.5t-76 253.5zM236 1012q0 -129 47 -176q27 -27 73 -27q121 0 121 203v145q0 129 -47 176q-27 27 -74 27q-120 0 -120 -203v-145zM289 0l878 1479h174 l-876 -1479h-176zM985 324v143q0 165 78 249.5t211 84.5q130 0 208.5 -85t78.5 -249v-143q0 -171 -75.5 -253.5t-211.5 -82.5q-129 0 -207 78q-82 82 -82 258zM1153 322q0 -130 47 -177q26 -26 74 -26q121 0 121 203v145q0 129 -47 176q-27 27 -74 27q-121 0 -121 -203v-145 z" />
<glyph unicode="&#x26;" horiz-adv-x="1331" d="M61 350q0 122 41 209q41 77 136 154q5 4 16.5 12t30.5 21t37 26q-106 122 -134 176q-38 75 -38 203q0 346 438 346q430 0 430 -330q0 -122 -33.5 -192t-122.5 -137q-3 -1 -20.5 -12.5t-63.5 -41.5t-92 -59l246 -285q54 80 51 238h168q6 -44 6 -86q0 -174 -80 -295 q4 -8 33 -37l72 -78q117 -124 166 -180h-314l-108 113q-148 -127 -359 -133q-258 -9 -383 98q-123 111 -123 270zM322 385q0 -94 62 -149.5t177 -55.5q131 0 227 78q-178 186 -315 340q-151 -71 -151 -213zM377 1159q0 -67 39 -123q28 -39 84 -100l30 -35l134 80 q124 75 124 176q0 180 -206 180q-205 0 -205 -178z" />
<glyph unicode="'" horiz-adv-x="399" d="M119 913v566h172v-566h-172z" />
<glyph unicode="(" horiz-adv-x="698" d="M84 555q0 230 57 461q70 275 197 471h219q-85 -181 -145 -438q-60 -268 -60 -494q0 -225 60 -496q61 -260 145 -438h-219q-127 194 -197 473q-57 231 -57 461z" />
<glyph unicode=")" horiz-adv-x="698" d="M170 -379q83 181 143 438q60 271 60 496q0 226 -60 494q-59 253 -143 438h217q130 -196 197 -471q57 -231 57 -461t-57 -461q-67 -279 -197 -473h-217z" />
<glyph unicode="*" horiz-adv-x="978" d="M106 936l265 139l-265 139l84 154l248 -176l-20 313h168l-21 -313l246 172l84 -152l-266 -139l264 -139l-84 -154l-246 176l19 -313h-166l18 313l-246 -172z" />
<glyph unicode="+" horiz-adv-x="1060" d="M57 406v186h402v401h186v-401h397v-186h-397v-406h-186v406h-402z" />
<glyph unicode="," horiz-adv-x="530" d="M90 -190l131 462h236l-207 -462h-160z" />
<glyph unicode="-" horiz-adv-x="737" d="M104 483v236h560v-236h-560z" />
<glyph unicode="." horiz-adv-x="534" d="M150 0v274h253v-274h-253z" />
<glyph unicode="/" horiz-adv-x="546" d="M-41 -158l485 1639h197l-487 -1639h-195z" />
<glyph unicode="0" horiz-adv-x="1236" d="M96 608v266q0 318 152 476q146 149 379 149q235 0 381 -149q151 -157 151 -476v-266q0 -332 -149 -481q-142 -145 -383 -145t-385 147q-146 152 -146 479zM371 598q0 -221 63 -307q67 -94 193 -94q127 0 194 94q64 88 64 307v285q0 212 -63.5 305.5t-194.5 93.5 q-128 0 -192 -94t-64 -305v-285z" />
<glyph unicode="1" horiz-adv-x="831" d="M72 0v195l161 2q61 0 64 61v1004l-225 -140v219l192 121q40 27 74 27h149q52 0 70 -16t18 -66v-1149q-3 -13 13 -49q14 -14 61 -14q65 3 152 0v-195h-729z" />
<glyph unicode="2" horiz-adv-x="1130" d="M86 61v99q0 218 59 352.5t201 232.5q85 58 195 123q55 34 159 107q86 71 86 153q0 91 -63 125q-52 32 -188 29q-119 0 -408 -45v199q229 61 428 61q274 0 393 -90q111 -85 111 -270q0 -132 -49 -211q-46 -79 -176 -168q-200 -133 -250 -166q-130 -84 -178 -166 q-35 -59 -35 -158v-41h669v-227h-893q-64 0 -61 61z" />
<glyph unicode="3" horiz-adv-x="1134" d="M74 39v205q305 -47 415 -47q261 0 261 211v53q0 194 -273 194h-194v205h200q250 0 250 205v29q0 191 -280 188q-106 -3 -375 -43v197q229 61 422 61q267 0 385 -80q131 -91 131 -325q0 -117 -55.5 -192.5t-192.5 -151.5q158 -45 219 -134q45 -65 45 -204 q0 -234 -119 -332q-122 -96 -397 -96q-199 0 -442 57z" />
<glyph unicode="4" horiz-adv-x="1130" d="M-8 471v59q0 46 24 80l572 842q24 37 92 37h127q123 0 123 -96v-830h182v-213h-182v-350h-273v348h-569q-96 0 -96 123zM219 563h438v645z" />
<glyph unicode="5" horiz-adv-x="1155" d="M88 39v203q240 -43 399 -43q318 0 318 258q0 150 -127 209q-82 36 -260 36l-254 3q-62 0 -62 59q0 1 2 25.5t6.5 80.5t8.5 119q7 132 26 320q24 179 334 188q96 3 260 -6q215 -10 262 -12q-4 -110 -4 -213h-526q-76 0 -82 -76l-24 -289q106 4 139 4q285 0 418 -80 q165 -101 165 -360q0 -247 -161 -371q-147 -112 -416 -112q-207 0 -422 57z" />
<glyph unicode="6" horiz-adv-x="1216" d="M121 559v297q0 212 37 330q36 113 118 192q119 119 392 119q194 0 374 -47v-207q-218 43 -358 43q-159 0 -224 -76.5t-65 -263.5v-61q178 35 287 35q160 -3 242 -33q73 -25 131 -86q94 -101 94 -318q0 -243 -127 -370q-131 -131 -375 -131q-255 0 -387 129 q-139 136 -139 448zM395 559q0 -208 66 -299q58 -82 180 -82q236 0 236 305q0 259 -250 262q-96 3 -232 -28v-158z" />
<glyph unicode="7" horiz-adv-x="1042" d="M41 1260v219h920q65 0 65 -56v-127q0 -38 -16 -75l-580 -1221h-328l619 1260h-680z" />
<glyph unicode="8" horiz-adv-x="1259" d="M86 422q0 232 246 340q-203 144 -203 334q0 401 504 401q508 0 508 -401q0 -188 -205 -332q137 -63 199 -156q47 -74 47 -186q0 -210 -135 -324q-140 -116 -414 -116q-269 0 -408 113.5t-139 326.5zM379 430q0 -260 254 -260q256 0 256 260q0 101 -51 164q-69 84 -205 84 q-134 0 -203 -84q-51 -63 -51 -164zM393 1079q0 -101 58 -159q66 -66 182 -66q118 0 184 66q55 58 55 159q0 232 -239 232q-240 0 -240 -232z" />
<glyph unicode="9" horiz-adv-x="1173" d="M76 997q0 246 127 373t372 127q250 0 383 -127q140 -137 140 -448v-299q0 -213 -37 -328q-36 -112 -119 -195q-118 -118 -393 -118q-208 0 -391 49v205q214 -41 338 -41q180 0 253.5 75.5t73.5 264.5v59q-182 -36 -286 -33q-154 3 -240 31q-71 24 -129 88 q-92 103 -92 317zM342 997q0 -259 250 -262q91 -3 231 29v158q0 210 -65 299q-58 79 -180 79q-236 0 -236 -303z" />
<glyph unicode=":" horiz-adv-x="534" d="M150 0v244h253v-244h-253zM150 846v244h253v-244h-253z" />
<glyph unicode=";" horiz-adv-x="534" d="M90 -190l107 456h260l-207 -456h-160zM137 844v248h258v-248h-258z" />
<glyph unicode="&#x3c;" horiz-adv-x="944" d="M78 504q0 25 22 47l496 455h293l-547 -502l547 -504h-293l-496 457q-22 22 -22 47z" />
<glyph unicode="=" horiz-adv-x="1060" d="M111 123v203h880v-203h-880zM111 670v200h880v-200h-880z" />
<glyph unicode="&#x3e;" horiz-adv-x="944" d="M96 0l547 504l-547 502h293l496 -455q22 -22 22 -47t-22 -47l-496 -457h-293z" />
<glyph unicode="?" horiz-adv-x="935" d="M2 1241v199q137 57 365 57q275 0 397 -90q110 -85 110 -270q0 -95 -22.5 -152.5t-85.5 -118.5q-17 -15 -67 -60t-83 -75q-106 -106 -118 -299h-195q-10 82 -10 137q0 123 43 205q25 46 94 115q101 90 113 102q55 61 55 137q0 91 -63 125q-52 32 -191 29q-167 -3 -342 -41 zM281 0v264h256v-264h-256z" />
<glyph unicode="@" horiz-adv-x="1568" d="M76 629q0 59 12 147q49 363 268 549q209 176 551 176q328 0 490 -149q149 -137 149 -402q0 -97 -20 -217q-34 -195 -160 -309q-115 -103 -256 -100h-14q-104 0 -138 63q0 1 -16 27q-116 -88 -260 -88q-242 0 -242 247q0 36 11 115l18 96q21 128 49 189q29 65 94 112 q74 56 197 56q113 0 209 -84l14 71h201l-125 -684q112 12 176 76q77 77 107 236q18 94 18 194q0 208 -109 314q-123 114 -393 114q-290 0 -461 -145q-179 -154 -223 -473q-10 -85 -10 -131q0 -242 100 -363q136 -165 435 -162q174 0 409 58l-16 -119q-180 -61 -404 -61 q-361 0 -540 206q-121 142 -121 441zM655 600q0 -123 136 -123q52 0 116 31l78 428q-59 47 -121 47q-15 0 -35 -4q-65 -10 -97.5 -57t-53.5 -154l-10 -63q-13 -70 -13 -105z" />
<glyph unicode="A" horiz-adv-x="1230" d="M41 0l362 1380q27 105 140 105h202q113 0 140 -105l360 -1380h-284l-99 381h-438l-100 -381h-283zM471 594h346l-176 727z" />
<glyph unicode="B" horiz-adv-x="1232" d="M141 246v1179q0 49 54 52q94 6 227 6q109 0 244 -4q458 -15 458 -381q0 -117 -59 -191q-54 -67 -178 -133q160 -51 227.5 -135.5t67.5 -232.5q0 -407 -523 -422q-63 -1 -113 -1q-84 0 -132 3q-154 12 -213.5 68.5t-59.5 191.5zM408 279q0 -52 11.5 -65t61.5 -17 q32 -3 86 -3q32 0 72 1q268 9 268 241q0 238 -274 238h-225v-395zM408 850h219q233 0 233 217q0 210 -229 219q-43 1 -79 1q-59 0 -97 -3q-12 0 -39 -10q-8 -8 -8 -41v-383z" />
<glyph unicode="C" horiz-adv-x="1095" d="M88 608v266q0 319 162 474q157 148 426 151h28q179 0 338 -35v-213q-159 17 -303 17h-43q-338 -9 -338 -389v-277q0 -382 338 -391h47q148 0 299 16v-207q-147 -36 -337 -36h-29q-276 3 -428 143q-160 154 -160 481z" />
<glyph unicode="D" horiz-adv-x="1306" d="M133 63v1362q0 52 51 52h424q294 0 439 -127q174 -155 174 -488v-250q0 -340 -166 -475q-106 -86 -213 -112q-92 -25 -242 -25h-405q-62 0 -62 63zM406 272q0 -56 30 -59l39 -4q116 0 174 4q297 27 297 393v266q0 244 -119 332q-67 52 -172 64q-46 5 -128 5q-35 0 -78 -1 q-43 -3 -43 -43v-957z" />
<glyph unicode="E" horiz-adv-x="1087" d="M123 246v985q0 129 57 186q50 49 170 65q91 12 234 12q46 0 98 -1q210 -3 330 -18v-213h-537q-65 0 -74 -33q-4 -20 -4 -39v-338h588v-205h-588v-358q0 -48 16 -60t62 -12h537v-215q-112 -13 -330 -16q-52 -1 -98 -1q-92 0 -162 3q-183 15 -240 69q-59 59 -59 189z" />
<glyph unicode="F" horiz-adv-x="1040" d="M137 0v1231q0 131 58 186q49 49 169 65q91 12 234 12q46 0 98 -1q233 -3 326 -14v-217h-547q-46 0 -55.5 -11.5t-9.5 -60.5v-330h585v-205h-585v-655h-273z" />
<glyph unicode="G" horiz-adv-x="1212" d="M109 608v266q0 320 161 474q157 148 424 151h29q186 0 344 -35v-213q-162 17 -308 17h-44q-338 -9 -338 -389v-277q0 -382 338 -391q83 0 153 2v530h262v-704q-221 -55 -416 -55h-20q-277 3 -426 143q-159 153 -159 481z" />
<glyph unicode="H" horiz-adv-x="1284" d="M119 0v1479h272v-602h510v602h273v-1479h-273v655h-510v-655h-272z" />
<glyph unicode="I" horiz-adv-x="499" d="M123 0v1477h272v-1477h-272z" />
<glyph unicode="J" horiz-adv-x="589" d="M6 -143q45 -5 80 -5q18 0 33 1q94 9 94 79v1547h272v-1581q0 -125 -56.5 -181.5t-186.5 -68.5q-35 -3 -68 -3q-87 0 -168 17v195z" />
<glyph unicode="K" horiz-adv-x="1157" d="M137 0v1481h273v-695l460 693h299l-475 -703l496 -776h-309l-471 752v-752h-273z" />
<glyph unicode="L" horiz-adv-x="983" d="M152 250v1227h268v-1203q0 -67 67 -67h494v-203q-161 -20 -332 -20q-358 0 -436 75q-61 58 -61 191z" />
<glyph unicode="M" horiz-adv-x="1636" d="M139 0v1389q0 94 121 94h225q87 0 111 -103l248 -993l243 993q24 103 111 103h225q123 0 123 -94v-1389h-260v1260l-254 -986q-24 -94 -143 -94h-94q-120 0 -144 94l-254 973v-1247h-258z" />
<glyph unicode="N" horiz-adv-x="1273" d="M117 0v1389q0 94 123 94h262q32 0 53 -68q9 -18 375 -1167v1229h260v-1387q0 -96 -125 -96h-238q-38 0 -53 45q-6 15 -397 1188v-1227h-260z" />
<glyph unicode="O" horiz-adv-x="1316" d="M109 606v268q0 319 159 472t412 153q251 0 410 -153q161 -151 161 -472v-268q0 -329 -159 -479q-151 -145 -412 -145q-260 0 -416 147q-155 149 -155 477zM381 600q0 -210 78 -297q84 -96 221 -96q134 0 221 96q76 85 76 297v279q0 212 -76 297q-87 96 -221 96 q-137 0 -221 -96q-78 -87 -78 -297v-279z" />
<glyph unicode="P" horiz-adv-x="1206" d="M139 0v1425q0 52 51 52h390q273 0 421 -91q177 -115 177 -374q0 -386 -375 -453q-74 -14 -232 -14h-165v-545h-267zM408 750l129 -2h25q133 0 200 30q137 58 137 217v31q0 153 -125 211q-73 37 -225 37q-99 0 -119 -8q-22 -9 -22 -39v-477z" />
<glyph unicode="Q" horiz-adv-x="1325" d="M117 616v263q0 319 159 469q160 151 412 151q250 0 410 -151q162 -149 162 -469v-263q0 -371 -218 -524q-88 -61 -235 -88v-74q0 -77 92 -86q27 -1 56 -1q59 0 128 5v-178q-95 -17 -192 -17q-53 0 -107 5q-118 9 -172 63q-61 55 -61 189v96q-173 35 -277 133 q-157 151 -157 477zM389 608q0 -208 78 -295q82 -94 221 -94q136 0 221 94q76 85 76 295v277q0 211 -76 293q-87 96 -221 96q-137 0 -221 -96q-78 -84 -78 -293v-277z" />
<glyph unicode="R" horiz-adv-x="1202" d="M135 0v1425q0 52 51 52h375q598 0 598 -439v-18q0 -224 -162 -340q-46 -34 -127 -68l330 -612h-303l-291 582h-207v-582h-264zM399 780h197q80 0 156 29q137 52 137 219q0 97 -55 162t-148 82q-63 13 -151 13q-42 0 -89 -3q-30 -2 -38.5 -10.5t-8.5 -40.5v-451z" />
<glyph unicode="S" horiz-adv-x="1095" d="M88 1104q0 211 119.5 303t398.5 92q180 0 361 -41v-133v-76q-183 31 -349 37h-18q-155 0 -203 -51q-35 -38 -35 -101v-10q3 -75 95 -133q3 -2 11 -6.5t21.5 -13t26.5 -15.5q142 -72 350 -196q111 -71 152 -160q35 -72 35 -192q0 -211 -128.5 -314.5t-398.5 -109.5 q-22 -1 -43 -1q-198 0 -377 50v198q169 -24 308 -30q45 -3 83 -3q140 0 193 35q74 47 74 140q0 100 -133 186q-105 69 -271 162q-168 95 -219 170q-53 77 -53 213z" />
<glyph unicode="T" horiz-adv-x="1058" d="M14 1260v221h1055v-221h-389v-1260h-274v1260h-392z" />
<glyph unicode="U" horiz-adv-x="1292" d="M115 512v969h272v-955q0 -172 57 -241q66 -78 222 -78q157 0 223 78q59 71 59 241v955h273v-969q0 -300 -156 -426q-128 -104 -399 -104q-270 0 -398 104q-153 126 -153 426z" />
<glyph unicode="V" horiz-adv-x="1126" d="M-10 1479h291l305 -1274l305 1274h289l-365 -1401q-12 -52 -38.5 -68t-90.5 -16h-201q-64 0 -86 14q-29 15 -45 70z" />
<glyph unicode="W" horiz-adv-x="1736" d="M45 1481h283l151 -1291l199 1022q15 88 137 88h143q123 0 138 -88l196 -1005l174 1274h283l-231 -1393q-8 -52 -32.5 -73t-80.5 -21h-195q-55 0 -78.5 19.5t-35.5 74.5l-209 989l-209 -989q-12 -54 -36 -74t-79 -20h-192q-59 0 -83 21t-30 73z" />
<glyph unicode="X" horiz-adv-x="1171" d="M0 0l401 770l-356 709h311l244 -549l244 549h311l-356 -709l399 -770h-315l-283 588l-283 -588h-317z" />
<glyph unicode="Y" horiz-adv-x="1054" d="M-29 1479h314l252 -588l249 588h314l-432 -899v-580h-265v588z" />
<glyph unicode="Z" horiz-adv-x="1140" d="M94 61v132q0 32 12 53l668 999h-616v234h878q64 0 64 -60v-141q0 -30 -13 -53l-651 -981h670v-244h-948q-64 0 -64 61z" />
<glyph unicode="[" horiz-adv-x="638" d="M88 -190v1683q0 59 68 59h448v-188h-196q-66 -9 -66 -64v-1300q0 -54 66 -63h196v-189h-448q-68 0 -68 62z" />
<glyph unicode="\" horiz-adv-x="544" d="M-160 1501h195l676 -1501h-195z" />
<glyph unicode="]" horiz-adv-x="638" d="M59 -63h195q65 9 65 63v1300q0 55 -65 64h-195v188h447q67 0 67 -59v-1683q0 -62 -67 -62h-447v189z" />
<glyph unicode="^" horiz-adv-x="1040" d="M45 518v352l434 480q28 28 64 28q35 0 63 -28l436 -480v-352l-499 547z" />
<glyph unicode="_" horiz-adv-x="1050" d="M8 -188h1075v-160h-1075v160z" />
<glyph unicode="`" horiz-adv-x="589" d="M10 1528h252l244 -295h-201z" />
<glyph unicode="a" horiz-adv-x="1009" d="M57 299v41q4 170 111 238.5t364 68.5h138v86q0 118 -82 158q-50 24 -156 24h-24q-108 -4 -271 -20v166q166 43 340 43h23q424 -3 424 -371v-731h-248v109q-155 -125 -311 -125q-149 0 -232 92q-76 82 -76 221zM299 326q-1 -78 51 -122q46 -40 117 -41q8 0 16 1 q81 3 187 49l-2 317q-53 3 -97 3q-140 0 -190 -29q-82 -43 -82 -156v-8v-14z" />
<glyph unicode="b" horiz-adv-x="1140" d="M137 0v1468h264v-424q168 60 287 60q165 0 266 -88q126 -108 129 -402v-137q0 -261 -120 -387q-98 -104 -277 -104q-148 0 -291 116v-102h-258zM401 219q88 -49 174 -49q119 0 175 59q46 52 61 129q8 41 8 148v69q0 164 -39 238q-56 109 -198 109q-88 0 -181 -41v-662z " />
<glyph unicode="c" horiz-adv-x="921" d="M84 502v121q0 218 128 347.5t353 135.5h22q129 0 294 -31v-184q-150 16 -242 16q-33 0 -59 -2q-97 -6 -162 -74q-74 -80 -74 -213v-137q0 -282 256 -297q17 -1 34 -1q108 0 247 32v-184q-176 -45 -299 -45h-15q-483 3 -483 516z" />
<glyph unicode="d" horiz-adv-x="1130" d="M92 424v166q3 277 146 411q110 101 317 101q99 0 217 -23v389h264v-1466h-256v98q-150 -114 -301 -114q-387 0 -387 438zM354 496q0 -198 70 -271q52 -55 162 -55q98 0 186 49l2 684q-86 21 -153 21q-44 0 -80 -9q-109 -21 -150 -108q-37 -73 -37 -232v-79z" />
<glyph unicode="e" horiz-adv-x="1093" d="M92 510v88q0 255 141 387q127 121 351 121q240 0 358 -158q72 -97 90 -203q12 -64 12 -225v-35h-698q6 -136 57 -204q60 -78 187 -93q23 -2 69 -2q146 0 345 45v-180q-189 -65 -418 -65q-494 0 -494 524zM348 633h457q-6 291 -230 291t-227 -291z" />
<glyph unicode="f" horiz-adv-x="729" d="M18 924v166h183v94q0 188 84 260q72 63 245 63q102 0 207 -18v-160q-44 2 -80 2q-133 0 -159 -26q-29 -29 -29 -105v-110l266 -3v-163h-266v-924h-268v924h-183z" />
<glyph unicode="g" horiz-adv-x="1120" d="M92 535v79q0 262 119 387q95 104 255 104q13 0 26 -1q145 -6 292 -123v109h254v-1115q0 -365 -463 -368h-30q-210 0 -373 39v184q148 -25 281 -31q21 -1 41 -1q178 0 243 73q37 40 37 121v123q-135 -75 -258 -78h-13q-181 0 -276 82q-70 61 -100 147q-32 87 -35 269z M354 532q0 -150 33 -215q46 -100 178 -100q111 0 209 55v570q-86 57 -207 57q-94 0 -147 -53q-63 -63 -66 -262v-52z" />
<glyph unicode="h" horiz-adv-x="1138" d="M127 0v1470h264v-501q181 135 342 135q172 0 254 -105q76 -88 76 -243v-756h-264v680q0 130 -37 170q-50 52 -137 52q-13 0 -27 -1q-88 -6 -207 -70v-831h-264z" />
<glyph unicode="i" horiz-adv-x="491" d="M117 0v1087h260v-1087h-260zM117 1264v204h260v-204h-260z" />
<glyph unicode="j" horiz-adv-x="595" d="M16 -193q55 -3 84 -3q15 0 23 1q84 3 84 72v1213h280v-1246q0 -119 -53.5 -171t-173.5 -64q-36 -3 -71 -3q-90 0 -173 17v184zM207 1264v204h280v-204h-280z" />
<glyph unicode="k" horiz-adv-x="1075" d="M123 0v1470h264v-886l377 501h299l-412 -501l430 -584h-311l-383 545v-545h-264z" />
<glyph unicode="l" horiz-adv-x="514" d="M141 0v1468h260v-1468h-260z" />
<glyph unicode="m" horiz-adv-x="1695" d="M119 0v1087h246v-104q167 123 333 123q87 0 134.5 -27.5t95.5 -101.5q170 129 352 129q124 0 197 -76q92 -89 92 -276v-754h-262v674q0 128 -29 172q-41 54 -116 54q-11 0 -23 -1q-72 -6 -172 -74v-825h-250v674q0 128 -29 172q-41 54 -116 54q-11 0 -23 -1 q-91 -9 -172 -61v-838h-258z" />
<glyph unicode="n" horiz-adv-x="1161" d="M123 0v1087h254v-104q103 71 182 98q77 23 170 23q171 0 256 -105q74 -92 74 -245v-754h-264v676q0 132 -37 172q-49 54 -136 54q-13 0 -26 -1q-117 -9 -207 -61l-2 -840h-264z" />
<glyph unicode="o" horiz-adv-x="1120" d="M86 512v82q0 510 481 510q482 0 482 -510v-82q0 -526 -482 -526q-481 0 -481 526zM344 510q0 -311 223 -311q224 0 224 311v82q0 299 -224 299q-223 0 -223 -299v-82z" />
<glyph unicode="p" horiz-adv-x="1124" d="M117 -369v1456h254v-100q164 111 313 117h18q155 0 250 -98q111 -120 111 -392v-116q-3 -168 -35 -269q-30 -86 -100 -147q-95 -82 -276 -82h-13q-123 3 -258 78v-447h-264zM381 236q103 -57 200 -57q21 0 42 3q102 15 143 92q33 67 33 222v88q0 204 -64 268 q-49 49 -131 49q-13 0 -49 -4q-111 -15 -174 -55v-606z" />
<glyph unicode="q" horiz-adv-x="1134" d="M94 498v116q0 258 119 383q102 107 252 107h16q161 -6 305 -123v106h254v-1456h-264v447q-135 -75 -258 -78h-13q-181 0 -276 82q-70 61 -100 147q-32 87 -35 269zM356 496q0 -150 33 -215q46 -101 178 -101q109 0 209 56v606q-92 57 -207 57q-96 0 -147 -51 q-66 -66 -66 -264v-88z" />
<glyph unicode="r" horiz-adv-x="741" d="M123 0v1087h254v-118q156 136 339 135h23v-205h-15q-206 0 -341 -82v-817h-260z" />
<glyph unicode="s" horiz-adv-x="925" d="M72 799q0 181 133 252q101 55 297 55q148 0 309 -35v-186q-202 35 -340 35q-133 0 -133 -89q0 -36 53 -77q62 -38 78 -45q92 -44 274 -146q136 -86 136 -241q0 -146 -84 -230q-106 -106 -383 -106q-178 0 -324 41v182q195 -29 313 -29q201 0 201 105q0 45 -52.5 85 t-178.5 101q-122 62 -176 98q-123 79 -123 230z" />
<glyph unicode="t" horiz-adv-x="765" d="M39 930v160h170v229l260 45v-274h240v-160l-240 -2v-619q0 -91 25 -119q20 -23 59 -26q27 -1 57 -1q51 0 113 3v-162q-78 -18 -184 -18h-31q-167 0 -233 60t-66 214v668z" />
<glyph unicode="u" horiz-adv-x="1150" d="M109 324v766h264v-701q0 -97 37 -149q50 -62 157 -62q110 3 211 70v842h266v-1088h-258v98q-158 -116 -321 -116h-27q-329 0 -329 340z" />
<glyph unicode="v" horiz-adv-x="1003" d="M2 1090h281l241 -953l240 953h280l-301 -992q-8 -33 -20 -67q-13 -36 -53 -39h-74h-145q-103 0 -111 8q-12 12 -14 20q-4 4 -25 78z" />
<glyph unicode="w" horiz-adv-x="1595" d="M25 1090h270l178 -916l158 823q15 69 26 80q16 13 84 13h131q68 0 84 -13q14 -8 29 -80l164 -827l168 920h266l-209 -1000q-3 -32 -28 -88q-13 -10 -80 -10h-197q-65 0 -76 14q-5 5 -20 80l-166 793l-160 -793q-1 -4 -3.5 -20t-4.5 -27q-9 -39 -41 -45q-6 -2 -45 -2h-197 h-55q-7 0 -12.5 2t-10 6.5t-8 8.5t-6.5 11.5l-5 12.5t-4.5 14.5t-3 14t-2.5 15t-3 13.5z" />
<glyph unicode="x" horiz-adv-x="997" d="M16 0l297 573l-264 517h279l186 -392l188 392h279l-264 -517l297 -573h-279l-221 432l-219 -432h-279z" />
<glyph unicode="y" horiz-adv-x="1071" d="M-2 1090h309l262 -805l219 805h299l-430 -1260q-71 -200 -272 -221q-25 -3 -59 -3q-67 0 -168 11v190q56 -6 121 -6q63 8 77 13q40 10 61 39t21 69q0 33 -16 76z" />
<glyph unicode="z" horiz-adv-x="911" d="M70 66v79q0 43 22 74l459 670h-428v201h694q74 0 74 -76v-56q0 -34 -19 -59l-501 -694h522v-205h-748q-75 0 -75 66z" />
<glyph unicode="{" horiz-adv-x="593" d="M-84 545v194q213 15 213 142v442q0 155 115 205q75 29 250 26h41v-182q-73 -3 -113 -20q-53 -24 -53 -97v-342q-1 -102 -37 -151t-129 -78q-8 -2 -31.5 -9.5t-52.5 -16t-60 -17.5q175 -50 232 -104q76 -70 76 -220l2 -288q0 -72 53 -99q35 -15 113 -18v-182h-41 q-175 -3 -250 26q-115 50 -115 205v442q0 127 -213 142z" />
<glyph unicode="|" horiz-adv-x="346" d="M88 -506v2038h182v-2038h-182z" />
<glyph unicode="}" horiz-adv-x="571" d="M80 -88q62 3 96 14q70 21 70 103v331q0 123 55 172q56 50 254 109q-189 56 -248 121q-59 68 -59 207l-2 286q0 79 -70 103q-34 11 -96 14v182q116 3 246 -14q159 -24 159 -217v-442q0 -65 43 -95q19 -16 78 -32q84 -14 92 -15v-194q-33 -2 -92 -15q-30 -10 -78 -32 q-43 -34 -43 -95v-442q0 -193 -159 -217q-111 -17 -246 -14v80v102z" />
<glyph unicode="~" horiz-adv-x="909" d="M109 285v188q104 48 163 53q74 6 154 -20q25 -9 73.5 -26.5t73.5 -26.5q43 -14 93 -17q89 -6 184 47v-182q-78 -38 -166 -41q-112 -6 -276 62q-50 19 -99 22q-73 6 -200 -59z" />
<glyph unicode="&#xa1;" horiz-adv-x="849" d="M289 0l65 1087h172l68 -1087h-305zM297 1214v265h291v-265h-291z" />
<glyph unicode="&#xa2;" horiz-adv-x="983" d="M100 502v119q0 216 128 344.5t350 134.5q53 0 161 -6l58 157h98l-59 -166q56 -7 110 -16v-182q-71 6 -178 12l-258 -690q71 -18 104 -21q136 -9 332 29v-182q-187 -45 -364 -45q-66 0 -146 14l-51 -137h-100l61 166q-246 126 -246 469zM360 481q0 -92 66 -227l244 649 l-78 -2q-95 -6 -160 -74q-72 -78 -72 -211v-135z" />
<glyph unicode="&#xa3;" horiz-adv-x="1124" d="M115 655v205h145v205q0 231 113 332q114 102 393 102q167 0 328 -37v-211q-163 17 -328 17q-121 0 -172 -39q-59 -47 -59 -162v-207h401v-205h-401v-233q0 -64 -93 -195h656v-227h-903q-62 0 -62 63v68q0 55 19 74q108 111 108 196v254h-145z" />
<glyph unicode="&#xa4;" horiz-adv-x="935" d="M100 494v118q0 215 128.5 343.5t351.5 134.5q125 3 317 -29v-184q-202 22 -303 16q-95 -6 -160 -74q-74 -77 -74 -211v-135q0 -276 256 -291q112 -6 281 29v-180q-187 -48 -315 -45q-482 3 -482 508zM170 1528h170l147 -191l146 191h172l-207 -244h-221z" />
<glyph unicode="&#xa5;" horiz-adv-x="915" d="M-94 1479h313l252 -611l250 611h313l-340 -709h211v-160h-289l-14 -28v-215h303v-160h-303v-207h-264v207h-295v160h295v243h-295v160h207z" />
<glyph unicode="&#xa6;" horiz-adv-x="409" d="M125 -381v768h172v-768h-172zM125 713v766h172v-766h-172z" />
<glyph unicode="&#xa7;" horiz-adv-x="1095" d="M152 1237q0 137 106.5 198.5t355.5 61.5q166 0 322 -27v-47v-55v-65q-103 15 -289 30q-161 3 -198 -49q-18 -25 -15 -57q3 -57 84 -84q38 -15 49 -19q74 -23 285 -106q162 -82 162 -252q0 -150 -187 -244q124 -63 162 -129q27 -43 27 -129q0 -273 -469 -282 q-211 -3 -375 34v166q192 -30 264 -32q160 -6 218.5 18t58.5 94t-109 117q-74 28 -205 88q-132 60 -190 121q-53 62 -53 147q0 93 35.5 147t132.5 97q-110 57 -146 117q-26 45 -26 141zM403 748q6 -71 148 -130q85 3 137 25q66 28 66 98q0 73 -127 138q-163 3 -205 -58 q-22 -36 -19 -73z" />
<glyph unicode="&#xa8;" horiz-adv-x="1122" d="M266 1278v182h205v-182h-205zM694 1278v182h205v-182h-205z" />
<glyph unicode="&#xa9;" horiz-adv-x="1665" d="M127 737q0 313 217 537q216 223 524 223t525 -225q221 -226 221 -535q0 -313 -221 -534q-219 -219 -525 -219q-305 0 -524 219q-217 220 -217 534zM217 737q0 -276 189 -471q188 -194 458 -194q269 0 457 194q190 193 190 471q0 277 -190 473q-187 199 -457 199 q-268 0 -458 -199q-189 -198 -189 -473zM524 672v159q0 190 97 287q89 89 245 92q99 3 213 -20v-133q-99 13 -200 10q-195 -3 -195 -233v-166q0 -228 195 -234q101 -3 200 10v-129q-98 -25 -213 -22q-163 3 -248 88q-94 91 -94 291z" />
<glyph unicode="&#xaa;" horiz-adv-x="696" d="M86 975v26q1 108 66.5 151.5t220.5 43.5h80v64q0 73 -45 96q-36 19 -109 16q-56 0 -164 -12v108q114 32 219 29q256 -3 256 -237v-474h-153v66q-88 -76 -185 -76q-88 0 -139 60q-47 53 -47 139zM236 993q3 -101 108 -98q45 3 109 31v190q-126 9 -168 -16 q-49 -27 -49 -107z" />
<glyph unicode="&#xab;" horiz-adv-x="1433" d="M106 571q0 26 21 50l342 393h279l-388 -445l388 -444h-279l-340 397q-23 26 -23 49zM731 571q0 24 23 50l342 393h276l-385 -445l387 -444h-280l-340 397q-23 26 -23 49z" />
<glyph unicode="&#xac;" horiz-adv-x="1001" d="M45 913v189h875q61 0 61 -58v-743h-219v543q0 42 -14.5 55.5t-61.5 13.5h-641z" />
<glyph unicode="&#xad;" horiz-adv-x="737" d="M104 483v236h560v-236h-560z" />
<glyph unicode="&#xae;" horiz-adv-x="1665" d="M127 737q0 313 217 537q216 223 524 223t525 -225q221 -226 221 -535q0 -313 -221 -534q-219 -219 -525 -219q-305 0 -524 219q-217 220 -217 534zM217 737q0 -276 189 -471q188 -194 458 -194q269 0 457 194q190 193 190 471q0 277 -190 473q-187 199 -457 199 q-268 0 -458 -199q-189 -198 -189 -473zM578 303v289v371v196q0 39 36 39h213q175 0 252 -57q97 -69 97 -209v-12q0 -135 -93 -207q-28 -19 -73 -39l192 -371h-180l-170 350h-29h-86v-350h-159zM737 778h111q55 3 90 15q80 35 80 131q0 94 -74 129q-40 18 -178 18 q-27 -3 -27 -29z" />
<glyph unicode="&#xaf;" horiz-adv-x="638" d="M16 1233v229h639v-229h-639z" />
<glyph unicode="&#xb0;" horiz-adv-x="835" d="M106 1112q0 136 95 231q97 97 229 97q135 0 232 -97q94 -94 94 -231q0 -139 -94 -233q-95 -95 -232 -95q-134 0 -229 95t-95 233zM250 1112q0 -75 52.5 -128.5t127.5 -53.5t128.5 53.5t53.5 128.5q0 78 -53 131t-129 53q-75 0 -127.5 -53t-52.5 -131z" />
<glyph unicode="&#xb1;" horiz-adv-x="948" d="M53 2v168h875v-168h-875zM55 582v170h344v241h187v-241h342v-170h-342v-265h-187v265h-344z" />
<glyph unicode="&#xb2;" horiz-adv-x="598" d="M29 713v51q0 219 149 323l-12 -4q33 17 119 70q31 15 88 55q46 37 43 76q-1 43 -25 57.5t-90 16.5q-51 0 -248 -27v123q124 37 246 37q154 0 221.5 -49t67.5 -154q0 -72 -28.5 -117.5t-100.5 -93.5q-17 -10 -64.5 -40t-75.5 -48q-67 -43 -88.5 -79t-23.5 -99h371v-141 h-504q-45 0 -45 43z" />
<glyph unicode="&#xb3;" horiz-adv-x="598" d="M43 692v129q172 -26 240 -26q133 3 133 102v29q0 94 -142 94h-116v129h121q127 0 127 100v17q0 93 -138 90h-6q-47 0 -217 -25v125q128 35 242 35q154 0 219 -45q78 -54 78 -182q0 -104 -115 -181q123 -53 123 -184q0 -140 -82 -192q-70 -48 -213 -48q-125 0 -254 33z " />
<glyph unicode="&#xb4;" horiz-adv-x="571" d="M117 1276l221 252h199l-271 -252h-149z" />
<glyph unicode="&#xb5;" horiz-adv-x="1161" d="M135 -369v1459h262v-691q0 -98 39 -149q48 -63 160 -60q108 0 211 68v832h264v-1086h-256v113q-93 -69 -153 -94q-61 -23 -130 -23q-48 0 -135 41v-410h-262z" />
<glyph unicode="&#xb6;" horiz-adv-x="1163" d="M57 1169q0 144 82.5 227t233.5 83h772v-162h-162v-1493h-188v1493h-199v-1493h-188v1034q-351 0 -351 311z" />
<glyph unicode="&#xb7;" horiz-adv-x="473" d="M115 422v274h260v-274h-260z" />
<glyph unicode="&#xb8;" horiz-adv-x="600" d="M109 -406q98 -12 149 -6q54 5 93.5 35.5t39.5 75.5q0 106 -153 106h-80v193h131v-125q140 0 192 -49q41 -41 41 -121q0 -197 -252 -197q-88 0 -161 15v73z" />
<glyph unicode="&#xb9;" horiz-adv-x="464" d="M29 674v123h84h16q9 0 18 6l3 4q1 0 4 20v514l-125 -73v139l112 68q26 16 45 16h82q60 0 60 -55v-609q3 -14 8 -22v2q3 -7 20 -10h13h84v-123h-424z" />
<glyph unicode="&#xba;" horiz-adv-x="733" d="M90 1112v62q3 325 291 325q286 0 289 -325v-62q3 -336 -289 -336q-294 0 -291 336zM246 1112q0 -199 135 -199q133 0 133 199l-2 59q0 191 -131 191q-133 0 -133 -191z" />
<glyph unicode="&#xbb;" horiz-adv-x="1433" d="M123 125l387 444l-387 445h278l342 -393q21 -24 21 -50q0 -23 -23 -49l-340 -397h-278zM748 125l387 444l-385 445h276l342 -393q23 -26 23 -50q0 -23 -23 -49l-340 -397h-280z" />
<glyph unicode="&#xbc;" horiz-adv-x="1380" d="M27 692v121h90q10 0 18 9t8 20v504l-116 -74v137l104 68q22 14 43 14h74h-2h6q55 0 55 -53v-596q3 -29 29 -29h88v-121h-397zM162 0l880 1479h175l-877 -1479h-178zM795 287q0 29 12 47l305 436q16 23 57 23h68q74 0 74 -58l2 -432h94l2 -121l2 -2l-2 4h-98v-182h-164 v182h-297q-55 0 -55 103zM924 303h223v320z" />
<glyph unicode="&#xbd;" horiz-adv-x="1384" d="M29 1272v137l106 68q20 14 41 14h78q55 0 55 -53q0 -588 -2 -588q3 -8 6 -25q12 -12 33 -12h80v-121h-395v121h78q17 0 30 10l2 2q1 2 6 17v504zM164 0l880 1479h175l-877 -1479h-178zM889 92q0 214 141 316h4q-3 0 6 6l23 14q45 26 151 98q43 34 43 74q0 72 -98 72 q-55 0 -248 -27v123q128 35 234 35q127 0 192 -35q84 -47 84 -164q0 -112 -92 -186q-89 -56 -174 -111q-95 -68 -98 -170h354v-135h-479q-35 0 -41 31q-2 6 -2 59z" />
<glyph unicode="&#xbe;" horiz-adv-x="1480" d="M27 711v125q174 -28 227 -25q127 0 127 100v27q0 94 -133 94h-111v125h115q121 0 121 98v15q0 93 -131 90h-6q-37 -2 -207 -25v121q128 35 231 35q160 0 223 -57q58 -52 58 -164q0 -104 -109 -178q120 -49 117 -181q0 -134 -76 -186q-62 -45 -205 -45q-108 0 -241 31z M274 0l881 1479h174l-876 -1479h-179zM905 256v31q0 29 15 47l303 436q16 23 57 23h68q73 0 73 -58v-16l2 -416h95v-119q-82 -3 -97 0v-182h-164v182h-296q-56 0 -56 72zM1036 303h221v320z" />
<glyph unicode="&#xbf;" horiz-adv-x="1019" d="M90 362q0 94 23 152t84 119q28 23 149 135q109 109 121 299h192q13 -83 13 -139q0 -123 -45 -203q-26 -48 -95 -117q-35 -33 -110 -100q-57 -60 -57 -137q0 -93 63 -127q62 -32 190 -29q160 3 345 43v-201q-137 -57 -365 -57q-276 0 -397 92q-111 82 -111 270zM426 1235 v262h256v-262h-256z" />
<glyph unicode="&#xc0;" horiz-adv-x="1228" d="M43 0l360 1378q27 105 140 105h202q115 0 142 -105l360 -1378h-286l-97 381h-438l-102 -381h-281zM328 1911h168l200 -232h-127zM471 592h348l-176 727z" />
<glyph unicode="&#xc1;" horiz-adv-x="1228" d="M43 0l360 1378q27 105 140 105h202q115 0 142 -105l360 -1378h-286l-97 381h-438l-102 -381h-281zM471 592h348l-176 727zM582 1677l198 230h168l-241 -230h-125z" />
<glyph unicode="&#xc2;" horiz-adv-x="1230" d="M43 0l360 1378q27 105 140 105h202q115 0 142 -105l360 -1378h-286l-97 381h-438l-102 -381h-281zM340 1698l192 231h213l193 -231h-152l-147 192l-147 -192h-152zM471 592h348l-176 727z" />
<glyph unicode="&#xc3;" horiz-adv-x="1230" d="M43 0l360 1380q27 103 140 103h202q115 0 142 -103l360 -1380h-286l-97 381h-438l-102 -381h-281zM260 1647q15 176 154 176q39 0 92 -15l143 -41q65 -15 107 -18q91 -6 112 70h86q-15 -177 -153 -177q-39 0 -92 15l-144 41q-62 15 -106 18q-92 6 -113 -69h-86zM471 592 h348l-176 727z" />
<glyph unicode="&#xc4;" horiz-adv-x="1226" d="M43 0l360 1380q27 103 140 103h202q115 0 142 -103l360 -1380h-286l-97 381h-438l-102 -381h-281zM328 1712v164h190v-164h-190zM471 592h348l-176 727zM756 1712v164h190v-164h-190z" />
<glyph unicode="&#xc5;" horiz-adv-x="1228" d="M43 0l360 1378q27 105 140 105h202q115 0 142 -105l360 -1378h-286l-97 381h-438l-102 -381h-281zM436 1819q0 85 58.5 142.5t144.5 57.5t144.5 -57.5t58.5 -142.5t-58.5 -142t-144.5 -57t-144.5 57t-58.5 142zM471 592h348l-176 725zM471 1819q0 -67 49.5 -115.5 t118.5 -48.5t117.5 48t48.5 116q0 69 -48.5 117.5t-117.5 48.5t-118.5 -48.5t-49.5 -117.5z" />
<glyph unicode="&#xc6;" horiz-adv-x="1656" d="M37 0l459 1374q27 105 139 105h211h8l786 2v-211h-557v-410h531v-205h-531v-350q0 -80 84 -80h473v-217q-285 -34 -571 -6q-123 12 -172 64q-59 59 -59 190v125h-404l-117 -381h-280zM502 594h336v690h-56q-55 0 -73 -57q-1 -3 -22 -67t-74.5 -228t-110.5 -338z" />
<glyph unicode="&#xc7;" horiz-adv-x="1124" d="M135 618v263q0 316 164 469q158 146 426 149q193 3 365 -33v-211q-188 21 -345 15q-337 -9 -337 -385v-273q0 -378 337 -387q165 -3 345 17v-205q-131 -31 -320 -37v-174q155 0 209 -45q41 -30 41 -103q0 -172 -258 -172q-74 0 -160 11v67q97 -10 148 -4q135 12 135 94 q0 93 -158 93h-74v237q-232 24 -356 139q-162 149 -162 475z" />
<glyph unicode="&#xc8;" horiz-adv-x="1110" d="M125 254v983q0 163 94 215q55 28 146 37q123 10 315 10q229 -3 336 -16v-215l-539 -2q-49 0 -63.5 -13.5t-14.5 -56.5v-338h590v-205h-590v-358q0 -43 14.5 -56.5t63.5 -13.5l539 -2v-215q-118 -14 -336 -14q-183 -3 -315 8q-129 12 -181 61q-59 59 -59 191zM258 1911 h172l205 -232h-129z" />
<glyph unicode="&#xc9;" horiz-adv-x="1110" d="M137 252v973q0 161 94 213q55 28 146 37q122 13 315 10q219 -3 336 -17v-213h-536q-50 0 -65 -14t-15 -57v-334h589v-203h-589v-354q0 -43 15 -56.5t65 -13.5l536 -2v-213q-118 -14 -336 -14q-180 -3 -315 8q-126 12 -178 61q-62 59 -62 189zM518 1675l203 232h172 l-248 -232h-127z" />
<glyph unicode="&#xca;" horiz-adv-x="1112" d="M125 254v983q0 161 94 213q60 31 146 39q132 11 315 8q218 0 336 -14v-215l-539 -2q-49 0 -63.5 -13.5t-14.5 -56.5v-338h590v-205h-590v-358q0 -43 14.5 -56.5t63.5 -13.5l539 -2v-215q-118 -14 -336 -14q-183 -3 -315 8q-129 12 -181 61q-59 59 -59 191zM270 1698 l199 231h215l199 -231h-156l-152 192l-149 -192h-156z" />
<glyph unicode="&#xcb;" horiz-adv-x="1110" d="M125 254v983q0 163 94 215q55 28 146 37q123 10 315 10q229 -3 336 -16v-215h-539q-49 0 -63.5 -14t-14.5 -58v-338h590v-205h-590v-358q0 -43 14.5 -56.5t63.5 -13.5l539 -2v-215q-118 -14 -336 -14q-183 -3 -315 8q-129 12 -181 61q-59 59 -59 191zM262 1710v162h195 v-162h-195zM696 1710v162h195v-162h-195z" />
<glyph unicode="&#xcc;" horiz-adv-x="634" d="M10 1911h180l213 -234h-135zM195 0v1475h274v-1475h-274z" />
<glyph unicode="&#xcd;" horiz-adv-x="634" d="M195 0v1475h272v-1475h-272zM254 1677l213 230h180l-258 -230h-135z" />
<glyph unicode="&#xce;" horiz-adv-x="634" d="M25 1698l194 231h211l195 -231h-152l-147 192l-150 -192h-151zM190 0v1475h275v-1475h-275z" />
<glyph unicode="&#xcf;" horiz-adv-x="634" d="M6 1710v162h201v-162h-201zM188 0v1475h273v-1475h-273zM453 1710v162h200v-162h-200z" />
<glyph unicode="&#xd0;" horiz-adv-x="1331" d="M2 692v152h160v573q0 62 61 62h412q294 0 436 -127q172 -156 172 -490v-248q0 -339 -166 -477q-97 -78 -190 -108q-101 -29 -260 -29h-404q-61 0 -61 63v629h-160zM434 272q0 -57 68 -63q151 0 174 2q99 9 166 55q129 85 129 342v264q0 242 -117 334q-65 50 -172 62 q-41 6 -186 6q-62 -10 -62 -66v-364h256v-152h-256v-420z" />
<glyph unicode="&#xd1;" horiz-adv-x="1331" d="M152 0v1389q0 94 122 94h197q46 0 80 -70q16 -37 131 -340l299 -813v1217h244v-1387q0 -96 -123 -96h-178q-48 0 -70 31q-24 35 -66 147l-395 1042v-1214h-241zM293 1647q15 176 153 176q40 0 93 -15l145 -41q65 -15 107 -18q93 -6 114 70h86q-15 -177 -153 -177 q-40 0 -93 15l-145 41q-65 15 -106 18q-94 6 -115 -69h-86z" />
<glyph unicode="&#xd2;" horiz-adv-x="1318" d="M115 600v264q0 317 159 467q166 152 412 152q251 0 412 -152q162 -149 162 -467v-264q0 -324 -160 -475q-152 -143 -414 -143q-263 0 -412 143q-159 150 -159 475zM371 1907h168l200 -230h-127zM389 594q0 -208 78 -295q82 -94 219 -94q139 0 221 94q78 87 78 295v276 q0 206 -78 293q-82 94 -221 94q-137 0 -219 -94q-78 -87 -78 -293v-276z" />
<glyph unicode="&#xd3;" horiz-adv-x="1318" d="M115 600v264q0 317 159 467q166 152 412 152q251 0 412 -152q162 -149 162 -467v-264q0 -324 -160 -475q-152 -143 -414 -143q-263 0 -412 143q-159 150 -159 475zM389 594q0 -208 78 -295q82 -94 219 -94q139 0 221 94q78 87 78 295v276q0 206 -78 293q-82 94 -221 94 q-137 0 -219 -94q-78 -87 -78 -293v-276zM627 1677l198 232h170l-243 -232h-125z" />
<glyph unicode="&#xd4;" horiz-adv-x="1318" d="M115 600v264q0 317 159 467q166 152 412 152q251 0 412 -152q162 -149 162 -467v-264q0 -324 -160 -475q-152 -143 -414 -143q-263 0 -412 143q-159 150 -159 475zM383 1694l195 231h213l192 -231h-152l-147 192l-149 -192h-152zM389 592q0 -206 78 -293q82 -94 219 -94 q139 0 221 94q78 87 78 293v276q0 208 -78 295q-82 94 -221 94q-137 0 -219 -94q-78 -87 -78 -295v-276z" />
<glyph unicode="&#xd5;" horiz-adv-x="1318" d="M115 602v264q0 317 159 467q165 154 414 154q250 0 410 -154q162 -149 162 -467v-264q0 -326 -160 -477q-149 -143 -412 -143q-262 0 -414 143q-159 150 -159 477zM305 1647q15 176 154 176q39 0 92 -15l143 -41q65 -15 107 -18q93 -6 114 70h86q-15 -177 -153 -177 q-40 0 -92 15l-146 41q-62 15 -104 18q-94 6 -115 -69h-86zM389 594q0 -209 78 -293q84 -96 221 -96q135 0 219 96q78 84 78 293v278q0 206 -78 293q-85 97 -219 97q-136 0 -221 -97q-78 -87 -78 -293v-278z" />
<glyph unicode="&#xd6;" horiz-adv-x="1318" d="M115 602v262q0 319 159 469q166 152 412 152q251 0 412 -152q162 -149 162 -469v-262q0 -326 -160 -477q-152 -143 -414 -143q-263 0 -412 143q-159 150 -159 477zM375 1710v162h190v-162h-190zM389 594q0 -208 78 -295q82 -94 219 -94q139 0 221 94q78 87 78 295v276 q0 209 -78 293q-85 97 -221 97q-134 0 -219 -97q-78 -84 -78 -293v-276zM803 1710v162h192v-162h-192z" />
<glyph unicode="&#xd7;" horiz-adv-x="1060" d="M90 168l330 332l-328 329l131 134l328 -330l326 330l133 -134l-328 -329l330 -332l-131 -133l-330 332l-330 -332z" />
<glyph unicode="&#xd8;" horiz-adv-x="1316" d="M115 606v264q0 319 159 469q160 151 412 154q159 0 313 -80l78 139h107l-117 -186l27 -25q161 -151 161 -471v-264q0 -328 -157 -479q-149 -143 -412 -143q-214 0 -336 90l-82 -146h-108l110 195q-155 131 -155 483zM389 598q0 -159 25 -223l463 827q-73 67 -191 64 q-138 0 -221 -95q-76 -85 -76 -294v-279zM473 289q64 -82 213 -82q135 0 219 96q78 87 78 295v279q0 70 -4 124q-6 83 -33 129z" />
<glyph unicode="&#xd9;" horiz-adv-x="1347" d="M143 508v954h273v-942q0 -170 62 -242.5t218 -72.5t218.5 72.5t62.5 242.5v942h274v-954q0 -298 -157 -422q-128 -104 -398 -104q-269 0 -397 104q-156 123 -156 422zM385 1909h170l201 -232h-127z" />
<glyph unicode="&#xda;" horiz-adv-x="1347" d="M143 508v954h273v-942q0 -170 62 -242.5t218 -72.5t218.5 72.5t62.5 242.5v942h274v-954q0 -298 -157 -422q-128 -104 -398 -104q-269 0 -397 104q-156 123 -156 422zM643 1677l199 234h170l-244 -234h-125z" />
<glyph unicode="&#xdb;" horiz-adv-x="1347" d="M143 508v954h273v-942q0 -170 62 -242.5t218 -72.5t218.5 72.5t62.5 242.5v942h274v-954q0 -298 -157 -422q-128 -104 -398 -104q-269 0 -397 104q-156 123 -156 422zM397 1696l195 229h213l194 -229h-151l-150 192l-149 -192h-152z" />
<glyph unicode="&#xdc;" horiz-adv-x="1347" d="M143 508v956h273v-944q0 -170 62 -242.5t218 -72.5t218.5 72.5t62.5 242.5v944h274v-956q0 -298 -157 -422q-128 -104 -398 -104q-269 0 -397 104q-156 123 -156 422zM387 1710v162h193v-162h-193zM817 1710v162h191v-162h-191z" />
<glyph unicode="&#xdd;" horiz-adv-x="634" d="M170 0v1460h317v-1460h-317zM170 1694v202h317v-202h-317z" />
<glyph unicode="&#xde;" horiz-adv-x="1095" d="M88 1108q0 208 119.5 299.5t398.5 91.5q180 0 361 -41v-131v-76q-173 34 -349 37q-170 3 -221 -51q-38 -38 -35 -109q3 -74 97 -131q11 -7 57 -34q102 -52 352 -195q109 -71 150 -158q35 -72 35 -190q0 -193 -113 -293t-360 -125v-176q154 0 208 -45q39 -29 39 -103 q0 -172 -256 -172q-73 0 -159 11l-2 67q99 -9 149 -4q135 12 135 94q0 93 -157 93h-74v233q-210 9 -357 49v197q186 -23 308 -31q207 -9 280 35q70 40 70 135q0 100 -133 186q-123 78 -269 158q-166 94 -221 170q-53 77 -53 209z" />
<glyph unicode="&#xdf;" horiz-adv-x="1271" d="M156 0v1081q0 148 28.5 224t102.5 127q113 76 393 67q459 -15 459 -383q0 -112 -60 -190q-56 -68 -178 -131q160 -51 227.5 -137t67.5 -236q0 -407 -522 -422h-15h-34v211h16q149 0 215 55.5t66 188.5q0 237 -279 237q-41 0 -41 64v49q0 61 41 61q231 0 231 219 q0 208 -231 220q-221 9 -221 -195v-1110h-266z" />
<glyph unicode="&#xe0;" horiz-adv-x="1067" d="M84 297v41q4 167 114 236t367 69h131v78q0 111 -78 149q-57 28 -178 25q-93 -3 -274 -21l-2 170q180 46 368 43q429 -3 429 -366v-719h-259v100q-146 -116 -307 -116q-150 0 -233 92q-78 84 -78 219zM307 1528h189l213 -246h-144zM336 324q1 -74 51 -116.5t129 -37.5 q81 3 180 47v301q-215 12 -280 -24q-80 -44 -80 -156v-14z" />
<glyph unicode="&#xe1;" horiz-adv-x="1067" d="M84 297v41q4 167 114 236t367 69h131v78q0 111 -78 149q-57 28 -178 25q-93 -3 -274 -21l-2 170q180 46 368 43q429 -3 429 -366v-719h-259v100q-146 -116 -307 -116q-150 0 -233 92q-78 84 -78 219zM336 324q1 -74 51 -116.5t129 -37.5q81 3 180 47v301 q-215 12 -280 -24q-80 -44 -80 -156v-14zM410 1282l211 246h190l-258 -246h-143z" />
<glyph unicode="&#xe2;" horiz-adv-x="1067" d="M84 297v41q4 167 114 236t367 69h131v78q0 111 -78 149q-57 28 -178 25q-93 -3 -274 -21l-2 170q180 46 368 43q429 -3 429 -366v-719h-259v100q-146 -116 -307 -116q-150 0 -233 92q-78 84 -78 219zM242 1282l204 246h222l204 -246h-170l-145 191l-145 -191h-170z M336 324q1 -74 51 -116.5t129 -37.5q81 3 180 47v301q-215 9 -280 -24q-80 -44 -80 -156v-14z" />
<glyph unicode="&#xe3;" horiz-adv-x="1067" d="M84 297v41q4 167 114 236t367 69h131v80q0 108 -78 149q-54 26 -178 23q-93 -3 -274 -21l-2 173q180 46 368 43q429 -3 429 -367v-721h-259v100q-146 -116 -307 -116q-150 0 -233 92q-78 84 -78 219zM211 1286q12 189 162 189q41 0 94 -15l143 -39q77 -18 107 -20 q87 -3 108 72h99q-12 -191 -162 -191q-45 0 -94 14l-144 41q-71 17 -106 19q-88 6 -109 -70h-98zM336 324q1 -74 51 -116.5t129 -37.5q81 3 180 47v301q-215 12 -280 -24q-80 -41 -80 -156v-14z" />
<glyph unicode="&#xe4;" horiz-adv-x="1067" d="M84 297v41q4 167 114 236t367 69h131v80q0 108 -78 149q-57 28 -178 25q-105 -3 -274 -23l-2 173q180 46 368 43q429 -3 429 -367v-721h-259v100q-146 -116 -307 -116q-150 0 -233 92q-78 84 -78 219zM238 1286v174h204v-174h-204zM336 324q1 -74 51 -116.5t129 -37.5 q81 3 180 47v301q-215 12 -280 -24q-80 -41 -80 -156v-14zM668 1286v174h206v-174h-206z" />
<glyph unicode="&#xe5;" horiz-adv-x="1067" d="M84 297v39q4 167 114 236t367 69h131v78q0 108 -78 149q-57 28 -178 25q-105 -3 -274 -23l-2 172q180 46 368 43q429 -3 429 -366v-717h-259v98q-147 -114 -307 -114q-150 0 -233 92q-78 84 -78 219zM336 322q1 -73 51 -114.5t129 -39.5q74 3 180 47v301 q-215 12 -280 -24q-80 -41 -80 -156v-14zM346 1427q0 88 60.5 147.5t150.5 59.5q88 0 148.5 -59.5t60.5 -147.5q0 -86 -60.5 -145t-148.5 -59q-90 0 -150.5 58.5t-60.5 145.5zM438 1430q0 -50 34 -83.5t83 -33.5q50 0 84.5 34t34.5 83q0 47 -35 80.5t-84 33.5t-83 -33.5 t-34 -80.5z" />
<glyph unicode="&#xe6;" horiz-adv-x="1667" d="M94 297v41q3 170 111 237q107 70 358 70l123 -2q1 5 2 17t2 18v41q0 114 -76 151q-54 28 -172 25q-92 -3 -270 -21v175q174 46 358 43q196 0 316 -99q137 101 321 101q238 0 353 -158q69 -93 88 -195q13 -66 10 -221v-35h-684q6 -136 57 -204q60 -78 183 -93q23 -2 69 -2 q140 0 336 45v-180q-183 -65 -410 -65q-214 0 -350 118q-151 -115 -327 -118h-95q-146 0 -227 90q-76 82 -76 221zM340 324q0 -73 48.5 -113.5t125.5 -38.5q88 3 215 68q-40 118 -43 278q-206 9 -268 -24q-81 -44 -78 -156v-14zM936 633h448q-6 278 -223 278 q-222 0 -225 -278z" />
<glyph unicode="&#xe7;" horiz-adv-x="935" d="M100 512v119q0 214 128.5 341.5t351.5 133.5q125 3 317 -29v-184q-200 22 -303 16q-96 -6 -160 -73q-74 -77 -74 -209v-138q0 -275 256 -290q116 -6 281 28v-180q-129 -34 -262 -43v-166q155 0 209 -45q41 -35 41 -108q0 -179 -262 -179q-85 0 -168 13v67q101 -12 153 -6 q131 12 131 101q0 102 -151 102h-82l2 223q-408 58 -408 506z" />
<glyph unicode="&#xe8;" horiz-adv-x="1122" d="M102 502v86q0 253 142 383q128 119 350 119q241 0 358 -156q71 -96 92 -199q11 -79 11 -223v-35h-699q6 -134 58 -201q57 -75 188 -90q40 -4 70 -4q142 0 344 45v-176q-189 -65 -420 -65q-494 0 -494 516zM336 1528h188l211 -246h-143zM358 623h457q-6 286 -227 286 q-227 0 -230 -286z" />
<glyph unicode="&#xe9;" horiz-adv-x="1091" d="M92 502v86q0 254 141 383q125 119 351 119q241 0 358 -156q73 -97 90 -199q12 -64 12 -223v-35h-698q6 -136 57 -201q57 -75 187 -90q46 -4 69 -4q146 0 345 45v-176q-189 -65 -418 -65q-494 0 -494 516zM348 623h457q-6 286 -230 286t-227 -286zM426 1282l211 246h188 l-256 -246h-143z" />
<glyph unicode="&#xea;" horiz-adv-x="1122" d="M102 502v86q0 253 142 383q128 119 350 119q240 0 360 -156q69 -92 90 -199q11 -79 11 -223v-35h-699q6 -134 58 -201q57 -75 188 -90q40 -4 70 -4q142 0 344 45v-176q-189 -65 -420 -65q-494 0 -494 516zM270 1282l205 246h219l205 -246h-170l-145 191l-146 -191h-168z M358 623h457q-6 286 -227 286q-227 0 -230 -286z" />
<glyph unicode="&#xeb;" horiz-adv-x="1122" d="M102 502v88q0 253 142 383q128 119 350 119q241 0 358 -156q71 -96 92 -199q11 -79 11 -223v-35h-699q6 -136 58 -203q57 -75 188 -90q40 -4 70 -4q133 0 344 47v-178q-189 -65 -420 -65q-494 0 -494 516zM266 1286v174h205v-174h-205zM358 625h457q-6 286 -227 286 q-227 0 -230 -286zM694 1286v174h205v-174h-205z" />
<glyph unicode="&#xec;" horiz-adv-x="571" d="M57 1528h197l223 -246h-151zM162 0v1071h278v-1071h-278z" />
<glyph unicode="&#xed;" horiz-adv-x="571" d="M117 1282l221 246h199l-271 -246h-149zM152 0v1071h278v-1071h-278z" />
<glyph unicode="&#xee;" horiz-adv-x="573" d="M-20 1282l208 246h224l209 -246h-172l-150 191l-147 -191h-172zM164 0v1071h268v-1071h-268z" />
<glyph unicode="&#xef;" horiz-adv-x="573" d="M-27 1286v176h209v-176h-209zM162 0v1073h272v-1073h-272zM414 1286v176h209v-176h-209z" />
<glyph unicode="&#xf0;" horiz-adv-x="1144" d="M98 424v164q3 278 148 411q107 98 317 101q104 0 217 -107v103v61q0 19 -4 43q-9 55 -63 129l-78 -90l-78 68l80 92q-81 70 -113 96l174 182q11 -8 47 -38t62 -50l80 90l78 -67l-82 -92l32 -33q89 -83 115 -182q14 -55 14 -230v-1073h-258v98q-150 -114 -299 -114 q-389 0 -389 438zM362 494q0 -198 68 -269q52 -55 162 -55q100 0 188 49v680q-138 33 -231 14q-108 -24 -152 -108q-35 -75 -35 -232v-79z" />
<glyph unicode="&#xf1;" horiz-adv-x="1179" d="M133 0v1073h254v-115q115 79 182 103q82 29 170 29q171 0 254 -103q76 -91 76 -244v-743h-264v668q0 130 -37 170q-57 60 -164 51q-91 -10 -207 -72v-817h-264zM256 1286q12 189 162 189q39 0 92 -15l145 -39q73 -18 105 -20q87 -3 108 72h99q-12 -191 -160 -191 q-45 0 -94 14l-146 41q-68 16 -104 19q-88 6 -109 -70h-98z" />
<glyph unicode="&#xf2;" d="M100 504v82q0 504 482 504q479 0 479 -504q0 -20 2 -43v-39q0 -518 -481 -518q-482 0 -482 518zM332 1528h188l211 -246h-143zM362 504q0 -307 220 -307q219 0 219 307v80q0 295 -219 295q-220 0 -220 -295v-80z" />
<glyph unicode="&#xf3;" d="M100 504v82q0 504 482 504q479 0 479 -504q0 -20 2 -43v-39q0 -518 -481 -518q-482 0 -482 518zM362 504q0 -307 220 -307q219 0 219 307v80q0 295 -219 295q-220 0 -220 -295v-80zM434 1282l211 246h189l-256 -246h-144z" />
<glyph unicode="&#xf4;" d="M100 504v82q0 516 482 516q479 0 479 -516q0 -20 2 -43v-39q0 -518 -481 -518q-482 0 -482 518zM266 1282l205 246h219l205 -246h-170l-145 191l-146 -191h-168zM362 504q0 -307 220 -307q219 0 219 307v80q0 295 -219 295q-220 0 -220 -295v-80z" />
<glyph unicode="&#xf5;" d="M100 506v80q0 506 482 506q479 0 479 -506q0 -18 2 -41v-39q0 -520 -481 -520q-482 0 -482 520zM236 1286q12 189 161 189q39 0 92 -15l146 -39q73 -18 104 -20q88 -3 109 72h98q-12 -191 -162 -191q-43 0 -92 14l-145 41q-67 16 -105 19q-87 6 -108 -70h-98zM362 504 q0 -307 220 -307q219 0 219 307v80q0 295 -219 295q-220 0 -220 -295v-80z" />
<glyph unicode="&#xf6;" d="M100 506v82q0 504 482 504q479 0 479 -504q0 -20 2 -43v-39q0 -520 -481 -520q-482 0 -482 520zM262 1286v174h205v-174h-205zM362 504q0 -307 220 -307q219 0 219 307v80q0 295 -219 295q-220 0 -220 -295v-80zM692 1286v174h203v-174h-203z" />
<glyph unicode="&#xf7;" horiz-adv-x="1060" d="M57 406v186h985v-186h-985zM459 0v186h186v-186h-186zM459 811v182h186v-182h-186z" />
<glyph unicode="&#xf8;" d="M100 512v45v49q0 508 482 508q120 0 241 -41l62 109h102l-88 -154q162 -140 162 -422q0 -22 2 -49v-45q0 -524 -481 -524q-130 0 -246 45l-57 -105h-103l84 150q-160 145 -160 434zM362 510q0 -65 25 -209l320 567q-70 33 -125 33q-220 0 -220 -297v-94zM453 236 q70 -33 129 -33q219 0 219 307v94q0 69 -27 201z" />
<glyph unicode="&#xf9;" horiz-adv-x="1161" d="M135 317v754h264v-688q0 -99 39 -147q48 -60 158 -60q109 0 209 68l2 827h264v-1071h-258v98q-156 -114 -321 -114h-27q-330 0 -330 333zM356 1528h189l211 -246h-144z" />
<glyph unicode="&#xfa;" horiz-adv-x="1161" d="M135 317v754h264v-688q0 -99 39 -147q48 -60 158 -60q109 0 209 68l2 827h264v-1071h-258v98q-156 -114 -321 -114h-27q-330 0 -330 333zM457 1282l211 246h190l-258 -246h-143z" />
<glyph unicode="&#xfb;" horiz-adv-x="1161" d="M135 317v754h264v-688q0 -99 39 -147q48 -60 158 -60q109 0 209 68l2 827h264v-1071h-258v98q-156 -114 -321 -114h-27q-330 0 -330 333zM291 1282l203 246h219l205 -246h-168l-146 191l-145 -191h-168z" />
<glyph unicode="&#xfc;" horiz-adv-x="1161" d="M135 317v756h264v-688q0 -98 39 -149q48 -60 158 -60q109 0 209 68l2 829h264v-1071h-258v96q-156 -114 -321 -114h-27q-330 0 -330 333zM287 1286v174h205v-174h-205zM715 1286v174h205v-174h-205z" />
<glyph unicode="&#xfd;" horiz-adv-x="571" d="M145 0v1102h301v-1102h-301z" />
<glyph unicode="&#xfe;" horiz-adv-x="903" d="M68 809q0 134 75 203q98 94 355 94q150 0 311 -35v-182q-115 19 -246 29q-112 9 -155 0q-74 -15 -74 -76q0 -55 53 -90q22 -13 154 -76q116 -55 198 -105q135 -82 135 -237q0 -144 -81 -225q-90 -90 -332 -105v-166q152 0 209 -45q41 -35 41 -108q0 -179 -262 -179 q-85 0 -168 13v75q101 -12 153 -6q131 12 131 93q0 90 -151 90h-82l2 235q-159 12 -250 39v178q128 -20 264 -26q222 -9 246 67q6 18 6 33q0 52 -90 111q-7 5 -139 71q-42 20 -181 99q-122 76 -122 231z" />
<glyph unicode="&#xff;" d="M29 1077h311l260 -813l221 813h297l-428 -1247q-36 -103 -103 -156.5t-171 -64.5q-85 -9 -228 10v188q65 -7 121 -4q30 3 84 15q78 21 78 102q0 28 -16 78zM266 1286v174h203v-174h-203zM690 1286v174h203v-174h-203z" />
<glyph unicode="&#x152;" horiz-adv-x="1888" d="M115 606v268q0 318 157 472q156 153 404 153q128 0 201 -33q68 -30 151 -110q44 75 45 76q47 50 135 59q128 11 303 8q211 0 326 -14v-217h-520q-47 0 -61.5 -13.5t-14.5 -56.5v-338h569v-205h-569v-358q0 -43 14.5 -57.5t61.5 -14.5h520v-215q-104 -13 -326 -16 q-187 -3 -303 10q-91 9 -135 59q-10 10 -39 58q-89 -82 -153 -107q-71 -32 -205 -32q-253 0 -404 145q-157 151 -157 479zM385 600q0 -211 74 -297q84 -96 217 -96t217 96q76 85 76 297v279q0 212 -76 297q-84 96 -217 96t-217 -96q-74 -86 -74 -297v-279z" />
<glyph unicode="&#x153;" horiz-adv-x="1761" d="M96 512v82q0 512 475 512q230 0 347 -150q31 75 137 115q93 35 211 35q236 0 354 -158q70 -93 88 -203q13 -69 10 -225v-39h-682q12 -260 236 -284q46 -4 67 -4q132 0 340 47l2 -189q-186 -65 -413 -65q-230 0 -355 143q-116 -143 -342 -143q-475 0 -475 526zM360 512 q0 -305 211 -305q212 0 209 305v80q0 293 -209 293q-211 0 -211 -293v-80zM1038 635h441q-6 280 -222 280t-219 -280z" />
<glyph unicode="&#x178;" horiz-adv-x="1148" d="M33 1464h313l250 -606l250 606h315l-434 -891v-573h-262v582zM285 1710v162h190v-162h-190zM713 1710v162h190v-162h-190z" />
<glyph unicode="&#x2c6;" horiz-adv-x="569" d="M-12 1233l202 295h211l203 -295h-172l-135 215l-137 -215h-172z" />
<glyph unicode="&#x2dc;" horiz-adv-x="606" d="M-25 1235q9 240 158 240q34 0 90 -17l117 -43q77 -26 119 -29q83 -6 98 84h102q-9 -239 -157 -239q-34 0 -90 16q-20 7 -57.5 21.5t-57.5 21.5q-81 26 -121 29q-80 6 -98 -84h-103z" />
<glyph unicode="&#x2000;" horiz-adv-x="1009" />
<glyph unicode="&#x2001;" horiz-adv-x="2019" />
<glyph unicode="&#x2002;" horiz-adv-x="1009" />
<glyph unicode="&#x2003;" horiz-adv-x="2019" />
<glyph unicode="&#x2004;" horiz-adv-x="673" />
<glyph unicode="&#x2005;" horiz-adv-x="504" />
<glyph unicode="&#x2006;" horiz-adv-x="336" />
<glyph unicode="&#x2007;" horiz-adv-x="336" />
<glyph unicode="&#x2008;" horiz-adv-x="252" />
<glyph unicode="&#x2009;" horiz-adv-x="403" />
<glyph unicode="&#x200a;" horiz-adv-x="112" />
<glyph unicode="&#x2010;" horiz-adv-x="737" d="M104 483v236h560v-236h-560z" />
<glyph unicode="&#x2011;" horiz-adv-x="737" d="M104 483v236h560v-236h-560z" />
<glyph unicode="&#x2012;" horiz-adv-x="737" d="M104 483v236h560v-236h-560z" />
<glyph unicode="&#x2013;" horiz-adv-x="663" d="M45 485v189h598v-189h-598z" />
<glyph unicode="&#x2014;" horiz-adv-x="1579" d="M45 485v189h1548v-189h-1548z" />
<glyph unicode="&#x2018;" horiz-adv-x="614" d="M131 985l203 471h174l-127 -471h-250z" />
<glyph unicode="&#x2019;" horiz-adv-x="477" d="M90 985l127 471h250l-201 -471h-176z" />
<glyph unicode="&#x201a;" horiz-adv-x="534" d="M88 -190l105 436h247l-176 -436h-176z" />
<glyph unicode="&#x201c;" horiz-adv-x="1046" d="M131 985l201 471h176l-127 -471h-250zM586 985l202 471h175l-127 -471h-250z" />
<glyph unicode="&#x201d;" horiz-adv-x="1046" d="M123 985l127 471h250l-201 -471h-176zM578 985l127 471h249l-200 -471h-176z" />
<glyph unicode="&#x201e;" horiz-adv-x="933" d="M78 -190l104 436h248l-176 -436h-176zM528 -190l105 436h248l-176 -436h-177z" />
<glyph unicode="&#x2022;" horiz-adv-x="765" d="M90 797q0 128 90 221q89 92 217 92t217 -92q91 -94 91 -221q0 -128 -91 -222q-89 -92 -217 -92t-217 92q-90 93 -90 222z" />
<glyph unicode="&#x2026;" horiz-adv-x="1482" d="M123 0v250h260v-250h-260zM637 0v250h260v-250h-260zM1149 0v250h260v-250h-260z" />
<glyph unicode="&#x202f;" horiz-adv-x="403" />
<glyph unicode="&#x2039;" horiz-adv-x="817" d="M131 571q0 26 21 47l327 369h266l-370 -418l370 -417h-268l-325 372q-21 24 -21 47z" />
<glyph unicode="&#x203a;" horiz-adv-x="817" d="M106 152l373 417l-370 418h266l327 -369q21 -21 21 -47q0 -23 -21 -47l-327 -372h-269z" />
<glyph unicode="&#x205f;" horiz-adv-x="504" />
<glyph unicode="&#x20ac;" horiz-adv-x="1124" d="M6 520v137h137v179h-137v133h139q15 304 123 409q121 115 459 121q198 3 363 -35v-213q-180 20 -342 17q-216 -6 -283 -82q-47 -56 -53 -217h555l-35 -133h-520v-179h473l-35 -137h-438q3 -169 53 -225q69 -78 283 -84q170 -3 342 16v-207q-158 -39 -363 -36 q-189 3 -274 22q-119 27 -187 92q-108 105 -123 422h-137z" />
<glyph unicode="&#x2122;" horiz-adv-x="1431" d="M25 1366v113h518v-113h-193v-664h-133v664h-192zM649 702v732q0 49 60 49h102q57 0 66 -53q36 -135 124 -512l127 512q15 53 64 53h102q60 0 60 -49v-732h-117v687l-143 -543q-15 -49 -68 -49h-47q-50 0 -68 67l-145 529v-691h-117z" />
<glyph unicode="&#x25fc;" horiz-adv-x="1085" d="M0 0v1085h1085v-1085h-1085z" />
</font>
</defs>
</svg>
