<?xml version="1.0" encoding="utf-8"?>
<!-- Generator: Adobe Illustrator 18.1.1, SVG Export Plug-In . SVG Version: 6.00 Build 0)  -->
<svg version="1.0" id="Layer_1" xmlns="http://www.w3.org/2000/svg" xmlns:xlink="http://www.w3.org/1999/xlink" x="0px" y="0px"
	 viewBox="0 0 654 140" enable-background="new 0 0 654 140" xml:space="preserve">
<g>
	<g>
		<defs>
			<rect id="SVGID_1_" y="8.1" width="654" height="123.7"/>
		</defs>
		<clipPath id="SVGID_2_">
			<use xlink:href="#SVGID_1_"  overflow="visible"/>
		</clipPath>
		<path clip-path="url(#SVGID_2_)" fill="#FFFFFF" d="M599,118.7L599,118.7L599,118.7 M599.2,118.7C599,118.7,599,118.7,599.2,118.7
			l3.4,11.3h23l0.1-0.4l1.7-4.7c-9.6-4-19.6-7.7-29.7-11L599.2,118.7z"/>
	</g>
</g>
<g>
	<g>
		<defs>
			<path id="SVGID_3_" d="M599,118.7L599,118.7L599,118.7 M599.2,118.7C599,118.7,599,118.7,599.2,118.7l3.4,11.3h23l0.1-0.4
				l1.7-4.7c-9.6-4-19.6-7.7-29.7-11L599.2,118.7z"/>
		</defs>
		<clipPath id="SVGID_4_">
			<use xlink:href="#SVGID_3_"  overflow="visible"/>
		</clipPath>
		<rect x="597.6" y="113.7" clip-path="url(#SVGID_4_)" fill="#FFFFFF" width="29.7" height="16.3"/>
	</g>
</g>
<g>
	<g>
		<defs>
			<rect id="SVGID_5_" y="8.1" width="654" height="123.7"/>
		</defs>
		<clipPath id="SVGID_6_">
			<use xlink:href="#SVGID_5_"  overflow="visible"/>
		</clipPath>
		<path clip-path="url(#SVGID_6_)" fill="#FFFFFF" d="M536.5,102.1L536.5,102.1l10,27.9h22.8l5.2-17.8l1.5-5
			c-13.3-3.7-27.1-6.9-41.1-9.4L536.5,102.1z"/>
	</g>
</g>
<g>
	<g>
		<defs>
			<path id="SVGID_7_" d="M536.5,102.1L536.5,102.1l10,27.9h22.8l5.2-17.8l1.5-5c-13.3-3.7-27.1-6.9-41.1-9.4L536.5,102.1z"/>
		</defs>
		<clipPath id="SVGID_8_">
			<use xlink:href="#SVGID_7_"  overflow="visible"/>
		</clipPath>
		<rect x="534.9" y="97.7" clip-path="url(#SVGID_8_)" fill="#FFFFFF" width="41.1" height="32.3"/>
	</g>
</g>
<g>
	<g>
		<defs>
			<rect id="SVGID_9_" y="8.1" width="654" height="123.7"/>
		</defs>
		<clipPath id="SVGID_10_">
			<use xlink:href="#SVGID_9_"  overflow="visible"/>
		</clipPath>
		<path clip-path="url(#SVGID_10_)" fill="#FFFFFF" d="M501.5,92.6v0.1c-1.5,11-10.8,19.6-22.1,19.6c-12.5,0-22.6-10.2-22.8-23
			c-5.9-0.2-11.9-0.4-17.8-0.4c-0.4,0-0.6,0-0.9,0c0,0,0,0,0,0.1c0,23.3,18.6,42,41.7,42c19.9,0,36.7-14.7,40.1-34.1
			c0.1-0.6,0.1-1.3,0.2-1.9C513.9,94.2,507.7,93.4,501.5,92.6"/>
	</g>
</g>
<g>
	<g>
		<defs>
			<path id="SVGID_11_" d="M437.9,89C437.9,89,437.9,89.1,437.9,89c0,23.4,18.6,42.1,41.7,42.1c19.9,0,36.7-14.7,40.1-34.1
				c0.1-0.6,0.1-1.3,0.2-1.9c-6.1-0.9-12.2-1.8-18.5-2.5v0.1c-1.5,11-10.8,19.6-22.1,19.6c-12.5,0-22.6-10.2-22.8-23
				c-5.9-0.2-11.9-0.4-17.8-0.4C438.5,89,438.3,89,437.9,89"/>
		</defs>
		<clipPath id="SVGID_12_">
			<use xlink:href="#SVGID_11_"  overflow="visible"/>
		</clipPath>
		<rect x="437.9" y="89" clip-path="url(#SVGID_12_)" fill="#FFFFFF" width="82" height="42.1"/>
	</g>
</g>
<g>
	<g>
		<defs>
			<rect id="SVGID_13_" y="8.1" width="654" height="123.7"/>
		</defs>
		<clipPath id="SVGID_14_">
			<use xlink:href="#SVGID_13_"  overflow="visible"/>
		</clipPath>
		<path clip-path="url(#SVGID_14_)" fill="#FFFFFF" d="M392.6,91v37.9h19.2V89.7C405.4,90.1,399,90.5,392.6,91"/>
	</g>
</g>
<g>
	<g>
		<defs>
			<path id="SVGID_15_" d="M392.6,91v37.9h19.2V89.7C405.4,90.1,399,90.5,392.6,91"/>
		</defs>
		<clipPath id="SVGID_16_">
			<use xlink:href="#SVGID_15_"  overflow="visible"/>
		</clipPath>
		<rect x="392.6" y="89.7" clip-path="url(#SVGID_16_)" fill="#FFFFFF" width="19.2" height="39.2"/>
	</g>
</g>
<g>
	<g>
		<defs>
			<rect id="SVGID_17_" y="8.1" width="654" height="123.7"/>
		</defs>
		<clipPath id="SVGID_18_">
			<use xlink:href="#SVGID_17_"  overflow="visible"/>
		</clipPath>
		<path clip-path="url(#SVGID_18_)" fill="#FFFFFF" d="M310.6,104.4V129h19.2v-29C323.3,101.5,316.8,102.9,310.6,104.4"/>
	</g>
</g>
<g>
	<g>
		<defs>
			<path id="SVGID_19_" d="M310.6,104.4V129h19.2v-29C323.3,101.5,316.8,102.9,310.6,104.4"/>
		</defs>
		<clipPath id="SVGID_20_">
			<use xlink:href="#SVGID_19_"  overflow="visible"/>
		</clipPath>
		<rect x="310.6" y="100" clip-path="url(#SVGID_20_)" fill="#FFFFFF" width="19.2" height="28.8"/>
	</g>
</g>
<g>
	<g>
		<defs>
			<rect id="SVGID_21_" y="8.1" width="654" height="123.7"/>
		</defs>
		<clipPath id="SVGID_22_">
			<use xlink:href="#SVGID_21_"  overflow="visible"/>
		</clipPath>
		<path clip-path="url(#SVGID_22_)" fill="#FFFFFF" d="M361.7,94.6v34.3H381V92.1C374.5,92.9,368.1,93.7,361.7,94.6"/>
	</g>
</g>
<g>
	<g>
		<defs>
			<path id="SVGID_23_" d="M361.7,94.6v34.3H381V92.1C374.5,92.9,368.1,93.7,361.7,94.6"/>
		</defs>
		<clipPath id="SVGID_24_">
			<use xlink:href="#SVGID_23_"  overflow="visible"/>
		</clipPath>
		<rect x="361.7" y="92.2" clip-path="url(#SVGID_24_)" fill="#FFFFFF" width="19.2" height="36.8"/>
	</g>
</g>
<g>
	<g>
		<defs>
			<rect id="SVGID_25_" y="8.1" width="654" height="123.7"/>
		</defs>
		<clipPath id="SVGID_26_">
			<use xlink:href="#SVGID_25_"  overflow="visible"/>
		</clipPath>
		<path clip-path="url(#SVGID_26_)" fill="#FFFFFF" d="M284.6,115c-2.6,0-4.5-0.6-5.8-1.9c-6.4,2-12.7,4.5-19,6.6
			c3.4,8.5,11.8,12.1,22.8,12.1c7.6,0,14.5-2.1,21.5-4.5l-5.3-15.6C294.2,113.3,289.4,115,284.6,115"/>
	</g>
</g>
<g>
	<g>
		<defs>
			<path id="SVGID_27_" d="M284.6,115c-2.6,0-4.5-0.6-5.8-1.9c-6.4,2-12.7,4.5-19,6.6c3.4,8.5,11.8,12.1,22.8,12.1
				c7.6,0,14.5-2.1,21.5-4.5l-5.3-15.6C294.2,113.3,289.5,115,284.6,115"/>
		</defs>
		<clipPath id="SVGID_28_">
			<use xlink:href="#SVGID_27_"  overflow="visible"/>
		</clipPath>
		<rect x="259.7" y="111.8" clip-path="url(#SVGID_28_)" fill="#FFFFFF" width="44.4" height="20.1"/>
	</g>
</g>
<g>
	<g>
		<defs>
			<rect id="SVGID_29_" y="8.1" width="654" height="123.7"/>
		</defs>
		<clipPath id="SVGID_30_">
			<use xlink:href="#SVGID_29_"  overflow="visible"/>
		</clipPath>
		<path clip-path="url(#SVGID_30_)" fill="#FFFFFF" d="M134.5,62.8c10.8,0,16.3,7.8,16.4,17.9h-33.1
			C118.2,71.2,124.2,62.8,134.5,62.8 M97.1,89c0,24.9,16.4,41.8,41.1,41.8c9.5,0,19-2.3,27.7-5.9l-6.1-15
			c-5.8,2.6-13.8,4.2-20.4,4.2c-11.9,0-20.2-5.8-21.5-18.2h51.9c0.5-3.6,1.1-7.1,1.1-10.6c0-22.3-13.3-38.3-36.4-38.3
			C109.7,47,97.1,65.7,97.1,89"/>
	</g>
</g>
<g>
	<g>
		<defs>
			<path id="SVGID_31_" d="M134.5,62.8c10.8,0,16.3,7.8,16.4,17.9h-33.1C118.2,71.2,124.2,62.8,134.5,62.8 M97.1,89
				c0,24.9,16.4,41.8,41.1,41.8c9.5,0,19-2.3,27.7-5.9l-6.1-15c-5.8,2.6-13.8,4.2-20.4,4.2c-11.9,0-20.2-5.8-21.5-18.2h51.9
				c0.5-3.6,1.1-7.1,1.1-10.6c0-22.3-13.3-38.3-36.4-38.3C109.7,47,97.1,65.7,97.1,89"/>
		</defs>
		<clipPath id="SVGID_32_">
			<use xlink:href="#SVGID_31_"  overflow="visible"/>
		</clipPath>
		<rect x="97.1" y="47" clip-path="url(#SVGID_32_)" fill="#FFFFFF" width="73.7" height="83.8"/>
	</g>
</g>
<g>
	<g>
		<defs>
			<rect id="SVGID_33_" y="8.1" width="654" height="123.7"/>
		</defs>
		<clipPath id="SVGID_34_">
			<use xlink:href="#SVGID_33_"  overflow="visible"/>
		</clipPath>
		<path clip-path="url(#SVGID_34_)" fill="#FFFFFF" d="M517.6,48.9L531,86.5c7.7,1.1,15.4,2.4,23,3.8l-13.9-41.4H517.6z"/>
	</g>
</g>
<g>
	<g>
		<defs>
			<path id="SVGID_35_" d="M517.6,48.9L531,86.5c7.7,1.1,15.4,2.4,23,3.8l-13.9-41.4H517.6z"/>
		</defs>
		<clipPath id="SVGID_36_">
			<use xlink:href="#SVGID_35_"  overflow="visible"/>
		</clipPath>
		<rect x="517.6" y="48.9" clip-path="url(#SVGID_36_)" fill="#FFFFFF" width="36.3" height="41.4"/>
	</g>
</g>
<g>
	<g>
		<defs>
			<rect id="SVGID_37_" y="8.1" width="654" height="123.7"/>
		</defs>
		<clipPath id="SVGID_38_">
			<use xlink:href="#SVGID_37_"  overflow="visible"/>
		</clipPath>
		<path clip-path="url(#SVGID_38_)" fill="#FFFFFF" d="M633.1,48.9l-17.9,55.7L595,48.9h-18.3l-15.6,43c6.1,1.3,12.1,2.6,18,4.2
			l6.4-21.6l7.6,25.3c13.1,3.7,25.9,8,38.3,12.7L653.9,49h-20.8V48.9z"/>
	</g>
</g>
<g>
	<g>
		<defs>
			<path id="SVGID_39_" d="M633.1,48.9l-17.9,55.7L595,48.9h-18.3l-15.6,43c6.1,1.3,12.1,2.6,18,4.2l6.4-21.6l7.6,25.3
				c13.1,3.7,25.9,8,38.3,12.7L653.9,49h-20.8V48.9z"/>
		</defs>
		<clipPath id="SVGID_40_">
			<use xlink:href="#SVGID_39_"  overflow="visible"/>
		</clipPath>
		<rect x="561.3" y="48.9" clip-path="url(#SVGID_40_)" fill="#FFFFFF" width="92.8" height="63.4"/>
	</g>
</g>
<g>
	<g>
		<defs>
			<rect id="SVGID_41_" y="8.1" width="654" height="123.7"/>
		</defs>
		<clipPath id="SVGID_42_">
			<use xlink:href="#SVGID_41_"  overflow="visible"/>
		</clipPath>
		<path clip-path="url(#SVGID_42_)" fill="#FFFFFF" d="M451.7,80.9c2.1,0,4.3,0,6.4,0.1c3.3-8.5,11.8-14.8,21.1-14.8
			c10,0,18.8,7.2,21.5,16.9c6.5,0.6,12.9,1.2,19.4,2C518,63.7,500.5,47.2,479,47.2c-20.1,0-36.7,14.5-40.4,33.8
			C443,80.9,447.4,80.9,451.7,80.9"/>
	</g>
</g>
<g>
	<g>
		<defs>
			<path id="SVGID_43_" d="M438.7,81c4.4-0.1,8.7-0.1,13.1-0.1c2.1,0,4.3,0,6.4,0.1c3.3-8.5,11.8-14.8,21.1-14.8
				c10,0,18.8,7.2,21.5,16.9c6.5,0.6,12.9,1.2,19.4,2C518,63.7,500.5,47.2,479,47.2C459,47.2,442.3,61.7,438.7,81"/>
		</defs>
		<clipPath id="SVGID_44_">
			<use xlink:href="#SVGID_43_"  overflow="visible"/>
		</clipPath>
		<rect x="438.7" y="47.2" clip-path="url(#SVGID_44_)" fill="#FFFFFF" width="81.4" height="37.9"/>
	</g>
</g>
<g>
	<g>
		<defs>
			<rect id="SVGID_45_" y="8.1" width="654" height="123.7"/>
		</defs>
		<clipPath id="SVGID_46_">
			<use xlink:href="#SVGID_45_"  overflow="visible"/>
		</clipPath>
		<path clip-path="url(#SVGID_46_)" fill="#FFFFFF" d="M391.2,55.8c0,0,1.4,8.1,1.4,12v16c6.4-0.6,12.8-1.2,19.2-1.5v-15
			c0-0.5-0.1-1.7-0.1-1.7c4.6-1.4,9.6-2.1,14.5-2.1c3.6,0,8.1,0.8,10.6,1.7l5.8-16.5c-4.4-1.1-9.9-1.8-14.7-1.8
			C415,47,402.7,50.9,391.2,55.8"/>
	</g>
</g>
<g>
	<g>
		<defs>
			<path id="SVGID_47_" d="M391.2,55.8c0,0,1.4,8.1,1.4,12v16c6.4-0.6,12.8-1.2,19.2-1.5v-15c0-0.5-0.1-1.7-0.1-1.7
				c4.6-1.4,9.6-2.1,14.5-2.1c3.6,0,8.1,0.8,10.6,1.7l5.8-16.5c-4.4-1.1-9.9-1.8-14.7-1.8C415,47,402.7,50.9,391.2,55.8"/>
		</defs>
		<clipPath id="SVGID_48_">
			<use xlink:href="#SVGID_47_"  overflow="visible"/>
		</clipPath>
		<rect x="391.2" y="47" clip-path="url(#SVGID_48_)" fill="#FFFFFF" width="51.4" height="36.9"/>
	</g>
</g>
<g>
	<g>
		<defs>
			<rect id="SVGID_49_" y="8.1" width="654" height="123.7"/>
		</defs>
		<clipPath id="SVGID_50_">
			<use xlink:href="#SVGID_49_"  overflow="visible"/>
		</clipPath>
		<path clip-path="url(#SVGID_50_)" fill="#FFFFFF" d="M310.6,15.6V98c6.4-1.7,12.8-3.2,19.2-4.5v-24c5.3-3.2,12.2-5.9,18.5-5.9
			c8.1,0,13.5,5.8,13.5,14.6v9.5c6.4-0.9,12.8-1.9,19.2-2.6v-9.7c0-17.8-9.5-28.4-27.4-28.4c-8.2,0-16.4,2.1-23.7,5.3V8.1
			L310.6,15.6z"/>
	</g>
</g>
<g>
	<g>
		<defs>
			<path id="SVGID_51_" d="M329.8,8.1l-19.2,7.5V98c6.4-1.7,12.8-3.2,19.2-4.5v-24c5.3-3.2,12.2-5.9,18.5-5.9
				c8.1,0,13.5,5.8,13.5,14.6v9.5c6.4-0.9,12.8-1.9,19.2-2.6v-9.7c0-17.8-9.5-28.4-27.4-28.4c-8.2,0-16.4,2.1-23.7,5.3V8.1H329.8z"
				/>
		</defs>
		<clipPath id="SVGID_52_">
			<use xlink:href="#SVGID_51_"  overflow="visible"/>
		</clipPath>
		<rect x="310.6" y="8.1" clip-path="url(#SVGID_52_)" fill="#FFFFFF" width="70.5" height="90"/>
	</g>
</g>
<g>
	<g>
		<defs>
			<rect id="SVGID_53_" y="8.1" width="654" height="123.7"/>
		</defs>
		<clipPath id="SVGID_54_">
			<use xlink:href="#SVGID_53_"  overflow="visible"/>
		</clipPath>
		<path clip-path="url(#SVGID_54_)" fill="#FFFFFF" d="M277.1,23l-19.2,7.5V49l-9.1,0.5v15.2l9.1,0.5v44.3c0,1.8,0.1,3.3,0.4,4.9
			c6.2-2.3,12.5-4.5,18.9-6.6V65.4h22.4V48.6h-22.4V23L277.1,23z"/>
	</g>
</g>
<g>
	<g>
		<defs>
			<path id="SVGID_55_" d="M277.1,23l-19.2,7.5V49l-9.1,0.5v15.2l9.1,0.5v44.3c0,1.8,0.1,3.3,0.4,4.9c6.2-2.3,12.5-4.5,18.9-6.6
				V65.4h22.4V48.6h-22.4V23L277.1,23z"/>
		</defs>
		<clipPath id="SVGID_56_">
			<use xlink:href="#SVGID_55_"  overflow="visible"/>
		</clipPath>
		<rect x="248.7" y="23" clip-path="url(#SVGID_56_)" fill="#FFFFFF" width="50.9" height="91.4"/>
	</g>
</g>
<g>
	<g>
		<defs>
			<rect id="SVGID_57_" y="8.1" width="654" height="123.7"/>
		</defs>
		<clipPath id="SVGID_58_">
			<use xlink:href="#SVGID_57_"  overflow="visible"/>
		</clipPath>
		<path clip-path="url(#SVGID_58_)" fill="#FFFFFF" d="M194.7,104.9c0-9,22-5.9,28.6-12.1v16.6c0,1.1,0.1,3.3,0.1,3.3
			c-4.5,1.4-9,2-13.7,2C202.6,114.6,194.7,113.2,194.7,104.9 M180.9,53.9l6.5,14.6c6.8-2.8,15.1-4.9,22.3-4.9
			c4.9,0,13.5,0.6,13.5,7.4c0,14-49.7,2.8-49.7,35.3c0,18.8,20.5,24.5,36,24.5c4.9,0,8.7-0.4,11.9-0.8c7-3.3,14-6.4,21.1-9.4
			c0-0.4,0-3,0-6.2V73.1c0-18.6-12.8-26.1-30-26.1C202.1,47,190.3,49.5,180.9,53.9"/>
	</g>
</g>
<g>
	<g>
		<defs>
			<path id="SVGID_59_" d="M194.7,104.9c0-9,22-5.9,28.6-12.1v16.6c0,1.1,0.1,3.3,0.1,3.3c-4.5,1.4-9,2-13.7,2
				C202.6,114.6,194.7,113.2,194.7,104.9 M180.9,53.9l6.5,14.6c6.8-2.8,15.1-4.9,22.3-4.9c4.9,0,13.5,0.6,13.5,7.4
				c0,14-49.7,2.8-49.7,35.3c0,18.8,20.5,24.5,36,24.5c4.9,0,8.7-0.4,11.9-0.8c7-3.3,14-6.4,21.1-9.4c0-0.4,0-3,0-6.2V73.1
				c0-18.6-12.8-26.1-30-26.1C202.1,47,190.3,49.5,180.9,53.9"/>
		</defs>
		<clipPath id="SVGID_60_">
			<use xlink:href="#SVGID_59_"  overflow="visible"/>
		</clipPath>
		<rect x="173.4" y="47" clip-path="url(#SVGID_60_)" fill="#FFFFFF" width="69" height="83.8"/>
	</g>
</g>
<g>
	<g>
		<defs>
			<rect id="SVGID_61_" y="8.1" width="654" height="123.7"/>
		</defs>
		<clipPath id="SVGID_62_">
			<use xlink:href="#SVGID_61_"  overflow="visible"/>
		</clipPath>
		<polygon clip-path="url(#SVGID_62_)" fill="#FFFFFF" points="0,23.5 0,129 20.1,129 20.1,80.2 68.4,80.2 68.4,129 88.4,129 
			88.4,15.7 68.4,23.6 68.4,63.5 20.1,63.5 20.1,15.6 		"/>
	</g>
</g>
<g>
	<g>
		<defs>
			<polygon id="SVGID_63_" points="0,23.5 0,129 20.1,129 20.1,80.2 68.4,80.2 68.4,129 88.4,129 88.4,15.7 68.4,23.6 68.4,63.5 
				20.1,63.5 20.1,15.6 			"/>
		</defs>
		<clipPath id="SVGID_64_">
			<use xlink:href="#SVGID_63_"  overflow="visible"/>
		</clipPath>
		<rect y="15.6" clip-path="url(#SVGID_64_)" fill="#FFFFFF" width="88.4" height="113.3"/>
	</g>
</g>
</svg>
