<?xml version="1.0" encoding="utf-8"?>
<!-- Generator: Adobe Illustrator 18.1.1, SVG Export Plug-In . SVG Version: 6.00 Build 0)  -->
<svg version="1.0" id="Layer_1" xmlns="http://www.w3.org/2000/svg" xmlns:xlink="http://www.w3.org/1999/xlink" x="0px" y="0px"
	 viewBox="0 0 670.9 182.7" enable-background="new 0 0 670.9 182.7" xml:space="preserve">
<g>
	<defs>
		<rect id="SVGID_1_" width="670.9" height="182.7"/>
	</defs>
	<clipPath id="SVGID_2_">
		<use xlink:href="#SVGID_1_"  overflow="visible"/>
	</clipPath>
	<path clip-path="url(#SVGID_2_)" fill="#FFFFFF" d="M504.6,93.1L504.6,93.1C504.6,93.1,504.6,93.1,504.6,93.1 M504.7,93.1
		C504.6,93.1,504.6,93.1,504.7,93.1l2.9,9.5h19.4l0.1-0.3l1.4-4c-8.1-3.4-16.5-6.5-25-9.3L504.7,93.1z"/>
</g>
<g>
	<defs>
		<path id="SVGID_3_" d="M504.6,93.1L504.6,93.1C504.6,93.1,504.6,93.1,504.6,93.1 M504.7,93.1C504.6,93.1,504.6,93.1,504.7,93.1
			l2.9,9.5h19.4l0.1-0.3l1.4-4c-8.1-3.4-16.5-6.5-25-9.3L504.7,93.1z"/>
	</defs>
	<clipPath id="SVGID_4_">
		<use xlink:href="#SVGID_3_"  overflow="visible"/>
	</clipPath>
	<rect x="503.4" y="88.9" clip-path="url(#SVGID_4_)" fill="#FFFFFF" width="25" height="13.7"/>
</g>
<g>
	<defs>
		<rect id="SVGID_5_" width="670.9" height="182.7"/>
	</defs>
	<clipPath id="SVGID_6_">
		<use xlink:href="#SVGID_5_"  overflow="visible"/>
	</clipPath>
	<path clip-path="url(#SVGID_6_)" fill="#FFFFFF" d="M451.9,79.1C451.9,79.1,451.9,79.1,451.9,79.1l8.4,23.5h19.2l4.4-15l1.3-4.2
		c-11.2-3.1-22.8-5.8-34.6-7.9L451.9,79.1z"/>
</g>
<g>
	<defs>
		<path id="SVGID_7_" d="M451.9,79.1C451.9,79.1,451.9,79.1,451.9,79.1l8.4,23.5h19.2l4.4-15l1.3-4.2c-11.2-3.1-22.8-5.8-34.6-7.9
			L451.9,79.1z"/>
	</defs>
	<clipPath id="SVGID_8_">
		<use xlink:href="#SVGID_7_"  overflow="visible"/>
	</clipPath>
	<rect x="450.6" y="75.4" clip-path="url(#SVGID_8_)" fill="#FFFFFF" width="34.6" height="27.2"/>
</g>
<g>
	<defs>
		<rect id="SVGID_9_" width="670.9" height="182.7"/>
	</defs>
	<clipPath id="SVGID_10_">
		<use xlink:href="#SVGID_9_"  overflow="visible"/>
	</clipPath>
	<path clip-path="url(#SVGID_10_)" fill="#FFFFFF" d="M422.4,71.1c0,0,0,0.1,0,0.1c-1.3,9.3-9.1,16.5-18.6,16.5
		c-10.5,0-19-8.6-19.2-19.4c-5-0.2-10-0.3-15-0.3c-0.3,0-0.5,0-0.8,0c0,0,0,0,0,0.1c0,19.6,15.7,35.4,35.1,35.4
		c16.8,0,30.9-12.4,33.8-28.7c0.1-0.5,0.1-1.1,0.2-1.6C432.9,72.5,427.7,71.8,422.4,71.1"/>
</g>
<g>
	<defs>
		<path id="SVGID_11_" d="M368.9,68.1C368.9,68.1,368.9,68.2,368.9,68.1c0,19.7,15.7,35.5,35.1,35.5c16.8,0,30.9-12.4,33.8-28.7
			c0.1-0.5,0.1-1.1,0.2-1.6c-5.1-0.8-10.3-1.5-15.6-2.1c0,0,0,0.1,0,0.1c-1.3,9.3-9.1,16.5-18.6,16.5c-10.5,0-19-8.6-19.2-19.4
			c-5-0.2-10-0.3-15-0.3C369.4,68.1,369.2,68.1,368.9,68.1"/>
	</defs>
	<clipPath id="SVGID_12_">
		<use xlink:href="#SVGID_11_"  overflow="visible"/>
	</clipPath>
	<rect x="368.9" y="68.1" clip-path="url(#SVGID_12_)" fill="#FFFFFF" width="69.1" height="35.5"/>
</g>
<g>
	<defs>
		<rect id="SVGID_13_" width="670.9" height="182.7"/>
	</defs>
	<clipPath id="SVGID_14_">
		<use xlink:href="#SVGID_13_"  overflow="visible"/>
	</clipPath>
	<path clip-path="url(#SVGID_14_)" fill="#FFFFFF" d="M330.7,69.8v31.9h16.2v-33C341.5,69,336.1,69.4,330.7,69.8"/>
</g>
<g>
	<defs>
		<path id="SVGID_15_" d="M330.7,69.8v31.9h16.2v-33C341.5,69,336.1,69.4,330.7,69.8"/>
	</defs>
	<clipPath id="SVGID_16_">
		<use xlink:href="#SVGID_15_"  overflow="visible"/>
	</clipPath>
	<rect x="330.7" y="68.7" clip-path="url(#SVGID_16_)" fill="#FFFFFF" width="16.2" height="33"/>
</g>
<g>
	<defs>
		<rect id="SVGID_17_" width="670.9" height="182.7"/>
	</defs>
	<clipPath id="SVGID_18_">
		<use xlink:href="#SVGID_17_"  overflow="visible"/>
	</clipPath>
	<path clip-path="url(#SVGID_18_)" fill="#FFFFFF" d="M261.6,81.1v20.7h16.2V77.4C272.3,78.6,266.9,79.8,261.6,81.1"/>
</g>
<g>
	<defs>
		<path id="SVGID_19_" d="M261.6,81.1v20.7h16.2V77.4C272.3,78.6,266.9,79.8,261.6,81.1"/>
	</defs>
	<clipPath id="SVGID_20_">
		<use xlink:href="#SVGID_19_"  overflow="visible"/>
	</clipPath>
	<rect x="261.6" y="77.4" clip-path="url(#SVGID_20_)" fill="#FFFFFF" width="16.2" height="24.3"/>
</g>
<g>
	<defs>
		<rect id="SVGID_21_" width="670.9" height="182.7"/>
	</defs>
	<clipPath id="SVGID_22_">
		<use xlink:href="#SVGID_21_"  overflow="visible"/>
	</clipPath>
	<path clip-path="url(#SVGID_22_)" fill="#FFFFFF" d="M304.7,72.8v28.9h16.2v-31C315.5,71.4,310.1,72.1,304.7,72.8"/>
</g>
<g>
	<defs>
		<path id="SVGID_23_" d="M304.7,72.8v28.9h16.2v-31C315.5,71.4,310.1,72.1,304.7,72.8"/>
	</defs>
	<clipPath id="SVGID_24_">
		<use xlink:href="#SVGID_23_"  overflow="visible"/>
	</clipPath>
	<rect x="304.7" y="70.8" clip-path="url(#SVGID_24_)" fill="#FFFFFF" width="16.2" height="31"/>
</g>
<g>
	<defs>
		<rect id="SVGID_25_" width="670.9" height="182.7"/>
	</defs>
	<clipPath id="SVGID_26_">
		<use xlink:href="#SVGID_25_"  overflow="visible"/>
	</clipPath>
	<path clip-path="url(#SVGID_26_)" fill="#FFFFFF" d="M239.7,90c-2.2,0-3.8-0.5-4.9-1.6c-5.4,1.7-10.7,3.8-16,5.6
		c2.9,7.2,9.9,10.2,19.2,10.2c6.4,0,12.2-1.8,18.1-3.8l-4.5-13.1C247.8,88.6,243.8,90,239.7,90"/>
</g>
<g>
	<defs>
		<path id="SVGID_27_" d="M239.7,90c-2.2,0-3.8-0.5-4.9-1.6c-5.4,1.7-10.7,3.8-16,5.6c2.9,7.2,9.9,10.2,19.2,10.2
			c6.4,0,12.2-1.8,18.1-3.8l-4.5-13.1C247.8,88.6,243.9,90,239.7,90"/>
	</defs>
	<clipPath id="SVGID_28_">
		<use xlink:href="#SVGID_27_"  overflow="visible"/>
	</clipPath>
	<rect x="218.8" y="87.3" clip-path="url(#SVGID_28_)" fill="#FFFFFF" width="37.4" height="16.9"/>
</g>
<g>
	<defs>
		<rect id="SVGID_29_" width="670.9" height="182.7"/>
	</defs>
	<clipPath id="SVGID_30_">
		<use xlink:href="#SVGID_29_"  overflow="visible"/>
	</clipPath>
	<path clip-path="url(#SVGID_30_)" fill="#FFFFFF" d="M113.3,46c9.1,0,13.7,6.6,13.8,15.1H99.2C99.6,53.1,104.6,46,113.3,46
		 M81.8,68.1c0,21,13.8,35.2,34.6,35.2c8,0,16-1.9,23.3-5l-5.1-12.6c-4.9,2.2-11.6,3.5-17.2,3.5c-10,0-17-4.9-18.1-15.3h43.7
		c0.4-3,0.9-6,0.9-8.9c0-18.8-11.2-32.3-30.7-32.3C92.4,32.7,81.8,48.5,81.8,68.1"/>
</g>
<g>
	<defs>
		<path id="SVGID_31_" d="M113.3,46c9.1,0,13.7,6.6,13.8,15.1H99.2C99.6,53.1,104.6,46,113.3,46 M81.8,68.1
			c0,21,13.8,35.2,34.6,35.2c8,0,16-1.9,23.3-5l-5.1-12.6c-4.9,2.2-11.6,3.5-17.2,3.5c-10,0-17-4.9-18.1-15.3h43.7
			c0.4-3,0.9-6,0.9-8.9c0-18.8-11.2-32.3-30.7-32.3C92.4,32.7,81.8,48.5,81.8,68.1"/>
	</defs>
	<clipPath id="SVGID_32_">
		<use xlink:href="#SVGID_31_"  overflow="visible"/>
	</clipPath>
	<rect x="81.8" y="32.7" clip-path="url(#SVGID_32_)" fill="#FFFFFF" width="62.1" height="70.6"/>
</g>
<g>
	<defs>
		<rect id="SVGID_33_" width="670.9" height="182.7"/>
	</defs>
	<clipPath id="SVGID_34_">
		<use xlink:href="#SVGID_33_"  overflow="visible"/>
	</clipPath>
	<path clip-path="url(#SVGID_34_)" fill="#FFFFFF" d="M436,34.3L447.3,66c6.5,0.9,13,2,19.4,3.2L455,34.3H436z"/>
</g>
<g>
	<defs>
		<path id="SVGID_35_" d="M436,34.3L447.3,66c6.5,0.9,13,2,19.4,3.2L455,34.3H436z"/>
	</defs>
	<clipPath id="SVGID_36_">
		<use xlink:href="#SVGID_35_"  overflow="visible"/>
	</clipPath>
	<rect x="436" y="34.3" clip-path="url(#SVGID_36_)" fill="#FFFFFF" width="30.6" height="34.9"/>
</g>
<g>
	<defs>
		<rect id="SVGID_37_" width="670.9" height="182.7"/>
	</defs>
	<clipPath id="SVGID_38_">
		<use xlink:href="#SVGID_37_"  overflow="visible"/>
	</clipPath>
	<path clip-path="url(#SVGID_38_)" fill="#FFFFFF" d="M533.3,34.3l-15.1,46.9l-17-46.9h-15.4l-13.1,36.2c5.1,1.1,10.2,2.2,15.2,3.5
		l5.4-18.2l6.4,21.3c11,3.1,21.8,6.7,32.3,10.7l18.8-53.4H533.3z"/>
</g>
<g>
	<defs>
		<path id="SVGID_39_" d="M533.3,34.3l-15.1,46.9l-17-46.9h-15.4l-13.1,36.2c5.1,1.1,10.2,2.2,15.2,3.5l5.4-18.2l6.4,21.3
			c11,3.1,21.8,6.7,32.3,10.7l18.8-53.4H533.3z"/>
	</defs>
	<clipPath id="SVGID_40_">
		<use xlink:href="#SVGID_39_"  overflow="visible"/>
	</clipPath>
	<rect x="472.8" y="34.3" clip-path="url(#SVGID_40_)" fill="#FFFFFF" width="78.2" height="53.4"/>
</g>
<g>
	<defs>
		<rect id="SVGID_41_" width="670.9" height="182.7"/>
	</defs>
	<clipPath id="SVGID_42_">
		<use xlink:href="#SVGID_41_"  overflow="visible"/>
	</clipPath>
	<path clip-path="url(#SVGID_42_)" fill="#FFFFFF" d="M380.5,61.3c1.8,0,3.6,0,5.4,0.1c2.8-7.2,9.9-12.5,17.8-12.5
		c8.4,0,15.8,6.1,18.1,14.2c5.5,0.5,10.9,1,16.3,1.7c-1.8-18-16.5-31.9-34.6-31.9c-16.9,0-30.9,12.2-34,28.5
		C373.2,61.3,376.9,61.3,380.5,61.3"/>
</g>
<g>
	<defs>
		<path id="SVGID_43_" d="M369.5,61.4c3.7-0.1,7.3-0.1,11-0.1c1.8,0,3.6,0,5.4,0.1c2.8-7.2,9.9-12.5,17.8-12.5
			c8.4,0,15.8,6.1,18.1,14.2c5.5,0.5,10.9,1,16.3,1.7c-1.8-18-16.5-31.9-34.6-31.9C386.6,32.9,372.6,45.1,369.5,61.4"/>
	</defs>
	<clipPath id="SVGID_44_">
		<use xlink:href="#SVGID_43_"  overflow="visible"/>
	</clipPath>
	<rect x="369.5" y="32.9" clip-path="url(#SVGID_44_)" fill="#FFFFFF" width="68.6" height="31.9"/>
</g>
<g>
	<defs>
		<rect id="SVGID_45_" width="670.9" height="182.7"/>
	</defs>
	<clipPath id="SVGID_46_">
		<use xlink:href="#SVGID_45_"  overflow="visible"/>
	</clipPath>
	<path clip-path="url(#SVGID_46_)" fill="#FFFFFF" d="M329.5,40.1c0,0,1.2,6.8,1.2,10.1v13.5c5.4-0.5,10.8-1,16.2-1.3V49.8
		c0-0.4-0.1-1.4-0.1-1.4c3.9-1.2,8.1-1.8,12.2-1.8c3,0,6.8,0.7,8.9,1.4l4.9-13.9c-3.7-0.9-8.3-1.5-12.4-1.5
		C349.6,32.7,339.2,36,329.5,40.1"/>
</g>
<g>
	<defs>
		<path id="SVGID_47_" d="M329.5,40.1c0,0,1.2,6.8,1.2,10.1v13.5c5.4-0.5,10.8-1,16.2-1.3V49.8c0-0.4-0.1-1.4-0.1-1.4
			c3.9-1.2,8.1-1.8,12.2-1.8c3,0,6.8,0.7,8.9,1.4l4.9-13.9c-3.7-0.9-8.3-1.5-12.4-1.5C349.6,32.7,339.2,36,329.5,40.1"/>
	</defs>
	<clipPath id="SVGID_48_">
		<use xlink:href="#SVGID_47_"  overflow="visible"/>
	</clipPath>
	<rect x="329.5" y="32.7" clip-path="url(#SVGID_48_)" fill="#FFFFFF" width="43.3" height="31.1"/>
</g>
<g>
	<defs>
		<rect id="SVGID_49_" width="670.9" height="182.7"/>
	</defs>
	<clipPath id="SVGID_50_">
		<use xlink:href="#SVGID_49_"  overflow="visible"/>
	</clipPath>
	<path clip-path="url(#SVGID_50_)" fill="#FFFFFF" d="M261.6,6.3v69.4c5.4-1.4,10.8-2.7,16.2-3.8V51.7c4.5-2.7,10.3-5,15.6-5
		c6.8,0,11.4,4.9,11.4,12.3v8c5.4-0.8,10.8-1.6,16.2-2.2v-8.2c0-15-8-23.9-23.1-23.9c-6.9,0-13.8,1.8-20,4.5V0L261.6,6.3z"/>
</g>
<g>
	<defs>
		<path id="SVGID_51_" d="M277.8,0l-16.2,6.3v69.4c5.4-1.4,10.8-2.7,16.2-3.8V51.7c4.5-2.7,10.3-5,15.6-5c6.8,0,11.4,4.9,11.4,12.3
			v8c5.4-0.8,10.8-1.6,16.2-2.2v-8.2c0-15-8-23.9-23.1-23.9c-6.9,0-13.8,1.8-20,4.5V0z"/>
	</defs>
	<clipPath id="SVGID_52_">
		<use xlink:href="#SVGID_51_"  overflow="visible"/>
	</clipPath>
	<rect x="261.6" y="0" clip-path="url(#SVGID_52_)" fill="#FFFFFF" width="59.4" height="75.8"/>
</g>
<g>
	<defs>
		<rect id="SVGID_53_" width="670.9" height="182.7"/>
	</defs>
	<clipPath id="SVGID_54_">
		<use xlink:href="#SVGID_53_"  overflow="visible"/>
	</clipPath>
	<path clip-path="url(#SVGID_54_)" fill="#FFFFFF" d="M233.4,12.5l-16.2,6.3v15.6l-7.7,0.4v12.8l7.7,0.4v37.3c0,1.5,0.1,2.8,0.3,4.1
		c5.2-1.9,10.5-3.8,15.9-5.6V48.2h18.9V34.1h-18.9L233.4,12.5L233.4,12.5z"/>
</g>
<g>
	<defs>
		<path id="SVGID_55_" d="M233.4,12.5l-16.2,6.3v15.6l-7.7,0.4v12.8l7.7,0.4v37.3c0,1.5,0.1,2.8,0.3,4.1c5.2-1.9,10.5-3.8,15.9-5.6
			V48.2h18.9V34.1h-18.9L233.4,12.5L233.4,12.5z"/>
	</defs>
	<clipPath id="SVGID_56_">
		<use xlink:href="#SVGID_55_"  overflow="visible"/>
	</clipPath>
	<rect x="209.5" y="12.5" clip-path="url(#SVGID_56_)" fill="#FFFFFF" width="42.9" height="77"/>
</g>
<g>
	<defs>
		<rect id="SVGID_57_" width="670.9" height="182.7"/>
	</defs>
	<clipPath id="SVGID_58_">
		<use xlink:href="#SVGID_57_"  overflow="visible"/>
	</clipPath>
	<path clip-path="url(#SVGID_58_)" fill="#FFFFFF" d="M164,81.5c0-7.6,18.5-5,24.1-10.2v14c0,0.9,0.1,2.8,0.1,2.8
		c-3.8,1.2-7.6,1.7-11.5,1.7C170.7,89.7,164,88.5,164,81.5 M152.4,38.5l5.5,12.3c5.7-2.4,12.7-4.1,18.8-4.1c4.1,0,11.4,0.5,11.4,6.2
		c0,11.8-41.9,2.4-41.9,29.7c0,15.8,17.3,20.6,30.3,20.6c4.1,0,7.3-0.3,10-0.7c5.9-2.8,11.8-5.4,17.8-7.9c0-0.3,0-2.5,0-5.2V54.7
		c0-15.7-10.8-22-25.3-22C170.2,32.7,160.3,34.8,152.4,38.5"/>
</g>
<g>
	<defs>
		<path id="SVGID_59_" d="M164,81.5c0-7.6,18.5-5,24.1-10.2v14c0,0.9,0.1,2.8,0.1,2.8c-3.8,1.2-7.6,1.7-11.5,1.7
			C170.7,89.7,164,88.5,164,81.5 M152.4,38.5l5.5,12.3c5.7-2.4,12.7-4.1,18.8-4.1c4.1,0,11.4,0.5,11.4,6.2
			c0,11.8-41.9,2.4-41.9,29.7c0,15.8,17.3,20.6,30.3,20.6c4.1,0,7.3-0.3,10-0.7c5.9-2.8,11.8-5.4,17.8-7.9c0-0.3,0-2.5,0-5.2V54.7
			c0-15.7-10.8-22-25.3-22C170.2,32.7,160.3,34.8,152.4,38.5"/>
	</defs>
	<clipPath id="SVGID_60_">
		<use xlink:href="#SVGID_59_"  overflow="visible"/>
	</clipPath>
	<rect x="146.1" y="32.7" clip-path="url(#SVGID_60_)" fill="#FFFFFF" width="58.1" height="70.6"/>
</g>
<g>
	<defs>
		<rect id="SVGID_61_" width="670.9" height="182.7"/>
	</defs>
	<clipPath id="SVGID_62_">
		<use xlink:href="#SVGID_61_"  overflow="visible"/>
	</clipPath>
	<polygon clip-path="url(#SVGID_62_)" fill="#FFFFFF" points="0,13 0,101.8 16.9,101.8 16.9,60.7 57.6,60.7 57.6,101.8 74.5,101.8 
		74.5,6.4 57.6,13 57.6,46.6 16.9,46.6 16.9,6.3 	"/>
</g>
<g>
	<defs>
		<polygon id="SVGID_63_" points="0,13 0,101.8 16.9,101.8 16.9,60.7 57.6,60.7 57.6,101.8 74.5,101.8 74.5,6.4 57.6,13 57.6,46.6 
			16.9,46.6 16.9,6.3 		"/>
	</defs>
	<clipPath id="SVGID_64_">
		<use xlink:href="#SVGID_63_"  overflow="visible"/>
	</clipPath>
	<rect y="6.3" clip-path="url(#SVGID_64_)" fill="#FFFFFF" width="74.5" height="95.4"/>
</g>
<g>
	<defs>
		<rect id="SVGID_65_" width="670.9" height="182.7"/>
	</defs>
	<clipPath id="SVGID_66_">
		<use xlink:href="#SVGID_65_"  overflow="visible"/>
	</clipPath>
	<path clip-path="url(#SVGID_66_)" fill="#FFFFFF" d="M35.9,169.2l4.3-35.3H40c0,0-0.7,1.4-1.1,2L22.2,160c-2,0.1-3-1.9-3.6-3.3
		l-9.3-20.9c-0.3-0.7-0.6-2-0.6-2H8.5l-4.3,35.3H0l4.7-38.9h6.5l9.9,22.4c0.3,0.6,0.6,2,0.6,2h0.2c0,0,0.6-1.4,1.1-2
		c0,0,10.3-15.1,15.4-22.4h6.5l-4.7,38.9H35.9z"/>
	<path clip-path="url(#SVGID_66_)" fill="#FFFFFF" d="M56.6,169.8c-5.9,0-12-2-11.3-8c0.7-5.6,5.8-7.5,10.9-8.5
		c5-1,9.9-1.5,10.4-5.3c0.5-3.9-2.9-4.9-6.5-4.9c-2.5,0-5.8,0.9-8,1.8l-0.9-2.8c2.9-1.1,6.6-2,9.6-2c6.6,0,10.3,2.6,9.5,8.8
		L68.5,164c-0.1,1.1,0,3.7,0,3.7C64.7,168.9,60.5,169.8,56.6,169.8 M64.6,163.7l1.3-10.4c-1.3,0.9-2.5,1.3-4.2,1.7
		c-4.2,1.1-11.5,1.4-12.1,6.6c-0.5,4.1,3.5,5.2,7.7,5.2c2.6,0,5.5-0.5,7.3-1.1C64.6,165.6,64.5,164.7,64.6,163.7"/>
	<path clip-path="url(#SVGID_66_)" fill="#FFFFFF" d="M93.8,169.2l-11.9-12.7c-0.7-0.8-1.5-1.6-2.4-2.2l-1.8,14.9h-3.8l5-41.8h3.9
		l-3,24.5l15.5-11.2h5.4L83,153.2c1,0.3,1.8,0.9,2.5,1.5l13.7,14.4H93.8z"/>
	<path clip-path="url(#SVGID_66_)" fill="#FFFFFF" d="M102.5,169.2l3.4-28.5h3.8l-3.4,28.5H102.5z M108.7,133.2
		c-1.5,0-2.6-0.9-2.4-2.3c0.2-1.4,1.5-2.3,3-2.3c1.5,0,2.7,0.9,2.5,2.3C111.6,132.4,110.1,133.2,108.7,133.2"/>
	<path clip-path="url(#SVGID_66_)" fill="#FFFFFF" d="M133.6,169.2l2.3-18.8c0.6-4.6-1.6-7.3-6.8-7.3c-3.1,0-6.5,0.8-9.2,1.8
		c0,0,0,1.1-0.1,1.7l-2.7,22.5h-3.8l2.7-22.4c0.1-1.2,0.1-3.6,0.1-3.6c4.2-1.6,9.3-3,13.9-3c6.8,0,10.7,3.2,10,9.5l-2.4,19.6H133.6z
		"/>
	<path clip-path="url(#SVGID_66_)" fill="#FFFFFF" d="M152.9,182.7c-5.4,0-14.1-1.5-13.3-7.9c0.5-4.2,4.6-6.6,8.8-7.7
		c-1-0.9-1.5-2-1.4-3.4c0.2-1.7,1.9-3.3,3.5-4c-4.2-1.6-6.4-5.2-5.9-9.4c0.8-6.4,6.6-10.2,13.3-10.2c0.9,0,1.8,0.1,2.7,0.3
		c0.7,0.1,1.5,0.3,2.3,0.3h9.3l-0.4,2.9c-1.6,0-3.9,0.1-5.4-0.4c0,0.1-0.1,0.1-0.1,0.1c1.8,1.9,2.8,4.4,2.4,7
		c-0.8,6.3-6.5,10.3-13.3,10.3c-0.8,0-1.7-0.1-2.5-0.2c-1,0.7-2,1.4-2.1,2.6c-0.6,5.3,19,0.6,17.7,11.1
		C167.8,180.8,159,182.7,152.9,182.7 M151,168.5c-3.2,0.9-7,2.6-7.4,5.9c-0.5,4.3,6.1,5.2,9.7,5.2c3.7,0,10.5-1,11.1-5.3
		C165,169.1,154.8,169.5,151,168.5 M157.7,143c-4.9,0-8.6,2.7-9.1,7.2c-0.5,4.5,2.5,7.3,7.4,7.3c4.9,0,8.5-2.8,9-7.3
		C165.5,145.8,162.6,143,157.7,143"/>
	<path clip-path="url(#SVGID_66_)" fill="#FFFFFF" d="M211.6,156h-21.7c-0.7,7.3,4.1,10.8,10.3,10.8c2.1,0,4.5-0.4,6.8-1.2l0.8,2.6
		c-2.8,1.1-5.9,1.7-8.8,1.7c-9.6,0-14.1-6.8-13.1-15c0.9-7.3,5.8-14.7,14.9-14.7c8.6,0,12.3,6.2,11.4,13.4
		C212,154.2,211.8,155,211.6,156 M200.4,143.1c-5.8,0-9.4,4.5-10.1,9.9h17.6C208.5,148.1,206.6,143.1,200.4,143.1"/>
	<path clip-path="url(#SVGID_66_)" fill="#FFFFFF" d="M226.9,169.8c-2.8,0-3.9-2-4.3-3.5l-8-25.6h4.4c2.3,8.1,6.9,24.3,6.9,24.3h0.2
		c0-0.4,0.5-1.1,0.7-1.5l12.2-22.8h4.2L226.9,169.8z"/>
	<path clip-path="url(#SVGID_66_)" fill="#FFFFFF" d="M268.3,156h-21.7c-0.7,7.3,4.1,10.8,10.3,10.8c2.1,0,4.5-0.4,6.8-1.2l0.8,2.6
		c-2.8,1.1-5.9,1.7-8.8,1.7c-9.6,0-14.1-6.8-13.1-15c0.9-7.3,5.8-14.7,14.9-14.7c8.6,0,12.3,6.2,11.4,13.4
		C268.7,154.2,268.5,155,268.3,156 M257.1,143.1c-5.8,0-9.4,4.5-10.1,9.9h17.6C265.2,148.1,263.3,143.1,257.1,143.1"/>
	<path clip-path="url(#SVGID_66_)" fill="#FFFFFF" d="M287.5,143.5c-1.1-0.2-2.1-0.3-3.2-0.3c-2.3,0-4.8,0.5-7,1.3
		c0,0,0,1.3-0.1,1.9l-2.7,22.7h-3.8l2.7-22.6c0.1-1.3,0.1-3.7,0.1-3.7c3.9-1.5,8-2.8,12.1-2.8c1.2,0,2.4,0.1,3.5,0.3L287.5,143.5z"
		/>
	<path clip-path="url(#SVGID_66_)" fill="#FFFFFF" d="M305.1,169.9c-2.7,5.6-7.6,11.1-13.3,12.6l-1.2-2.7c5.4-1.7,8.8-6.1,10.7-10.1
		c0,0-1.6,0.1-2.3-2.3l-8.4-26.7h4.4l7.7,25.7h0.1l12.4-25.7h4.1L305.1,169.9z"/>
	<path clip-path="url(#SVGID_66_)" fill="#FFFFFF" d="M332.3,179.7c-1.1,1.1-2.3,2.2-3.6,3l-1.9-2.2c4.3-3.2,5.2-5.7,5.7-9.9
		l3.6-29.9h3.9l-3.5,28.6C335.9,173.2,335.3,176.5,332.3,179.7 M338.7,133.2c-1.5,0-2.6-0.9-2.4-2.3c0.2-1.4,1.5-2.3,3-2.3
		c1.5,0,2.6,0.9,2.4,2.3C341.5,132.4,340.1,133.2,338.7,133.2"/>
	<path clip-path="url(#SVGID_66_)" fill="#FFFFFF" d="M356.5,169.8c-8.7,0-14-6.1-13-14.9c1.1-8.8,7.9-14.9,16.6-14.9
		c8.7,0,14,6.1,13,14.9C372,163.7,365.2,169.8,356.5,169.8 M359.7,143.1c-6.5,0-11,4.7-11.9,11.8c-0.9,7.1,2.5,11.8,9.1,11.8
		c6.5,0,11-4.7,11.9-11.8C369.6,147.8,366.2,143.1,359.7,143.1"/>
	<path clip-path="url(#SVGID_66_)" fill="#FFFFFF" d="M387.1,169.8c-6.8,0-10.7-3.2-10-9.5l2.4-19.6h3.8l-2.3,18.8
		c-0.6,4.6,1.6,7.3,6.8,7.3c3.1,0,6.5-0.7,9.2-1.8c0,0,0-1.1,0.1-1.7l2.7-22.6h3.9l-2.7,22.5c-0.1,1.2-0.1,3.6-0.1,3.6
		C396.7,168.4,391.6,169.8,387.1,169.8"/>
	<path clip-path="url(#SVGID_66_)" fill="#FFFFFF" d="M424.2,143.5c-1.1-0.2-2.1-0.3-3.2-0.3c-2.3,0-4.8,0.5-7,1.3
		c0,0,0,1.3-0.1,1.9l-2.7,22.7h-3.9l2.7-22.6c0.1-1.3,0.1-3.7,0.1-3.7c3.9-1.5,8-2.8,12.1-2.8c1.2,0,2.4,0.1,3.5,0.3L424.2,143.5z"
		/>
	<path clip-path="url(#SVGID_66_)" fill="#FFFFFF" d="M446.9,169.2l2.3-18.8c0.6-4.6-1.6-7.3-6.8-7.3c-3.1,0-6.5,0.8-9.2,1.8
		c0,0,0,1.1-0.1,1.7l-2.7,22.5h-3.8l2.7-22.4c0.1-1.2,0.1-3.6,0.1-3.6c4.2-1.6,9.3-3,13.9-3c6.8,0,10.7,3.2,10,9.5l-2.4,19.6H446.9z
		"/>
	<path clip-path="url(#SVGID_66_)" fill="#FFFFFF" d="M482.7,156H461c-0.7,7.3,4.1,10.8,10.3,10.8c2.1,0,4.5-0.4,6.8-1.2l0.8,2.6
		c-2.8,1.1-5.9,1.7-8.8,1.7c-9.6,0-14.1-6.8-13.1-15c0.9-7.3,5.8-14.7,14.9-14.7c8.6,0,12.3,6.2,11.4,13.4
		C483.1,154.2,482.9,155,482.7,156 M471.5,143.1c-5.8,0-9.4,4.5-10.1,9.9H479C479.6,148.1,477.7,143.1,471.5,143.1"/>
	<path clip-path="url(#SVGID_66_)" fill="#FFFFFF" d="M499.9,169.9c-2.7,5.6-7.6,11.1-13.3,12.6l-1.2-2.7c5.4-1.7,8.8-6.1,10.7-10.1
		c0,0-1.6,0.1-2.3-2.3l-8.4-26.7h4.4l7.7,25.7h0.1l12.4-25.7h4.1L499.9,169.9z"/>
	<path clip-path="url(#SVGID_66_)" fill="#FFFFFF" d="M537.3,169.8c-3.5,0-6.9-0.7-10-1.9c0,0,0.6-2.3,0.7-3.4l4.5-37.1h3.9
		l-1.7,14.2c2.3-1,4.9-1.5,7.3-1.5c9.7,0,13.7,6.5,12.7,14.6C553.6,163.2,547.2,169.8,537.3,169.8 M541.3,143.1c-2.2,0-5,0.6-7,1.9
		l-2.4,19.6c-0.1,0.6-0.2,1.1-0.2,1.1c1.6,0.6,4,1,5.8,1c7.8,0,12-5.7,12.8-12.1C551,148.7,548.8,143.1,541.3,143.1"/>
	<path clip-path="url(#SVGID_66_)" fill="#FFFFFF" d="M583.8,156h-21.7c-0.7,7.3,4.1,10.8,10.3,10.8c2.1,0,4.5-0.4,6.8-1.2l0.8,2.6
		c-2.8,1.1-5.9,1.7-8.8,1.7c-9.6,0-14.1-6.8-13.1-15c0.9-7.3,5.7-14.7,14.9-14.7c8.6,0,12.3,6.2,11.4,13.4
		C584.2,154.2,584.1,155,583.8,156 M572.6,143.1c-5.8,0-9.4,4.5-10.1,9.9h17.6C580.7,148.1,578.8,143.1,572.6,143.1"/>
	<path clip-path="url(#SVGID_66_)" fill="#FFFFFF" d="M595.7,169.8c-5,0-7.6-2.2-7.1-6.8l2.3-19.3l-3.6-0.2l0.3-2.7l3.6-0.2l0.9-7.8
		h3.8l-0.9,7.8h15l-0.4,3h-15l-2.3,19.3c-0.3,2.3,0.9,3.8,3.6,3.8c2,0,4.2-0.6,6.1-1.1l0.6,2.8C600.6,169.2,597.9,169.8,595.7,169.8
		"/>
	<path clip-path="url(#SVGID_66_)" fill="#FFFFFF" d="M614.4,169.8c-5,0-7.6-2.2-7.1-6.8l2.3-19.3l-3.6-0.2l0.3-2.7l3.6-0.2l0.9-7.8
		h3.9l-0.9,7.8h9.5l-0.4,3h-9.5l-2.3,19.3c-0.3,2.3,0.9,3.8,3.6,3.8c2,0,4.2-0.6,6.1-1.1l0.6,2.8
		C619.3,169.2,616.6,169.8,614.4,169.8"/>
	<path clip-path="url(#SVGID_66_)" fill="#FFFFFF" d="M649.2,156h-21.7c-0.7,7.3,4.1,10.8,10.3,10.8c2.1,0,4.5-0.4,6.8-1.2l0.8,2.6
		c-2.8,1.1-5.9,1.7-8.8,1.7c-9.6,0-14.1-6.8-13.1-15c0.9-7.3,5.8-14.7,14.9-14.7c8.6,0,12.3,6.2,11.4,13.4
		C649.6,154.2,649.4,155,649.2,156 M638,143.1c-5.8,0-9.4,4.5-10.1,9.9h17.6C646.1,148.1,644.2,143.1,638,143.1"/>
	<path clip-path="url(#SVGID_66_)" fill="#FFFFFF" d="M669.4,143.5c-1.1-0.2-2.1-0.3-3.2-0.3c-2.3,0-4.8,0.5-7,1.3
		c0,0,0,1.3-0.1,1.9l-2.7,22.7h-3.9l2.7-22.6c0.2-1.3,0.1-3.7,0.1-3.7c3.9-1.5,8-2.8,12.1-2.8c1.2,0,2.4,0.1,3.5,0.3L669.4,143.5z"
		/>
</g>
</svg>
