<?xml version="1.0" encoding="utf-8"?>
<!-- Generator: Adobe Illustrator 18.1.1, SVG Export Plug-In . SVG Version: 6.00 Build 0)  -->
<svg version="1.0" id="Objects" xmlns="http://www.w3.org/2000/svg" xmlns:xlink="http://www.w3.org/1999/xlink" x="0px" y="0px"
	 viewBox="0 0 234.9 146" enable-background="new 0 0 234.9 146" xml:space="preserve">
<path opacity="0.8" fill="#6C4D8B" d="M2.5,114h57.6c12.8,17.9,33.7,29.5,57.3,29.5c23.6,0,44.5-11.6,57.3-29.5h57.6V32h-57.6
	C162,14.1,141.1,2.5,117.5,2.5C93.8,2.5,72.9,14.1,60.1,32H2.5V114z"/>
<path fill="none" stroke="#FFFFFF" stroke-width="5" stroke-miterlimit="10" d="M2.5,114h57.6c12.8,17.9,33.7,29.5,57.3,29.5
	c23.6,0,44.5-11.6,57.3-29.5h57.6V32h-57.6C162,14.1,141.1,2.5,117.5,2.5C93.8,2.5,72.9,14.1,60.1,32H2.5V114z"/>
<g>
	<path fill="#FFFFFF" d="M19.4,92.3V58.7h-5.8v-6h19.5v6h-5.7v33.6H19.4z"/>
	<path fill="#FFFFFF" d="M35.2,92.3V52.7h8.7c2,0,3.7,0.2,5.2,0.6c1.5,0.4,2.8,1,3.9,1.8c1.1,0.8,2,1.9,2.6,3.2
		c0.6,1.4,0.9,3,0.9,4.9c0,0.8,0,1.6-0.1,2.2s-0.2,1.4-0.4,2.2s-0.5,1.6-0.9,2.2c-0.4,0.6-0.9,1.3-1.6,1.9c-0.7,0.6-1.5,1.1-2.4,1.5
		c2.4,7.5,4.4,13.9,6.2,19.1H49l-4.5-18.2h-1.3v18.2H35.2z M43.2,69.2h2.3c0.6,0,1.1-0.2,1.6-0.6c0.4-0.4,0.8-0.9,1-1.6
		c0.2-0.6,0.3-1.2,0.4-1.7c0.1-0.5,0.1-1,0.1-1.5c0-0.5,0-1-0.1-1.5s-0.2-1.1-0.4-1.7c-0.2-0.6-0.4-1.1-0.8-1.5
		c-0.4-0.4-0.9-0.6-1.4-0.6h-2.7V69.2z"/>
	<path fill="#FFFFFF" d="M87,92.3l-7.3-39.6h7.6l3.5,24l3.9-24h7.5l-7.8,39.6H87z"/>
	<path fill="#FFFFFF" d="M104.2,92.3V52.7h16.5v5.5h-8.5V69h6v5.6h-6v12.2h8.5v5.5H104.2z"/>
	<path fill="#FFFFFF" d="M123,92.3V52.7h8v34.1h7.9v5.5H123z"/>
	<path fill="#FFFFFF" d="M140.8,92.3V52.7h8v34.1h7.9v5.5H140.8z"/>
	<path fill="#FFFFFF" d="M158.7,92.3V52.7h16.5v5.5h-8.5V69h6v5.6h-6v12.2h8.5v5.5H158.7z"/>
	<path fill="#FFFFFF" d="M200.2,81l8.1-1.6c0,0.8,0,1.5,0,2.1c0,0.6,0.1,1.3,0.2,2c0.1,0.7,0.3,1.3,0.5,1.8s0.5,0.9,0.9,1.2
		c0.4,0.3,0.8,0.5,1.4,0.5c1.6,0,2.4-1,2.4-3c0-2.8-1.6-5.5-4.7-8.3l-2.5-2.1c-0.8-0.7-1.4-1.2-1.9-1.6s-1-1-1.7-1.8
		s-1.1-1.5-1.5-2.2c-0.4-0.7-0.7-1.5-0.9-2.5c-0.3-1-0.4-2-0.4-3.1c0-3.2,1-5.8,3.1-7.6c2-1.9,4.7-2.8,8.1-2.8c2.8,0,5.2,1,7.1,3
		c2,2,2.9,4.4,2.9,7.2l0,0.3c0,0.2,0,0.4,0,0.7l-8.3,1.1c0-0.2,0-0.4,0-0.8c0-0.3,0-0.6,0-0.8c0-0.5,0-1-0.1-1.5
		c-0.1-0.5-0.2-1-0.4-1.5c-0.2-0.5-0.4-0.9-0.8-1.2s-0.8-0.4-1.3-0.4c-0.9,0-1.5,0.3-2,1c-0.4,0.7-0.7,1.5-0.7,2.4
		c0,0.8,0.1,1.6,0.4,2.3c0.3,0.7,0.6,1.4,1.2,2s1,1.1,1.4,1.5c0.4,0.4,1,0.9,1.8,1.5c0.7,0.6,1.3,1,1.6,1.3c1.1,1,2.1,1.9,2.9,2.8
		s1.5,1.9,2.2,3c0.7,1.1,1.2,2.3,1.5,3.6c0.3,1.3,0.5,2.7,0.5,4.1c0,2.8-1,5-3,6.8c-2,1.8-4.4,2.6-7.2,2.6c-1.8,0-3.5-0.3-4.9-1
		c-1.4-0.7-2.6-1.6-3.4-2.7c-0.9-1.2-1.5-2.4-2-3.8C200.5,84.1,200.2,82.6,200.2,81z"/>
</g>
<line fill="none" stroke="#FFFFFF" stroke-width="5" stroke-miterlimit="10" x1="169.8" y1="99.4" x2="65.5" y2="99.4"/>
<line fill="none" stroke="#FFFFFF" stroke-width="5" stroke-miterlimit="10" x1="157.8" y1="45.3" x2="73.5" y2="45.3"/>
<g>
	<path fill="#FFFFFF" d="M75.7,33.8H77l0.9,2.4c0.2,0.2,0.4,0.4,0.7,0.6c0.3,0.1,0.5,0.3,0.8,0.3c0.3,0.1,0.6,0.1,0.9,0.2
		c0.3,0,0.6,0,0.9,0c0.3,0,0.7,0,1-0.1c0.3-0.1,0.6-0.2,0.9-0.4c0.3-0.2,0.5-0.5,0.7-0.8s0.3-0.7,0.3-1.2c0-0.4-0.1-0.8-0.3-1.1
		c-0.2-0.3-0.5-0.6-0.9-0.9c-0.4-0.3-0.8-0.6-1.3-0.8c-0.5-0.3-1-0.5-1.5-0.8c-0.5-0.3-1.1-0.6-1.6-0.9c-0.5-0.3-1-0.7-1.4-1.1
		c-0.4-0.4-0.7-0.8-1-1.3c-0.3-0.5-0.4-1-0.4-1.7c0-0.5,0.1-0.9,0.2-1.4c0.2-0.4,0.4-0.8,0.6-1.1c0.3-0.3,0.6-0.6,0.9-0.8
		c0.4-0.2,0.7-0.4,1.1-0.6c0.4-0.2,0.8-0.3,1.3-0.4s0.9-0.1,1.3-0.1c0.6,0,1.1,0,1.6,0.1c0.5,0.1,1,0.1,1.4,0.2
		c0.4,0.1,0.8,0.2,1.1,0.3s0.5,0.2,0.6,0.3v3.3h-1.4l-0.9-2.2c-0.1-0.1-0.2-0.1-0.3-0.2c-0.2-0.1-0.3-0.1-0.5-0.2
		c-0.2-0.1-0.4-0.1-0.7-0.1c-0.2,0-0.5,0-0.7,0c-0.3,0-0.6,0-0.9,0.1c-0.3,0.1-0.6,0.2-0.9,0.4c-0.3,0.2-0.5,0.4-0.7,0.7
		c-0.2,0.3-0.3,0.6-0.3,1.1c0,0.4,0.1,0.8,0.3,1.1c0.2,0.3,0.4,0.6,0.7,0.9c0.3,0.3,0.7,0.6,1.1,0.8s0.8,0.5,1.3,0.7
		c0.4,0.2,0.8,0.4,1.2,0.7c0.4,0.2,0.8,0.4,1.2,0.7s0.7,0.5,1.1,0.8c0.3,0.3,0.6,0.6,0.9,0.9c0.2,0.3,0.4,0.7,0.6,1s0.2,0.8,0.2,1.2
		c0,0.7-0.1,1.4-0.4,2s-0.7,1.1-1.2,1.5c-0.5,0.4-1.2,0.7-1.9,0.9c-0.7,0.2-1.6,0.3-2.4,0.3c-0.5,0-1,0-1.6-0.1
		c-0.5-0.1-1-0.1-1.5-0.2c-0.5-0.1-0.9-0.2-1.3-0.3s-0.7-0.2-0.9-0.4V33.8z"/>
	<path fill="#FFFFFF" d="M88.6,37.2l1.8-0.4l0.9-13.2l-2-0.2v-1.6h6.3l3.1,9.9l0.4,2l0.5-2l3-9.9h5.8v1.6l-2,0.2l1.1,13.2l1.8,0.4
		v1.2h-6.5v-1.2l1.8-0.4l-0.7-9l-0.1-4.1l-0.4,1.6l-4.1,13.3h-1.1l-3.8-11.1c0-0.1-0.1-0.3-0.2-0.6c-0.1-0.3-0.2-0.6-0.3-1
		s-0.2-0.7-0.4-1.1c-0.1-0.4-0.2-0.8-0.4-1.1L93.1,27l-0.4,9.8l2,0.4v1.2h-6.1V37.2z"/>
	<path fill="#FFFFFF" d="M109.7,37.2l1.5-0.4l5.4-15h2.8l5.2,15l1.7,0.4v1.2h-6.6v-1.2l1.6-0.4l-0.7-2.4h-6.1l-0.8,2.4l1.7,0.4v1.2
		h-5.6V37.2z M120,32.7l-1.6-5.1l-0.9-3.1l-2.6,8.1H120z"/>
	<path fill="#FFFFFF" d="M127.1,37.2l1.9-0.4V23.6l-1.7-0.2v-1.6h2.6c0.7,0,1.5,0,2.2-0.1c0.7,0,1.4-0.1,2-0.1
		c0.9,0,1.7,0.1,2.4,0.2s1.4,0.4,1.9,0.7c0.5,0.3,1,0.8,1.3,1.4s0.5,1.3,0.5,2.1c0,1.2-0.3,2.2-0.9,3.1s-1.5,1.4-2.7,1.8
		c0.3,0.2,0.6,0.4,0.9,0.7s0.6,0.7,0.8,1.1s0.5,0.8,0.8,1.3s0.5,0.9,0.7,1.3c0.2,0.4,0.4,0.7,0.7,1s0.4,0.5,0.6,0.6l1.3,0.4v1.2
		h-3.9c-0.2,0-0.3-0.1-0.5-0.3c-0.2-0.2-0.3-0.5-0.5-0.8c-0.2-0.3-0.4-0.7-0.5-1.1c-0.2-0.4-0.4-0.9-0.6-1.3
		c-0.2-0.4-0.4-0.9-0.6-1.3c-0.2-0.4-0.4-0.8-0.7-1.1c-0.2-0.3-0.5-0.6-0.7-0.8c-0.2-0.2-0.5-0.3-0.8-0.3l-1.5,0v5.4l2.1,0.4v1.2
		h-7.1V37.2z M132.1,29.9c0.1,0,0.3,0,0.5,0.1c0.2,0,0.4,0,0.6,0c0.2,0,0.4,0,0.6,0c0.2,0,0.4,0,0.5,0c0.4,0,0.8-0.1,1.1-0.2
		c0.4-0.1,0.7-0.3,1-0.6c0.3-0.3,0.5-0.6,0.7-1.1s0.2-1,0.2-1.7c0-0.4-0.1-0.9-0.2-1.3c-0.1-0.4-0.3-0.7-0.6-1
		c-0.3-0.3-0.6-0.5-1.1-0.7c-0.5-0.2-1-0.2-1.7-0.2c-0.3,0-0.6,0-0.8,0c-0.3,0-0.5,0.1-0.7,0.1V29.9z"/>
	<path fill="#FFFFFF" d="M145.7,37.2l2.5-0.4V23.3l-3.4,0.3l-0.7,2.1l-1.5,0.1l0.3-4h13.7l0,3.9l-1.2,0.1l-0.7-2.3l-3.3-0.3v13.5
		l2.6,0.4v1.2h-8.2V37.2z"/>
</g>
<g>
	<path fill="#FFFFFF" d="M187.1,62.5l1.2-0.9c-0.4-0.2-0.8-0.3-1.2-0.3c-1.5,0-2.6,1.2-2.6,2.6c0,0.4,0.1,0.8,0.3,1.2l0.9-1.2
		C185.7,63.1,186.4,62.5,187.1,62.5z"/>
	<path fill="#FFFFFF" d="M186.1,63.9c0,0.6,0.5,1,1,1s1-0.5,1-1c0-0.6-0.5-1-1-1S186.1,63.3,186.1,63.9z M187.7,63.9
		c0,0.3-0.3,0.6-0.6,0.6c-0.3,0-0.6-0.3-0.6-0.6c0-0.3,0.3-0.6,0.6-0.6C187.5,63.3,187.7,63.5,187.7,63.9z"/>
	<path fill="#FFFFFF" d="M188.6,63.9c0,0.8-0.6,1.4-1.4,1.4l-1.2,0.9c0.4,0.2,0.8,0.3,1.2,0.3c1.5,0,2.6-1.2,2.6-2.6
		c0-0.4-0.1-0.8-0.3-1.2L188.6,63.9z"/>
	<path fill="#FFFFFF" d="M193.4,73.2c0.9-0.4,1.8-0.9,2.4-1.5c0.7-0.6,1.2-1.2,1.6-1.9c0.4-0.6,0.7-1.4,0.9-2.2s0.3-1.6,0.4-2.2
		s0.1-1.4,0.1-2.2c0-1.9-0.3-3.5-0.9-4.9c-0.6-1.4-1.4-2.4-2.6-3.2s-2.4-1.4-3.9-1.8c-1.5-0.4-3.2-0.6-5.2-0.6h-8.7v39.6h8V74.1h1.3
		l4.5,18.2h8.3C197.8,87.1,195.8,80.7,193.4,73.2z M190.1,64.6c-0.1,0.5-0.3,0.9-0.6,1.2l0.7,1.1l-1.1-0.7c-0.4,0.3-0.8,0.5-1.2,0.6
		l-0.7,3.1l-0.7-3.1c-0.3-0.1-0.6-0.2-0.8-0.3l-4.5,3.5l3.5-4.5c-0.2-0.3-0.3-0.5-0.3-0.8l-3.1-0.7l3.1-0.7c0.1-0.5,0.3-0.9,0.6-1.2
		l-0.7-1.1l1.1,0.7c0.4-0.3,0.8-0.5,1.2-0.6l0.7-3.1l0.7,3.1c0.3,0.1,0.6,0.2,0.8,0.3l4.5-3.5l-3.5,4.5c0.2,0.3,0.3,0.5,0.3,0.8
		l3.1,0.7L190.1,64.6z"/>
</g>
<path fill="#FFFFFF" d="M72.7,52.7h-7.1l-8.6,39.6H65l1.5-8.5h5.2l1.6,8.5h7.9L72.7,52.7z M69.9,73.2V75c0,0.2,0,0.3-0.1,0.5
	l1.8,1.2l0,0.9l-2.3-0.9l-2.3,0.9l0-0.9l1.8-1.2c-0.1-0.1-0.1-0.3-0.1-0.5l0-1.8l-4.9,1.9l0-1.2l4.9-3.9l0-3.6
	c0-0.5,0.2-0.9,0.5-1.3c0.1-0.1,0.1-0.1,0.2-0.1c0.1,0,0.2,0,0.2,0.1c0.3,0.4,0.5,0.8,0.5,1.3l0,3.6l4.9,3.9l0,1.2L69.9,73.2z"/>
<g>
	<defs>
		<rect id="SVGID_1_" x="66.6" y="99.4" width="99" height="42.9"/>
	</defs>
	<clipPath id="SVGID_2_">
		<use xlink:href="#SVGID_1_"  overflow="visible"/>
	</clipPath>
	<g clip-path="url(#SVGID_2_)">
		<path fill="#FFFFFF" d="M117.6,51.7c-23.2,0-42,18.9-42,42c0,23.2,18.9,42,42,42c23.2,0,42-18.9,42-42
			C159.6,70.6,140.7,51.7,117.6,51.7z M151.8,100.6c0.8,0.8,1.1,1.5,1.3,2.3c-4.1,15.8-18.4,27.6-35.5,27.6
			c-6.3,0-12.3-1.6-17.5-4.4c0.1-0.2,0.1-0.5,0.2-0.7c0.3-1.5,2.6-2.2,3.6-3.2c1-1,2.9-1.6,3.5-2.8c0.4-0.8-0.2-1.9,0.2-2.7
			c0.3-0.6,1.2-1.2,1.7-1.7c1.1-1.1,2-4.1,2-5.6c-1.7,0-3.4,0-5.1,0c-1.6,0-1.3-1.9-1.3-3.1c0-0.6,0-1.4-0.3-2
			c-0.4-0.7-1.5-0.5-2.1-0.8c-1.1-0.5-1.9-1.6-2.2-2.8c-0.1-0.8-0.1-1.3-1.1-1.3c-1,0-1.9,0.8-2.8,0.8c-1.1,0-2.2,0-3.4,0
			c-2.5,0-5,0-7.5,0c0,0.4-0.2,1.7,0.1,1.9c0.9,0.5,1.8,0.9,2.8,1.4c1.4,0.7,1.8,2.4,2.4,3.7c0.7,1.3,1.4,2.6,2,4
			c0.7,1.7,1.2,3.5,2.5,4.9c0.5,0.6,1.6,0.4,1.8,1.2c0.3,1,0,2.2-0.2,3.1c-0.2,1.1-0.6,2.1-0.8,3.2c-7.6-5.5-13-13.7-14.7-23.3
			c0.5,0,1-0.1,1.3-0.1c1,0,1-0.1,1.7-0.8c0.6-0.6,1-0.8,1-1.7c0-1,0-2,0-3c1.2,0.6,2.4,1.2,3.7,1.8c0.1-1.5,1.1-1.7,2.3-1.9
			c1.4-0.2,2.4-1.8,3.7-1.8c1.1,0,1.6,0.2,2.6,0.5c0.5,0.2,1.2,0.4,1.8,0.2c0.8-0.2,0.6-1.6,0.8-2.2c0.4-0.9,1-2.1,2-2.2
			c1.1-0.1,2.6-0.6,1.3-1.8c-1.3-1.3-2.3-3-3.2-4.7c-0.4-0.7-0.5-1.8-1.1-2.3c-1.4-1.1-3.5,0.4-4.6,1.3c-0.6,0.5,0.3,1.8-0.5,2.1
			c-1.3,0.6-3.1,1-4.5,0.4c-0.8-0.4-1.2-1.2-2.1-1.4c-0.6-0.1-0.5-0.3-0.5-0.9c0-1.1,0-2.2,0-3.3c0-0.5,0.1-0.3,0.5-0.4
			c1.7-0.5,0.7-2.6,2.3-2.7c1.9,0,0-3.3-0.5-3.9c-0.3-0.4-0.6-0.5-0.9-0.6c6.7-8.4,17.1-13.8,28.7-13.8c10.6,0,20.1,4.5,26.8,11.6
			c-2,2.1-4.1,4.6-5.5,5.7c-1,0.7-2.3,1.2-3.4,1.7c-1.1,0.6-2.6,0.3-3.8,0.3c-0.3,0-4-0.1-4,0c0,1.1,0.5,3.3-0.5,3.9
			c-1.3,0.6-2.7,1.1-3.7,2.1c-0.3,0.3-1.5,1.1-1.1,1.4c0,0,0,0,0,0c-0.2-0.1-0.4-0.2-0.6-0.2c-1.4,0-3.2,0.1-4.5,0.9
			c-0.8,0.5-0.6,1.3-0.7,2.1c-0.1,0.9-0.4,1.9-1.1,2.6c-0.8,0.8-0.7,1-0.7,2.3c1.4-0.2,2.8-0.3,4.3-0.5c0.2,0,1.2,0,1.2-0.2
			c0-0.4-0.2-1.5,0-1.8c0.5-0.5,1.1-1.1,1.6-1.6c0.3-0.3,0.9,0.6,1.2,0.9c0.5,0.5,1,0.6,0.5,1.1c-0.5,0.5-1,1-1.5,1.5
			c0.2,0,1.8,0.1,1.8,0c0.1-1.4,0.9-2.7,1.8-3.6c1-1,2.4-1,3.5-0.1c0.4,0.4,0.2,1.5,0.2,2c0,0.3-0.1,3.7,0.1,3.7
			c0.8,0,1.5,0.2,2.1-0.3c2.1-1.8,4.9-1.4,6.9-3.3c0.6,1.2,1.2,2.4,1.8,3.7c-1.5,0.5-2.9,1-4.4,1.5c-0.1,0-1.1,0.4-1.1,0.3
			c-0.3-0.7-0.7-1.3-1.1-1.9c-0.6-0.8-0.7-0.1-0.6,0.6c0.2,1.2,0.9,2.3,1.7,3.1c0.8,0.9,1.3,2.6,1.9,3.7c-0.1-2.2,3.2,1.3,3.7,1.8
			c0.8-0.8,1.5-1.5,2.3-2.3c0.4-0.4,0.8-0.8,1.1-1.1c0.3-0.3,0-0.4-0.3-0.7c-1.3-1.8,2-1.3,3-1.3c1.9,0,3.3,0.5,4.7,1.8
			C149.6,98.2,151.4,100.2,151.8,100.6z"/>
		<path fill="#010101" d="M119.1,80c-0.4,0.4-0.8,0.8-1.2,1.2c-0.4,0.2-1.1,0.2-1.1,0.7c0,0.6-0.1,1.2-0.1,1.8
			c0.8-0.4,1.6-0.8,2.4-1.2C119.3,82.4,119.1,80.4,119.1,80z"/>
		<path fill="#010101" d="M122.7,78.2c0.5,0,1.2,0.3,1.2-0.3c0,0,0,0,0,0c0.1,0.2,0.2,0.3,0.5,0.3c-0.1,0.6-0.3,1.2-0.5,1.8
			c0.6-0.6,1.1-1.1,1.7-1.7c0.4-0.4,0.2-1.3,0.2-1.8c0-0.1,0-0.2,0-0.3c0-1.2,0-2.4,0-3.6c0,0.1-0.1,0.2-0.2,0.3
			c0-0.3,0-0.5-0.1-0.8c-0.1,0.4-0.1,0.9-0.2,1.3c-0.5,0.9-1.1,2.2-1.4,3.2c0-0.2,0-0.3,0-0.5c0-1.2,0-2.4,0-3.6
			C123.6,73.5,120.8,78.2,122.7,78.2z"/>
		<path fill="#FFFFFF" d="M139.1,107.4c1.2-0.2,2.3-1,3.2-1.8c-1.4-0.5-2.7-0.9-4.1-1.4c-1.5-0.5-1.5-0.7-2.3-2.1
			c-0.6-1.2-1-2-1.9-2.9c-0.7-0.7-2.8-2.1-2.8-3.1c0-1.5,0.3-1.5-1.1-1.5c-1.7,0-3.4,0-5.1,0c-2.8,0-5.6,0-8.4,0
			c-1.1,1.1-2.2,2.3-3,3.7c-1.4,2.4,0.4,3.6,1.9,5.3c1.7,1.8,1,5,4.2,5.5c1.1,0.2,2.4,0,3.5,0c0.1,0,2.6-0.4,2.4-0.8
			c0.3,0.5,0.1,1.8,0.2,2.4c0.2,1.3,0.5,2.6,0.8,3.9c0.3,1.5,0.9,3,0.9,4.6c0,1.6,1.7,2.6,2.8,3.7c0.4,0.4,0.7,0.9,1.3,0.9
			c1,0,2.1,0,3.1,0c0.5,0-0.4-6.3,1.2-7.1c0.5-0.2,1.4,0,1.7-0.5c0.2-0.4,0-0.8,0.2-1.2c0.5-0.9,1.5,0,1.6-1.5
			c0.1-1.2-0.1-3.6-1-4.5C137.4,108,137.7,107.6,139.1,107.4z"/>
		<path fill="#010101" d="M111.2,69.1c-0.9-0.9-1.9-1.8-3-2.5c-1.5-1-2.5-1.1-4.3-1.1c-0.8,0-1.7-0.1-2.5,0c-0.4,0-0.2,0.4-0.3,0.7
			c-0.6,1.6-3.2,3.5-4.5,4.8c1.8,0,2.7,3.6,3.4,5c0.4,0.8,0.3,1.6,0.3,2.5c0,1.3-0.1,1.5,0.8,2.4c0.9,0.9,0.8,1.3,1.7,0.4
			c0.9-0.9,1.8-1.8,2.7-2.7c0.6-0.6,0.3-1.5,0.3-2.3c0-1.2-0.4-1.6,0.8-1.6c0.9,0,1.8,0.1,2.5-0.5c0.6-0.5,1-1.1,1.8-1.2
			c0.8-0.2,2.6-0.5,2.3-1.9C112.9,70.3,111.6,69.5,111.2,69.1z"/>
	</g>
</g>
</svg>
